<?xml version="1.0" encoding="UTF-8" standalone="no"?>
<!-- Created with Inkscape (http://www.inkscape.org/) -->

<svg
   version="1.1"
   id="svg1"
   width="317.79868"
   height="206.17867"
   viewBox="0 0 317.79868 206.17867"
   sodipodi:docname="sdf-maths.pdf"
   xmlns:inkscape="http://www.inkscape.org/namespaces/inkscape"
   xmlns:sodipodi="http://sodipodi.sourceforge.net/DTD/sodipodi-0.dtd"
   xmlns="http://www.w3.org/2000/svg"
   xmlns:svg="http://www.w3.org/2000/svg">
  <defs
     id="defs1">
    <linearGradient
       x1="0"
       y1="0"
       x2="0"
       y2="100.00128"
       gradientUnits="userSpaceOnUse"
       id="linearGradient5">
      <stop
         style="stop-opacity:1;stop-color:#ffffff"
         offset="0"
         id="stop1" />
      <stop
         style="stop-opacity:1;stop-color:#ffffff"
         offset="0.25"
         id="stop2" />
      <stop
         style="stop-opacity:1;stop-color:#ffffff"
         offset="0.5"
         id="stop3" />
      <stop
         style="stop-opacity:1;stop-color:#ffffff"
         offset="0.75"
         id="stop4" />
      <stop
         style="stop-opacity:1;stop-color:#ffffff"
         offset="1"
         id="stop5" />
    </linearGradient>
    <clipPath
       clipPathUnits="userSpaceOnUse"
       id="clipPath6">
      <path
         d="m 107.71785,141.73404 c 0,4.6967 -3.80733,8.50403 -8.50403,8.50403 -4.6967,0 -8.50402,-3.80733 -8.50402,-8.50403 0,-4.6967 3.80732,-8.50403 8.50402,-8.50403 4.6967,0 8.50403,3.80733 8.50403,8.50403 z"
         transform="matrix(1.3333333,0,0,-1.3333333,-25.021333,268.99467)"
         id="path6" />
    </clipPath>
    <linearGradient
       x1="0"
       y1="0"
       x2="0"
       y2="100.00128"
       gradientUnits="userSpaceOnUse"
       id="linearGradient12">
      <stop
         style="stop-opacity:1;stop-color:#ffffff"
         offset="0"
         id="stop8" />
      <stop
         style="stop-opacity:1;stop-color:#ffffff"
         offset="0.25"
         id="stop9" />
      <stop
         style="stop-opacity:1;stop-color:#ffffff"
         offset="0.5"
         id="stop10" />
      <stop
         style="stop-opacity:1;stop-color:#ffffff"
         offset="0.75"
         id="stop11" />
      <stop
         style="stop-opacity:1;stop-color:#ffffff"
         offset="1"
         id="stop12" />
    </linearGradient>
    <clipPath
       clipPathUnits="userSpaceOnUse"
       id="clipPath13">
      <path
         d="m 37.72849,56.69362 c 0,5.18143 -4.20026,9.38168 -9.38169,9.38168 -5.18143,0 -9.38168,-4.20025 -9.38168,-9.38168 0,-5.18143 4.20025,-9.3817 9.38168,-9.3817 5.18143,0 9.38169,4.20027 9.38169,9.3817 z"
         transform="matrix(1.3333333,0,0,-1.3333333,-25.021333,268.99467)"
         id="path13" />
    </clipPath>
    <linearGradient
       x1="0"
       y1="0"
       x2="0"
       y2="100.00128"
       gradientUnits="userSpaceOnUse"
       id="linearGradient19">
      <stop
         style="stop-opacity:1;stop-color:#ffffff"
         offset="0"
         id="stop15" />
      <stop
         style="stop-opacity:1;stop-color:#ffffff"
         offset="0.25"
         id="stop16" />
      <stop
         style="stop-opacity:1;stop-color:#ffffff"
         offset="0.5"
         id="stop17" />
      <stop
         style="stop-opacity:1;stop-color:#ffffff"
         offset="0.75"
         id="stop18" />
      <stop
         style="stop-opacity:1;stop-color:#ffffff"
         offset="1"
         id="stop19" />
    </linearGradient>
    <clipPath
       clipPathUnits="userSpaceOnUse"
       id="clipPath20">
      <path
         d="m 93.54445,70.867 c 0,4.6967 -3.80733,8.50405 -8.50403,8.50405 -4.6967,0 -8.50403,-3.80735 -8.50403,-8.50405 0,-4.69668 3.80733,-8.50402 8.50403,-8.50402 4.6967,0 8.50403,3.80734 8.50403,8.50402 z"
         transform="matrix(1.3333333,0,0,-1.3333333,-25.021333,268.99467)"
         id="path20" />
    </clipPath>
    <linearGradient
       x1="0"
       y1="0"
       x2="0"
       y2="100.00128"
       gradientUnits="userSpaceOnUse"
       id="linearGradient26">
      <stop
         style="stop-opacity:1;stop-color:#ffffff"
         offset="0"
         id="stop22" />
      <stop
         style="stop-opacity:1;stop-color:#ffffff"
         offset="0.25"
         id="stop23" />
      <stop
         style="stop-opacity:1;stop-color:#ffffff"
         offset="0.5"
         id="stop24" />
      <stop
         style="stop-opacity:1;stop-color:#ffffff"
         offset="0.75"
         id="stop25" />
      <stop
         style="stop-opacity:1;stop-color:#ffffff"
         offset="1"
         id="stop26" />
    </linearGradient>
    <clipPath
       clipPathUnits="userSpaceOnUse"
       id="clipPath27">
      <path
         d="m 136.06467,113.38724 c 0,4.69668 -3.80735,8.50403 -8.50405,8.50403 -4.69668,0 -8.50402,-3.80735 -8.50402,-8.50403 0,-4.6967 3.80734,-8.50404 8.50402,-8.50404 4.6967,0 8.50405,3.80734 8.50405,8.50404 z"
         transform="matrix(1.3333333,0,0,-1.3333333,-25.021333,268.99467)"
         id="path27" />
    </clipPath>
  </defs>
  <sodipodi:namedview
     id="namedview1"
     pagecolor="#ffffff"
     bordercolor="#000000"
     borderopacity="0.25"
     inkscape:showpageshadow="2"
     inkscape:pageopacity="0.0"
     inkscape:pagecheckerboard="0"
     inkscape:deskcolor="#d1d1d1">
    <inkscape:page
       x="0"
       y="0"
       inkscape:label="1"
       id="page1"
       width="317.79868"
       height="206.17867"
       margin="0"
       bleed="0" />
  </sodipodi:namedview>
  <g
     id="g1"
     inkscape:groupmode="layer"
     inkscape:label="1">
    <g
       id="g5"
       clip-path="url(#clipPath6)">
      <path
         d="M 0,0 H 100 V 100 H 0 Z"
         transform="matrix(0.4536,0,0,-0.4536,84.583733,102.69595)"
         style="fill:url(#linearGradient5);stroke:none"
         id="path5" />
    </g>
    <path
       id="path7"
       d="m 107.71785,141.73404 c 0,4.6967 -3.80733,8.50403 -8.50403,8.50403 -4.6967,0 -8.50402,-3.80733 -8.50402,-8.50403 0,-4.6967 3.80732,-8.50403 8.50402,-8.50403 4.6967,0 8.50403,3.80733 8.50403,8.50403 z"
       style="fill:none;stroke:#000000;stroke-width:0.3985;stroke-linecap:butt;stroke-linejoin:miter;stroke-miterlimit:10;stroke-dasharray:none;stroke-opacity:1"
       transform="matrix(1.3333333,0,0,-1.3333333,-25.021333,268.99467)" />
    <path
       id="path8"
       d="m 3.7276484,-0.76315625 c 0,0.3046875 0,0.76171875 1.03125,0.76171875 h 0.4804688 c 0.1992187,0 0.3164062,0 0.3164062,-0.234375 0,-0.234375 -0.1289062,-0.234375 -0.2578125,-0.234375 -0.609375,-0.0117188 -0.609375,-0.140625 -0.609375,-0.36328125 V -2.978 c 0,-0.890625 -0.703125,-1.5351562 -2.1914062,-1.5351562 -0.5625,0 -1.78125001,0.035156 -1.78125001,0.9140625 0,0.4453125 0.35156251,0.6328125 0.62109371,0.6328125 0.3046875,0 0.6210938,-0.2109375 0.6210938,-0.6328125 0,-0.2929688 -0.1875,-0.46875 -0.2109375,-0.4921875 0.28125,-0.058594 0.5976562,-0.058594 0.7148437,-0.058594 0.75,0 1.0898438,0.4101563 1.0898438,1.171875 v 0.3398438 c -0.703125,0.023437 -3.23437501,0.1171875 -3.23437501,1.5585937 0,0.9609375 1.24218751,1.13671875 1.92187501,1.13671875 0.796875,0 1.265625,-0.41015625 1.4882812,-0.8203123 z M 3.5518672,-2.3334687 V -1.38425 c 0,0.94921875 -0.9140625,1.078125 -1.1601563,1.078125 -0.5039062,0 -0.9023437,-0.33984375 -0.9023437,-0.7851562 0,-1.0664063 1.5703125,-1.2070313 2.0625,-1.2421875 z m 0,0"
       style="fill:#000000;fill-opacity:1;fill-rule:nonzero;stroke:none"
       aria-label="a"
       transform="matrix(1.3333333,0,0,1.3333333,103.54933,82.970667)" />
    <g
       id="g12"
       clip-path="url(#clipPath13)">
      <path
         d="M 0,0 H 100 V 100 H 0 Z"
         transform="matrix(0.5004,0,0,-0.5004,-12.245613,218.42317)"
         style="fill:url(#linearGradient12);stroke:none"
         id="path12" />
    </g>
    <path
       id="path14"
       d="m 37.72849,56.69362 c 0,5.18143 -4.20026,9.38168 -9.38169,9.38168 -5.18143,0 -9.38168,-4.20025 -9.38168,-9.38168 0,-5.18143 4.20025,-9.3817 9.38168,-9.3817 5.18143,0 9.38169,4.20027 9.38169,9.3817 z"
       style="fill:none;stroke:#000000;stroke-width:0.3985;stroke-linecap:butt;stroke-linejoin:miter;stroke-miterlimit:10;stroke-dasharray:none;stroke-opacity:1"
       transform="matrix(1.3333333,0,0,-1.3333333,-25.021333,268.99467)" />
    <path
       id="path15"
       d="m 2.13325,-3.996375 v -2.9179687 l -1.76953125,0.082031 v 0.46875 c 0.62109375,0 0.69140625,0 0.69140625,0.3867188 v 5.97656245 h 0.46875 l 0.4921875,-0.5625 c 0.082031,0.0820313 0.5625,0.62109375 1.453125,0.62109375 1.4765625,0 2.5078125,-0.890625 2.5078125,-2.2851562 0,-1.3242188 -0.9375,-2.2617188 -2.3789063,-2.2617188 -0.7265625,0 -1.2304687,0.2929688 -1.4648437,0.4921877 z m 0.058594,3.01171875 V -3.4924687 c 0.2695313,-0.3398438 0.75,-0.6328125 1.3007813,-0.6328125 1.2070312,0 1.2070312,1.2070312 1.2070312,1.8984375 0,0.46875 0,1.0195312 -0.2578125,1.40624995 -0.2929687,0.41015625 -0.75,0.515625 -1.0664062,0.515625 -0.6914063,0 -1.078125,-0.52734375 -1.1835938,-0.6796875 z m 0,0"
       style="fill:#000000;fill-opacity:1;fill-rule:nonzero;stroke:none"
       aria-label="b"
       transform="matrix(1.3333333,0,0,1.3333333,8.5306667,198.016)" />
    <g
       id="g19"
       clip-path="url(#clipPath20)">
      <path
         d="M 0,0 H 100 V 100 H 0 Z"
         transform="matrix(0.4536,0,0,-0.4536,65.685893,197.18533)"
         style="fill:url(#linearGradient19);stroke:none"
         id="path19" />
    </g>
    <path
       id="path21"
       d="m 93.54445,70.867 c 0,4.6967 -3.80733,8.50405 -8.50403,8.50405 -4.6967,0 -8.50403,-3.80735 -8.50403,-8.50405 0,-4.69668 3.80733,-8.50402 8.50403,-8.50402 4.6967,0 8.50403,3.80734 8.50403,8.50402 z"
       style="fill:none;stroke:#000000;stroke-width:0.3985;stroke-linecap:butt;stroke-linejoin:miter;stroke-miterlimit:10;stroke-dasharray:none;stroke-opacity:1"
       transform="matrix(1.3333333,0,0,-1.3333333,-25.021333,268.99467)" />
    <path
       id="path22"
       d="m 3.5845,-4.0559141 c -0.1757813,0.1640625 -0.1992188,0.3632813 -0.1992188,0.4570313 0,0.4453125 0.3515625,0.6328125 0.6210938,0.6328125 0.3046875,0 0.6210937,-0.2109375 0.6210937,-0.6328125 0,-0.8554688 -1.1484375,-0.9140625 -1.734375,-0.9140625 -1.78125,0 -2.5195312,1.1484375 -2.5195312,2.296875 0,1.32421874 0.9375,2.27343749 2.4726562,2.27343749 1.6171875,0 1.9101563,-1.16015629 1.9101563,-1.21874999 0,-0.140625 -0.140625,-0.140625 -0.234375,-0.140625 -0.1757813,0 -0.1875,0.011719 -0.234375,0.140625 -0.2695313,0.63281249 -0.7382813,0.82031249 -1.2539063,0.82031249 -1.3828125,0 -1.3828125,-1.46484379 -1.3828125,-1.92187499 0,-0.5625 0,-1.8515625 1.2890625,-1.8515625 0.3515625,0 0.515625,0.023437 0.6445313,0.058594 z m 0,0"
       style="fill:#000000;fill-opacity:1;fill-rule:nonzero;stroke:none"
       aria-label="c"
       transform="matrix(1.3333333,0,0,1.3333333,84.970667,177.45867)" />
    <g
       id="g26"
       clip-path="url(#clipPath27)">
      <path
         d="M 0,0 H 100 V 100 H 0 Z"
         transform="matrix(0.4536,0,0,-0.4536,122.37949,140.49171)"
         style="fill:url(#linearGradient26);stroke:none"
         id="path26" />
    </g>
    <path
       id="path28"
       d="m 136.06467,113.38724 c 0,4.69668 -3.80735,8.50403 -8.50405,8.50403 -4.69668,0 -8.50402,-3.80735 -8.50402,-8.50403 0,-4.6967 3.80734,-8.50404 8.50402,-8.50404 4.6967,0 8.50405,3.80734 8.50405,8.50404 z"
       style="fill:none;stroke:#000000;stroke-width:0.3985;stroke-linecap:butt;stroke-linejoin:miter;stroke-miterlimit:10;stroke-dasharray:none;stroke-opacity:1"
       transform="matrix(1.3333333,0,0,-1.3333333,-25.021333,268.99467)" />
    <path
       id="path29"
       d="m 5.4020547,-2.16775 c 0,-1.3359375 -0.9140625,-2.34375 -2.5429688,-2.34375 -1.6289062,0 -2.54296871,1.0195313 -2.54296871,2.34375 0,1.23046875 0.87890621,2.2265625 2.54296871,2.2265625 1.6757813,0 2.5429688,-1.0078125 2.5429688,-2.2265625 z m -2.5429688,1.828125 c -1.265625,0 -1.265625,-1.078125 -1.265625,-1.9453125 0,-0.4453125 0,-0.9492187 0.1640625,-1.2890625 0.1992188,-0.375 0.609375,-0.5742187 1.1015625,-0.5742187 0.421875,0 0.8320313,0.1523437 1.0546875,0.5039062 0.2109375,0.3398438 0.2109375,0.890625 0.2109375,1.359375 0,0.8671875 0,1.9453125 -1.265625,1.9453125 z m 0,0"
       style="fill:#000000;fill-opacity:1;fill-rule:nonzero;stroke:none"
       aria-label="o"
       transform="matrix(1.3333333,0,0,1.3333333,141.23867,120.76533)" />
    <g
       id="g29"
       aria-label="ˆ&#10;e&#10;1&#10;=&#10;d&#10;b−a&#10;ˆ&#10;e&#10;2&#10;=&#10;d&#10;c−a&#10;ˆ&#10;e&#10;3&#10;=&#10;ˆ&#10;e&#10;1&#10;×&#10;ˆ&#10;e&#10;2&#10;ˆ&#10;e&#10;4&#10;=&#10;ˆ&#10;e&#10;1&#10;×&#10;ˆ&#10;e&#10;3&#10;R=&#10;&#10;&#10;ˆ&#10;e&#10;1x&#10;ˆ&#10;e&#10;3x&#10;ˆ&#10;e&#10;4x&#10;ˆ&#10;e&#10;1y&#10;ˆ&#10;e&#10;3y&#10;ˆ&#10;e&#10;4y&#10;ˆ&#10;e&#10;1z&#10;ˆ&#10;e&#10;3z&#10;ˆ&#10;e&#10;4z&#10;&#10;&#10;f(v)=Rv+o"
       transform="matrix(1.3333333,0,0,1.3333333,182.096,34.912)">
      <path
         id="path30"
         d="m 2.4973359,-6.9154453 -1.3359375,1.359375 0.1757813,0.1757812 1.1601562,-1.0195312 1.1367188,1.0195312 0.1875,-0.1757812 z m 0,0"
         style="fill:#000000;fill-opacity:1;fill-rule:nonzero;stroke:none" />
      <path
         id="path31"
         d="m 1.9641328,-2.0287266 c 0.2109375,0 0.3164063,0 0.3164063,-0.2695312 0,-0.3164063 -0.058594,-1.0429688 -0.5625,-1.5351563 -0.3632813,-0.3632812 -0.89062504,-0.5390625 -1.58203129,-0.5390625 -1.59375001,0 -2.46093751,1.0195313 -2.46093751,2.2734375 0,1.33593754 0.9960938,2.29687504 2.60156251,2.29687504 1.57031249,0 2.00390629,-1.0546875 2.00390629,-1.21875004 0,-0.1875 -0.1875,-0.1875 -0.234375,-0.1875 -0.1757813,0 -0.1992188,0.046875 -0.2578125,0.21093754 -0.2109375,0.48046875 -0.7734375,0.796875 -1.41796879,0.796875 -1.40625001,0 -1.41796871,-1.32421874 -1.41796871,-1.82812504 z m -3.0117187,-0.328125 c 0.023437,-0.3984375 0.035156,-0.8085937 0.23437496,-1.1367187 0.26953125,-0.3984375 0.66796875,-0.515625 0.94921875,-0.515625 1.17187499,0 1.18359379,1.3007812 1.19531249,1.6523437 z m 0,0"
         style="fill:#000000;fill-opacity:1;fill-rule:nonzero;stroke:none" />
      <path
         id="path32"
         d="m 5.3889375,-2.6908359 c 0,-0.2460938 -0.046875,-0.2460938 -0.3398438,-0.2460938 C 4.6155,-2.5970859 4.053,-2.4916172 3.4905,-2.4916172 H 3.3264375 v 0.3867188 H 3.4905 c 0.28125,0 0.703125,-0.046875 0.9960937,-0.140625 V 1.2466641 H 3.3850312 V 1.6333828 C 3.724875,1.6099453 4.568625,1.6099453 4.943625,1.6099453 c 0.2460937,0 0.5039062,0 0.75,0 0.2109375,0 0.5742187,0.011719 0.7734375,0.023437 V 1.2466641 h -1.078125 z m 0,0"
         style="fill:#000000;fill-opacity:1;fill-rule:nonzero;stroke:none" />
      <path
         id="path33"
         d="m 17.233664,-3.1185703 c 0.152344,0 0.339844,0 0.339844,-0.1992188 0,-0.1992187 -0.1875,-0.1992187 -0.328125,-0.1992187 h -5.964844 c -0.140625,0 -0.328125,0 -0.328125,0.1992187 0,0.1992188 0.1875,0.1992188 0.339844,0.1992188 z m 0.01172,1.9335937 c 0.140625,0 0.328125,0 0.328125,-0.1992187 0,-0.1992188 -0.1875,-0.1992188 -0.339844,-0.1992188 h -5.941406 c -0.152344,0 -0.339844,0 -0.339844,0.1992188 0,0.1992187 0.1875,0.1992187 0.328125,0.1992187 z m 0,0"
         style="fill:#000000;fill-opacity:1;fill-rule:nonzero;stroke:none" />
      <path
         id="path34"
         d="m 40.108664,-8.2220859 0.05859,-0.234375 -7.21875,-1.7226561 -7.21875,1.7226561 0.07031,0.234375 7.160157,-1.3710938 z m 0,0"
         style="fill:#000000;fill-opacity:1;fill-rule:nonzero;stroke:none" />
      <path
         id="path35"
         d="m 23.037375,-3.8568516 v -2.9179687 l -1.769531,0.082031 v 0.46875 c 0.621093,0 0.691406,0 0.691406,0.3867188 V 0.13924219 H 22.428 l 0.492187,-0.5625 c 0.08203,0.0820313 0.5625,0.62109375 1.453125,0.62109375 1.476563,0 2.507813,-0.890625 2.507813,-2.28515624 0,-1.3242188 -0.9375,-2.2617188 -2.378906,-2.2617188 -0.726563,0 -1.230469,0.2929688 -1.464844,0.4921875 z m 0.05859,3.01171879 V -3.3529453 c 0.269531,-0.3398438 0.75,-0.6328125 1.300781,-0.6328125 1.207031,0 1.207031,1.2070312 1.207031,1.8984375 0,0.46875 0,1.0195312 -0.257812,1.40624999 -0.292969,0.41015625 -0.75,0.515625 -1.066407,0.515625 -0.691406,0 -1.078125,-0.52734375 -1.183593,-0.6796875 z m 0,0"
         style="fill:#000000;fill-opacity:1;fill-rule:nonzero;stroke:none" />
      <path
         id="path36"
         d="m 36.048117,-2.1576328 c 0.175781,0 0.351563,0 0.351563,-0.1992188 0,-0.1992187 -0.175782,-0.1992187 -0.351563,-0.1992187 h -5.390625 c -0.164062,0 -0.339844,0 -0.339844,0.1992187 0,0.1992188 0.175782,0.1992188 0.339844,0.1992188 z m 0,0"
         style="fill:#000000;fill-opacity:1;fill-rule:nonzero;stroke:none" />
      <path
         id="path37"
         d="m 43.173117,-0.62247656 c 0,0.3046875 0,0.76171875 1.03125,0.76171875 h 0.480469 c 0.199219,0 0.316406,0 0.316406,-0.234375 0,-0.234375 -0.128906,-0.234375 -0.257812,-0.234375 -0.609375,-0.0117188 -0.609375,-0.140625 -0.609375,-0.36328125 V -2.8373203 c 0,-0.890625 -0.703125,-1.5351563 -2.191407,-1.5351563 -0.5625,0 -1.78125,0.035156 -1.78125,0.9140625 0,0.4453125 0.351563,0.6328125 0.621094,0.6328125 0.304688,0 0.621094,-0.2109375 0.621094,-0.6328125 0,-0.2929687 -0.1875,-0.46875 -0.210938,-0.4921875 0.28125,-0.058594 0.597657,-0.058594 0.714844,-0.058594 0.75,0 1.089844,0.4101562 1.089844,1.171875 v 0.3398437 c -0.703125,0.023437 -3.234375,0.1171875 -3.234375,1.55859379 0,0.9609375 1.242187,1.13671875 1.921875,1.13671875 0.796875,0 1.265625,-0.41015625 1.488281,-0.8203122 z M 42.997336,-2.1927891 v 0.9492188 c 0,0.94921874 -0.914063,1.07812499 -1.160156,1.07812499 -0.503907,0 -0.902344,-0.33984375 -0.902344,-0.78515625 0,-1.06640624 1.570312,-1.20703124 2.0625,-1.24218754 z m 0,0"
         style="fill:#000000;fill-opacity:1;fill-rule:nonzero;stroke:none" />
      <path
         id="path38"
         d="m 2.4973359,9.6519375 -1.3359375,1.3593755 0.1757813,0.175781 1.1601562,-1.019531 1.1367188,1.019531 0.1875,-0.175781 z m 0,0"
         style="fill:#000000;fill-opacity:1;fill-rule:nonzero;stroke:none" />
      <path
         id="path39"
         d="m 1.9641328,14.535727 c 0.2109375,0 0.3164063,0 0.3164063,-0.269532 0,-0.316406 -0.058594,-1.042968 -0.5625,-1.535156 -0.3632813,-0.363281 -0.89062504,-0.539062 -1.58203129,-0.539062 -1.59375001,0 -2.46093751,1.019531 -2.46093751,2.273437 0,1.335938 0.9960938,2.296875 2.60156251,2.296875 1.57031249,0 2.00390629,-1.054687 2.00390629,-1.21875 0,-0.1875 -0.1875,-0.1875 -0.234375,-0.1875 -0.1757813,0 -0.1992188,0.04687 -0.2578125,0.210938 -0.2109375,0.480468 -0.7734375,0.796875 -1.41796879,0.796875 -1.40625001,0 -1.41796871,-1.324219 -1.41796871,-1.828125 z m -3.0117187,-0.328125 c 0.023437,-0.398438 0.035156,-0.808594 0.23437496,-1.136719 0.26953125,-0.398438 0.66796875,-0.515625 0.94921875,-0.515625 1.17187499,0 1.18359379,1.300781 1.19531249,1.652344 z m 0,0"
         style="fill:#000000;fill-opacity:1;fill-rule:nonzero;stroke:none" />
      <path
         id="path40"
         d="M 6.6428437,16.604086 H 6.1975312 c -0.011719,0.08203 -0.070312,0.585937 -0.1992187,0.609375 -0.140625,0.02344 -0.5625,0.02344 -0.7265625,0.02344 H 4.3225312 c 0.3867188,-0.28125 0.7734375,-0.5625 1.171875,-0.820312 0.5742188,-0.363281 1.1484375,-0.738281 1.1484375,-1.429688 0,-0.84375 -0.7851562,-1.359375 -1.8984375,-1.359375 -0.9492187,0 -1.6640625,0.363282 -1.6640625,1.03125 0,0.398438 0.328125,0.550782 0.5390625,0.550782 0.2578125,0 0.5507813,-0.175782 0.5507813,-0.550782 0,-0.328125 -0.2578125,-0.46875 -0.28125,-0.480468 0.2460937,-0.152344 0.5742187,-0.164063 0.65625,-0.164063 0.5859375,0 1.0546875,0.375 1.0546875,0.972656 0,0.539063 -0.3632813,0.984375 -0.7617188,1.347657 l -1.6640625,1.464843 c -0.082031,0.08203 -0.09375,0.09375 -0.09375,0.234375 v 0.164063 h 3.328125 z m 0,0"
         style="fill:#000000;fill-opacity:1;fill-rule:nonzero;stroke:none" />
      <path
         id="path41"
         d="m 17.233664,13.445883 c 0.152344,0 0.339844,0 0.339844,-0.199219 0,-0.199219 -0.1875,-0.199219 -0.328125,-0.199219 h -5.964844 c -0.140625,0 -0.328125,0 -0.328125,0.199219 0,0.199219 0.1875,0.199219 0.339844,0.199219 z m 0.01172,1.933594 c 0.140625,0 0.328125,0 0.328125,-0.199219 0,-0.199219 -0.1875,-0.199219 -0.339844,-0.199219 h -5.941406 c -0.152344,0 -0.339844,0 -0.339844,0.199219 0,0.199219 0.1875,0.199219 0.328125,0.199219 z m 0,0"
         style="fill:#000000;fill-opacity:1;fill-rule:nonzero;stroke:none" />
      <path
         id="path42"
         d="m 39.472922,9.4527188 0.05859,-0.234375 -7.21875,-1.7226563 -7.21875,1.7226563 0.07031,0.234375 7.160156,-1.3710938 z m 0,0"
         style="fill:#000000;fill-opacity:1;fill-rule:nonzero;stroke:none" />
      <path
         id="path43"
         d="m 24.4905,12.649008 c -0.175781,0.164062 -0.199219,0.363281 -0.199219,0.457031 0,0.445313 0.351563,0.632813 0.621094,0.632813 0.304687,0 0.621094,-0.210938 0.621094,-0.632813 0,-0.855469 -1.148438,-0.914062 -1.734375,-0.914062 -1.78125,0 -2.519532,1.148437 -2.519532,2.296875 0,1.324218 0.9375,2.273437 2.472657,2.273437 1.617187,0 1.910156,-1.160156 1.910156,-1.21875 0,-0.140625 -0.140625,-0.140625 -0.234375,-0.140625 -0.175781,0 -0.1875,0.01172 -0.234375,0.140625 -0.269531,0.632813 -0.738281,0.820313 -1.253906,0.820313 -1.382813,0 -1.382813,-1.464844 -1.382813,-1.921875 0,-0.5625 0,-1.851563 1.289063,-1.851563 0.351562,0 0.515625,0.02344 0.644531,0.05859 z m 0,0"
         style="fill:#000000;fill-opacity:1;fill-rule:nonzero;stroke:none" />
      <path
         id="path44"
         d="m 34.773703,14.40682 c 0.175781,0 0.351563,0 0.351563,-0.199218 0,-0.199219 -0.175782,-0.199219 -0.351563,-0.199219 h -5.390625 c -0.164062,0 -0.339844,0 -0.339844,0.199219 0,0.199218 0.175782,0.199218 0.339844,0.199218 z m 0,0"
         style="fill:#000000;fill-opacity:1;fill-rule:nonzero;stroke:none" />
      <path
         id="path45"
         d="m 41.901633,15.941977 c 0,0.304687 0,0.761718 1.03125,0.761718 h 0.480469 c 0.199218,0 0.316406,0 0.316406,-0.234375 0,-0.234375 -0.128906,-0.234375 -0.257813,-0.234375 C 42.86257,16.223227 42.86257,16.09432 42.86257,15.871664 v -2.144531 c 0,-0.890625 -0.703125,-1.535156 -2.191406,-1.535156 -0.5625,0 -1.78125,0.03516 -1.78125,0.914062 0,0.445313 0.351563,0.632813 0.621094,0.632813 0.304687,0 0.621094,-0.210938 0.621094,-0.632813 0,-0.292969 -0.1875,-0.46875 -0.210938,-0.492187 0.28125,-0.05859 0.597656,-0.05859 0.714844,-0.05859 0.75,0 1.089844,0.410156 1.089844,1.171875 v 0.339844 c -0.703125,0.02344 -3.234375,0.117187 -3.234375,1.558593 0,0.960938 1.242187,1.136719 1.921875,1.136719 0.796875,0 1.265625,-0.410156 1.488281,-0.820312 z m -0.175781,-1.570313 v 0.949219 c 0,0.949219 -0.914063,1.078125 -1.160157,1.078125 -0.503906,0 -0.902343,-0.339844 -0.902343,-0.785156 0,-1.066407 1.570312,-1.207032 2.0625,-1.242188 z m 0,0"
         style="fill:#000000;fill-opacity:1;fill-rule:nonzero;stroke:none" />
      <path
         id="path46"
         d="m 2.4973359,24.596273 -1.3359375,1.359375 0.1757813,0.175782 1.1601562,-1.019532 1.1367188,1.019532 0.1875,-0.175782 z m 0,0"
         style="fill:#000000;fill-opacity:1;fill-rule:nonzero;stroke:none" />
      <path
         id="path47"
         d="m 1.9641328,29.480063 c 0.2109375,0 0.3164063,0 0.3164063,-0.269532 0,-0.316406 -0.058594,-1.042968 -0.5625,-1.535156 -0.3632813,-0.363281 -0.89062504,-0.539062 -1.58203129,-0.539062 -1.59375001,0 -2.46093751,1.019531 -2.46093751,2.273437 0,1.335938 0.9960938,2.296875 2.60156251,2.296875 1.57031249,0 2.00390629,-1.054687 2.00390629,-1.21875 0,-0.1875 -0.1875,-0.1875 -0.234375,-0.1875 -0.1757813,0 -0.1992188,0.04687 -0.2578125,0.210938 -0.2109375,0.480468 -0.7734375,0.796875 -1.41796879,0.796875 -1.40625001,0 -1.41796871,-1.324219 -1.41796871,-1.828125 z m -3.0117187,-0.328125 c 0.023437,-0.398438 0.035156,-0.808594 0.23437496,-1.136719 0.26953125,-0.398438 0.66796875,-0.515625 0.94921875,-0.515625 1.17187499,0 1.18359379,1.300781 1.19531249,1.652344 z m 0,0"
         style="fill:#000000;fill-opacity:1;fill-rule:nonzero;stroke:none" />
      <path
         id="path48"
         d="m 4.7209687,30.880453 c 0.8203125,0 0.8554688,0.621094 0.8554688,0.996094 0,0.292969 0,0.996094 -0.8320313,0.996094 -0.1875,0 -0.6210937,-0.03516 -0.9257812,-0.222657 0.140625,-0.07031 0.328125,-0.222656 0.328125,-0.527343 0,-0.316407 -0.234375,-0.5625 -0.5625,-0.5625 -0.3515625,0 -0.5742188,0.246093 -0.5742188,0.574218 0,0.703125 0.7734375,1.089844 1.7578125,1.089844 1.4648438,0 1.9453125,-0.761719 1.9453125,-1.347656 0,-0.539063 -0.421875,-1.019531 -1.21875,-1.183594 0.5039063,-0.1875 0.9726563,-0.550781 0.9726563,-1.136719 0,-0.539062 -0.5625,-0.984375 -1.6757813,-0.984375 -0.9492187,0 -1.5351562,0.46875 -1.5351562,1.042969 0,0.351563 0.2578125,0.539063 0.5273437,0.539063 0.3515625,0 0.5273438,-0.257813 0.5273438,-0.527344 0,-0.351563 -0.28125,-0.480469 -0.3515625,-0.503906 0.2929687,-0.210938 0.65625,-0.234375 0.796875,-0.234375 0.6914062,0 0.6914062,0.457031 0.6914062,0.644531 0,0.328125 -0.140625,0.960937 -0.84375,0.996094 -0.1757812,0.01172 -0.3515625,0.02344 -0.3867187,0.03516 -0.09375,0.02344 -0.09375,0.105469 -0.09375,0.152344 0,0.164062 0.09375,0.164062 0.2226562,0.164062 z m 0,0"
         style="fill:#000000;fill-opacity:1;fill-rule:nonzero;stroke:none" />
      <path
         id="path49"
         d="m 17.233664,28.390219 c 0.152344,0 0.339844,0 0.339844,-0.199219 0,-0.199219 -0.1875,-0.199219 -0.328125,-0.199219 h -5.964844 c -0.140625,0 -0.328125,0 -0.328125,0.199219 0,0.199219 0.1875,0.199219 0.339844,0.199219 z m 0.01172,1.933594 c 0.140625,0 0.328125,0 0.328125,-0.199219 0,-0.199219 -0.1875,-0.199219 -0.339844,-0.199219 h -5.941406 c -0.152344,0 -0.339844,0 -0.339844,0.199219 0,0.199219 0.1875,0.199219 0.328125,0.199219 z m 8.797851,-5.72754 -1.335937,1.359375 0.175781,0.175782 1.160156,-1.019532 1.136719,1.019532 0.1875,-0.175782 z m 0,0"
         style="fill:#000000;fill-opacity:1;fill-rule:nonzero;stroke:none" />
      <path
         id="path50"
         d="m 25.510031,29.480063 c 0.210938,0 0.316406,0 0.316406,-0.269532 0,-0.316406 -0.05859,-1.042968 -0.5625,-1.535156 -0.363281,-0.363281 -0.890625,-0.539062 -1.582031,-0.539062 -1.59375,0 -2.460937,1.019531 -2.460937,2.273437 0,1.335938 0.996093,2.296875 2.601562,2.296875 1.570313,0 2.003906,-1.054687 2.003906,-1.21875 0,-0.1875 -0.1875,-0.1875 -0.234375,-0.1875 -0.175781,0 -0.199218,0.04687 -0.257812,0.210938 -0.210938,0.480468 -0.773438,0.796875 -1.417969,0.796875 -1.40625,0 -1.417969,-1.324219 -1.417969,-1.828125 z m -3.011719,-0.328125 c 0.02344,-0.398438 0.03516,-0.808594 0.234375,-1.136719 0.269532,-0.398438 0.667969,-0.515625 0.949219,-0.515625 1.171875,0 1.183594,1.300781 1.195313,1.652344 z m 0,0"
         style="fill:#000000;fill-opacity:1;fill-rule:nonzero;stroke:none" />
      <path
         id="path51"
         d="m 28.934836,28.817953 c 0,-0.246094 -0.04687,-0.246094 -0.339844,-0.246094 -0.433594,0.339844 -0.996094,0.445313 -1.558594,0.445313 h -0.164062 v 0.386719 h 0.164062 c 0.28125,0 0.703125,-0.04687 0.996094,-0.140625 v 3.492187 H 26.93093 v 0.386719 c 0.339843,-0.02344 1.183593,-0.02344 1.558593,-0.02344 0.246094,0 0.503907,0 0.75,0 0.210938,0 0.574219,0.01172 0.773438,0.02344 v -0.386719 h -1.078125 z m 0,0"
         style="fill:#000000;fill-opacity:1;fill-rule:nonzero;stroke:none" />
      <path
         id="path52"
         d="M 37.261008,28.882406 35.26882,26.901938 c -0.128906,-0.128907 -0.140625,-0.140625 -0.222656,-0.140625 -0.105469,0 -0.199219,0.08203 -0.199219,0.199218 0,0.07031 0.02344,0.08203 0.128907,0.199219 l 1.992187,1.992188 -1.992187,2.003906 c -0.105469,0.117187 -0.128907,0.128906 -0.128907,0.199219 0,0.117187 0.09375,0.199218 0.199219,0.199218 0.08203,0 0.09375,-0.01172 0.222656,-0.140625 l 1.980469,-1.980468 2.0625,2.0625 c 0.01172,0.01172 0.08203,0.05859 0.152344,0.05859 0.117187,0 0.199219,-0.08203 0.199219,-0.199218 0,-0.01172 0,-0.05859 -0.03516,-0.105469 -0.01172,-0.02344 -1.59375,-1.582031 -2.097656,-2.097656 l 1.828125,-1.816407 c 0.04687,-0.05859 0.199219,-0.1875 0.246094,-0.246093 0.01172,-0.02344 0.05859,-0.05859 0.05859,-0.128907 0,-0.117187 -0.08203,-0.199218 -0.199219,-0.199218 -0.08203,0 -0.128906,0.03516 -0.234375,0.140625 z m 0,0"
         style="fill:#000000;fill-opacity:1;fill-rule:nonzero;stroke:none" />
      <path
         id="path53"
         d="m 48.481711,24.596273 -1.335938,1.359375 0.175782,0.175782 1.160156,-1.019532 1.136719,1.019532 0.1875,-0.175782 z m 0,0"
         style="fill:#000000;fill-opacity:1;fill-rule:nonzero;stroke:none" />
      <path
         id="path54"
         d="m 47.951437,29.480063 c 0.210938,0 0.316407,0 0.316407,-0.269532 0,-0.316406 -0.05859,-1.042968 -0.5625,-1.535156 -0.363282,-0.363281 -0.890625,-0.539062 -1.582032,-0.539062 -1.59375,0 -2.460937,1.019531 -2.460937,2.273437 0,1.335938 0.996094,2.296875 2.601562,2.296875 1.570313,0 2.003907,-1.054687 2.003907,-1.21875 0,-0.1875 -0.1875,-0.1875 -0.234375,-0.1875 -0.175782,0 -0.199219,0.04687 -0.257813,0.210938 -0.210937,0.480468 -0.773437,0.796875 -1.417969,0.796875 -1.40625,0 -1.417968,-1.324219 -1.417968,-1.828125 z m -3.011718,-0.328125 c 0.02344,-0.398438 0.03516,-0.808594 0.234375,-1.136719 0.269531,-0.398438 0.667968,-0.515625 0.949218,-0.515625 1.171875,0 1.183594,1.300781 1.195313,1.652344 z m 0,0"
         style="fill:#000000;fill-opacity:1;fill-rule:nonzero;stroke:none" />
      <path
         id="path55"
         d="m 52.627219,31.548422 h -0.445313 c -0.01172,0.08203 -0.07031,0.585937 -0.199219,0.609375 -0.140625,0.02344 -0.5625,0.02344 -0.726562,0.02344 h -0.949219 c 0.386719,-0.28125 0.773438,-0.5625 1.171875,-0.820312 0.574219,-0.363281 1.148438,-0.738281 1.148438,-1.429688 0,-0.84375 -0.785157,-1.359375 -1.898438,-1.359375 -0.949219,0 -1.664062,0.363282 -1.664062,1.03125 0,0.398438 0.328125,0.550782 0.539062,0.550782 0.257813,0 0.550781,-0.175782 0.550781,-0.550782 0,-0.328125 -0.257812,-0.46875 -0.28125,-0.480468 0.246094,-0.152344 0.574219,-0.164063 0.65625,-0.164063 0.585938,0 1.054688,0.375 1.054688,0.972656 0,0.539063 -0.363281,0.984375 -0.761719,1.347657 l -1.664062,1.464843 c -0.08203,0.08203 -0.09375,0.09375 -0.09375,0.234375 v 0.164063 h 3.328125 z m 0,0"
         style="fill:#000000;fill-opacity:1;fill-rule:nonzero;stroke:none" />
      <path
         id="path56"
         d="m 2.4973359,39.53768 -1.3359375,1.359375 0.1757813,0.175781 1.1601562,-1.019531 1.1367188,1.019531 0.1875,-0.175781 z m 0,0"
         style="fill:#000000;fill-opacity:1;fill-rule:nonzero;stroke:none" />
      <path
         id="path57"
         d="m 1.9641328,44.424398 c 0.2109375,0 0.3164063,0 0.3164063,-0.269531 0,-0.316406 -0.058594,-1.042969 -0.5625,-1.535156 -0.3632813,-0.363281 -0.89062504,-0.539063 -1.58203129,-0.539063 -1.59375001,0 -2.46093751,1.019532 -2.46093751,2.273438 0,1.335937 0.9960938,2.296875 2.60156251,2.296875 1.57031249,0 2.00390629,-1.054688 2.00390629,-1.21875 0,-0.1875 -0.1875,-0.1875 -0.234375,-0.1875 -0.1757813,0 -0.1992188,0.04687 -0.2578125,0.210937 -0.2109375,0.480469 -0.7734375,0.796875 -1.41796879,0.796875 -1.40625001,0 -1.41796871,-1.324218 -1.41796871,-1.828125 z m -3.0117187,-0.328125 c 0.023437,-0.398437 0.035156,-0.808593 0.23437496,-1.136718 0.26953125,-0.398438 0.66796875,-0.515625 0.94921875,-0.515625 1.17187499,0 1.18359379,1.300781 1.19531249,1.652343 z m 0,0"
         style="fill:#000000;fill-opacity:1;fill-rule:nonzero;stroke:none" />
      <path
         id="path58"
         d="M 6.8420625,47.008383 V 46.621664 H 6.0803437 v -2.90625 c 0,-0.210937 -0.035156,-0.246094 -0.2460937,-0.246094 H 5.7287812 c -0.1289062,0 -0.1875,0 -0.28125,0.105469 l -2.5546875,3.046875 v 0.386719 h 2.2265625 v 0.691406 H 4.2522187 v 0.386719 c 0.3515625,-0.02344 0.9726563,-0.02344 1.3359375,-0.02344 0.1523438,0 1.078125,0.01172 1.2539063,0.02344 V 47.699789 H 6.0803437 V 47.008383 Z M 5.2131562,44.430258 v 2.191406 H 3.3733125 Z m 0,0"
         style="fill:#000000;fill-opacity:1;fill-rule:nonzero;stroke:none" />
      <path
         id="path59"
         d="m 17.233664,43.334555 c 0.152344,0 0.339844,0 0.339844,-0.199219 0,-0.199219 -0.1875,-0.199219 -0.328125,-0.199219 h -5.964844 c -0.140625,0 -0.328125,0 -0.328125,0.199219 0,0.199219 0.1875,0.199219 0.339844,0.199219 z m 0.01172,1.933593 c 0.140625,0 0.328125,0 0.328125,-0.199218 0,-0.199219 -0.1875,-0.199219 -0.339844,-0.199219 h -5.941406 c -0.152344,0 -0.339844,0 -0.339844,0.199219 0,0.199218 0.1875,0.199218 0.328125,0.199218 z m 8.797851,-5.730468 -1.335937,1.359375 0.175781,0.175781 1.160156,-1.019531 1.136719,1.019531 0.1875,-0.175781 z m 0,0"
         style="fill:#000000;fill-opacity:1;fill-rule:nonzero;stroke:none" />
      <path
         id="path60"
         d="m 25.510031,44.424398 c 0.210938,0 0.316406,0 0.316406,-0.269531 0,-0.316406 -0.05859,-1.042969 -0.5625,-1.535156 -0.363281,-0.363281 -0.890625,-0.539063 -1.582031,-0.539063 -1.59375,0 -2.460937,1.019532 -2.460937,2.273438 0,1.335937 0.996093,2.296875 2.601562,2.296875 1.570313,0 2.003906,-1.054688 2.003906,-1.21875 0,-0.1875 -0.1875,-0.1875 -0.234375,-0.1875 -0.175781,0 -0.199218,0.04687 -0.257812,0.210937 -0.210938,0.480469 -0.773438,0.796875 -1.417969,0.796875 -1.40625,0 -1.417969,-1.324218 -1.417969,-1.828125 z m -3.011719,-0.328125 c 0.02344,-0.398437 0.03516,-0.808593 0.234375,-1.136718 0.269532,-0.398438 0.667969,-0.515625 0.949219,-0.515625 1.171875,0 1.183594,1.300781 1.195313,1.652343 z m 0,0"
         style="fill:#000000;fill-opacity:1;fill-rule:nonzero;stroke:none" />
      <path
         id="path61"
         d="m 28.934836,43.762289 c 0,-0.246094 -0.04687,-0.246094 -0.339844,-0.246094 -0.433594,0.339844 -0.996094,0.445313 -1.558594,0.445313 h -0.164062 v 0.386719 h 0.164062 c 0.28125,0 0.703125,-0.04687 0.996094,-0.140625 v 3.492187 H 26.93093 v 0.386719 c 0.339843,-0.02344 1.183593,-0.02344 1.558593,-0.02344 0.246094,0 0.503907,0 0.75,0 0.210938,0 0.574219,0.01172 0.773438,0.02344 v -0.386719 h -1.078125 z m 0,0"
         style="fill:#000000;fill-opacity:1;fill-rule:nonzero;stroke:none" />
      <path
         id="path62"
         d="M 37.261008,43.826742 35.26882,41.846273 c -0.128906,-0.128906 -0.140625,-0.140625 -0.222656,-0.140625 -0.105469,0 -0.199219,0.08203 -0.199219,0.199219 0,0.07031 0.02344,0.08203 0.128907,0.199219 l 1.992187,1.992187 -1.992187,2.003907 c -0.105469,0.117187 -0.128907,0.128906 -0.128907,0.199218 0,0.117188 0.09375,0.199219 0.199219,0.199219 0.08203,0 0.09375,-0.01172 0.222656,-0.140625 l 1.980469,-1.980469 2.0625,2.0625 c 0.01172,0.01172 0.08203,0.05859 0.152344,0.05859 0.117187,0 0.199219,-0.08203 0.199219,-0.199219 0,-0.01172 0,-0.05859 -0.03516,-0.105468 -0.01172,-0.02344 -1.59375,-1.582032 -2.097656,-2.097657 l 1.828125,-1.816406 c 0.04687,-0.05859 0.199219,-0.1875 0.246094,-0.246094 0.01172,-0.02344 0.05859,-0.05859 0.05859,-0.128906 0,-0.117187 -0.08203,-0.199219 -0.199219,-0.199219 -0.08203,0 -0.128906,0.03516 -0.234375,0.140625 z m 0,0"
         style="fill:#000000;fill-opacity:1;fill-rule:nonzero;stroke:none" />
      <path
         id="path63"
         d="m 48.481711,39.53768 -1.335938,1.359375 0.175782,0.175781 1.160156,-1.019531 1.136719,1.019531 0.1875,-0.175781 z m 0,0"
         style="fill:#000000;fill-opacity:1;fill-rule:nonzero;stroke:none" />
      <path
         id="path64"
         d="m 47.951437,44.424398 c 0.210938,0 0.316407,0 0.316407,-0.269531 0,-0.316406 -0.05859,-1.042969 -0.5625,-1.535156 -0.363282,-0.363281 -0.890625,-0.539063 -1.582032,-0.539063 -1.59375,0 -2.460937,1.019532 -2.460937,2.273438 0,1.335937 0.996094,2.296875 2.601562,2.296875 1.570313,0 2.003907,-1.054688 2.003907,-1.21875 0,-0.1875 -0.1875,-0.1875 -0.234375,-0.1875 -0.175782,0 -0.199219,0.04687 -0.257813,0.210937 -0.210937,0.480469 -0.773437,0.796875 -1.417969,0.796875 -1.40625,0 -1.417968,-1.324218 -1.417968,-1.828125 z m -3.011718,-0.328125 c 0.02344,-0.398437 0.03516,-0.808593 0.234375,-1.136718 0.269531,-0.398438 0.667968,-0.515625 0.949218,-0.515625 1.171875,0 1.183594,1.300781 1.195313,1.652343 z m 0,0"
         style="fill:#000000;fill-opacity:1;fill-rule:nonzero;stroke:none" />
      <path
         id="path65"
         d="m 50.705344,45.824789 c 0.820312,0 0.855468,0.621094 0.855468,0.996094 0,0.292969 0,0.996094 -0.832031,0.996094 -0.1875,0 -0.621094,-0.03516 -0.925781,-0.222657 0.140625,-0.07031 0.328125,-0.222656 0.328125,-0.527343 0,-0.316407 -0.234375,-0.5625 -0.5625,-0.5625 -0.351563,0 -0.574219,0.246093 -0.574219,0.574218 0,0.703125 0.773438,1.089844 1.757813,1.089844 1.464843,0 1.945312,-0.761719 1.945312,-1.347656 0,-0.539063 -0.421875,-1.019531 -1.21875,-1.183594 0.503906,-0.1875 0.972656,-0.550781 0.972656,-1.136719 0,-0.539062 -0.5625,-0.984375 -1.675781,-0.984375 -0.949219,0 -1.535156,0.46875 -1.535156,1.042969 0,0.351563 0.257812,0.539063 0.527344,0.539063 0.351562,0 0.527343,-0.257813 0.527343,-0.527344 0,-0.351563 -0.28125,-0.480469 -0.351562,-0.503906 0.292969,-0.210938 0.65625,-0.234375 0.796875,-0.234375 0.691406,0 0.691406,0.457031 0.691406,0.644531 0,0.328125 -0.140625,0.960937 -0.84375,0.996094 -0.175781,0.01172 -0.351562,0.02344 -0.386719,0.03516 -0.09375,0.02344 -0.09375,0.105469 -0.09375,0.152344 0,0.164062 0.09375,0.164062 0.222657,0.164062 z m 0,0"
         style="fill:#000000;fill-opacity:1;fill-rule:nonzero;stroke:none" />
      <path
         id="path66"
         d="M 1.8528047,70.990805 V 68.22518 h 1.171875 c 1.6054687,0 1.6171875,0.773437 1.6171875,1.382812 0,0.5625 0,1.382813 -1.640625,1.382813 z m 2.6601562,0.210937 c 1.1484375,-0.304687 1.6523438,-0.949219 1.6523438,-1.605469 0,-1.007812 -1.0898438,-1.839843 -2.9648438,-1.839843 h -3.78515621 v 0.46875 h 1.078125 v 5.894531 h -1.078125 v 0.46875 c 0.36328125,-0.03516 1.3359375,-0.03516 1.75781251,-0.03516 0.4101562,0 1.3945312,0 1.7460937,0.03516 v -0.46875 H 1.8528047 v -2.765625 h 1.1601562 c 0.140625,0 0.5742188,0 0.890625,0.339844 0.3164063,0.339843 0.3164063,0.539062 0.3164063,1.265625 0,0.65625 0,1.136718 0.6914062,1.476562 0.4453125,0.222656 1.0546875,0.257813 1.4648438,0.257813 1.0664062,0 1.1953125,-0.890625 1.1953125,-1.054688 0,-0.210937 -0.140625,-0.210937 -0.234375,-0.210937 -0.2109375,0 -0.2226563,0.09375 -0.234375,0.222656 -0.046875,0.46875 -0.3398438,0.691406 -0.6328125,0.691406 -0.5976563,0 -0.6914063,-0.714844 -0.7382813,-1.125 C 5.7082734,73.10018 5.6379609,72.420492 5.6262422,72.361898 5.4856172,71.670492 4.9348359,71.365805 4.5129609,71.201742 Z m 0,0"
         style="fill:#000000;fill-opacity:1;fill-rule:nonzero;stroke:none" />
      <path
         id="path67"
         d="m 17.233664,71.330648 c 0.152344,0 0.339844,0 0.339844,-0.199218 0,-0.199219 -0.1875,-0.199219 -0.328125,-0.199219 h -5.964844 c -0.140625,0 -0.328125,0 -0.328125,0.199219 0,0.199218 0.1875,0.199218 0.339844,0.199218 z m 0.01172,1.933594 c 0.140625,0 0.328125,0 0.328125,-0.199219 0,-0.199218 -0.1875,-0.199218 -0.339844,-0.199218 h -5.941406 c -0.152344,0 -0.339844,0 -0.339844,0.199218 0,0.199219 0.1875,0.199219 0.328125,0.199219 z m 0,0"
         style="fill:#000000;fill-opacity:1;fill-rule:nonzero;stroke:none" />
      <path
         id="path68"
         d="m 24.150656,72.092367 h 0.691406 V 54.865805 h 2.625 v -0.691407 h -3.316406 z m 0,17.920899 h 3.316406 v -0.679688 h -2.625 V 72.095297 h -0.691406 z m 0,0"
         style="fill:#000000;fill-opacity:1;fill-rule:nonzero;stroke:none" />
      <path
         id="path69"
         d="m 34.943625,55.481039 -1.335938,1.359375 0.175782,0.175781 1.160156,-1.019531 1.136719,1.019531 0.1875,-0.175781 z m 0,0"
         style="fill:#000000;fill-opacity:1;fill-rule:nonzero;stroke:none" />
      <path
         id="path70"
         d="m 32.154562,60.364828 c 0.210938,0 0.316407,0 0.316407,-0.269531 0,-0.316406 -0.05859,-1.042969 -0.5625,-1.535156 -0.363282,-0.363282 -0.890625,-0.539063 -1.582032,-0.539063 -1.59375,0 -2.460937,1.019531 -2.460937,2.273438 0,1.335937 0.996094,2.296875 2.601562,2.296875 1.570313,0 2.003907,-1.054688 2.003907,-1.21875 0,-0.1875 -0.1875,-0.1875 -0.234375,-0.1875 -0.175782,0 -0.199219,0.04687 -0.257813,0.210937 -0.210937,0.480469 -0.773437,0.796875 -1.417969,0.796875 -1.40625,0 -1.417968,-1.324219 -1.417968,-1.828125 z m -3.011718,-0.328125 c 0.02344,-0.398437 0.03516,-0.808594 0.234375,-1.136719 0.269531,-0.398437 0.667968,-0.515625 0.949218,-0.515625 1.171875,0 1.183594,1.300782 1.195313,1.652344 z m 0,0"
         style="fill:#000000;fill-opacity:1;fill-rule:nonzero;stroke:none" />
      <path
         id="path71"
         d="m 35.576437,59.702719 c 0,-0.246094 -0.04687,-0.246094 -0.339843,-0.246094 C 34.803,59.796469 34.2405,59.901938 33.678,59.901938 h -0.164063 v 0.386718 H 33.678 c 0.28125,0 0.703125,-0.04687 0.996094,-0.140625 v 3.492188 h -1.101563 v 0.386719 c 0.339844,-0.02344 1.183594,-0.02344 1.558594,-0.02344 0.246094,0 0.503906,0 0.75,0 0.210937,0 0.574219,0.01172 0.773437,0.02344 v -0.386719 h -1.078125 z m 0,0"
         style="fill:#000000;fill-opacity:1;fill-rule:nonzero;stroke:none" />
      <path
         id="path72"
         d="m 39.048117,63.288656 c -0.07031,0.234375 -0.292969,0.609375 -0.65625,0.609375 -0.02344,0 -0.222656,0 -0.375,-0.09375 0.28125,-0.09375 0.304688,-0.339843 0.304688,-0.386718 0,-0.152344 -0.117188,-0.257813 -0.28125,-0.257813 -0.1875,0 -0.386719,0.164063 -0.386719,0.433594 0,0.339844 0.386719,0.503906 0.726562,0.503906 0.316407,0 0.609375,-0.199219 0.785157,-0.492187 0.164062,0.363281 0.550781,0.492187 0.820312,0.492187 0.808594,0 1.230469,-0.867187 1.230469,-1.066406 0,-0.09375 -0.09375,-0.09375 -0.105469,-0.09375 -0.105469,0 -0.105469,0.03516 -0.140625,0.117187 -0.140625,0.480469 -0.5625,0.84375 -0.949219,0.84375 -0.28125,0 -0.421875,-0.1875 -0.421875,-0.445312 0,-0.1875 0.164063,-0.820313 0.363282,-1.59375 0.128906,-0.539063 0.445312,-0.714844 0.679687,-0.714844 0.01172,0 0.222656,0 0.375,0.105469 -0.222656,0.05859 -0.304687,0.257812 -0.304687,0.375 0,0.152344 0.117187,0.257812 0.28125,0.257812 0.152343,0 0.386718,-0.128906 0.386718,-0.421875 0,-0.386718 -0.445312,-0.503906 -0.726562,-0.503906 -0.351563,0 -0.632813,0.222656 -0.785156,0.492188 -0.117188,-0.292969 -0.445313,-0.492188 -0.832032,-0.492188 -0.785156,0 -1.230468,0.855469 -1.230468,1.066406 0,0.08203 0.105468,0.08203 0.117187,0.08203 0.09375,0 0.105469,-0.02344 0.140625,-0.117188 0.175781,-0.539062 0.609375,-0.84375 0.949219,-0.84375 0.234375,0 0.421875,0.128906 0.421875,0.46875 0,0.128906 -0.08203,0.480469 -0.152344,0.714844 z m 0,0"
         style="fill:#000000;fill-opacity:1;fill-rule:nonzero;stroke:none" />
      <path
         id="path73"
         d="m 59.687766,55.481039 -1.335938,1.359375 0.175781,0.175781 1.160157,-1.019531 1.136718,1.019531 0.1875,-0.175781 z m 0,0"
         style="fill:#000000;fill-opacity:1;fill-rule:nonzero;stroke:none" />
      <path
         id="path74"
         d="m 56.895773,60.364828 c 0.210938,0 0.316407,0 0.316407,-0.269531 0,-0.316406 -0.05859,-1.042969 -0.5625,-1.535156 -0.363282,-0.363282 -0.890625,-0.539063 -1.582032,-0.539063 -1.59375,0 -2.460937,1.019531 -2.460937,2.273438 0,1.335937 0.996094,2.296875 2.601562,2.296875 1.570313,0 2.003907,-1.054688 2.003907,-1.21875 0,-0.1875 -0.1875,-0.1875 -0.234375,-0.1875 -0.175782,0 -0.199219,0.04687 -0.257813,0.210937 -0.210937,0.480469 -0.773437,0.796875 -1.417969,0.796875 -1.40625,0 -1.417968,-1.324219 -1.417968,-1.828125 z m -3.011718,-0.328125 c 0.02344,-0.398437 0.03516,-0.808594 0.234375,-1.136719 0.269531,-0.398437 0.667968,-0.515625 0.949218,-0.515625 1.171875,0 1.183594,1.300782 1.195313,1.652344 z m 0,0"
         style="fill:#000000;fill-opacity:1;fill-rule:nonzero;stroke:none" />
      <path
         id="path75"
         d="m 59.652609,61.765219 c 0.820313,0 0.855469,0.621094 0.855469,0.996094 0,0.292968 0,0.996093 -0.832031,0.996093 -0.1875,0 -0.621094,-0.03516 -0.925781,-0.222656 0.140625,-0.07031 0.328125,-0.222656 0.328125,-0.527344 0,-0.316406 -0.234375,-0.5625 -0.5625,-0.5625 -0.351563,0 -0.574219,0.246094 -0.574219,0.574219 0,0.703125 0.773437,1.089844 1.757812,1.089844 1.464844,0 1.945313,-0.761719 1.945313,-1.347656 0,-0.539063 -0.421875,-1.019532 -1.21875,-1.183594 0.503906,-0.1875 0.972656,-0.550781 0.972656,-1.136719 0,-0.539062 -0.5625,-0.984375 -1.675781,-0.984375 -0.949219,0 -1.535156,0.46875 -1.535156,1.042969 0,0.351562 0.257812,0.539062 0.527343,0.539062 0.351563,0 0.527344,-0.257812 0.527344,-0.527343 0,-0.351563 -0.28125,-0.480469 -0.351562,-0.503907 0.292968,-0.210937 0.65625,-0.234375 0.796875,-0.234375 0.691406,0 0.691406,0.457032 0.691406,0.644532 0,0.328125 -0.140625,0.960937 -0.84375,0.996093 -0.175781,0.01172 -0.351563,0.02344 -0.386719,0.03516 -0.09375,0.02344 -0.09375,0.105468 -0.09375,0.152343 0,0.164063 0.09375,0.164063 0.222656,0.164063 z m 0,0"
         style="fill:#000000;fill-opacity:1;fill-rule:nonzero;stroke:none" />
      <path
         id="path76"
         d="m 63.789328,63.288656 c -0.07031,0.234375 -0.292969,0.609375 -0.65625,0.609375 -0.02344,0 -0.222656,0 -0.375,-0.09375 0.28125,-0.09375 0.304688,-0.339843 0.304688,-0.386718 0,-0.152344 -0.117188,-0.257813 -0.28125,-0.257813 -0.1875,0 -0.386719,0.164063 -0.386719,0.433594 0,0.339844 0.386719,0.503906 0.726562,0.503906 0.316407,0 0.609375,-0.199219 0.785157,-0.492187 0.164062,0.363281 0.550781,0.492187 0.820312,0.492187 0.808594,0 1.230469,-0.867187 1.230469,-1.066406 0,-0.09375 -0.09375,-0.09375 -0.105469,-0.09375 -0.105469,0 -0.105469,0.03516 -0.140625,0.117187 -0.140625,0.480469 -0.5625,0.84375 -0.949219,0.84375 -0.28125,0 -0.421875,-0.1875 -0.421875,-0.445312 0,-0.1875 0.164063,-0.820313 0.363282,-1.59375 0.128906,-0.539063 0.445312,-0.714844 0.679687,-0.714844 0.01172,0 0.222656,0 0.375,0.105469 -0.222656,0.05859 -0.304687,0.257812 -0.304687,0.375 0,0.152344 0.117187,0.257812 0.28125,0.257812 0.152343,0 0.386718,-0.128906 0.386718,-0.421875 0,-0.386718 -0.445312,-0.503906 -0.726562,-0.503906 -0.351563,0 -0.632813,0.222656 -0.785156,0.492188 -0.117188,-0.292969 -0.445313,-0.492188 -0.832032,-0.492188 -0.785156,0 -1.230468,0.855469 -1.230468,1.066406 0,0.08203 0.105468,0.08203 0.117187,0.08203 0.09375,0 0.105469,-0.02344 0.140625,-0.117188 0.175781,-0.539062 0.609375,-0.84375 0.949219,-0.84375 0.234375,0 0.421875,0.128906 0.421875,0.46875 0,0.128906 -0.08203,0.480469 -0.152344,0.714844 z m 0,0"
         style="fill:#000000;fill-opacity:1;fill-rule:nonzero;stroke:none" />
      <path
         id="path77"
         d="m 84.428977,55.481039 -1.335938,1.359375 0.175781,0.175781 1.160157,-1.019531 1.136718,1.019531 0.1875,-0.175781 z m 0,0"
         style="fill:#000000;fill-opacity:1;fill-rule:nonzero;stroke:none" />
      <path
         id="path78"
         d="m 81.639914,60.364828 c 0.210938,0 0.316406,0 0.316406,-0.269531 0,-0.316406 -0.05859,-1.042969 -0.5625,-1.535156 -0.363281,-0.363282 -0.890625,-0.539063 -1.582031,-0.539063 -1.59375,0 -2.460937,1.019531 -2.460937,2.273438 0,1.335937 0.996093,2.296875 2.601562,2.296875 1.570313,0 2.003906,-1.054688 2.003906,-1.21875 0,-0.1875 -0.1875,-0.1875 -0.234375,-0.1875 -0.175781,0 -0.199218,0.04687 -0.257812,0.210937 -0.210938,0.480469 -0.773438,0.796875 -1.417969,0.796875 -1.40625,0 -1.417969,-1.324219 -1.417969,-1.828125 z m -3.011719,-0.328125 c 0.02344,-0.398437 0.03516,-0.808594 0.234375,-1.136719 0.269532,-0.398437 0.667969,-0.515625 0.949219,-0.515625 1.171875,0 1.183594,1.300782 1.195313,1.652344 z m 0,0"
         style="fill:#000000;fill-opacity:1;fill-rule:nonzero;stroke:none" />
      <path
         id="path79"
         d="m 86.517844,62.948813 v -0.386719 h -0.761719 v -2.90625 c 0,-0.210938 -0.03516,-0.246094 -0.246094,-0.246094 h -0.105469 c -0.128906,0 -0.1875,0 -0.28125,0.105469 l -2.554687,3.046875 v 0.386719 h 2.226562 v 0.691406 H 83.928 v 0.386719 c 0.351562,-0.02344 0.972656,-0.02344 1.335937,-0.02344 0.152344,0 1.078125,0.01172 1.253907,0.02344 v -0.386719 h -0.761719 v -0.691406 z m -1.628907,-2.578125 v 2.191406 h -1.839843 z m 0,0"
         style="fill:#000000;fill-opacity:1;fill-rule:nonzero;stroke:none" />
      <path
         id="path80"
         d="m 88.533469,63.288656 c -0.07031,0.234375 -0.292969,0.609375 -0.65625,0.609375 -0.02344,0 -0.222657,0 -0.375,-0.09375 0.28125,-0.09375 0.304687,-0.339843 0.304687,-0.386718 0,-0.152344 -0.117187,-0.257813 -0.28125,-0.257813 -0.1875,0 -0.386719,0.164063 -0.386719,0.433594 0,0.339844 0.386719,0.503906 0.726563,0.503906 0.316406,0 0.609375,-0.199219 0.785156,-0.492187 0.164063,0.363281 0.550781,0.492187 0.820313,0.492187 0.808593,0 1.230468,-0.867187 1.230468,-1.066406 0,-0.09375 -0.09375,-0.09375 -0.105468,-0.09375 -0.105469,0 -0.105469,0.03516 -0.140625,0.117187 -0.140625,0.480469 -0.5625,0.84375 -0.949219,0.84375 -0.28125,0 -0.421875,-0.1875 -0.421875,-0.445312 0,-0.1875 0.164062,-0.820313 0.363281,-1.59375 0.128906,-0.539063 0.445313,-0.714844 0.679688,-0.714844 0.01172,0 0.222656,0 0.375,0.105469 -0.222657,0.05859 -0.304688,0.257812 -0.304688,0.375 0,0.152344 0.117188,0.257812 0.28125,0.257812 0.152344,0 0.386719,-0.128906 0.386719,-0.421875 0,-0.386718 -0.445313,-0.503906 -0.726563,-0.503906 -0.351562,0 -0.632812,0.222656 -0.785156,0.492188 -0.117187,-0.292969 -0.445312,-0.492188 -0.832031,-0.492188 -0.785156,0 -1.230469,0.855469 -1.230469,1.066406 0,0.08203 0.105469,0.08203 0.117188,0.08203 0.09375,0 0.105468,-0.02344 0.140625,-0.117188 0.175781,-0.539062 0.609375,-0.84375 0.949218,-0.84375 0.234375,0 0.421875,0.128906 0.421875,0.46875 0,0.128906 -0.08203,0.480469 -0.152343,0.714844 z m 0,0"
         style="fill:#000000;fill-opacity:1;fill-rule:nonzero;stroke:none" />
      <path
         id="path81"
         d="m 34.943625,67.434164 -1.335938,1.359375 0.175782,0.175781 1.160156,-1.019531 1.136719,1.019531 0.1875,-0.175781 z m 0,0"
         style="fill:#000000;fill-opacity:1;fill-rule:nonzero;stroke:none" />
      <path
         id="path82"
         d="m 32.265891,72.317953 c 0.210937,0 0.316406,0 0.316406,-0.269531 0,-0.316406 -0.05859,-1.042969 -0.5625,-1.535156 -0.363281,-0.363282 -0.890625,-0.539063 -1.582031,-0.539063 -1.59375,0 -2.460938,1.019531 -2.460938,2.273438 0,1.335937 0.996094,2.296875 2.601563,2.296875 1.570312,0 2.003906,-1.054688 2.003906,-1.21875 0,-0.1875 -0.1875,-0.1875 -0.234375,-0.1875 -0.175781,0 -0.199219,0.04687 -0.257813,0.210937 -0.210937,0.480469 -0.773437,0.796875 -1.417968,0.796875 -1.40625,0 -1.417969,-1.324219 -1.417969,-1.828125 z m -3.011719,-0.328125 c 0.02344,-0.398437 0.03516,-0.808594 0.234375,-1.136719 0.269531,-0.398437 0.667969,-0.515625 0.949219,-0.515625 1.171875,0 1.183593,1.300782 1.195312,1.652344 z m 0,0"
         style="fill:#000000;fill-opacity:1;fill-rule:nonzero;stroke:none" />
      <path
         id="path83"
         d="m 35.690695,71.658773 c 0,-0.246093 -0.04687,-0.246093 -0.339843,-0.246093 -0.433594,0.339843 -0.996094,0.445312 -1.558594,0.445312 h -0.164063 v 0.386719 h 0.164063 c 0.28125,0 0.703125,-0.04687 0.996094,-0.140625 v 3.492187 h -1.101563 v 0.386719 c 0.339844,-0.02344 1.183594,-0.02344 1.558594,-0.02344 0.246094,0 0.503906,0 0.75,0 0.210937,0 0.574219,0.01172 0.773437,0.02344 v -0.386719 h -1.078125 z m 0,0"
         style="fill:#000000;fill-opacity:1;fill-rule:nonzero;stroke:none" />
      <path
         id="path84"
         d="m 41.303977,73.357992 c 0.02344,-0.105469 0.02344,-0.117187 0.02344,-0.152344 0,-0.140625 -0.105469,-0.222656 -0.222656,-0.222656 -0.08203,0 -0.210938,0.03516 -0.292969,0.164063 -0.02344,0.03516 -0.07031,0.257812 -0.105469,0.398437 L 40.55398,74.13143 c -0.03516,0.164062 -0.257813,1.042968 -0.28125,1.125 0,0 -0.304688,0.597656 -0.855469,0.597656 -0.46875,0 -0.46875,-0.445313 -0.46875,-0.574219 0,-0.375 0.152344,-0.820312 0.363281,-1.359375 0.08203,-0.222656 0.117188,-0.304687 0.117188,-0.421875 0,-0.328125 -0.28125,-0.585937 -0.65625,-0.585937 -0.703125,0 -1.019532,0.949218 -1.019532,1.066406 0,0.08203 0.09375,0.08203 0.117188,0.08203 0.09375,0 0.105469,-0.03516 0.128906,-0.105469 0.175781,-0.585937 0.46875,-0.855468 0.75,-0.855468 0.117188,0 0.175781,0.08203 0.175781,0.246093 0,0.164063 -0.05859,0.316407 -0.09375,0.410157 -0.339843,0.84375 -0.410156,1.101562 -0.410156,1.40625 0,0.117187 0,0.445312 0.269531,0.679687 0.222657,0.175781 0.515625,0.210938 0.703125,0.210938 0.28125,0 0.527344,-0.105469 0.761719,-0.316407 -0.09375,0.386719 -0.175781,0.679688 -0.46875,1.03125 -0.1875,0.210938 -0.457031,0.445313 -0.832031,0.445313 -0.04687,0 -0.375,0 -0.527344,-0.234375 0.375,-0.03516 0.375,-0.375 0.375,-0.386719 0,-0.222656 -0.199219,-0.257812 -0.269531,-0.257812 -0.175781,0 -0.398438,0.140625 -0.398438,0.457031 0,0.351562 0.328125,0.609375 0.832032,0.609375 0.703125,0 1.558593,-0.539063 1.769531,-1.40625 z m 0,0"
         style="fill:#000000;fill-opacity:1;fill-rule:nonzero;stroke:none" />
      <path
         id="path85"
         d="m 59.687766,67.434164 -1.335938,1.359375 0.175781,0.175781 1.160157,-1.019531 1.136718,1.019531 0.1875,-0.175781 z m 0,0"
         style="fill:#000000;fill-opacity:1;fill-rule:nonzero;stroke:none" />
      <path
         id="path86"
         d="m 57.010031,72.317953 c 0.210938,0 0.316406,0 0.316406,-0.269531 0,-0.316406 -0.05859,-1.042969 -0.5625,-1.535156 -0.363281,-0.363282 -0.890625,-0.539063 -1.582031,-0.539063 -1.59375,0 -2.460937,1.019531 -2.460937,2.273438 0,1.335937 0.996093,2.296875 2.601562,2.296875 1.570313,0 2.003906,-1.054688 2.003906,-1.21875 0,-0.1875 -0.1875,-0.1875 -0.234375,-0.1875 -0.175781,0 -0.199218,0.04687 -0.257812,0.210937 -0.210938,0.480469 -0.773438,0.796875 -1.417969,0.796875 -1.40625,0 -1.417969,-1.324219 -1.417969,-1.828125 z m -3.011719,-0.328125 c 0.02344,-0.398437 0.03516,-0.808594 0.234375,-1.136719 0.269532,-0.398437 0.667969,-0.515625 0.949219,-0.515625 1.171875,0 1.183594,1.300782 1.195313,1.652344 z m 0,0"
         style="fill:#000000;fill-opacity:1;fill-rule:nonzero;stroke:none" />
      <path
         id="path87"
         d="m 59.763937,73.721273 c 0.820313,0 0.855469,0.621094 0.855469,0.996094 0,0.292969 0,0.996094 -0.832031,0.996094 -0.1875,0 -0.621094,-0.03516 -0.925781,-0.222656 0.140625,-0.07031 0.328125,-0.222657 0.328125,-0.527344 0,-0.316406 -0.234375,-0.5625 -0.5625,-0.5625 -0.351563,0 -0.574219,0.246094 -0.574219,0.574219 0,0.703125 0.773437,1.089843 1.757812,1.089843 1.464844,0 1.945313,-0.761718 1.945313,-1.347656 0,-0.539062 -0.421875,-1.019531 -1.21875,-1.183594 0.503906,-0.1875 0.972656,-0.550781 0.972656,-1.136718 0,-0.539063 -0.5625,-0.984375 -1.675781,-0.984375 -0.949219,0 -1.535156,0.46875 -1.535156,1.042968 0,0.351563 0.257812,0.539063 0.527343,0.539063 0.351563,0 0.527344,-0.257813 0.527344,-0.527344 0,-0.351562 -0.28125,-0.480469 -0.351562,-0.503906 0.292968,-0.210938 0.65625,-0.234375 0.796875,-0.234375 0.691406,0 0.691406,0.457031 0.691406,0.644531 0,0.328125 -0.140625,0.960938 -0.84375,0.996094 -0.175781,0.01172 -0.351563,0.02344 -0.386719,0.03516 -0.09375,0.02344 -0.09375,0.105469 -0.09375,0.152344 0,0.164062 0.09375,0.164062 0.222656,0.164062 z m 0,0"
         style="fill:#000000;fill-opacity:1;fill-rule:nonzero;stroke:none" />
      <path
         id="path88"
         d="m 66.048117,73.357992 c 0.02344,-0.105469 0.02344,-0.117187 0.02344,-0.152344 0,-0.140625 -0.105469,-0.222656 -0.222657,-0.222656 -0.08203,0 -0.210937,0.03516 -0.292968,0.164063 -0.02344,0.03516 -0.07031,0.257812 -0.105469,0.398437 l -0.152344,0.585938 c -0.03516,0.164062 -0.257812,1.042968 -0.28125,1.125 0,0 -0.304687,0.597656 -0.855469,0.597656 -0.46875,0 -0.46875,-0.445313 -0.46875,-0.574219 0,-0.375 0.152344,-0.820312 0.363282,-1.359375 0.08203,-0.222656 0.117187,-0.304687 0.117187,-0.421875 0,-0.328125 -0.28125,-0.585937 -0.65625,-0.585937 -0.703125,0 -1.019531,0.949218 -1.019531,1.066406 0,0.08203 0.09375,0.08203 0.117187,0.08203 0.09375,0 0.105469,-0.03516 0.128907,-0.105469 0.175781,-0.585937 0.46875,-0.855468 0.75,-0.855468 0.117187,0 0.175781,0.08203 0.175781,0.246093 0,0.164063 -0.05859,0.316407 -0.09375,0.410157 -0.339844,0.84375 -0.410156,1.101562 -0.410156,1.40625 0,0.117187 0,0.445312 0.269531,0.679687 0.222656,0.175781 0.515625,0.210938 0.703125,0.210938 0.28125,0 0.527344,-0.105469 0.761719,-0.316407 -0.09375,0.386719 -0.175782,0.679688 -0.46875,1.03125 -0.1875,0.210938 -0.457032,0.445313 -0.832032,0.445313 -0.04687,0 -0.375,0 -0.527343,-0.234375 0.375,-0.03516 0.375,-0.375 0.375,-0.386719 0,-0.222656 -0.199219,-0.257812 -0.269532,-0.257812 -0.175781,0 -0.398437,0.140625 -0.398437,0.457031 0,0.351562 0.328125,0.609375 0.832031,0.609375 0.703125,0 1.558594,-0.539063 1.769531,-1.40625 z m 0,0"
         style="fill:#000000;fill-opacity:1;fill-rule:nonzero;stroke:none" />
      <path
         id="path89"
         d="m 84.428977,67.434164 -1.335938,1.359375 0.175781,0.175781 1.160157,-1.019531 1.136718,1.019531 0.1875,-0.175781 z m 0,0"
         style="fill:#000000;fill-opacity:1;fill-rule:nonzero;stroke:none" />
      <path
         id="path90"
         d="m 81.754172,72.317953 c 0.210937,0 0.316406,0 0.316406,-0.269531 0,-0.316406 -0.05859,-1.042969 -0.5625,-1.535156 -0.363281,-0.363282 -0.890625,-0.539063 -1.582031,-0.539063 -1.59375,0 -2.460938,1.019531 -2.460938,2.273438 0,1.335937 0.996094,2.296875 2.601563,2.296875 1.570312,0 2.003906,-1.054688 2.003906,-1.21875 0,-0.1875 -0.1875,-0.1875 -0.234375,-0.1875 -0.175781,0 -0.199219,0.04687 -0.257812,0.210937 -0.210938,0.480469 -0.773438,0.796875 -1.417969,0.796875 -1.40625,0 -1.417969,-1.324219 -1.417969,-1.828125 z m -3.011719,-0.328125 c 0.02344,-0.398437 0.03516,-0.808594 0.234375,-1.136719 0.269531,-0.398437 0.667969,-0.515625 0.949219,-0.515625 1.171875,0 1.183594,1.300782 1.195312,1.652344 z m 0,0"
         style="fill:#000000;fill-opacity:1;fill-rule:nonzero;stroke:none" />
      <path
         id="path91"
         d="m 86.629172,74.904867 v -0.386719 h -0.761719 v -2.90625 c 0,-0.210937 -0.03516,-0.246093 -0.246094,-0.246093 h -0.105468 c -0.128907,0 -0.1875,0 -0.28125,0.105468 l -2.554688,3.046875 v 0.386719 h 2.226563 v 0.691406 h -0.867188 v 0.386719 c 0.351563,-0.02344 0.972656,-0.02344 1.335938,-0.02344 0.152343,0 1.078125,0.01172 1.253906,0.02344 v -0.386719 h -0.761719 v -0.691406 z m -1.628906,-2.578125 v 2.191406 h -1.839844 z m 0,0"
         style="fill:#000000;fill-opacity:1;fill-rule:nonzero;stroke:none" />
      <path
         id="path92"
         d="m 90.792258,73.357992 c 0.02344,-0.105469 0.02344,-0.117187 0.02344,-0.152344 0,-0.140625 -0.105468,-0.222656 -0.222656,-0.222656 -0.08203,0 -0.210937,0.03516 -0.292969,0.164063 -0.02344,0.03516 -0.07031,0.257812 -0.105468,0.398437 l -0.152344,0.585938 c -0.03516,0.164062 -0.257813,1.042968 -0.28125,1.125 0,0 -0.304688,0.597656 -0.855469,0.597656 -0.46875,0 -0.46875,-0.445313 -0.46875,-0.574219 0,-0.375 0.152344,-0.820312 0.363281,-1.359375 0.08203,-0.222656 0.117188,-0.304687 0.117188,-0.421875 0,-0.328125 -0.28125,-0.585937 -0.65625,-0.585937 -0.703125,0 -1.019531,0.949218 -1.019531,1.066406 0,0.08203 0.09375,0.08203 0.117187,0.08203 0.09375,0 0.105469,-0.03516 0.128906,-0.105469 0.175782,-0.585937 0.46875,-0.855468 0.75,-0.855468 0.117188,0 0.175782,0.08203 0.175782,0.246093 0,0.164063 -0.05859,0.316407 -0.09375,0.410157 -0.339844,0.84375 -0.410157,1.101562 -0.410157,1.40625 0,0.117187 0,0.445312 0.269532,0.679687 0.222656,0.175781 0.515625,0.210938 0.703125,0.210938 0.28125,0 0.527343,-0.105469 0.761718,-0.316407 -0.09375,0.386719 -0.175781,0.679688 -0.46875,1.03125 -0.1875,0.210938 -0.457031,0.445313 -0.832031,0.445313 -0.04687,0 -0.375,0 -0.527344,-0.234375 0.375,-0.03516 0.375,-0.375 0.375,-0.386719 0,-0.222656 -0.199218,-0.257812 -0.269531,-0.257812 -0.175781,0 -0.398437,0.140625 -0.398437,0.457031 0,0.351562 0.328125,0.609375 0.832031,0.609375 0.703125,0 1.558594,-0.539063 1.769531,-1.40625 z m 0,0"
         style="fill:#000000;fill-opacity:1;fill-rule:nonzero;stroke:none" />
      <path
         id="path93"
         d="m 34.943625,79.390219 -1.335938,1.359375 0.175782,0.175781 1.160156,-1.019531 1.136719,1.019531 0.1875,-0.175781 z m 0,0"
         style="fill:#000000;fill-opacity:1;fill-rule:nonzero;stroke:none" />
      <path
         id="path94"
         d="m 32.3655,84.274008 c 0.210937,0 0.316406,0 0.316406,-0.269531 0,-0.316407 -0.05859,-1.042969 -0.5625,-1.535157 -0.363281,-0.363281 -0.890625,-0.539062 -1.582031,-0.539062 -1.59375,0 -2.460938,1.019531 -2.460938,2.273437 0,1.335938 0.996094,2.296875 2.601563,2.296875 1.570312,0 2.003906,-1.054687 2.003906,-1.21875 0,-0.1875 -0.1875,-0.1875 -0.234375,-0.1875 -0.175781,0 -0.199219,0.04687 -0.257812,0.210938 -0.210938,0.480469 -0.773438,0.796875 -1.417969,0.796875 -1.40625,0 -1.417969,-1.324219 -1.417969,-1.828125 z m -3.011719,-0.328125 c 0.02344,-0.398438 0.03516,-0.808594 0.234375,-1.136719 0.269531,-0.398437 0.667969,-0.515625 0.949219,-0.515625 1.171875,0 1.183594,1.300781 1.195312,1.652344 z m 0,0"
         style="fill:#000000;fill-opacity:1;fill-rule:nonzero;stroke:none" />
      <path
         id="path95"
         d="m 35.790305,83.611898 c 0,-0.246093 -0.04687,-0.246093 -0.339844,-0.246093 -0.433594,0.339843 -0.996094,0.445312 -1.558594,0.445312 h -0.164062 v 0.386719 h 0.164062 c 0.28125,0 0.703125,-0.04687 0.996094,-0.140625 v 3.492187 h -1.101563 v 0.386719 c 0.339844,-0.02344 1.183594,-0.02344 1.558594,-0.02344 0.246094,0 0.503906,0 0.75,0 0.210938,0 0.574219,0.01172 0.773438,0.02344 v -0.386719 h -1.078125 z m 0,0"
         style="fill:#000000;fill-opacity:1;fill-rule:nonzero;stroke:none" />
      <path
         id="path96"
         d="m 38.696555,87.326742 c 0.175781,-0.1875 0.304687,-0.316406 0.902343,-0.796875 0.140625,-0.117187 0.667969,-0.527344 0.867188,-0.726562 0.421875,-0.421875 0.691406,-0.773438 0.691406,-0.855469 0,-0.08203 -0.09375,-0.08203 -0.117187,-0.08203 -0.05859,0 -0.08203,0.01172 -0.117188,0.07031 -0.222656,0.316406 -0.363281,0.421875 -0.527344,0.421875 -0.09375,0 -0.199218,-0.01172 -0.398437,-0.210937 -0.246094,-0.234375 -0.398438,-0.28125 -0.550781,-0.28125 -0.5625,0 -0.9375,0.597656 -0.9375,0.808593 0,0.07031 0.07031,0.08203 0.117187,0.08203 0.08203,0 0.09375,-0.01172 0.128906,-0.09375 0.105469,-0.246094 0.492188,-0.257813 0.597657,-0.257813 0.164062,0 0.351562,0.04687 0.445312,0.05859 0.386719,0.09375 0.433594,0.09375 0.609375,0.09375 -0.1875,0.1875 -0.304687,0.304687 -0.972656,0.84375 -0.539063,0.421875 -0.726563,0.597656 -0.867188,0.738281 -0.410156,0.410156 -0.621093,0.714844 -0.621093,0.785156 0,0.08203 0.09375,0.08203 0.117187,0.08203 0.07031,0 0.09375,-0.01172 0.128906,-0.07031 0.1875,-0.269531 0.398438,-0.421875 0.632813,-0.421875 0.08203,0 0.1875,0 0.375,0.175781 0.222656,0.210938 0.363281,0.316407 0.585937,0.316407 0.738282,0 1.207032,-0.84375 1.207032,-1.078125 0,-0.08203 -0.07031,-0.09375 -0.117188,-0.09375 -0.08203,0 -0.09375,0.03516 -0.128906,0.117187 -0.128906,0.339844 -0.539063,0.515625 -0.878906,0.515625 -0.164063,0 -0.339844,-0.03516 -0.515625,-0.08203 -0.316407,-0.07031 -0.375,-0.07031 -0.492188,-0.07031 -0.02344,0 -0.117187,0 -0.164062,0.01172 z m 0,0"
         style="fill:#000000;fill-opacity:1;fill-rule:nonzero;stroke:none" />
      <path
         id="path97"
         d="m 59.687766,79.390219 -1.335938,1.359375 0.175781,0.175781 1.160157,-1.019531 1.136718,1.019531 0.1875,-0.175781 z m 0,0"
         style="fill:#000000;fill-opacity:1;fill-rule:nonzero;stroke:none" />
      <path
         id="path98"
         d="m 57.109641,84.274008 c 0.210937,0 0.316406,0 0.316406,-0.269531 0,-0.316407 -0.05859,-1.042969 -0.5625,-1.535157 -0.363281,-0.363281 -0.890625,-0.539062 -1.582031,-0.539062 -1.59375,0 -2.460938,1.019531 -2.460938,2.273437 0,1.335938 0.996094,2.296875 2.601563,2.296875 1.570312,0 2.003906,-1.054687 2.003906,-1.21875 0,-0.1875 -0.1875,-0.1875 -0.234375,-0.1875 -0.175781,0 -0.199219,0.04687 -0.257813,0.210938 -0.210937,0.480469 -0.773437,0.796875 -1.417968,0.796875 -1.40625,0 -1.417969,-1.324219 -1.417969,-1.828125 z m -3.011719,-0.328125 c 0.02344,-0.398438 0.03516,-0.808594 0.234375,-1.136719 0.269531,-0.398437 0.667969,-0.515625 0.949219,-0.515625 1.171875,0 1.183593,1.300781 1.195312,1.652344 z m 0,0"
         style="fill:#000000;fill-opacity:1;fill-rule:nonzero;stroke:none" />
      <path
         id="path99"
         d="m 59.863547,85.674398 c 0.820312,0 0.855469,0.621094 0.855469,0.996094 0,0.292969 0,0.996094 -0.832032,0.996094 -0.1875,0 -0.621093,-0.03516 -0.925781,-0.222656 0.140625,-0.07031 0.328125,-0.222657 0.328125,-0.527344 0,-0.316406 -0.234375,-0.5625 -0.5625,-0.5625 -0.351562,0 -0.574219,0.246094 -0.574219,0.574219 0,0.703125 0.773438,1.089843 1.757813,1.089843 1.464844,0 1.945312,-0.761718 1.945312,-1.347656 0,-0.539062 -0.421875,-1.019531 -1.21875,-1.183594 0.503907,-0.1875 0.972657,-0.550781 0.972657,-1.136718 0,-0.539063 -0.5625,-0.984375 -1.675782,-0.984375 -0.949218,0 -1.535156,0.46875 -1.535156,1.042968 0,0.351563 0.257813,0.539063 0.527344,0.539063 0.351562,0 0.527344,-0.257813 0.527344,-0.527344 0,-0.351562 -0.28125,-0.480469 -0.351563,-0.503906 0.292969,-0.210938 0.65625,-0.234375 0.796875,-0.234375 0.691406,0 0.691406,0.457031 0.691406,0.644531 0,0.328125 -0.140625,0.960938 -0.84375,0.996094 -0.175781,0.01172 -0.351562,0.02344 -0.386718,0.03516 -0.09375,0.02344 -0.09375,0.105469 -0.09375,0.152344 0,0.164062 0.09375,0.164062 0.222656,0.164062 z m 0,0"
         style="fill:#000000;fill-opacity:1;fill-rule:nonzero;stroke:none" />
      <path
         id="path100"
         d="m 63.440695,87.326742 c 0.175782,-0.1875 0.304688,-0.316406 0.902344,-0.796875 0.140625,-0.117187 0.667969,-0.527344 0.867188,-0.726562 0.421875,-0.421875 0.691406,-0.773438 0.691406,-0.855469 0,-0.08203 -0.09375,-0.08203 -0.117188,-0.08203 -0.05859,0 -0.08203,0.01172 -0.117187,0.07031 -0.222656,0.316406 -0.363281,0.421875 -0.527344,0.421875 -0.09375,0 -0.199219,-0.01172 -0.398437,-0.210937 -0.246094,-0.234375 -0.398438,-0.28125 -0.550782,-0.28125 -0.5625,0 -0.9375,0.597656 -0.9375,0.808593 0,0.07031 0.07031,0.08203 0.117188,0.08203 0.08203,0 0.09375,-0.01172 0.128906,-0.09375 0.105469,-0.246094 0.492188,-0.257813 0.597656,-0.257813 0.164063,0 0.351563,0.04687 0.445313,0.05859 0.386719,0.09375 0.433594,0.09375 0.609375,0.09375 -0.1875,0.1875 -0.304688,0.304687 -0.972656,0.84375 -0.539063,0.421875 -0.726563,0.597656 -0.867188,0.738281 -0.410156,0.410156 -0.621094,0.714844 -0.621094,0.785156 0,0.08203 0.09375,0.08203 0.117188,0.08203 0.07031,0 0.09375,-0.01172 0.128906,-0.07031 0.1875,-0.269531 0.398438,-0.421875 0.632813,-0.421875 0.08203,0 0.1875,0 0.375,0.175781 0.222656,0.210938 0.363281,0.316407 0.585937,0.316407 0.738281,0 1.207031,-0.84375 1.207031,-1.078125 0,-0.08203 -0.07031,-0.09375 -0.117187,-0.09375 -0.08203,0 -0.09375,0.03516 -0.128906,0.117187 -0.128907,0.339844 -0.539063,0.515625 -0.878907,0.515625 -0.164062,0 -0.339843,-0.03516 -0.515625,-0.08203 -0.316406,-0.07031 -0.375,-0.07031 -0.492187,-0.07031 -0.02344,0 -0.117188,0 -0.164063,0.01172 z m 0,0"
         style="fill:#000000;fill-opacity:1;fill-rule:nonzero;stroke:none" />
      <path
         id="path101"
         d="m 84.428977,79.390219 -1.335938,1.359375 0.175781,0.175781 1.160157,-1.019531 1.136718,1.019531 0.1875,-0.175781 z m 0,0"
         style="fill:#000000;fill-opacity:1;fill-rule:nonzero;stroke:none" />
      <path
         id="path102"
         d="m 81.853781,84.274008 c 0.210938,0 0.316406,0 0.316406,-0.269531 0,-0.316407 -0.05859,-1.042969 -0.5625,-1.535157 -0.363281,-0.363281 -0.890625,-0.539062 -1.582031,-0.539062 -1.59375,0 -2.460937,1.019531 -2.460937,2.273437 0,1.335938 0.996093,2.296875 2.601562,2.296875 1.570313,0 2.003906,-1.054687 2.003906,-1.21875 0,-0.1875 -0.1875,-0.1875 -0.234375,-0.1875 -0.175781,0 -0.199218,0.04687 -0.257812,0.210938 -0.210938,0.480469 -0.773438,0.796875 -1.417969,0.796875 -1.40625,0 -1.417969,-1.324219 -1.417969,-1.828125 z m -3.011719,-0.328125 c 0.02344,-0.398438 0.03516,-0.808594 0.234375,-1.136719 0.269532,-0.398437 0.667969,-0.515625 0.949219,-0.515625 1.171875,0 1.183594,1.300781 1.195313,1.652344 z m 0,0"
         style="fill:#000000;fill-opacity:1;fill-rule:nonzero;stroke:none" />
      <path
         id="path103"
         d="m 86.728781,86.857992 v -0.386719 h -0.761719 v -2.90625 c 0,-0.210937 -0.03516,-0.246093 -0.246093,-0.246093 H 85.6155 c -0.128906,0 -0.1875,0 -0.28125,0.105468 l -2.554688,3.046875 v 0.386719 h 2.226563 v 0.691406 h -0.867188 v 0.386719 c 0.351563,-0.02344 0.972657,-0.02344 1.335938,-0.02344 0.152344,0 1.078125,0.01172 1.253906,0.02344 v -0.386719 h -0.761719 v -0.691406 z m -1.628906,-2.578125 v 2.191406 h -1.839844 z m 0,0"
         style="fill:#000000;fill-opacity:1;fill-rule:nonzero;stroke:none" />
      <path
         id="path104"
         d="m 88.184836,87.326742 c 0.175781,-0.1875 0.304687,-0.316406 0.902344,-0.796875 0.140625,-0.117187 0.667968,-0.527344 0.867187,-0.726562 0.421875,-0.421875 0.691406,-0.773438 0.691406,-0.855469 0,-0.08203 -0.09375,-0.08203 -0.117187,-0.08203 -0.05859,0 -0.08203,0.01172 -0.117188,0.07031 -0.222656,0.316406 -0.363281,0.421875 -0.527343,0.421875 -0.09375,0 -0.199219,-0.01172 -0.398438,-0.210937 -0.246094,-0.234375 -0.398437,-0.28125 -0.550781,-0.28125 -0.5625,0 -0.9375,0.597656 -0.9375,0.808593 0,0.07031 0.07031,0.08203 0.117187,0.08203 0.08203,0 0.09375,-0.01172 0.128907,-0.09375 0.105468,-0.246094 0.492187,-0.257813 0.597656,-0.257813 0.164062,0 0.351562,0.04687 0.445312,0.05859 0.386719,0.09375 0.433594,0.09375 0.609375,0.09375 -0.1875,0.1875 -0.304687,0.304687 -0.972656,0.84375 -0.539062,0.421875 -0.726562,0.597656 -0.867187,0.738281 -0.410157,0.410156 -0.621094,0.714844 -0.621094,0.785156 0,0.08203 0.09375,0.08203 0.117187,0.08203 0.07031,0 0.09375,-0.01172 0.128907,-0.07031 0.1875,-0.269531 0.398437,-0.421875 0.632812,-0.421875 0.08203,0 0.1875,0 0.375,0.175781 0.222656,0.210938 0.363281,0.316407 0.585938,0.316407 0.738281,0 1.207031,-0.84375 1.207031,-1.078125 0,-0.08203 -0.07031,-0.09375 -0.117188,-0.09375 -0.08203,0 -0.09375,0.03516 -0.128906,0.117187 -0.128906,0.339844 -0.539062,0.515625 -0.878906,0.515625 -0.164063,0 -0.339844,-0.03516 -0.515625,-0.08203 -0.316406,-0.07031 -0.375,-0.07031 -0.492188,-0.07031 -0.02344,0 -0.117187,0 -0.164062,0.01172 z m 0,0"
         style="fill:#000000;fill-opacity:1;fill-rule:nonzero;stroke:none" />
      <path
         id="path105"
         d="m 94.510031,72.092367 h 0.691406 V 54.174398 h -3.316406 v 0.691407 h 2.625 z m 0,17.241211 h -2.625 v 0.679688 h 3.316406 V 72.095297 h -0.691406 z m 0,0"
         style="fill:#000000;fill-opacity:1;fill-rule:nonzero;stroke:none" />
      <path
         id="path106"
         d="m -8.6266875,98.398031 h 0.8554687 c 0.1992188,0 0.3046875,0 0.3046875,-0.199218 0,-0.105469 -0.1054687,-0.105469 -0.2695312,-0.105469 h -0.8320313 l 0.2109375,-1.136719 c 0.035156,-0.210937 0.1757813,-0.914062 0.234375,-1.042969 0.09375,-0.1875 0.2578125,-0.339843 0.46875,-0.339843 0.046875,0 0.3046875,0 0.4921875,0.1875 -0.4335937,0.03516 -0.5390625,0.386718 -0.5390625,0.539062 0,0.222656 0.1757813,0.339844 0.3632813,0.339844 0.2695312,0 0.5507812,-0.210938 0.5507812,-0.597656 0,-0.457032 -0.4570312,-0.679688 -0.8671875,-0.679688 -0.3398437,0 -0.9609375,0.175781 -1.265625,1.160156 -0.058594,0.210938 -0.082031,0.316407 -0.328125,1.570313 h -0.6796875 c -0.1992192,0 -0.3046872,0 -0.3046872,0.1875 0,0.117187 0.09375,0.117187 0.2812497,0.117187 h 0.65625 l -0.7499997,3.937499 c -0.175782,0.96094 -0.339844,1.875 -0.867188,1.875 -0.03516,0 -0.28125,0 -0.46875,-0.1875 0.457031,-0.0234 0.539063,-0.38672 0.539063,-0.53906 0,-0.22266 -0.175782,-0.33984 -0.363282,-0.33984 -0.257812,0 -0.550781,0.21093 -0.550781,0.59765 0,0.44531 0.433594,0.67969 0.84375,0.67969 0.550781,0 0.949219,-0.58594 1.1250002,-0.96094 0.328125,-0.63281 0.5507813,-1.83984 0.5625,-1.91015 z m 0,0"
         style="fill:#000000;fill-opacity:1;fill-rule:nonzero;stroke:none" />
      <path
         id="path107"
         d="m -3.0397734,104.77303 c 0,-0.0352 0,-0.0469 -0.1640625,-0.22265 -1.2421875,-1.25391 -1.5703125,-3.12891 -1.5703125,-4.664067 0,-1.722657 0.3867187,-3.457032 1.6054687,-4.710938 0.1289063,-0.117187 0.1289063,-0.128906 0.1289063,-0.164062 0,-0.07031 -0.035156,-0.105469 -0.09375,-0.105469 -0.1054688,0 -0.9960938,0.679687 -1.5820313,1.945312 -0.515625,1.101563 -0.6328125,2.203125 -0.6328125,3.035157 0,0.785157 0.1171875,1.992187 0.65625,3.117187 0.5976563,1.21875 1.453125,1.875 1.5585938,1.875 0.058594,0 0.09375,-0.0352 0.09375,-0.10547 z m 0,0"
         style="fill:#000000;fill-opacity:1;fill-rule:nonzero;stroke:none" />
      <path
         id="path108"
         d="m 2.5822969,98.632406 c 0.058594,-0.140625 0.1054687,-0.199218 0.7382812,-0.199218 v -0.46875 c -0.2460937,0.01172 -0.5390625,0.02344 -0.7851562,0.02344 -0.2460938,0 -0.703125,-0.02344 -0.9023438,-0.02344 v 0.46875 c 0.1875,0 0.46875,0.02344 0.46875,0.105468 0,0.01172 -0.011719,0.02344 -0.046875,0.117188 l -1.16015623,2.496096 -1.25390625,-2.718752 h 0.52734375 v -0.46875 c -0.328125,0.01172 -1.21874997,0.02344 -1.23046877,0.02344 -0.28125,0 -0.7265625,-0.02344 -1.1367187,-0.02344 v 0.46875 h 0.6445312 l 1.73437502,3.738282 c 0.1171875,0.24609 0.2578125,0.24609 0.38671875,0.24609 0.1640625,0 0.26953125,-0.0234 0.36328125,-0.23437 z m 0,0"
         style="fill:#000000;fill-opacity:1;fill-rule:nonzero;stroke:none" />
      <path
         id="path109"
         d="m 6.631125,99.886313 c 0,-0.773438 -0.1171875,-1.980469 -0.65625,-3.105469 -0.5976563,-1.21875 -1.4648438,-1.875 -1.5585938,-1.875 -0.058594,0 -0.1054687,0.04687 -0.1054687,0.105469 0,0.03516 0,0.04687 0.1992187,0.234375 0.9726563,0.984375 1.5351563,2.566406 1.5351563,4.640625 0,1.710937 -0.3632813,3.457027 -1.59375,4.722657 -0.140625,0.11719 -0.140625,0.12891 -0.140625,0.16406 0,0.0586 0.046875,0.10547 0.1054687,0.10547 0.09375,0 0.9960938,-0.67969 1.5820313,-1.94531 0.5039062,-1.10156 0.6328125,-2.20313 0.6328125,-3.046877 z m 10.605469,-0.761719 c 0.152343,0 0.339843,0 0.339843,-0.199219 0,-0.199219 -0.1875,-0.199219 -0.328125,-0.199219 h -5.964843 c -0.140625,0 -0.328125,0 -0.328125,0.199219 0,0.199219 0.1875,0.199219 0.339843,0.199219 z m 0.01172,1.933596 c 0.140625,0 0.328125,0 0.328125,-0.19922 0,-0.19922 -0.1875,-0.19922 -0.339843,-0.19922 h -5.941407 c -0.152343,0 -0.339843,0 -0.339843,0.19922 0,0.19922 0.1875,0.19922 0.328125,0.19922 z m 0,0"
         style="fill:#000000;fill-opacity:1;fill-rule:nonzero;stroke:none" />
      <path
         id="path110"
         d="m 23.728781,98.78475 v -2.765625 h 1.171875 c 1.605469,0 1.617188,0.773438 1.617188,1.382813 0,0.5625 0,1.382812 -1.640625,1.382812 z m 2.660156,0.210938 c 1.148438,-0.304688 1.652344,-0.949219 1.652344,-1.605469 0,-1.007813 -1.089844,-1.839844 -2.964844,-1.839844 h -3.785156 v 0.46875 h 1.078125 v 5.894535 h -1.078125 v 0.46875 c 0.363281,-0.0352 1.335938,-0.0352 1.757813,-0.0352 0.410156,0 1.394531,0 1.746093,0.0352 v -0.46875 h -1.066406 v -2.765629 h 1.160156 c 0.140625,0 0.574219,0 0.890625,0.339844 0.316407,0.339844 0.316407,0.539065 0.316407,1.265625 0,0.65625 0,1.13672 0.691406,1.47656 0.445312,0.22266 1.054687,0.25782 1.464844,0.25782 1.066406,0 1.195312,-0.89063 1.195312,-1.05469 0,-0.21094 -0.140625,-0.21094 -0.234375,-0.21094 -0.210937,0 -0.222656,0.0937 -0.234375,0.22266 -0.04687,0.46875 -0.339844,0.6914 -0.632812,0.6914 -0.597657,0 -0.691407,-0.71484 -0.738282,-1.125 -0.02344,-0.11718 -0.09375,-0.79687 -0.105468,-0.85547 -0.140625,-0.691402 -0.691407,-0.99609 -1.113282,-1.160152 z m 8.147461,-0.363282 c 0.05859,-0.140625 0.105469,-0.199218 0.738282,-0.199218 v -0.46875 c -0.246094,0.01172 -0.539063,0.02344 -0.785157,0.02344 -0.246093,0 -0.703125,-0.02344 -0.902343,-0.02344 v 0.46875 c 0.1875,0 0.46875,0.02344 0.46875,0.105468 0,0.01172 -0.01172,0.02344 -0.04687,0.117188 l -1.160157,2.496096 -1.253906,-2.718752 h 0.527344 v -0.46875 c -0.328125,0.01172 -1.21875,0.02344 -1.230469,0.02344 -0.28125,0 -0.726562,-0.02344 -1.136719,-0.02344 v 0.46875 h 0.644532 l 1.734375,3.738282 c 0.117187,0.24609 0.257812,0.24609 0.386718,0.24609 0.164063,0 0.269532,-0.0234 0.363282,-0.23437 z m 0,0"
         style="fill:#000000;fill-opacity:1;fill-rule:nonzero;stroke:none" />
      <path
         id="path111"
         d="m 41.995383,100.08553 h 2.777344 c 0.140625,0 0.328125,0 0.328125,-0.199217 0,-0.199219 -0.1875,-0.199219 -0.328125,-0.199219 h -2.777344 v -2.789063 c 0,-0.128906 0,-0.328125 -0.199219,-0.328125 -0.199219,0 -0.199219,0.199219 -0.199219,0.328125 v 2.789063 h -2.789062 c -0.140625,0 -0.328125,0 -0.328125,0.199219 0,0.199217 0.1875,0.199217 0.328125,0.199217 h 2.789062 v 2.80078 c 0,0.12891 0,0.32813 0.199219,0.32813 0.199219,0 0.199219,-0.19922 0.199219,-0.32813 z m 0,0"
         style="fill:#000000;fill-opacity:1;fill-rule:nonzero;stroke:none" />
      <path
         id="path112"
         d="m 53.283469,100.21444 c 0,-1.33594 -0.914063,-2.343752 -2.542969,-2.343752 -1.628906,0 -2.542969,1.019531 -2.542969,2.343752 0,1.23047 0.878906,2.22656 2.542969,2.22656 1.675781,0 2.542969,-1.00781 2.542969,-2.22656 z m -2.542969,1.82812 c -1.265625,0 -1.265625,-1.07812 -1.265625,-1.94531 0,-0.445312 0,-0.949219 0.164062,-1.289062 0.199219,-0.375 0.609375,-0.574219 1.101563,-0.574219 0.421875,0 0.832031,0.152344 1.054687,0.503906 0.210938,0.339844 0.210938,0.890625 0.210938,1.359375 0,0.86719 0,1.94531 -1.265625,1.94531 z m 0,0"
         style="fill:#000000;fill-opacity:1;fill-rule:nonzero;stroke:none" />
    </g>
    <path
       id="path113"
       d="M 93.6424,135.0483 37.41376,67.57407"
       style="fill:none;stroke:#000000;stroke-width:0.3985;stroke-linecap:butt;stroke-linejoin:miter;stroke-miterlimit:10;stroke-dasharray:none;stroke-opacity:1"
       transform="matrix(1.3333333,0,0,-1.3333333,-25.021333,268.99467)" />
    <path
       id="path114"
       d="M 3.7613,0 C 3.2994,0.1127 1.26901,0.75136 0,1.44638 V -1.44638 C 1.26901,-0.75136 3.2994,-0.1127 3.7613,0 Z"
       style="fill:#000000;fill-opacity:1;fill-rule:nonzero;stroke:#000000;stroke-width:0.3985;stroke-linecap:butt;stroke-linejoin:miter;stroke-miterlimit:10;stroke-dasharray:none;stroke-opacity:1"
       transform="matrix(-0.85353333,1.0242533,1.0242533,0.85353333,24.863693,178.89591)" />
    <g
       id="g114"
       aria-label="e&#10;1"
       transform="matrix(1.3333333,0,0,1.3333333,65.085333,138.21733)">
      <path
         id="path115"
         d="m 4.6059219,-2.1669062 c 0.2109375,0 0.3164062,0 0.3164062,-0.2695313 0,-0.3164062 -0.058594,-1.0429687 -0.5625,-1.5351562 -0.3632812,-0.3632813 -0.890625,-0.5390625 -1.5820312,-0.5390625 -1.59375,0 -2.46093752,1.0195312 -2.46093752,2.2734375 0,1.33593745 0.99609372,2.29687495 2.60156252,2.29687495 1.5703125,0 2.0039062,-1.0546875 2.0039062,-1.21874995 0,-0.1875 -0.1875,-0.1875 -0.234375,-0.1875 -0.1757812,0 -0.1992187,0.046875 -0.2578125,0.2109375 -0.2109375,0.4804687 -0.7734375,0.79687495 -1.4179687,0.79687495 -1.40625,0 -1.4179688,-1.32421875 -1.4179688,-1.82812495 z m -3.0117188,-0.328125 c 0.023437,-0.3984375 0.035156,-0.8085938 0.234375,-1.1367188 0.2695313,-0.3984375 0.6679688,-0.515625 0.9492188,-0.515625 1.171875,0 1.1835937,1.3007813 1.1953125,1.6523438 z m 0,0"
         style="fill:#000000;fill-opacity:1;fill-rule:nonzero;stroke:none" />
      <path
         id="path116"
         d="m 8.0307266,-2.8290156 c 0,-0.2460938 -0.046875,-0.2460938 -0.3398438,-0.2460938 -0.4335937,0.3398438 -0.9960937,0.4453125 -1.5585937,0.4453125 H 5.9682266 v 0.3867188 h 0.1640625 c 0.28125,0 0.703125,-0.046875 0.9960937,-0.140625 V 1.1084844 H 6.0268203 v 0.3867187 c 0.3398438,-0.023437 1.1835938,-0.023437 1.5585938,-0.023437 0.2460937,0 0.5039062,0 0.75,0 0.2109375,0 0.5742187,0.011719 0.7734375,0.023437 V 1.1084844 h -1.078125 z m 0,0"
         style="fill:#000000;fill-opacity:1;fill-rule:nonzero;stroke:none" />
    </g>
    <path
       id="path117"
       d="M 97.50706,133.20009 87.64589,83.89465"
       style="fill:none;stroke:#000000;stroke-width:0.3985;stroke-linecap:butt;stroke-linejoin:miter;stroke-miterlimit:10;stroke-dasharray:none;stroke-opacity:1"
       transform="matrix(1.3333333,0,0,-1.3333333,-25.021333,268.99467)" />
    <path
       id="path118"
       d="M 3.7613,0 C 3.2994,0.1127 1.26901,0.75136 0,1.44638 V -1.44638 C 1.26901,-0.75136 3.2994,-0.1127 3.7613,0 Z"
       style="fill:#000000;fill-opacity:1;fill-rule:nonzero;stroke:#000000;stroke-width:0.3985;stroke-linecap:butt;stroke-linejoin:miter;stroke-miterlimit:10;stroke-dasharray:none;stroke-opacity:1"
       transform="matrix(-0.26146667,1.3074,1.3074,0.26146667,91.839867,157.13513)" />
    <g
       id="g118"
       aria-label="e&#10;2"
       transform="matrix(1.3333333,0,0,1.3333333,102.50667,129.21867)">
      <path
         id="path119"
         d="m 4.6063281,-2.1679062 c 0.2109375,0 0.3164063,0 0.3164063,-0.2695313 0,-0.3164062 -0.058594,-1.0429687 -0.5625,-1.5351562 -0.3632813,-0.3632813 -0.890625,-0.5390625 -1.5820313,-0.5390625 -1.59375,0 -2.46093747,1.0195312 -2.46093747,2.2734375 0,1.33593745 0.99609377,2.29687495 2.60156247,2.29687495 1.5703125,0 2.0039063,-1.0546875 2.0039063,-1.21874995 0,-0.1875 -0.1875,-0.1875 -0.234375,-0.1875 -0.1757813,0 -0.1992188,0.046875 -0.2578125,0.2109375 -0.2109375,0.4804687 -0.7734375,0.79687495 -1.4179688,0.79687495 -1.40625,0 -1.4179687,-1.32421875 -1.4179687,-1.82812495 z m -3.0117187,-0.328125 c 0.023437,-0.3984375 0.035156,-0.8085938 0.234375,-1.1367188 0.2695312,-0.3984375 0.6679687,-0.515625 0.9492187,-0.515625 1.171875,0 1.1835938,1.3007813 1.1953125,1.6523438 z m 0,0"
         style="fill:#000000;fill-opacity:1;fill-rule:nonzero;stroke:none" />
      <path
         id="path120"
         d="M 9.2821094,-0.09954687 H 8.8367969 c -0.011719,0.08203125 -0.070312,0.5859375 -0.1992188,0.609375 -0.140625,0.0234375 -0.5625,0.0234375 -0.7265625,0.0234375 H 6.9617969 c 0.3867187,-0.28125 0.7734375,-0.5625 1.171875,-0.8203125 0.5742187,-0.36328125 1.1484375,-0.73828123 1.1484375,-1.42968753 0,-0.84375 -0.7851563,-1.359375 -1.8984375,-1.359375 -0.9492188,0 -1.6640625,0.3632813 -1.6640625,1.03125 0,0.3984375 0.328125,0.5507813 0.5390625,0.5507813 0.2578125,0 0.5507812,-0.1757813 0.5507812,-0.5507813 0,-0.328125 -0.2578125,-0.46875 -0.28125,-0.4804687 0.2460938,-0.1523438 0.5742188,-0.1640625 0.65625,-0.1640625 0.5859375,0 1.0546875,0.375 1.0546875,0.9726562 0,0.5390625 -0.3632812,0.98437503 -0.7617187,1.34765628 L 5.8133594,1.0957656 c -0.082031,0.082031 -0.09375,0.09375 -0.09375,0.234375 v 0.1640625 h 3.328125 z m 0,0"
         style="fill:#000000;fill-opacity:1;fill-rule:nonzero;stroke:none" />
    </g>
    <path
       id="path121"
       d="m 95.32167,149.51807 -20.6463,41.29098"
       style="fill:none;stroke:#000000;stroke-width:0.3985;stroke-linecap:butt;stroke-linejoin:miter;stroke-miterlimit:10;stroke-dasharray:none;stroke-opacity:1"
       transform="matrix(1.3333333,0,0,-1.3333333,-25.021333,268.99467)" />
    <path
       id="path122"
       d="M 3.7613,0 C 3.2994,0.1127 1.26901,0.75136 0,1.44638 V -1.44638 C 1.26901,-0.75136 3.2994,-0.1127 3.7613,0 Z"
       style="fill:#000000;fill-opacity:1;fill-rule:nonzero;stroke:#000000;stroke-width:0.3985;stroke-linecap:butt;stroke-linejoin:miter;stroke-miterlimit:10;stroke-dasharray:none;stroke-opacity:1"
       transform="matrix(-0.59626667,-1.1925067,-1.1925067,0.59626667,74.545827,14.582613)" />
    <g
       id="g122"
       aria-label="e&#10;3"
       transform="matrix(1.3333333,0,0,1.3333333,91.636,41.336)">
      <path
         id="path123"
         d="m 4.6060078,-2.1680156 c 0.2109375,0 0.3164063,0 0.3164063,-0.2695313 0,-0.3164062 -0.058594,-1.0429687 -0.5625,-1.5351562 -0.3632813,-0.3632813 -0.890625,-0.5390625 -1.5820313,-0.5390625 -1.59375,0 -2.46093749,1.0195312 -2.46093749,2.2734375 0,1.33593748 0.99609379,2.29687498 2.60156249,2.29687498 1.5703125,0 2.0039063,-1.0546875 2.0039063,-1.21874998 0,-0.1875 -0.1875,-0.1875 -0.234375,-0.1875 -0.1757813,0 -0.1992188,0.046875 -0.2578125,0.2109375 -0.2109375,0.48046873 -0.7734375,0.79687498 -1.4179688,0.79687498 -1.40625,0 -1.4179687,-1.32421878 -1.4179687,-1.82812498 z m -3.0117187,-0.328125 c 0.023437,-0.3984375 0.035156,-0.8085938 0.234375,-1.1367188 0.2695312,-0.3984375 0.6679687,-0.515625 0.9492187,-0.515625 1.171875,0 1.1835938,1.3007813 1.1953125,1.6523438 z m 0,0"
         style="fill:#000000;fill-opacity:1;fill-rule:nonzero;stroke:none" />
      <path
         id="path124"
         d="m 7.3599141,-0.767625 c 0.8203125,0 0.8554687,0.62109375 0.8554687,0.99609375 0,0.29296875 0,0.99609375 -0.8320312,0.99609375 -0.1875,0 -0.6210938,-0.035156 -0.9257813,-0.2226562 0.140625,-0.0703125 0.328125,-0.2226563 0.328125,-0.5273438 0,-0.31640625 -0.234375,-0.5625 -0.5625,-0.5625 -0.3515625,0 -0.5742187,0.24609375 -0.5742187,0.57421875 0,0.70312505 0.7734375,1.08984375 1.7578125,1.08984375 1.4648437,0 1.9453125,-0.76171875 1.9453125,-1.34765625 0,-0.5390625 -0.421875,-1.01953125 -1.21875,-1.18359375 0.5039062,-0.1875 0.9726562,-0.5507812 0.9726562,-1.1367187 0,-0.5390625 -0.5625,-0.984375 -1.6757812,-0.984375 -0.9492188,0 -1.5351563,0.46875 -1.5351563,1.0429687 0,0.3515625 0.2578125,0.5390625 0.5273438,0.5390625 0.3515625,0 0.5273437,-0.2578125 0.5273437,-0.5273437 0,-0.3515625 -0.28125,-0.4804688 -0.3515625,-0.5039063 0.2929688,-0.2109375 0.65625,-0.234375 0.796875,-0.234375 0.6914063,0 0.6914063,0.4570313 0.6914063,0.6445313 0,0.328125 -0.140625,0.9609375 -0.84375,0.9960937 -0.1757813,0.011719 -0.3515625,0.023437 -0.3867188,0.035156 -0.09375,0.023437 -0.09375,0.1054687 -0.09375,0.1523437 0,0.1640625 0.09375,0.1640625 0.2226563,0.1640625 z m 0,0"
         style="fill:#000000;fill-opacity:1;fill-rule:nonzero;stroke:none" />
    </g>
    <path
       id="path125"
       d="M 91.13338,138.50192 36.1215,116.49652"
       style="fill:none;stroke:#000000;stroke-width:0.3985;stroke-linecap:butt;stroke-linejoin:miter;stroke-miterlimit:10;stroke-dasharray:none;stroke-opacity:1"
       transform="matrix(1.3333333,0,0,-1.3333333,-25.021333,268.99467)" />
    <path
       id="path126"
       d="M 3.7613,0 C 3.2994,0.1127 1.26901,0.75136 0,1.44638 V -1.44638 C 1.26901,-0.75136 3.2994,-0.1127 3.7613,0 Z"
       style="fill:#000000;fill-opacity:1;fill-rule:nonzero;stroke:#000000;stroke-width:0.3985;stroke-linecap:butt;stroke-linejoin:miter;stroke-miterlimit:10;stroke-dasharray:none;stroke-opacity:1"
       transform="matrix(-1.23792,0.49516,0.49516,1.23792,23.140667,113.66597)" />
    <g
       id="g126"
       aria-label="e&#10;4"
       transform="matrix(1.3333333,0,0,1.3333333,50.136,93.446667)">
      <path
         id="path127"
         d="m 4.6060078,-2.1689844 c 0.2109375,0 0.3164063,0 0.3164063,-0.2695312 0,-0.3164063 -0.058594,-1.0429688 -0.5625,-1.5351563 -0.3632813,-0.3632812 -0.890625,-0.5390625 -1.5820313,-0.5390625 -1.59375,0 -2.46093749,1.0195313 -2.46093749,2.2734375 0,1.33593753 0.99609379,2.29687503 2.60156249,2.29687503 1.5703125,0 2.0039063,-1.0546875 2.0039063,-1.21875003 0,-0.1875 -0.1875,-0.1875 -0.234375,-0.1875 -0.1757813,0 -0.1992188,0.046875 -0.2578125,0.2109375 -0.2109375,0.48046878 -0.7734375,0.79687503 -1.4179688,0.79687503 -1.40625,0 -1.4179687,-1.32421873 -1.4179687,-1.82812503 z m -3.0117187,-0.328125 c 0.023437,-0.3984375 0.035156,-0.8085937 0.234375,-1.1367187 0.2695312,-0.3984375 0.6679687,-0.515625 0.9492187,-0.515625 1.171875,0 1.1835938,1.3007812 1.1953125,1.6523437 z m 0,0"
         style="fill:#000000;fill-opacity:1;fill-rule:nonzero;stroke:none" />
      <path
         id="path128"
         d="M 9.4810078,0.41792969 V 0.03121094 H 8.7192891 V -2.8750391 c 0,-0.2109375 -0.035156,-0.2460937 -0.2460938,-0.2460937 H 8.3677266 c -0.1289063,0 -0.1875,0 -0.28125,0.1054687 L 5.5317891,0.03121094 V 0.41792969 H 7.7583516 V 1.1093359 H 6.8911641 v 0.3867188 c 0.3515625,-0.023437 0.9726562,-0.023437 1.3359375,-0.023437 0.1523437,0 1.078125,0.011719 1.2539062,0.023437 V 1.1093359 H 8.7192891 V 0.41792969 Z M 7.8521016,-2.1601953 V 0.03121094 H 6.0122578 Z m 0,0"
         style="fill:#000000;fill-opacity:1;fill-rule:nonzero;stroke:none" />
    </g>
  </g>
</svg>
