<?xml version="1.0" encoding="UTF-8" standalone="no"?>
<!-- Created with Inkscape (http://www.inkscape.org/) -->

<svg
   width="81.138069mm"
   height="52.309437mm"
   viewBox="0 0 81.138069 52.309437"
   version="1.1"
   id="svg1"
   xml:space="preserve"
   inkscape:version="1.4 (86a8ad7, 2024-10-11)"
   sodipodi:docname="sdf-maths.svg"
   xmlns:inkscape="http://www.inkscape.org/namespaces/inkscape"
   xmlns:sodipodi="http://sodipodi.sourceforge.net/DTD/sodipodi-0.dtd"
   xmlns:xlink="http://www.w3.org/1999/xlink"
   xmlns="http://www.w3.org/2000/svg"
   xmlns:svg="http://www.w3.org/2000/svg"><sodipodi:namedview
     id="namedview1"
     pagecolor="#ffffff"
     bordercolor="#000000"
     borderopacity="0.25"
     inkscape:showpageshadow="2"
     inkscape:pageopacity="0.0"
     inkscape:pagecheckerboard="0"
     inkscape:deskcolor="#d1d1d1"
     inkscape:document-units="mm"
     showborder="false"
     inkscape:zoom="2.0359279"
     inkscape:cx="109.77796"
     inkscape:cy="159.1412"
     inkscape:window-width="1920"
     inkscape:window-height="1130"
     inkscape:window-x="-6"
     inkscape:window-y="502"
     inkscape:window-maximized="1"
     inkscape:current-layer="g1"><inkscape:page
       x="0"
       y="0"
       width="81.138069"
       height="52.309437"
       id="page1"
       margin="0"
       bleed="0" /><inkscape:page
       x="-0.00012867172"
       y="-2.406343"
       width="83.458046"
       height="54.715836"
       id="page2"
       margin="0"
       bleed="0" /></sodipodi:namedview><defs
     id="defs1"><linearGradient
       x1="0"
       y1="0"
       x2="0"
       y2="100.00128"
       gradientUnits="userSpaceOnUse"
       id="linearGradient5"><stop
         style="stop-opacity:1;stop-color:#ffffff"
         offset="0"
         id="stop1" /><stop
         style="stop-opacity:1;stop-color:#ffffff"
         offset="0.25"
         id="stop2" /><stop
         style="stop-opacity:1;stop-color:#ffffff"
         offset="0.5"
         id="stop3" /><stop
         style="stop-opacity:1;stop-color:#ffffff"
         offset="0.75"
         id="stop4" /><stop
         style="stop-opacity:1;stop-color:#ffffff"
         offset="1"
         id="stop5" /></linearGradient><clipPath
       clipPathUnits="userSpaceOnUse"
       id="clipPath6"><path
         d="m 108.29172,141.73404 c 0,5.01364 -4.06426,9.0779 -9.0779,9.0779 -5.01364,0 -9.07789,-4.06426 -9.07789,-9.0779 0,-5.01364 4.06425,-9.0779 9.07789,-9.0779 5.01364,0 9.0779,4.06426 9.0779,9.0779 z"
         transform="matrix(1.3333333,0,0,-1.3333333,-24.398667,268.99467)"
         id="path6" /></clipPath><clipPath
       clipPathUnits="userSpaceOnUse"
       id="clipPath13"><path
         d="m 38.195,56.69362 c 0,5.43906 -4.40913,9.8482 -9.8482,9.8482 -5.43907,0 -9.8482,-4.40914 -9.8482,-9.8482 0,-5.43907 4.40913,-9.84821 9.8482,-9.84821 5.43907,0 9.8482,4.40914 9.8482,9.84821 z"
         transform="matrix(1.3333333,0,0,-1.3333333,-24.398667,268.99467)"
         id="path13" /></clipPath><clipPath
       clipPathUnits="userSpaceOnUse"
       id="clipPath20"><path
         d="m 93.80235,70.867 c 0,4.83915 -3.92279,8.76194 -8.76193,8.76194 -4.83914,0 -8.76193,-3.92279 -8.76193,-8.76194 0,-4.83914 3.92279,-8.76193 8.76193,-8.76193 4.83914,0 8.76193,3.92279 8.76193,8.76193 z"
         transform="matrix(1.3333333,0,0,-1.3333333,-24.398667,268.99467)"
         id="path20" /></clipPath><clipPath
       clipPathUnits="userSpaceOnUse"
       id="clipPath27"><path
         d="m 136.50037,113.38724 c 0,4.93731 -4.00241,8.93973 -8.93975,8.93973 -4.93732,0 -8.93972,-4.00242 -8.93972,-8.93973 0,-4.93734 4.0024,-8.93974 8.93972,-8.93974 4.93734,0 8.93975,4.0024 8.93975,8.93974 z"
         transform="matrix(1.3333333,0,0,-1.3333333,-24.398667,268.99467)"
         id="path27" /></clipPath><linearGradient
       inkscape:collect="always"
       xlink:href="#linearGradient5"
       id="linearGradient2"
       gradientUnits="userSpaceOnUse"
       x1="0"
       y1="0"
       x2="0"
       y2="100.00128" /><linearGradient
       inkscape:collect="always"
       xlink:href="#linearGradient5"
       id="linearGradient3"
       gradientUnits="userSpaceOnUse"
       x1="0"
       y1="0"
       x2="0"
       y2="100.00128" /><linearGradient
       inkscape:collect="always"
       xlink:href="#linearGradient5"
       id="linearGradient4"
       gradientUnits="userSpaceOnUse"
       x1="0"
       y1="0"
       x2="0"
       y2="100.00128" /><linearGradient
       inkscape:collect="always"
       xlink:href="#linearGradient5"
       id="linearGradient6"
       gradientUnits="userSpaceOnUse"
       x1="0"
       y1="0"
       x2="0"
       y2="100.00128" /></defs><g
     inkscape:label="Layer 1"
     inkscape:groupmode="layer"
     id="layer1"
     transform="translate(-220.00014,-2.406343)" /><g
     id="g1"
     inkscape:groupmode="layer"
     inkscape:label="1"
     transform="matrix(0.26458332,0,0,0.26458334,-1.2322343e-4,-2.406343)"><g
       id="g5"
       clip-path="url(#clipPath6)"><path
         d="M 0,0 H 100 V 100 H 0 Z"
         transform="matrix(0.48421333,0,0,-0.48421333,83.67576,104.22664)"
         style="fill:url(#linearGradient2);stroke:none"
         id="path5" /></g><path
       id="path7"
       d="m 108.29172,141.73404 c 0,5.01364 -4.06426,9.0779 -9.0779,9.0779 -5.01364,0 -9.07789,-4.06426 -9.07789,-9.0779 0,-5.01364 4.06425,-9.0779 9.07789,-9.0779 5.01364,0 9.0779,4.06426 9.0779,9.0779 z"
       style="fill:none;stroke:#000000;stroke-width:0.3985;stroke-linecap:butt;stroke-linejoin:miter;stroke-miterlimit:10;stroke-dasharray:none;stroke-opacity:1"
       transform="matrix(1.3333333,0,0,-1.3333333,-24.398667,268.99467)" /><path
       id="path8"
       d="m 5.3439766,-5.9303984 c -0.1289063,0.1289062 -0.4570313,0.4101562 -0.4570313,0.5859375 0,0.1054687 0.09375,0.1992187 0.1992188,0.1992187 0.082031,0 0.1289062,-0.070312 0.1875,-0.1289062 0.1171875,-0.140625 0.3398437,-0.421875 0.7851562,-0.6445313 0.070312,-0.035156 0.1640625,-0.09375 0.1640625,-0.2109375 0,-0.09375 -0.070312,-0.1523437 -0.140625,-0.1992187 -0.2109375,-0.1523438 -0.328125,-0.328125 -0.3984375,-0.5625 -0.023437,-0.09375 -0.070312,-0.2226563 -0.1992187,-0.2226563 -0.140625,0 -0.1992188,0.1289063 -0.1992188,0.2109375 0,0.046875 0.070312,0.3632813 0.234375,0.5742188 H 2.1564766 c -0.1640625,0 -0.3398438,0 -0.3398438,0.1992187 0,0.1992188 0.1757813,0.1992188 0.3398438,0.1992188 z m -1.0019532,2.1679687 c -0.1757812,-0.375 -0.46875,-0.6445312 -0.9140625,-0.6445312 -1.171875,0 -2.4023437,1.4648437 -2.4023437,2.9179687 0,0.93750001 0.5507812,1.59375001 1.3242187,1.59375001 0.1992188,0 0.703125,-0.03515625 1.3007813,-0.73828125 0.070312,0.41015625 0.421875,0.73828125 0.9023437,0.73828125 0.3515625,0 0.5742188,-0.22265625 0.7382813,-0.5390625 0.1640625,-0.36328125 0.2929687,-0.97265621 0.2929687,-0.99609371 0,-0.09375 -0.082031,-0.09375 -0.1171875,-0.09375 -0.09375,0 -0.1054687,0.035156 -0.140625,0.1757812 -0.1640625,0.64453126 -0.3515625,1.24218751 -0.75,1.24218751 -0.2695312,0 -0.3046875,-0.2578125 -0.3046875,-0.45703125 0,-0.22265625 0.023437,-0.3046875 0.1289063,-0.73828126 0.1171875,-0.421875 0.1289062,-0.5273437 0.2226562,-0.9023437 l 0.3515625,-1.3945313 c 0.070312,-0.28125 0.070312,-0.2929687 0.070312,-0.3398437 0,-0.1640625 -0.1171875,-0.2695313 -0.28125,-0.2695313 -0.2460937,0 -0.3867187,0.2226563 -0.4218745,0.4453125 z m -0.6445312,2.578125 c -0.046875,0.1757813 -0.046875,0.19921876 -0.1992188,0.36328126 -0.4453125,0.55078125 -0.84375,0.71484375 -1.125,0.71484375 -0.5039062,0 -0.6445312,-0.55078125 -0.6445312,-0.93750001 0,-0.5039062 0.328125,-1.7226562 0.5507812,-2.1796875 0.3046875,-0.5976562 0.7617188,-0.9609375 1.1601563,-0.9609375 0.6445312,0 0.7851562,0.8203125 0.7851562,0.8789063 0,0.058594 -0.023437,0.1171875 -0.035156,0.1640625 z m 0,0"
       style="fill:#000000;fill-opacity:1;fill-rule:nonzero;stroke:none"
       aria-label="⃗a"
       transform="matrix(1.3333333,0,0,1.3333333,103.54267,84.762667)" /><g
       id="g12"
       clip-path="url(#clipPath13)"><path
         d="M 0,0 H 100 V 100 H 0 Z"
         transform="matrix(0.52529333,0,0,-0.52529333,-12.867613,219.66784)"
         style="fill:url(#linearGradient3);stroke:none"
         id="path12" /></g><path
       id="path14"
       d="m 38.195,56.69362 c 0,5.43906 -4.40913,9.8482 -9.8482,9.8482 -5.43907,0 -9.8482,-4.40914 -9.8482,-9.8482 0,-5.43907 4.40913,-9.84821 9.8482,-9.84821 5.43907,0 9.8482,4.40914 9.8482,9.84821 z"
       style="fill:none;stroke:#000000;stroke-width:0.3985;stroke-linecap:butt;stroke-linejoin:miter;stroke-miterlimit:10;stroke-dasharray:none;stroke-opacity:1"
       transform="matrix(1.3333333,0,0,-1.3333333,-24.398667,268.99467)" /><path
       id="path15"
       d="m 5.3447656,-5.9307891 c -0.1289062,0.1289063 -0.4570312,0.4101563 -0.4570312,0.5859375 0,0.1054688 0.09375,0.1992188 0.1992187,0.1992188 0.082031,0 0.1289063,-0.070312 0.1875,-0.1289063 0.1171875,-0.140625 0.3398438,-0.421875 0.7851563,-0.6445312 0.070312,-0.035156 0.1640625,-0.09375 0.1640625,-0.2109375 0,-0.09375 -0.070312,-0.1523438 -0.140625,-0.1992188 -0.2109375,-0.1523437 -0.328125,-0.328125 -0.3984375,-0.5625 -0.023437,-0.09375 -0.070312,-0.2226562 -0.1992188,-0.2226562 -0.140625,0 -0.1992187,0.1289062 -0.1992187,0.2109375 0,0.046875 0.070312,0.3632812 0.234375,0.5742187 H 2.1572656 c -0.1640625,0 -0.3398437,0 -0.3398437,0.1992188 0,0.1992187 0.1757812,0.1992187 0.3398437,0.1992187 z m -1.8457031,1.7519532 c 0,0 0,-0.1054688 -0.1289062,-0.1054688 -0.2226563,0 -0.9492188,0.082031 -1.21875,0.1054688 -0.070312,0 -0.1875,0.011719 -0.1875,0.1992187 0,0.1171875 0.09375,0.1171875 0.2460937,0.1171875 0.46875,0 0.4921875,0.070312 0.4921875,0.1640625 0,0.070312 -0.082031,0.4101563 -0.140625,0.6210938 L 1.7529688,0.16882031 c -0.1289063,0.50390625 -0.1640625,0.65625 -0.1640625,1.00781249 0,0.9492188 0.5273437,1.5585938 1.265625,1.5585938 1.171875,0 2.4023437,-1.4765625 2.4023437,-2.91796879 0,-0.90234371 -0.5273437,-1.59375001 -1.3242187,-1.59375001 -0.4570313,0 -0.8671875,0.2929688 -1.171875,0.5976563 z m -0.9375,3.77343746 c 0.058594,-0.22265625 0.058594,-0.24609375 0.1523438,-0.3515625 0.4921875,-0.64453126 0.9375,-0.79687496 1.1953125,-0.79687496 0.3632812,0 0.6328125,0.2929687 0.6328125,0.93749996 0,0.5859375 -0.328125,1.73437504 -0.515625,2.10937504 -0.328125,0.6679687 -0.7851563,1.03125 -1.171875,1.03125 -0.3398438,0 -0.6679688,-0.2695313 -0.6679688,-1.0078125 0,-0.1875 0,-0.3867188 0.1640625,-1.00781254 z m 0,0"
       style="fill:#000000;fill-opacity:1;fill-rule:nonzero;stroke:none"
       aria-label="⃗&#10;b"
       transform="matrix(1.3333333,0,0,1.3333333,9.0533333,196.396)" /><g
       id="g19"
       clip-path="url(#clipPath20)"><path
         d="M 0,0 H 100 V 100 H 0 Z"
         transform="matrix(0.46734667,0,0,-0.46734667,65.6212,197.87268)"
         style="fill:url(#linearGradient4);stroke:none"
         id="path19" /></g><path
       id="path21"
       d="m 93.80235,70.867 c 0,4.83915 -3.92279,8.76194 -8.76193,8.76194 -4.83914,0 -8.76193,-3.92279 -8.76193,-8.76194 0,-4.83914 3.92279,-8.76193 8.76193,-8.76193 4.83914,0 8.76193,3.92279 8.76193,8.76193 z"
       style="fill:none;stroke:#000000;stroke-width:0.3985;stroke-linecap:butt;stroke-linejoin:miter;stroke-miterlimit:10;stroke-dasharray:none;stroke-opacity:1"
       transform="matrix(1.3333333,0,0,-1.3333333,-24.398667,268.99467)" /><path
       id="path22"
       d="m 5.3438594,-5.9301875 c -0.1289063,0.1289062 -0.4570313,0.4101562 -0.4570313,0.5859375 0,0.1054687 0.09375,0.1992187 0.1992188,0.1992187 0.082031,0 0.1289062,-0.070312 0.1875,-0.1289062 0.1171875,-0.140625 0.3398437,-0.421875 0.7851562,-0.6445313 0.070312,-0.035156 0.1640625,-0.09375 0.1640625,-0.2109375 0,-0.09375 -0.070312,-0.1523437 -0.140625,-0.1992187 -0.2109375,-0.1523438 -0.328125,-0.328125 -0.3984375,-0.5625 -0.023437,-0.09375 -0.070312,-0.2226563 -0.1992187,-0.2226563 -0.140625,0 -0.1992188,0.1289063 -0.1992188,0.2109375 0,0.046875 0.070312,0.3632813 0.234375,0.5742188 H 2.1563594 c -0.1640625,0 -0.3398438,0 -0.3398438,0.1992187 0,0.1992188 0.1757813,0.1992188 0.3398438,0.1992188 z m -0.8466797,2.1445312 c -0.1640625,0 -0.3046875,0 -0.4453125,0.140625 -0.1523438,0.1523438 -0.1757813,0.3164063 -0.1757813,0.3867188 0,0.234375 0.1757813,0.3515625 0.3632813,0.3515625 0.2929687,0 0.5625,-0.2460938 0.5625,-0.6445313 0,-0.4804687 -0.46875,-0.8554687 -1.171875,-0.8554687 -1.3476563,0 -2.67187501,1.4296875 -2.67187501,2.8359375 0,0.890625 0.57421871,1.67578125 1.61718751,1.67578125 1.4179687,0 2.2617187,-1.0546875 2.2617187,-1.17187505 0,-0.058594 -0.070312,-0.1289062 -0.1289062,-0.1289062 -0.046875,0 -0.070312,0.023437 -0.1289063,0.09375 -0.7851562,0.99609375 -1.875,0.99609375 -1.9921875,0.99609375 -0.6210937,0 -0.890625,-0.4921875 -0.890625,-1.08984375 0,-0.4101563 0.1992188,-1.3710938 0.5390625,-1.9921875 0.3046875,-0.5625 0.8554688,-0.9960938 1.40625,-0.9960938 0.328125,0 0.7148438,0.1289063 0.8554688,0.3984375 z m 0,0"
       style="fill:#000000;fill-opacity:1;fill-rule:nonzero;stroke:none"
       aria-label="⃗c"
       transform="matrix(1.3333333,0,0,1.3333333,85.382667,179.25067)" /><g
       id="g26"
       clip-path="url(#clipPath27)"><path
         d="M 0,0 H 100 V 100 H 0 Z"
         transform="matrix(0.47682667,0,0,-0.47682667,121.84081,141.65301)"
         style="fill:url(#linearGradient6);stroke:none"
         id="path26" /></g><path
       id="path28"
       d="m 136.50037,113.38724 c 0,4.93731 -4.00241,8.93973 -8.93975,8.93973 -4.93732,0 -8.93972,-4.00242 -8.93972,-8.93973 0,-4.93734 4.0024,-8.93974 8.93972,-8.93974 4.93734,0 8.93975,4.0024 8.93975,8.93974 z"
       style="fill:none;stroke:#000000;stroke-width:0.3985;stroke-linecap:butt;stroke-linejoin:miter;stroke-miterlimit:10;stroke-dasharray:none;stroke-opacity:1"
       transform="matrix(1.3333333,0,0,-1.3333333,-24.398667,268.99467)" /><path
       id="path29"
       d="m 5.3424141,-5.9297422 c -0.1289063,0.1289063 -0.4570313,0.4101563 -0.4570313,0.5859375 0,0.1054688 0.09375,0.1992188 0.1992188,0.1992188 0.082031,0 0.1289062,-0.070312 0.1875,-0.1289063 0.1171875,-0.140625 0.3398437,-0.421875 0.7851562,-0.6445312 0.070312,-0.035156 0.1640625,-0.09375 0.1640625,-0.2109375 0,-0.09375 -0.070312,-0.1523438 -0.140625,-0.1992188 -0.2109375,-0.1523437 -0.328125,-0.328125 -0.3984375,-0.5625 -0.023437,-0.09375 -0.070312,-0.2226562 -0.1992187,-0.2226562 -0.140625,0 -0.1992188,0.1289062 -0.1992188,0.2109375 0,0.046875 0.070312,0.3632812 0.234375,0.5742187 H 2.1549141 c -0.1640625,0 -0.3398438,0 -0.3398438,0.1992188 0,0.1992187 0.1757813,0.1992187 0.3398438,0.1992187 z m -0.3779297,3.2109375 c 0,-1.03125 -0.703125,-1.6875 -1.59375,-1.6875 -1.3359375,0 -2.67187503,1.4179688 -2.67187503,2.8359375 0,0.98437501 0.66796873,1.67578126 1.59375003,1.67578126 1.3242187,0 2.671875,-1.37109376 2.671875,-2.82421876 z m -2.6601563,2.61328126 c -0.4335937,0 -0.8671875,-0.31640625 -0.8671875,-1.08984376 0,-0.4921875 0.2578125,-1.5585937 0.5742188,-2.0742187 0.5039062,-0.7617188 1.0664062,-0.9140625 1.3476562,-0.9140625 0.5742188,0 0.8789063,0.4804687 0.8789063,1.078125 0,0.3867187 -0.1992188,1.4296875 -0.5859375,2.0742187 -0.3398438,0.58593751 -0.890625,0.92578126 -1.3476563,0.92578126 z m 0,0"
       style="fill:#000000;fill-opacity:1;fill-rule:nonzero;stroke:none"
       aria-label="⃗o"
       transform="matrix(1.3333333,0,0,1.3333333,142.076,122.55867)" /><g
       id="g29"
       aria-label="ˆe&#10;1&#10;=||b−a||&#10;ˆe&#10;2&#10;=||c−a||&#10;ˆe&#10;3&#10;=ˆe&#10;1&#10;×ˆe&#10;2&#10;ˆe&#10;4&#10;=ˆe&#10;1&#10;×ˆe&#10;3&#10;R=&#10;&#10;&#10;ˆe&#10;1x&#10;ˆe&#10;3x&#10;ˆe&#10;4x&#10;ˆe&#10;1y&#10;ˆe&#10;3y&#10;ˆe&#10;4y&#10;ˆe&#10;1z&#10;ˆe&#10;3z&#10;ˆe&#10;4z&#10;&#10;&#10;f(⃗v)=R⃗v+⃗o"
       transform="matrix(1.3333333,0,0,1.3333333,185.11867,35.021333)"><path
         id="path30"
         d="m 2.4949844,-6.9154141 -1.3359375,1.359375 0.1757812,0.1757813 1.1601563,-1.0195313 1.1367187,1.0195313 0.1875,-0.1757813 z m 0,0"
         style="fill:#000000;fill-opacity:1;fill-rule:nonzero;stroke:none" /><path
         id="path31"
         d="m -0.20032812,-2.2982266 c 0.29296875,0 1.03125,-0.023437 1.52343752,-0.234375 0.703125,-0.2929687 0.75,-0.890625 0.75,-1.0195312 0,-0.4453125 -0.3867188,-0.8554688 -1.0664063,-0.8554688 -1.11328122,0 -2.6132812,0.9726563 -2.6132812,2.7070313 0,1.01953124 0.5859375,1.80468749 1.57031248,1.80468749 1.41796872,0 2.26171872,-1.0546875 2.26171872,-1.17187499 0,-0.058594 -0.070312,-0.1289063 -0.1289062,-0.1289063 -0.046875,0 -0.070312,0.023437 -0.1289063,0.09375 -0.7851562,0.99609379 -1.87499997,0.99609379 -1.99218747,0.99609379 -0.7734375,0 -0.8671875,-0.84375 -0.8671875,-1.16015629 0,-0.1171875 0.0117188,-0.4335937 0.1640625,-1.03125 z m -0.46875,-0.2226562 c 0.38671875,-1.5117188 1.41796875,-1.6640625 1.67578122,-1.6640625 0.46875,0 0.7382813,0.2929687 0.7382813,0.6328125 0,1.03125 -1.59375002,1.03125 -2.00390627,1.03125 z m 0,0"
         style="fill:#000000;fill-opacity:1;fill-rule:nonzero;stroke:none" /><path
         id="path32"
         d="m 4.9061172,-2.9368984 c 0,-0.1875 -0.011719,-0.1992188 -0.2109375,-0.1992188 -0.4453125,0.4335938 -1.078125,0.4453125 -1.359375,0.4453125 v 0.2460938 c 0.1640625,0 0.6210937,0 1.0078125,-0.1875 v 3.55078121 c 0,0.23437499 0,0.32812499 -0.6914063,0.32812499 H 3.3826797 v 0.2460938 c 0.1289062,-0.011719 0.984375,-0.023437 1.2421875,-0.023437 0.2109375,0 1.0898437,0.011719 1.2421875,0.023437 V 1.2466953 H 5.6092422 c -0.703125,0 -0.703125,-0.09375 -0.703125,-0.32812499 z m 0,0"
         style="fill:#000000;fill-opacity:1;fill-rule:nonzero;stroke:none" /><path
         id="path33"
         d="m 16.657094,-3.2591641 c 0.152344,0 0.339844,0 0.339844,-0.1992187 0,-0.1992188 -0.1875,-0.1992188 -0.328125,-0.1992188 h -5.964844 c -0.140625,0 -0.328125,0 -0.328125,0.1992188 0,0.1992187 0.1875,0.1992187 0.339844,0.1992187 z m 0.01172,1.9335938 c 0.140625,0 0.328125,0 0.328125,-0.1992188 0,-0.1992187 -0.1875,-0.1992187 -0.339844,-0.1992187 h -5.941406 c -0.152344,0 -0.339844,0 -0.339844,0.1992187 0,0.1992188 0.1875,0.1992188 0.328125,0.1992188 z m 0,0"
         style="fill:#000000;fill-opacity:1;fill-rule:nonzero;stroke:none" /><path
         id="path34"
         d="m 21.910023,-7.1146328 c 0,-0.1757813 0,-0.3632813 -0.199218,-0.3632813 -0.199219,0 -0.199219,0.1875 -0.199219,0.3632813 v 9.2460937 c 0,0.1757813 0,0.3632813 0.199219,0.3632813 0.199218,0 0.199218,-0.1875 0.199218,-0.3632813 z m 2.768555,0 c 0,-0.1757813 0,-0.3632813 -0.199219,-0.3632813 -0.199218,0 -0.199218,0.1875 -0.199218,0.3632813 v 9.2460937 c 0,0.1757813 0,0.3632813 0.199218,0.3632813 0.199219,0 0.199219,-0.1875 0.199219,-0.3632813 z m 0,0"
         style="fill:#000000;fill-opacity:1;fill-rule:nonzero;stroke:none" /><path
         id="path35"
         d="m 28.241078,-6.8099453 c 0,0 0,-0.1054688 -0.128906,-0.1054688 -0.222656,0 -0.949219,0.082031 -1.21875,0.1054688 -0.07031,0 -0.1875,0.011719 -0.1875,0.1992187 0,0.1171875 0.09375,0.1171875 0.246094,0.1171875 0.46875,0 0.492187,0.070312 0.492187,0.1640625 0,0.070312 -0.08203,0.4101563 -0.140625,0.6210938 l -0.808594,3.2460937 c -0.128906,0.5039063 -0.164062,0.65625 -0.164062,1.0078125 0,0.94921879 0.527344,1.55859379 1.265625,1.55859379 1.171875,0 2.402344,-1.47656249 2.402344,-2.91796879 0,-0.9023437 -0.527344,-1.59375 -1.324219,-1.59375 -0.457031,0 -0.867188,0.2929688 -1.171875,0.5976563 z m -0.9375,3.7734375 c 0.05859,-0.2226563 0.05859,-0.2460938 0.152344,-0.3515625 0.492187,-0.6445313 0.9375,-0.796875 1.195312,-0.796875 0.363282,0 0.632813,0.2929687 0.632813,0.9375 0,0.5859375 -0.328125,1.734375 -0.515625,2.109375 -0.328125,0.66796874 -0.785156,1.03124999 -1.171875,1.03124999 -0.339844,0 -0.667969,-0.26953125 -0.667969,-1.00781249 0,-0.1875 0,-0.3867188 0.164063,-1.0078125 z m 0,0"
         style="fill:#000000;fill-opacity:1;fill-rule:nonzero;stroke:none" /><path
         id="path36"
         d="m 38.91393,-2.2982266 c 0.175781,0 0.351562,0 0.351562,-0.1992187 0,-0.1992188 -0.175781,-0.1992188 -0.351562,-0.1992188 h -5.390625 c -0.164063,0 -0.339844,0 -0.339844,0.1992188 0,0.1992187 0.175781,0.1992187 0.339844,0.1992187 z m 0,0"
         style="fill:#000000;fill-opacity:1;fill-rule:nonzero;stroke:none" /><path
         id="path37"
         d="m 46.030141,-3.7630703 c -0.175782,-0.375 -0.46875,-0.6445313 -0.914063,-0.6445313 -1.171875,0 -2.402344,1.4648438 -2.402344,2.9179688 0,0.93749999 0.550782,1.59374999 1.324219,1.59374999 0.199219,0 0.703125,-0.03515625 1.300781,-0.73828125 0.07031,0.41015625 0.421875,0.73828125 0.902344,0.73828125 0.351563,0 0.574219,-0.22265625 0.738281,-0.5390625 0.164063,-0.36328125 0.292969,-0.97265629 0.292969,-0.99609379 0,-0.09375 -0.08203,-0.09375 -0.117187,-0.09375 -0.09375,0 -0.105469,0.035156 -0.140625,0.1757813 -0.164063,0.64453124 -0.351563,1.24218749 -0.75,1.24218749 -0.269532,0 -0.304688,-0.2578125 -0.304688,-0.45703125 0,-0.22265625 0.02344,-0.3046875 0.128906,-0.73828124 0.117188,-0.421875 0.128907,-0.5273438 0.222657,-0.9023438 l 0.351562,-1.3945312 c 0.07031,-0.28125 0.07031,-0.2929688 0.07031,-0.3398438 0,-0.1640625 -0.117188,-0.2695312 -0.28125,-0.2695312 -0.246094,0 -0.386719,0.2226562 -0.421875,0.4453125 z m -0.644532,2.578125 c -0.04687,0.1757812 -0.04687,0.19921874 -0.199218,0.36328124 -0.445313,0.55078125 -0.84375,0.71484375 -1.125,0.71484375 -0.503907,0 -0.644532,-0.55078125 -0.644532,-0.93749999 0,-0.5039063 0.328125,-1.7226563 0.550782,-2.1796875 0.304687,-0.5976563 0.761718,-0.9609375 1.160156,-0.9609375 0.644531,0 0.785156,0.8203125 0.785156,0.8789062 0,0.058594 -0.02344,0.1171875 -0.03516,0.1640625 z m 0,0"
         style="fill:#000000;fill-opacity:1;fill-rule:nonzero;stroke:none" /><path
         id="path38"
         d="m 49.161977,-7.1146328 c 0,-0.1757813 0,-0.3632813 -0.199219,-0.3632813 -0.199219,0 -0.199219,0.1875 -0.199219,0.3632813 v 9.2460937 c 0,0.1757813 0,0.3632813 0.199219,0.3632813 0.199219,0 0.199219,-0.1875 0.199219,-0.3632813 z m 2.768554,0 c 0,-0.1757813 0,-0.3632813 -0.199218,-0.3632813 -0.199219,0 -0.199219,0.1875 -0.199219,0.3632813 v 9.2460937 c 0,0.1757813 0,0.3632813 0.199219,0.3632813 0.199218,0 0.199218,-0.1875 0.199218,-0.3632813 z m 0,0"
         style="fill:#000000;fill-opacity:1;fill-rule:nonzero;stroke:none" /><path
         id="path39"
         d="m 2.4949844,8.0289219 -1.3359375,1.359375 0.1757812,0.1757812 1.1601563,-1.0195312 1.1367187,1.0195312 0.1875,-0.1757812 z m 0,0"
         style="fill:#000000;fill-opacity:1;fill-rule:nonzero;stroke:none" /><path
         id="path40"
         d="m -0.20032812,12.646109 c 0.29296875,0 1.03125,-0.02344 1.52343752,-0.234375 0.703125,-0.292968 0.75,-0.890625 0.75,-1.019531 0,-0.445312 -0.3867188,-0.855469 -1.0664063,-0.855469 -1.11328122,0 -2.6132812,0.972657 -2.6132812,2.707032 0,1.019531 0.5859375,1.804687 1.57031248,1.804687 1.41796872,0 2.26171872,-1.054687 2.26171872,-1.171875 0,-0.05859 -0.070312,-0.128906 -0.1289062,-0.128906 -0.046875,0 -0.070312,0.02344 -0.1289063,0.09375 -0.7851562,0.996094 -1.87499997,0.996094 -1.99218747,0.996094 -0.7734375,0 -0.8671875,-0.84375 -0.8671875,-1.160157 0,-0.117187 0.0117188,-0.433593 0.1640625,-1.03125 z m -0.46875,-0.222656 c 0.38671875,-1.511719 1.41796875,-1.664062 1.67578122,-1.664062 0.46875,0 0.7382813,0.292968 0.7382813,0.632812 0,1.03125 -1.59375002,1.03125 -2.00390627,1.03125 z m 0,0"
         style="fill:#000000;fill-opacity:1;fill-rule:nonzero;stroke:none" /><path
         id="path41"
         d="m 6.0897109,15.1715 h -0.234375 c -0.023437,0.152344 -0.082031,0.5625 -0.1757812,0.632813 -0.058594,0.03516 -0.5976563,0.03516 -0.6914063,0.03516 H 3.6990859 c 0.7382813,-0.644531 0.984375,-0.84375 1.3945313,-1.171875 0.515625,-0.410156 0.9960937,-0.84375 0.9960937,-1.5 0,-0.84375 -0.7382812,-1.359375 -1.6289062,-1.359375 -0.8671875,0 -1.453125,0.609375 -1.453125,1.242187 0,0.363282 0.3046875,0.398438 0.375,0.398438 0.1640625,0 0.375,-0.117188 0.375,-0.375 0,-0.128906 -0.058594,-0.363281 -0.421875,-0.363281 0.2226562,-0.503907 0.6914062,-0.65625 1.0195312,-0.65625 0.703125,0 1.0664063,0.550781 1.0664063,1.113281 0,0.609375 -0.4335938,1.089844 -0.65625,1.335937 l -1.6875,1.664063 c -0.070312,0.05859 -0.070312,0.07031 -0.070312,0.269531 h 2.8828125 z m 0,0"
         style="fill:#000000;fill-opacity:1;fill-rule:nonzero;stroke:none" /><path
         id="path42"
         d="m 16.657094,11.685172 c 0.152344,0 0.339844,0 0.339844,-0.199219 0,-0.199219 -0.1875,-0.199219 -0.328125,-0.199219 h -5.964844 c -0.140625,0 -0.328125,0 -0.328125,0.199219 0,0.199219 0.1875,0.199219 0.339844,0.199219 z m 0.01172,1.933594 c 0.140625,0 0.328125,0 0.328125,-0.199219 0,-0.199219 -0.1875,-0.199219 -0.339844,-0.199219 h -5.941406 c -0.152344,0 -0.339844,0 -0.339844,0.199219 0,0.199219 0.1875,0.199219 0.328125,0.199219 z m 0,0"
         style="fill:#000000;fill-opacity:1;fill-rule:nonzero;stroke:none" /><path
         id="path43"
         d="m 21.910023,7.8297031 c 0,-0.1757812 0,-0.3632812 -0.199218,-0.3632812 -0.199219,0 -0.199219,0.1875 -0.199219,0.3632812 v 9.2460939 c 0,0.175781 0,0.363281 0.199219,0.363281 0.199218,0 0.199218,-0.1875 0.199218,-0.363281 z m 2.768555,0 c 0,-0.1757812 0,-0.3632812 -0.199219,-0.3632812 -0.199218,0 -0.199218,0.1875 -0.199218,0.3632812 v 9.2460939 c 0,0.175781 0,0.363281 0.199218,0.363281 0.199219,0 0.199219,-0.1875 0.199219,-0.363281 z m 0,0"
         style="fill:#000000;fill-opacity:1;fill-rule:nonzero;stroke:none" /><path
         id="path44"
         d="m 29.811391,11.157828 c -0.164063,0 -0.304688,0 -0.445313,0.140625 -0.152344,0.152344 -0.175781,0.316406 -0.175781,0.386719 0,0.234375 0.175781,0.351562 0.363281,0.351562 0.292969,0 0.5625,-0.246093 0.5625,-0.644531 0,-0.480469 -0.46875,-0.855469 -1.171875,-0.855469 -1.347656,0 -2.671875,1.429688 -2.671875,2.835938 0,0.890625 0.574219,1.675781 1.617188,1.675781 1.417968,0 2.261718,-1.054687 2.261718,-1.171875 0,-0.05859 -0.07031,-0.128906 -0.128906,-0.128906 -0.04687,0 -0.07031,0.02344 -0.128906,0.09375 -0.785156,0.996094 -1.875,0.996094 -1.992188,0.996094 -0.621093,0 -0.890625,-0.492188 -0.890625,-1.089844 0,-0.410156 0.199219,-1.371094 0.539063,-1.992188 0.304687,-0.5625 0.855469,-0.996093 1.40625,-0.996093 0.328125,0 0.714844,0.128906 0.855469,0.398437 z m 0,0"
         style="fill:#000000;fill-opacity:1;fill-rule:nonzero;stroke:none" /><path
         id="path45"
         d="m 38.949086,12.646109 c 0.175781,0 0.351562,0 0.351562,-0.199218 0,-0.199219 -0.175781,-0.199219 -0.351562,-0.199219 h -5.390625 c -0.164063,0 -0.339844,0 -0.339844,0.199219 0,0.199218 0.175781,0.199218 0.339844,0.199218 z m 0,0"
         style="fill:#000000;fill-opacity:1;fill-rule:nonzero;stroke:none" /><path
         id="path46"
         d="m 46.065297,11.181266 c -0.175781,-0.375 -0.46875,-0.644532 -0.914063,-0.644532 -1.171875,0 -2.402343,1.464844 -2.402343,2.917969 0,0.9375 0.550781,1.59375 1.324218,1.59375 0.199219,0 0.703125,-0.03516 1.300782,-0.738281 0.07031,0.410156 0.421875,0.738281 0.902343,0.738281 0.351563,0 0.574219,-0.222656 0.738282,-0.539062 0.164062,-0.363282 0.292968,-0.972657 0.292968,-0.996094 0,-0.09375 -0.08203,-0.09375 -0.117187,-0.09375 -0.09375,0 -0.105469,0.03516 -0.140625,0.175781 -0.164063,0.644531 -0.351563,1.242188 -0.75,1.242188 -0.269531,0 -0.304688,-0.257813 -0.304688,-0.457032 0,-0.222656 0.02344,-0.304687 0.128907,-0.738281 0.117187,-0.421875 0.128906,-0.527344 0.222656,-0.902344 l 0.351562,-1.394531 c 0.07031,-0.28125 0.07031,-0.292969 0.07031,-0.339844 0,-0.164062 -0.117188,-0.269531 -0.28125,-0.269531 -0.246094,0 -0.386719,0.222656 -0.421875,0.445313 z m -0.644531,2.578125 c -0.04687,0.175781 -0.04687,0.199218 -0.199219,0.363281 -0.445313,0.550781 -0.84375,0.714844 -1.125,0.714844 -0.503906,0 -0.644531,-0.550782 -0.644531,-0.9375 0,-0.503907 0.328125,-1.722657 0.550781,-2.179688 0.304687,-0.597656 0.761719,-0.960937 1.160156,-0.960937 0.644531,0 0.785156,0.820312 0.785156,0.878906 0,0.05859 -0.02344,0.117187 -0.03516,0.164062 z m 0,0"
         style="fill:#000000;fill-opacity:1;fill-rule:nonzero;stroke:none" /><path
         id="path47"
         d="m 49.200063,7.8297031 c 0,-0.1757812 0,-0.3632812 -0.199219,-0.3632812 -0.199219,0 -0.199219,0.1875 -0.199219,0.3632812 v 9.2460939 c 0,0.175781 0,0.363281 0.199219,0.363281 0.199219,0 0.199219,-0.1875 0.199219,-0.363281 z m 2.765625,0 c 0,-0.1757812 0,-0.3632812 -0.199219,-0.3632812 -0.199219,0 -0.199219,0.1875 -0.199219,0.3632812 v 9.2460939 c 0,0.175781 0,0.363281 0.199219,0.363281 0.199219,0 0.199219,-0.1875 0.199219,-0.363281 z m 0,0"
         style="fill:#000000;fill-opacity:1;fill-rule:nonzero;stroke:none" /><path
         id="path48"
         d="m 2.4949844,22.973258 -1.3359375,1.359375 0.1757812,0.175781 1.1601563,-1.019531 1.1367187,1.019531 0.1875,-0.175781 z m 0,0"
         style="fill:#000000;fill-opacity:1;fill-rule:nonzero;stroke:none" /><path
         id="path49"
         d="m -0.20032812,27.590445 c 0.29296875,0 1.03125,-0.02344 1.52343752,-0.234375 0.703125,-0.292968 0.75,-0.890625 0.75,-1.019531 0,-0.445312 -0.3867188,-0.855469 -1.0664063,-0.855469 -1.11328122,0 -2.6132812,0.972657 -2.6132812,2.707032 0,1.019531 0.5859375,1.804687 1.57031248,1.804687 1.41796872,0 2.26171872,-1.054687 2.26171872,-1.171875 0,-0.05859 -0.070312,-0.128906 -0.1289062,-0.128906 -0.046875,0 -0.070312,0.02344 -0.1289063,0.09375 -0.7851562,0.996094 -1.87499997,0.996094 -1.99218747,0.996094 -0.7734375,0 -0.8671875,-0.84375 -0.8671875,-1.160157 0,-0.117187 0.0117188,-0.433593 0.1640625,-1.03125 z m -0.46875,-0.222656 c 0.38671875,-1.511719 1.41796875,-1.664062 1.67578122,-1.664062 0.46875,0 0.7382813,0.292968 0.7382813,0.632812 0,1.03125 -1.59375002,1.03125 -2.00390627,1.03125 z m 0,0"
         style="fill:#000000;fill-opacity:1;fill-rule:nonzero;stroke:none" /><path
         id="path50"
         d="m 4.4725234,29.04943 c 0.5507813,0 0.9375,0.375 0.9375,1.125 0,0.867187 -0.5039062,1.125 -0.9023437,1.125 -0.28125,0 -0.890625,-0.08203 -1.1835938,-0.492188 0.328125,-0.01172 0.3984375,-0.246094 0.3984375,-0.386719 0,-0.222656 -0.1640625,-0.386718 -0.3867187,-0.386718 -0.1875,0 -0.3867188,0.117187 -0.3867188,0.410156 0,0.65625 0.7265625,1.078125 1.5703125,1.078125 0.9726563,0 1.640625,-0.644531 1.640625,-1.347656 0,-0.539063 -0.4453125,-1.089844 -1.21875,-1.242188 0.7382813,-0.269531 0.9960938,-0.796875 0.9960938,-1.21875 0,-0.550781 -0.6328125,-0.960937 -1.40625,-0.960937 -0.7734375,0 -1.359375,0.375 -1.359375,0.9375 0,0.234375 0.1523437,0.363281 0.3632812,0.363281 0.2109375,0 0.3515625,-0.164063 0.3515625,-0.351563 0,-0.199218 -0.140625,-0.351562 -0.3515625,-0.363281 0.234375,-0.304687 0.7148438,-0.386719 0.9726563,-0.386719 0.3164062,0 0.7617187,0.152344 0.7617187,0.761719 0,0.292969 -0.1054687,0.609375 -0.28125,0.832031 -0.234375,0.257813 -0.421875,0.28125 -0.7734375,0.292969 -0.1757812,0.02344 -0.1875,0.02344 -0.2226562,0.02344 -0.011719,0 -0.070312,0.01172 -0.070312,0.09375 0,0.09375 0.058594,0.09375 0.1757812,0.09375 z m 0,0"
         style="fill:#000000;fill-opacity:1;fill-rule:nonzero;stroke:none" /><path
         id="path51"
         d="m 16.657094,26.629508 c 0.152344,0 0.339844,0 0.339844,-0.199219 0,-0.199219 -0.1875,-0.199219 -0.328125,-0.199219 h -5.964844 c -0.140625,0 -0.328125,0 -0.328125,0.199219 0,0.199219 0.1875,0.199219 0.339844,0.199219 z m 0.01172,1.933594 c 0.140625,0 0.328125,0 0.328125,-0.199219 0,-0.199219 -0.1875,-0.199219 -0.339844,-0.199219 h -5.941406 c -0.152344,0 -0.339844,0 -0.339844,0.199219 0,0.199219 0.1875,0.199219 0.328125,0.199219 z m 8.220703,-5.589844 -1.335938,1.359375 0.175781,0.175781 1.160157,-1.019531 1.136718,1.019531 0.1875,-0.175781 z m 0,0"
         style="fill:#000000;fill-opacity:1;fill-rule:nonzero;stroke:none" /><path
         id="path52"
         d="m 22.191273,27.590445 c 0.292969,0 1.03125,-0.02344 1.523438,-0.234375 0.703125,-0.292968 0.75,-0.890625 0.75,-1.019531 0,-0.445312 -0.386719,-0.855469 -1.066406,-0.855469 -1.113282,0 -2.613282,0.972657 -2.613282,2.707032 0,1.019531 0.585938,1.804687 1.570313,1.804687 1.417969,0 2.261719,-1.054687 2.261719,-1.171875 0,-0.05859 -0.07031,-0.128906 -0.128907,-0.128906 -0.04687,0 -0.07031,0.02344 -0.128906,0.09375 -0.785156,0.996094 -1.875,0.996094 -1.992187,0.996094 -0.773438,0 -0.867188,-0.84375 -0.867188,-1.160157 0,-0.117187 0.01172,-0.433593 0.164063,-1.03125 z m -0.46875,-0.222656 c 0.386719,-1.511719 1.417969,-1.664062 1.675782,-1.664062 0.46875,0 0.738281,0.292968 0.738281,0.632812 0,1.03125 -1.59375,1.03125 -2.003906,1.03125 z m 0,0"
         style="fill:#000000;fill-opacity:1;fill-rule:nonzero;stroke:none" /><path
         id="path53"
         d="m 27.297719,26.951773 c 0,-0.1875 -0.01172,-0.199218 -0.210938,-0.199218 -0.445312,0.433593 -1.078125,0.445312 -1.359375,0.445312 v 0.246094 c 0.164063,0 0.621094,0 1.007813,-0.1875 v 3.550781 c 0,0.234375 0,0.328125 -0.691406,0.328125 h -0.269532 v 0.246094 c 0.128907,-0.01172 0.984375,-0.02344 1.242188,-0.02344 0.210937,0 1.089844,0.01172 1.242187,0.02344 v -0.246094 h -0.257812 c -0.703125,0 -0.703125,-0.09375 -0.703125,-0.328125 z m 0,0"
         style="fill:#000000;fill-opacity:1;fill-rule:nonzero;stroke:none" /><path
         id="path54"
         d="m 35.530141,27.121695 -1.992188,-1.980468 c -0.128906,-0.128907 -0.140625,-0.140625 -0.222656,-0.140625 -0.105469,0 -0.199219,0.08203 -0.199219,0.199218 0,0.07031 0.02344,0.08203 0.128906,0.199219 l 1.992188,1.992188 -1.992188,2.003906 c -0.105468,0.117187 -0.128906,0.128906 -0.128906,0.199219 0,0.117187 0.09375,0.199218 0.199219,0.199218 0.08203,0 0.09375,-0.01172 0.222656,-0.140625 l 1.980469,-1.980468 2.0625,2.0625 c 0.01172,0.01172 0.08203,0.05859 0.152344,0.05859 0.117187,0 0.199218,-0.08203 0.199218,-0.199218 0,-0.01172 0,-0.05859 -0.03516,-0.105469 -0.01172,-0.02344 -1.59375,-1.582031 -2.097656,-2.097656 l 1.828125,-1.816407 c 0.04687,-0.05859 0.199219,-0.1875 0.246094,-0.246093 0.01172,-0.02344 0.05859,-0.05859 0.05859,-0.128907 0,-0.117187 -0.08203,-0.199218 -0.199218,-0.199218 -0.08203,0 -0.128907,0.03516 -0.234375,0.140625 z m 0,0"
         style="fill:#000000;fill-opacity:1;fill-rule:nonzero;stroke:none" /><path
         id="path55"
         d="m 46.170766,22.973258 -1.335938,1.359375 0.175781,0.175781 1.160157,-1.019531 1.136718,1.019531 0.1875,-0.175781 z m 0,0"
         style="fill:#000000;fill-opacity:1;fill-rule:nonzero;stroke:none" /><path
         id="path56"
         d="m 43.475453,27.590445 c 0.292969,0 1.03125,-0.02344 1.523438,-0.234375 0.703125,-0.292968 0.75,-0.890625 0.75,-1.019531 0,-0.445312 -0.386719,-0.855469 -1.066407,-0.855469 -1.113281,0 -2.613281,0.972657 -2.613281,2.707032 0,1.019531 0.585938,1.804687 1.570313,1.804687 1.417968,0 2.261718,-1.054687 2.261718,-1.171875 0,-0.05859 -0.07031,-0.128906 -0.128906,-0.128906 -0.04687,0 -0.07031,0.02344 -0.128906,0.09375 -0.785156,0.996094 -1.875,0.996094 -1.992188,0.996094 -0.773437,0 -0.867187,-0.84375 -0.867187,-1.160157 0,-0.117187 0.01172,-0.433593 0.164062,-1.03125 z m -0.46875,-0.222656 c 0.386719,-1.511719 1.417969,-1.664062 1.675781,-1.664062 0.46875,0 0.738282,0.292968 0.738282,0.632812 0,1.03125 -1.59375,1.03125 -2.003907,1.03125 z m 0,0"
         style="fill:#000000;fill-opacity:1;fill-rule:nonzero;stroke:none" /><path
         id="path57"
         d="m 49.768422,30.115836 h -0.234375 c -0.02344,0.152344 -0.08203,0.5625 -0.175781,0.632812 -0.05859,0.03516 -0.597657,0.03516 -0.691407,0.03516 h -1.289062 c 0.738281,-0.644532 0.984375,-0.84375 1.394531,-1.171875 0.515625,-0.410157 0.996094,-0.84375 0.996094,-1.5 0,-0.84375 -0.738281,-1.359375 -1.628906,-1.359375 -0.867188,0 -1.453125,0.609375 -1.453125,1.242187 0,0.363281 0.304687,0.398438 0.375,0.398438 0.164062,0 0.375,-0.117188 0.375,-0.375 0,-0.128907 -0.05859,-0.363282 -0.421875,-0.363282 0.222656,-0.503906 0.691406,-0.65625 1.019531,-0.65625 0.703125,0 1.066406,0.550782 1.066406,1.113282 0,0.609375 -0.433594,1.089843 -0.65625,1.335937 l -1.6875,1.664063 c -0.07031,0.05859 -0.07031,0.07031 -0.07031,0.269531 h 2.882812 z m 0,0"
         style="fill:#000000;fill-opacity:1;fill-rule:nonzero;stroke:none" /><path
         id="path58"
         d="m 2.4949844,37.917594 -1.3359375,1.359375 0.1757812,0.175781 1.1601563,-1.019531 1.1367187,1.019531 0.1875,-0.175781 z m 0,0"
         style="fill:#000000;fill-opacity:1;fill-rule:nonzero;stroke:none" /><path
         id="path59"
         d="m -0.20032812,42.534781 c 0.29296875,0 1.03125,-0.02344 1.52343752,-0.234375 0.703125,-0.292968 0.75,-0.890625 0.75,-1.019531 0,-0.445312 -0.3867188,-0.855469 -1.0664063,-0.855469 -1.11328122,0 -2.6132812,0.972657 -2.6132812,2.707032 0,1.019531 0.5859375,1.804687 1.57031248,1.804687 1.41796872,0 2.26171872,-1.054687 2.26171872,-1.171875 0,-0.05859 -0.070312,-0.128906 -0.1289062,-0.128906 -0.046875,0 -0.070312,0.02344 -0.1289063,0.09375 -0.7851562,0.996094 -1.87499997,0.996094 -1.99218747,0.996094 -0.7734375,0 -0.8671875,-0.84375 -0.8671875,-1.160157 0,-0.117187 0.0117188,-0.433593 0.1640625,-1.03125 z m -0.46875,-0.222656 c 0.38671875,-1.511719 1.41796875,-1.664062 1.67578122,-1.664062 0.46875,0 0.7382813,0.292968 0.7382813,0.632812 0,1.03125 -1.59375002,1.03125 -2.00390627,1.03125 z m 0,0"
         style="fill:#000000;fill-opacity:1;fill-rule:nonzero;stroke:none" /><path
         id="path60"
         d="M 6.2654922,45.177359 V 44.931266 H 5.4920547 v -3.105469 c 0,-0.152344 0,-0.199219 -0.1523438,-0.199219 -0.09375,0 -0.1171875,0 -0.1875,0.09375 l -2.3085937,3.210938 v 0.246093 h 2.0507812 v 0.574219 c 0,0.234375 0,0.328125 -0.5625,0.328125 h -0.1875 v 0.246094 c 0.3515625,-0.01172 0.796875,-0.02344 1.0429688,-0.02344 0.2578125,0 0.703125,0.01172 1.0546875,0.02344 v -0.246094 h -0.1875 c -0.5625,0 -0.5625,-0.09375 -0.5625,-0.328125 V 45.177359 Z M 4.9412734,42.376578 v 2.554688 H 3.1014297 Z m 0,0"
         style="fill:#000000;fill-opacity:1;fill-rule:nonzero;stroke:none" /><path
         id="path61"
         d="m 16.657094,41.573844 c 0.152344,0 0.339844,0 0.339844,-0.199219 0,-0.199219 -0.1875,-0.199219 -0.328125,-0.199219 h -5.964844 c -0.140625,0 -0.328125,0 -0.328125,0.199219 0,0.199219 0.1875,0.199219 0.339844,0.199219 z m 0.01172,1.933594 c 0.140625,0 0.328125,0 0.328125,-0.199219 0,-0.199219 -0.1875,-0.199219 -0.339844,-0.199219 h -5.941406 c -0.152344,0 -0.339844,0 -0.339844,0.199219 0,0.199219 0.1875,0.199219 0.328125,0.199219 z m 8.220703,-5.589844 -1.335938,1.359375 0.175781,0.175781 1.160157,-1.019531 1.136718,1.019531 0.1875,-0.175781 z m 0,0"
         style="fill:#000000;fill-opacity:1;fill-rule:nonzero;stroke:none" /><path
         id="path62"
         d="m 22.191273,42.534781 c 0.292969,0 1.03125,-0.02344 1.523438,-0.234375 0.703125,-0.292968 0.75,-0.890625 0.75,-1.019531 0,-0.445312 -0.386719,-0.855469 -1.066406,-0.855469 -1.113282,0 -2.613282,0.972657 -2.613282,2.707032 0,1.019531 0.585938,1.804687 1.570313,1.804687 1.417969,0 2.261719,-1.054687 2.261719,-1.171875 0,-0.05859 -0.07031,-0.128906 -0.128907,-0.128906 -0.04687,0 -0.07031,0.02344 -0.128906,0.09375 -0.785156,0.996094 -1.875,0.996094 -1.992187,0.996094 -0.773438,0 -0.867188,-0.84375 -0.867188,-1.160157 0,-0.117187 0.01172,-0.433593 0.164063,-1.03125 z m -0.46875,-0.222656 c 0.386719,-1.511719 1.417969,-1.664062 1.675782,-1.664062 0.46875,0 0.738281,0.292968 0.738281,0.632812 0,1.03125 -1.59375,1.03125 -2.003906,1.03125 z m 0,0"
         style="fill:#000000;fill-opacity:1;fill-rule:nonzero;stroke:none" /><path
         id="path63"
         d="m 27.297719,41.896109 c 0,-0.1875 -0.01172,-0.199218 -0.210938,-0.199218 -0.445312,0.433593 -1.078125,0.445312 -1.359375,0.445312 v 0.246094 c 0.164063,0 0.621094,0 1.007813,-0.1875 v 3.550781 c 0,0.234375 0,0.328125 -0.691406,0.328125 h -0.269532 v 0.246094 c 0.128907,-0.01172 0.984375,-0.02344 1.242188,-0.02344 0.210937,0 1.089844,0.01172 1.242187,0.02344 v -0.246094 h -0.257812 c -0.703125,0 -0.703125,-0.09375 -0.703125,-0.328125 z m 0,0"
         style="fill:#000000;fill-opacity:1;fill-rule:nonzero;stroke:none" /><path
         id="path64"
         d="m 35.530141,42.066031 -1.992188,-1.980468 c -0.128906,-0.128907 -0.140625,-0.140625 -0.222656,-0.140625 -0.105469,0 -0.199219,0.08203 -0.199219,0.199218 0,0.07031 0.02344,0.08203 0.128906,0.199219 l 1.992188,1.992188 -1.992188,2.003906 c -0.105468,0.117187 -0.128906,0.128906 -0.128906,0.199219 0,0.117187 0.09375,0.199218 0.199219,0.199218 0.08203,0 0.09375,-0.01172 0.222656,-0.140625 l 1.980469,-1.980468 2.0625,2.0625 c 0.01172,0.01172 0.08203,0.05859 0.152344,0.05859 0.117187,0 0.199218,-0.08203 0.199218,-0.199218 0,-0.01172 0,-0.05859 -0.03516,-0.105469 -0.01172,-0.02344 -1.59375,-1.582031 -2.097656,-2.097656 l 1.828125,-1.816407 c 0.04687,-0.05859 0.199219,-0.1875 0.246094,-0.246093 0.01172,-0.02344 0.05859,-0.05859 0.05859,-0.128907 0,-0.117187 -0.08203,-0.199218 -0.199218,-0.199218 -0.08203,0 -0.128907,0.03516 -0.234375,0.140625 z m 0,0"
         style="fill:#000000;fill-opacity:1;fill-rule:nonzero;stroke:none" /><path
         id="path65"
         d="m 46.170766,37.917594 -1.335938,1.359375 0.175781,0.175781 1.160157,-1.019531 1.136718,1.019531 0.1875,-0.175781 z m 0,0"
         style="fill:#000000;fill-opacity:1;fill-rule:nonzero;stroke:none" /><path
         id="path66"
         d="m 43.475453,42.534781 c 0.292969,0 1.03125,-0.02344 1.523438,-0.234375 0.703125,-0.292968 0.75,-0.890625 0.75,-1.019531 0,-0.445312 -0.386719,-0.855469 -1.066407,-0.855469 -1.113281,0 -2.613281,0.972657 -2.613281,2.707032 0,1.019531 0.585938,1.804687 1.570313,1.804687 1.417968,0 2.261718,-1.054687 2.261718,-1.171875 0,-0.05859 -0.07031,-0.128906 -0.128906,-0.128906 -0.04687,0 -0.07031,0.02344 -0.128906,0.09375 -0.785156,0.996094 -1.875,0.996094 -1.992188,0.996094 -0.773437,0 -0.867187,-0.84375 -0.867187,-1.160157 0,-0.117187 0.01172,-0.433593 0.164062,-1.03125 z m -0.46875,-0.222656 c 0.386719,-1.511719 1.417969,-1.664062 1.675781,-1.664062 0.46875,0 0.738282,0.292968 0.738282,0.632812 0,1.03125 -1.59375,1.03125 -2.003907,1.03125 z m 0,0"
         style="fill:#000000;fill-opacity:1;fill-rule:nonzero;stroke:none" /><path
         id="path67"
         d="m 48.151234,43.993766 c 0.550782,0 0.9375,0.375 0.9375,1.125 0,0.867187 -0.503906,1.125 -0.902343,1.125 -0.28125,0 -0.890625,-0.08203 -1.183594,-0.492188 0.328125,-0.01172 0.398437,-0.246094 0.398437,-0.386719 0,-0.222656 -0.164062,-0.386718 -0.386718,-0.386718 -0.1875,0 -0.386719,0.117187 -0.386719,0.410156 0,0.65625 0.726562,1.078125 1.570312,1.078125 0.972657,0 1.640625,-0.644531 1.640625,-1.347656 0,-0.539063 -0.445312,-1.089844 -1.21875,-1.242188 0.738282,-0.269531 0.996094,-0.796875 0.996094,-1.21875 0,-0.550781 -0.632812,-0.960937 -1.40625,-0.960937 -0.773437,0 -1.359375,0.375 -1.359375,0.9375 0,0.234375 0.152344,0.363281 0.363281,0.363281 0.210938,0 0.351563,-0.164063 0.351563,-0.351563 0,-0.199218 -0.140625,-0.351562 -0.351563,-0.363281 0.234375,-0.304687 0.714844,-0.386719 0.972657,-0.386719 0.316406,0 0.761718,0.152344 0.761718,0.761719 0,0.292969 -0.105468,0.609375 -0.28125,0.832031 -0.234375,0.257813 -0.421875,0.28125 -0.773437,0.292969 -0.175781,0.02344 -0.1875,0.02344 -0.222656,0.02344 -0.01172,0 -0.07031,0.01172 -0.07031,0.09375 0,0.09375 0.05859,0.09375 0.175781,0.09375 z m 0,0"
         style="fill:#000000;fill-opacity:1;fill-rule:nonzero;stroke:none" /><path
         id="path68"
         d="m 3.1424453,66.710563 c 0.058594,-0.234375 0.082031,-0.339844 0.28125,-0.363282 0.082031,-0.01172 0.3984375,-0.01172 0.5976563,-0.01172 0.7148437,0 1.8164062,0 1.8164062,0.984375 0,0.339843 -0.1523437,1.019531 -0.5507812,1.417968 -0.2578125,0.257813 -0.7851563,0.574219 -1.6757813,0.574219 H 2.4979141 Z m 1.4296875,2.730468 c 1.0078125,-0.222656 2.1914063,-0.914062 2.1914063,-1.921875 0,-0.855468 -0.890625,-1.5 -2.203125,-1.5 H 1.7244766 c -0.1992188,0 -0.2929688,0 -0.2929688,0.199219 0,0.117188 0.09375,0.117188 0.28125,0.117188 0.023437,0 0.2109375,0 0.3867188,0.01172 0.1757812,0.02344 0.2578125,0.03516 0.2578125,0.164063 0,0.03516 0,0.07031 -0.035156,0.1875 l -1.33593749,5.355469 c -0.09375,0.386718 -0.1171875,0.46875 -0.90234375,0.46875 -0.17578125,0 -0.26953125,0 -0.26953125,0.199218 0,0.105469 0.1171875,0.105469 0.140625,0.105469 0.28125,0 0.97265625,-0.03516 1.25390629,-0.03516 0.28125,0 0.984375,0.03516 1.265625,0.03516 0.082031,0 0.1992187,0 0.1992187,-0.199219 0,-0.105468 -0.09375,-0.105468 -0.28125,-0.105468 -0.3632812,0 -0.6445312,0 -0.6445312,-0.1875 0,-0.05859 0.011719,-0.105469 0.023437,-0.164063 l 0.65625,-2.636719 h 1.1953125 c 0.9023437,0 1.078125,0.550782 1.078125,0.902344 0,0.152344 -0.082031,0.457031 -0.140625,0.691406 -0.070312,0.269532 -0.1523438,0.644532 -0.1523438,0.84375 0,1.078125 1.1953125,1.078125 1.3242188,1.078125 0.84375,0 1.1953125,-1.007812 1.1953125,-1.148437 0,-0.117188 -0.1171875,-0.117188 -0.1171875,-0.117188 -0.09375,0 -0.1171875,0.07031 -0.1289063,0.140625 -0.2578125,0.738282 -0.6796875,0.902344 -0.9140625,0.902344 -0.328125,0 -0.3984375,-0.222656 -0.3984375,-0.609375 0,-0.304687 0.058594,-0.820312 0.1054688,-1.136719 0.011719,-0.140625 0.035156,-0.328125 0.035156,-0.46875 0,-0.761718 -0.6679687,-1.078125 -0.9375,-1.171875 z m 0,0"
         style="fill:#000000;fill-opacity:1;fill-rule:nonzero;stroke:none" /><path
         id="path69"
         d="m 16.657094,69.569938 c 0.152344,0 0.339844,0 0.339844,-0.199219 0,-0.199219 -0.1875,-0.199219 -0.328125,-0.199219 h -5.964844 c -0.140625,0 -0.328125,0 -0.328125,0.199219 0,0.199219 0.1875,0.199219 0.339844,0.199219 z m 0.01172,1.933593 c 0.140625,0 0.328125,0 0.328125,-0.199218 0,-0.199219 -0.1875,-0.199219 -0.339844,-0.199219 h -5.941406 c -0.152344,0 -0.339844,0 -0.339844,0.199219 0,0.199218 0.1875,0.199218 0.328125,0.199218 z m 0,0"
         style="fill:#000000;fill-opacity:1;fill-rule:nonzero;stroke:none" /><path
         id="path70"
         d="m 23.574086,70.334586 h 0.691406 V 53.108023 h 2.625 v -0.691406 h -3.316406 z m 0,17.920898 h 3.316406 v -0.679687 h -2.625 V 70.337516 h -0.691406 z m 0,0"
         style="fill:#000000;fill-opacity:1;fill-rule:nonzero;stroke:none" /><path
         id="path71"
         d="m 33.786977,53.858023 -1.335938,1.359375 0.175781,0.175782 1.160157,-1.019532 1.136718,1.019532 0.1875,-0.175782 z m 0,0"
         style="fill:#000000;fill-opacity:1;fill-rule:nonzero;stroke:none" /><path
         id="path72"
         d="m 28.832875,58.475211 c 0.292969,0 1.03125,-0.02344 1.523438,-0.234375 0.703125,-0.292969 0.75,-0.890625 0.75,-1.019531 0,-0.445313 -0.386719,-0.855469 -1.066407,-0.855469 -1.113281,0 -2.613281,0.972656 -2.613281,2.707031 0,1.019531 0.585938,1.804688 1.570313,1.804688 1.417968,0 2.261718,-1.054688 2.261718,-1.171875 0,-0.05859 -0.07031,-0.128907 -0.128906,-0.128907 -0.04687,0 -0.07031,0.02344 -0.128906,0.09375 -0.785156,0.996094 -1.875,0.996094 -1.992188,0.996094 -0.773437,0 -0.867187,-0.84375 -0.867187,-1.160156 0,-0.117188 0.01172,-0.433594 0.164062,-1.03125 z m -0.46875,-0.222656 c 0.386719,-1.511719 1.417969,-1.664063 1.675781,-1.664063 0.46875,0 0.738282,0.292969 0.738282,0.632813 0,1.03125 -1.59375,1.03125 -2.003907,1.03125 z m 0,0"
         style="fill:#000000;fill-opacity:1;fill-rule:nonzero;stroke:none" /><path
         id="path73"
         d="m 33.94225,57.836539 c 0,-0.1875 -0.01172,-0.199219 -0.210937,-0.199219 -0.445313,0.433594 -1.078125,0.445313 -1.359375,0.445313 v 0.246094 c 0.164062,0 0.621093,0 1.007812,-0.1875 v 3.550781 c 0,0.234375 0,0.328125 -0.691406,0.328125 h -0.269531 v 0.246094 c 0.128906,-0.01172 0.984375,-0.02344 1.242187,-0.02344 0.210938,0 1.089844,0.01172 1.242188,0.02344 v -0.246094 h -0.257813 c -0.703125,0 -0.703125,-0.09375 -0.703125,-0.328125 z m 0,0"
         style="fill:#000000;fill-opacity:1;fill-rule:nonzero;stroke:none" /><path
         id="path74"
         d="m 37.31432,61.527945 c -0.07031,0.234375 -0.292968,0.609375 -0.65625,0.609375 -0.02344,0 -0.222656,0 -0.375,-0.09375 0.28125,-0.09375 0.304688,-0.339843 0.304688,-0.386718 0,-0.152344 -0.117188,-0.257813 -0.28125,-0.257813 -0.1875,0 -0.386719,0.164063 -0.386719,0.433594 0,0.339844 0.386719,0.503906 0.726563,0.503906 0.316406,0 0.609375,-0.199219 0.785156,-0.492187 0.164062,0.363281 0.550781,0.492187 0.820312,0.492187 0.808594,0 1.230469,-0.867187 1.230469,-1.066406 0,-0.09375 -0.09375,-0.09375 -0.105469,-0.09375 -0.105468,0 -0.105468,0.03516 -0.140625,0.117187 -0.140625,0.480469 -0.5625,0.84375 -0.949218,0.84375 -0.28125,0 -0.421875,-0.1875 -0.421875,-0.445312 0,-0.1875 0.164062,-0.820313 0.363281,-1.59375 0.128906,-0.539063 0.445312,-0.714844 0.679687,-0.714844 0.01172,0 0.222657,0 0.375,0.105469 -0.222656,0.05859 -0.304687,0.257812 -0.304687,0.375 0,0.152344 0.117187,0.257812 0.28125,0.257812 0.152344,0 0.386719,-0.128906 0.386719,-0.421875 0,-0.386718 -0.445313,-0.503906 -0.726563,-0.503906 -0.351562,0 -0.632812,0.222656 -0.785156,0.492188 -0.117188,-0.292969 -0.445313,-0.492188 -0.832031,-0.492188 -0.785157,0 -1.230469,0.855469 -1.230469,1.066406 0,0.08203 0.105469,0.08203 0.117187,0.08203 0.09375,0 0.105469,-0.02344 0.140625,-0.117188 0.175782,-0.539062 0.609375,-0.84375 0.949219,-0.84375 0.234375,0 0.421875,0.128906 0.421875,0.46875 0,0.128906 -0.08203,0.480469 -0.152344,0.714844 z m 0,0"
         style="fill:#000000;fill-opacity:1;fill-rule:nonzero;stroke:none" /><path
         id="path75"
         d="m 57.37682,53.858023 -1.335937,1.359375 0.175781,0.175782 1.160156,-1.019532 1.136719,1.019532 0.1875,-0.175782 z m 0,0"
         style="fill:#000000;fill-opacity:1;fill-rule:nonzero;stroke:none" /><path
         id="path76"
         d="m 52.422719,58.475211 c 0.292969,0 1.03125,-0.02344 1.523437,-0.234375 0.703125,-0.292969 0.75,-0.890625 0.75,-1.019531 0,-0.445313 -0.386718,-0.855469 -1.066406,-0.855469 -1.113281,0 -2.613281,0.972656 -2.613281,2.707031 0,1.019531 0.585937,1.804688 1.570312,1.804688 1.417969,0 2.261719,-1.054688 2.261719,-1.171875 0,-0.05859 -0.07031,-0.128907 -0.128906,-0.128907 -0.04687,0 -0.07031,0.02344 -0.128906,0.09375 -0.785157,0.996094 -1.875,0.996094 -1.992188,0.996094 -0.773437,0 -0.867187,-0.84375 -0.867187,-1.160156 0,-0.117188 0.01172,-0.433594 0.164062,-1.03125 z m -0.46875,-0.222656 c 0.386719,-1.511719 1.417969,-1.664063 1.675781,-1.664063 0.46875,0 0.738281,0.292969 0.738281,0.632813 0,1.03125 -1.59375,1.03125 -2.003906,1.03125 z m 0,0"
         style="fill:#000000;fill-opacity:1;fill-rule:nonzero;stroke:none" /><path
         id="path77"
         d="m 57.09557,59.934195 c 0.550782,0 0.9375,0.375 0.9375,1.125 0,0.867188 -0.503906,1.125 -0.902343,1.125 -0.28125,0 -0.890625,-0.08203 -1.183594,-0.492187 0.328125,-0.01172 0.398437,-0.246094 0.398437,-0.386719 0,-0.222656 -0.164062,-0.386719 -0.386718,-0.386719 -0.1875,0 -0.386719,0.117188 -0.386719,0.410157 0,0.65625 0.726562,1.078125 1.570312,1.078125 0.972657,0 1.640625,-0.644532 1.640625,-1.347657 0,-0.539062 -0.445312,-1.089843 -1.21875,-1.242187 0.738282,-0.269531 0.996094,-0.796875 0.996094,-1.21875 0,-0.550781 -0.632812,-0.960938 -1.40625,-0.960938 -0.773437,0 -1.359375,0.375 -1.359375,0.9375 0,0.234375 0.152344,0.363282 0.363281,0.363282 0.210938,0 0.351563,-0.164063 0.351563,-0.351563 0,-0.199219 -0.140625,-0.351562 -0.351563,-0.363281 0.234375,-0.304688 0.714844,-0.386719 0.972657,-0.386719 0.316406,0 0.761718,0.152344 0.761718,0.761719 0,0.292969 -0.105468,0.609375 -0.28125,0.832031 -0.234375,0.257813 -0.421875,0.28125 -0.773437,0.292969 -0.175781,0.02344 -0.1875,0.02344 -0.222656,0.02344 -0.01172,0 -0.07031,0.01172 -0.07031,0.09375 0,0.09375 0.05859,0.09375 0.175781,0.09375 z m 0,0"
         style="fill:#000000;fill-opacity:1;fill-rule:nonzero;stroke:none" /><path
         id="path78"
         d="m 60.904164,61.527945 c -0.07031,0.234375 -0.292969,0.609375 -0.65625,0.609375 -0.02344,0 -0.222656,0 -0.375,-0.09375 0.28125,-0.09375 0.304688,-0.339843 0.304688,-0.386718 0,-0.152344 -0.117188,-0.257813 -0.28125,-0.257813 -0.1875,0 -0.386719,0.164063 -0.386719,0.433594 0,0.339844 0.386719,0.503906 0.726562,0.503906 0.316407,0 0.609375,-0.199219 0.785157,-0.492187 0.164062,0.363281 0.550781,0.492187 0.820312,0.492187 0.808594,0 1.230469,-0.867187 1.230469,-1.066406 0,-0.09375 -0.09375,-0.09375 -0.105469,-0.09375 -0.105469,0 -0.105469,0.03516 -0.140625,0.117187 -0.140625,0.480469 -0.5625,0.84375 -0.949219,0.84375 -0.28125,0 -0.421875,-0.1875 -0.421875,-0.445312 0,-0.1875 0.164063,-0.820313 0.363282,-1.59375 0.128906,-0.539063 0.445312,-0.714844 0.679687,-0.714844 0.01172,0 0.222656,0 0.375,0.105469 -0.222656,0.05859 -0.304687,0.257812 -0.304687,0.375 0,0.152344 0.117187,0.257812 0.28125,0.257812 0.152343,0 0.386718,-0.128906 0.386718,-0.421875 0,-0.386718 -0.445312,-0.503906 -0.726562,-0.503906 -0.351563,0 -0.632813,0.222656 -0.785156,0.492188 -0.117188,-0.292969 -0.445313,-0.492188 -0.832032,-0.492188 -0.785156,0 -1.230468,0.855469 -1.230468,1.066406 0,0.08203 0.105468,0.08203 0.117187,0.08203 0.09375,0 0.105469,-0.02344 0.140625,-0.117188 0.175781,-0.539062 0.609375,-0.84375 0.949219,-0.84375 0.234375,0 0.421875,0.128906 0.421875,0.46875 0,0.128906 -0.08203,0.480469 -0.152344,0.714844 z m 0,0"
         style="fill:#000000;fill-opacity:1;fill-rule:nonzero;stroke:none" /><path
         id="path79"
         d="m 80.963734,53.858023 -1.335937,1.359375 0.175781,0.175782 1.160156,-1.019532 1.136719,1.019532 0.1875,-0.175782 z m 0,0"
         style="fill:#000000;fill-opacity:1;fill-rule:nonzero;stroke:none" /><path
         id="path80"
         d="m 76.009633,58.475211 c 0.292969,0 1.03125,-0.02344 1.523437,-0.234375 0.703125,-0.292969 0.75,-0.890625 0.75,-1.019531 0,-0.445313 -0.386718,-0.855469 -1.066406,-0.855469 -1.113281,0 -2.613281,0.972656 -2.613281,2.707031 0,1.019531 0.585937,1.804688 1.570312,1.804688 1.417969,0 2.261719,-1.054688 2.261719,-1.171875 0,-0.05859 -0.07031,-0.128907 -0.128906,-0.128907 -0.04687,0 -0.07031,0.02344 -0.128906,0.09375 -0.785157,0.996094 -1.875,0.996094 -1.992188,0.996094 -0.773437,0 -0.867187,-0.84375 -0.867187,-1.160156 0,-0.117188 0.01172,-0.433594 0.164062,-1.03125 z m -0.46875,-0.222656 c 0.386719,-1.511719 1.417969,-1.664063 1.675781,-1.664063 0.46875,0 0.738281,0.292969 0.738281,0.632813 0,1.03125 -1.59375,1.03125 -2.003906,1.03125 z m 0,0"
         style="fill:#000000;fill-opacity:1;fill-rule:nonzero;stroke:none" /><path
         id="path81"
         d="m 82.478383,61.117789 v -0.246094 h -0.773438 v -3.105468 c 0,-0.152344 0,-0.199219 -0.152343,-0.199219 -0.09375,0 -0.117188,0 -0.1875,0.09375 l -2.308594,3.210937 v 0.246094 h 2.050781 v 0.574219 c 0,0.234375 0,0.328125 -0.5625,0.328125 h -0.1875 v 0.246094 c 0.351563,-0.01172 0.796875,-0.02344 1.042969,-0.02344 0.257812,0 0.703125,0.01172 1.054687,0.02344 v -0.246094 h -0.1875 c -0.5625,0 -0.5625,-0.09375 -0.5625,-0.328125 v -0.574219 z m -1.324219,-2.800781 v 2.554687 H 79.31432 Z m 0,0"
         style="fill:#000000;fill-opacity:1;fill-rule:nonzero;stroke:none" /><path
         id="path82"
         d="m 84.491078,61.527945 c -0.07031,0.234375 -0.292969,0.609375 -0.65625,0.609375 -0.02344,0 -0.222656,0 -0.375,-0.09375 0.28125,-0.09375 0.304688,-0.339843 0.304688,-0.386718 0,-0.152344 -0.117188,-0.257813 -0.28125,-0.257813 -0.1875,0 -0.386719,0.164063 -0.386719,0.433594 0,0.339844 0.386719,0.503906 0.726562,0.503906 0.316407,0 0.609375,-0.199219 0.785157,-0.492187 0.164062,0.363281 0.550781,0.492187 0.820312,0.492187 0.808594,0 1.230469,-0.867187 1.230469,-1.066406 0,-0.09375 -0.09375,-0.09375 -0.105469,-0.09375 -0.105469,0 -0.105469,0.03516 -0.140625,0.117187 -0.140625,0.480469 -0.5625,0.84375 -0.949219,0.84375 -0.28125,0 -0.421875,-0.1875 -0.421875,-0.445312 0,-0.1875 0.164063,-0.820313 0.363282,-1.59375 0.128906,-0.539063 0.445312,-0.714844 0.679687,-0.714844 0.01172,0 0.222656,0 0.375,0.105469 -0.222656,0.05859 -0.304687,0.257812 -0.304687,0.375 0,0.152344 0.117187,0.257812 0.28125,0.257812 0.152343,0 0.386718,-0.128906 0.386718,-0.421875 0,-0.386718 -0.445312,-0.503906 -0.726562,-0.503906 -0.351563,0 -0.632813,0.222656 -0.785156,0.492188 -0.117188,-0.292969 -0.445313,-0.492188 -0.832032,-0.492188 -0.785156,0 -1.230468,0.855469 -1.230468,1.066406 0,0.08203 0.105468,0.08203 0.117187,0.08203 0.09375,0 0.105469,-0.02344 0.140625,-0.117188 0.175781,-0.539062 0.609375,-0.84375 0.949219,-0.84375 0.234375,0 0.421875,0.128906 0.421875,0.46875 0,0.128906 -0.08203,0.480469 -0.152344,0.714844 z m 0,0"
         style="fill:#000000;fill-opacity:1;fill-rule:nonzero;stroke:none" /><path
         id="path83"
         d="m 33.786977,65.814078 -1.335938,1.359375 0.175781,0.175781 1.160157,-1.019531 1.136718,1.019531 0.1875,-0.175781 z m 0,0"
         style="fill:#000000;fill-opacity:1;fill-rule:nonzero;stroke:none" /><path
         id="path84"
         d="m 28.947133,70.431266 c 0.292969,0 1.03125,-0.02344 1.523437,-0.234375 0.703125,-0.292969 0.75,-0.890625 0.75,-1.019532 0,-0.445312 -0.386718,-0.855468 -1.066406,-0.855468 -1.113281,0 -2.613281,0.972656 -2.613281,2.707031 0,1.019531 0.585937,1.804687 1.570312,1.804687 1.417969,0 2.261719,-1.054687 2.261719,-1.171875 0,-0.05859 -0.07031,-0.128906 -0.128906,-0.128906 -0.04687,0 -0.07031,0.02344 -0.128906,0.09375 -0.785157,0.996094 -1.875,0.996094 -1.992188,0.996094 -0.773437,0 -0.867187,-0.84375 -0.867187,-1.160156 0,-0.117188 0.01172,-0.433594 0.164062,-1.03125 z m -0.46875,-0.222657 c 0.386719,-1.511718 1.417969,-1.664062 1.675781,-1.664062 0.46875,0 0.738281,0.292969 0.738281,0.632812 0,1.03125 -1.59375,1.03125 -2.003906,1.03125 z m 0,0"
         style="fill:#000000;fill-opacity:1;fill-rule:nonzero;stroke:none" /><path
         id="path85"
         d="m 34.053578,69.792594 c 0,-0.1875 -0.01172,-0.199219 -0.210937,-0.199219 -0.445313,0.433594 -1.078125,0.445313 -1.359375,0.445313 v 0.246093 c 0.164062,0 0.621093,0 1.007812,-0.1875 v 3.550782 c 0,0.234375 0,0.328125 -0.691406,0.328125 h -0.269531 v 0.246093 c 0.128906,-0.01172 0.984375,-0.02344 1.242187,-0.02344 0.210938,0 1.089844,0.01172 1.242188,0.02344 v -0.246093 h -0.257813 c -0.703125,0 -0.703125,-0.09375 -0.703125,-0.328125 z m 0,0"
         style="fill:#000000;fill-opacity:1;fill-rule:nonzero;stroke:none" /><path
         id="path86"
         d="m 39.573109,71.597281 c 0.02344,-0.105468 0.02344,-0.117187 0.02344,-0.152343 0,-0.140625 -0.105469,-0.222657 -0.222656,-0.222657 -0.08203,0 -0.210938,0.03516 -0.292969,0.164063 -0.02344,0.03516 -0.07031,0.257812 -0.105469,0.398437 l -0.152344,0.585938 c -0.03516,0.164062 -0.257812,1.042969 -0.28125,1.125 0,0 -0.304687,0.597656 -0.855468,0.597656 -0.46875,0 -0.46875,-0.445312 -0.46875,-0.574219 0,-0.375 0.152343,-0.820312 0.363281,-1.359375 0.08203,-0.222656 0.117187,-0.304687 0.117187,-0.421875 0,-0.328125 -0.28125,-0.585937 -0.65625,-0.585937 -0.703125,0 -1.019531,0.949219 -1.019531,1.066406 0,0.08203 0.09375,0.08203 0.117188,0.08203 0.09375,0 0.105468,-0.03516 0.128906,-0.105468 0.175781,-0.585938 0.46875,-0.855469 0.75,-0.855469 0.117187,0 0.175781,0.08203 0.175781,0.246094 0,0.164062 -0.05859,0.316406 -0.09375,0.410156 -0.339844,0.84375 -0.410156,1.101562 -0.410156,1.40625 0,0.117187 0,0.445312 0.269531,0.679687 0.222656,0.175782 0.515625,0.210938 0.703125,0.210938 0.28125,0 0.527344,-0.105469 0.761719,-0.316406 -0.09375,0.386718 -0.175781,0.679687 -0.46875,1.03125 -0.1875,0.210937 -0.457031,0.445312 -0.832031,0.445312 -0.04687,0 -0.375,0 -0.527344,-0.234375 0.375,-0.03516 0.375,-0.375 0.375,-0.386719 0,-0.222656 -0.199219,-0.257812 -0.269531,-0.257812 -0.175782,0 -0.398438,0.140625 -0.398438,0.457031 0,0.351563 0.328125,0.609375 0.832031,0.609375 0.703125,0 1.558594,-0.539062 1.769532,-1.40625 z m 0,0"
         style="fill:#000000;fill-opacity:1;fill-rule:nonzero;stroke:none" /><path
         id="path87"
         d="m 57.37682,65.814078 -1.335937,1.359375 0.175781,0.175781 1.160156,-1.019531 1.136719,1.019531 0.1875,-0.175781 z m 0,0"
         style="fill:#000000;fill-opacity:1;fill-rule:nonzero;stroke:none" /><path
         id="path88"
         d="m 52.534047,70.431266 c 0.292969,0 1.03125,-0.02344 1.523437,-0.234375 0.703125,-0.292969 0.75,-0.890625 0.75,-1.019532 0,-0.445312 -0.386718,-0.855468 -1.066406,-0.855468 -1.113281,0 -2.613281,0.972656 -2.613281,2.707031 0,1.019531 0.585937,1.804687 1.570312,1.804687 1.417969,0 2.261719,-1.054687 2.261719,-1.171875 0,-0.05859 -0.07031,-0.128906 -0.128906,-0.128906 -0.04687,0 -0.07031,0.02344 -0.128906,0.09375 -0.785157,0.996094 -1.875,0.996094 -1.992188,0.996094 -0.773437,0 -0.867187,-0.84375 -0.867187,-1.160156 0,-0.117188 0.01172,-0.433594 0.164062,-1.03125 z m -0.46875,-0.222657 c 0.386719,-1.511718 1.417969,-1.664062 1.675781,-1.664062 0.46875,0 0.738281,0.292969 0.738281,0.632812 0,1.03125 -1.59375,1.03125 -2.003906,1.03125 z m 0,0"
         style="fill:#000000;fill-opacity:1;fill-rule:nonzero;stroke:none" /><path
         id="path89"
         d="m 57.209828,71.89025 c 0.550781,0 0.9375,0.375 0.9375,1.125 0,0.867188 -0.503906,1.125 -0.902344,1.125 -0.28125,0 -0.890625,-0.08203 -1.183593,-0.492187 0.328125,-0.01172 0.398437,-0.246094 0.398437,-0.386719 0,-0.222656 -0.164062,-0.386719 -0.386719,-0.386719 -0.1875,0 -0.386718,0.117188 -0.386718,0.410156 0,0.65625 0.726562,1.078125 1.570312,1.078125 0.972656,0 1.640625,-0.644531 1.640625,-1.347656 0,-0.539062 -0.445312,-1.089844 -1.21875,-1.242187 0.738281,-0.269532 0.996094,-0.796875 0.996094,-1.21875 0,-0.550782 -0.632813,-0.960938 -1.40625,-0.960938 -0.773438,0 -1.359375,0.375 -1.359375,0.9375 0,0.234375 0.152344,0.363281 0.363281,0.363281 0.210938,0 0.351563,-0.164062 0.351563,-0.351562 0,-0.199219 -0.140625,-0.351563 -0.351563,-0.363281 0.234375,-0.304688 0.714844,-0.386719 0.972656,-0.386719 0.316407,0 0.761719,0.152344 0.761719,0.761719 0,0.292968 -0.105469,0.609375 -0.28125,0.832031 -0.234375,0.257812 -0.421875,0.28125 -0.773437,0.292969 -0.175782,0.02344 -0.1875,0.02344 -0.222657,0.02344 -0.01172,0 -0.07031,0.01172 -0.07031,0.09375 0,0.09375 0.05859,0.09375 0.175781,0.09375 z m 0,0"
         style="fill:#000000;fill-opacity:1;fill-rule:nonzero;stroke:none" /><path
         id="path90"
         d="m 63.160023,71.597281 c 0.02344,-0.105468 0.02344,-0.117187 0.02344,-0.152343 0,-0.140625 -0.105469,-0.222657 -0.222656,-0.222657 -0.08203,0 -0.210938,0.03516 -0.292969,0.164063 -0.02344,0.03516 -0.07031,0.257812 -0.105469,0.398437 l -0.152344,0.585938 c -0.03516,0.164062 -0.257812,1.042969 -0.28125,1.125 0,0 -0.304687,0.597656 -0.855468,0.597656 -0.46875,0 -0.46875,-0.445312 -0.46875,-0.574219 0,-0.375 0.152343,-0.820312 0.363281,-1.359375 0.08203,-0.222656 0.117187,-0.304687 0.117187,-0.421875 0,-0.328125 -0.28125,-0.585937 -0.65625,-0.585937 -0.703125,0 -1.019531,0.949219 -1.019531,1.066406 0,0.08203 0.09375,0.08203 0.117188,0.08203 0.09375,0 0.105468,-0.03516 0.128906,-0.105468 0.175781,-0.585938 0.46875,-0.855469 0.75,-0.855469 0.117187,0 0.175781,0.08203 0.175781,0.246094 0,0.164062 -0.05859,0.316406 -0.09375,0.410156 -0.339844,0.84375 -0.410156,1.101562 -0.410156,1.40625 0,0.117187 0,0.445312 0.269531,0.679687 0.222656,0.175782 0.515625,0.210938 0.703125,0.210938 0.28125,0 0.527344,-0.105469 0.761719,-0.316406 -0.09375,0.386718 -0.175781,0.679687 -0.46875,1.03125 -0.1875,0.210937 -0.457031,0.445312 -0.832031,0.445312 -0.04687,0 -0.375,0 -0.527344,-0.234375 0.375,-0.03516 0.375,-0.375 0.375,-0.386719 0,-0.222656 -0.199219,-0.257812 -0.269531,-0.257812 -0.175782,0 -0.398438,0.140625 -0.398438,0.457031 0,0.351563 0.328125,0.609375 0.832031,0.609375 0.703125,0 1.558594,-0.539062 1.769532,-1.40625 z m 0,0"
         style="fill:#000000;fill-opacity:1;fill-rule:nonzero;stroke:none" /><path
         id="path91"
         d="m 80.963734,65.814078 -1.335937,1.359375 0.175781,0.175781 1.160156,-1.019531 1.136719,1.019531 0.1875,-0.175781 z m 0,0"
         style="fill:#000000;fill-opacity:1;fill-rule:nonzero;stroke:none" /><path
         id="path92"
         d="m 76.123891,70.431266 c 0.292968,0 1.03125,-0.02344 1.523437,-0.234375 0.703125,-0.292969 0.75,-0.890625 0.75,-1.019532 0,-0.445312 -0.386719,-0.855468 -1.066406,-0.855468 -1.113281,0 -2.613281,0.972656 -2.613281,2.707031 0,1.019531 0.585937,1.804687 1.570312,1.804687 1.417969,0 2.261719,-1.054687 2.261719,-1.171875 0,-0.05859 -0.07031,-0.128906 -0.128906,-0.128906 -0.04687,0 -0.07031,0.02344 -0.128907,0.09375 -0.785156,0.996094 -1.875,0.996094 -1.992187,0.996094 -0.773438,0 -0.867188,-0.84375 -0.867188,-1.160156 0,-0.117188 0.01172,-0.433594 0.164063,-1.03125 z m -0.46875,-0.222657 c 0.386718,-1.511718 1.417968,-1.664062 1.675781,-1.664062 0.46875,0 0.738281,0.292969 0.738281,0.632812 0,1.03125 -1.59375,1.03125 -2.003906,1.03125 z m 0,0"
         style="fill:#000000;fill-opacity:1;fill-rule:nonzero;stroke:none" /><path
         id="path93"
         d="M 82.592641,73.073844 V 72.82775 h -0.773438 v -3.105469 c 0,-0.152343 0,-0.199218 -0.152344,-0.199218 -0.09375,0 -0.117187,0 -0.1875,0.09375 l -2.308593,3.210937 v 0.246094 h 2.050781 v 0.574219 c 0,0.234375 0,0.328125 -0.5625,0.328125 h -0.1875 v 0.246093 c 0.351562,-0.01172 0.796875,-0.02344 1.042969,-0.02344 0.257812,0 0.703125,0.01172 1.054687,0.02344 v -0.246093 h -0.1875 c -0.5625,0 -0.5625,-0.09375 -0.5625,-0.328125 v -0.574219 z m -1.324219,-2.800781 v 2.554687 h -1.839844 z m 0,0"
         style="fill:#000000;fill-opacity:1;fill-rule:nonzero;stroke:none" /><path
         id="path94"
         d="m 86.749867,71.597281 c 0.02344,-0.105468 0.02344,-0.117187 0.02344,-0.152343 0,-0.140625 -0.105469,-0.222657 -0.222657,-0.222657 -0.08203,0 -0.210937,0.03516 -0.292968,0.164063 -0.02344,0.03516 -0.07031,0.257812 -0.105469,0.398437 l -0.152344,0.585938 c -0.03516,0.164062 -0.257812,1.042969 -0.28125,1.125 0,0 -0.304687,0.597656 -0.855469,0.597656 -0.46875,0 -0.46875,-0.445312 -0.46875,-0.574219 0,-0.375 0.152344,-0.820312 0.363282,-1.359375 0.08203,-0.222656 0.117187,-0.304687 0.117187,-0.421875 0,-0.328125 -0.28125,-0.585937 -0.65625,-0.585937 -0.703125,0 -1.019531,0.949219 -1.019531,1.066406 0,0.08203 0.09375,0.08203 0.117187,0.08203 0.09375,0 0.105469,-0.03516 0.128907,-0.105468 0.175781,-0.585938 0.46875,-0.855469 0.75,-0.855469 0.117187,0 0.175781,0.08203 0.175781,0.246094 0,0.164062 -0.05859,0.316406 -0.09375,0.410156 -0.339844,0.84375 -0.410156,1.101562 -0.410156,1.40625 0,0.117187 0,0.445312 0.269531,0.679687 0.222656,0.175782 0.515625,0.210938 0.703125,0.210938 0.28125,0 0.527344,-0.105469 0.761719,-0.316406 -0.09375,0.386718 -0.175782,0.679687 -0.46875,1.03125 -0.1875,0.210937 -0.457032,0.445312 -0.832032,0.445312 -0.04687,0 -0.375,0 -0.527343,-0.234375 0.375,-0.03516 0.375,-0.375 0.375,-0.386719 0,-0.222656 -0.199219,-0.257812 -0.269532,-0.257812 -0.175781,0 -0.398437,0.140625 -0.398437,0.457031 0,0.351563 0.328125,0.609375 0.832031,0.609375 0.703125,0 1.558594,-0.539062 1.769531,-1.40625 z m 0,0"
         style="fill:#000000;fill-opacity:1;fill-rule:nonzero;stroke:none" /><path
         id="path95"
         d="m 33.786977,77.770133 -1.335938,1.359375 0.175781,0.175781 1.160157,-1.019531 1.136718,1.019531 0.1875,-0.175781 z m 0,0"
         style="fill:#000000;fill-opacity:1;fill-rule:nonzero;stroke:none" /><path
         id="path96"
         d="m 29.046742,82.38732 c 0.292969,0 1.03125,-0.02344 1.523438,-0.234375 0.703125,-0.292968 0.75,-0.890625 0.75,-1.019531 0,-0.445312 -0.386719,-0.855469 -1.066407,-0.855469 -1.113281,0 -2.613281,0.972657 -2.613281,2.707032 0,1.019531 0.585938,1.804687 1.570313,1.804687 1.417968,0 2.261718,-1.054687 2.261718,-1.171875 0,-0.05859 -0.07031,-0.128906 -0.128906,-0.128906 -0.04687,0 -0.07031,0.02344 -0.128906,0.09375 -0.785156,0.996094 -1.875,0.996094 -1.992188,0.996094 -0.773437,0 -0.867187,-0.84375 -0.867187,-1.160157 0,-0.117187 0.01172,-0.433593 0.164062,-1.03125 z m -0.46875,-0.222656 c 0.386719,-1.511719 1.417969,-1.664062 1.675781,-1.664062 0.46875,0 0.738282,0.292968 0.738282,0.632812 0,1.03125 -1.59375,1.03125 -2.003907,1.03125 z m 0,0"
         style="fill:#000000;fill-opacity:1;fill-rule:nonzero;stroke:none" /><path
         id="path97"
         d="m 34.153188,81.748648 c 0,-0.1875 -0.01172,-0.199218 -0.210938,-0.199218 -0.445312,0.433593 -1.078125,0.445312 -1.359375,0.445312 v 0.246094 c 0.164063,0 0.621094,0 1.007813,-0.1875 v 3.550781 c 0,0.234375 0,0.328125 -0.691407,0.328125 H 32.62975 v 0.246094 c 0.128906,-0.01172 0.984375,-0.02344 1.242188,-0.02344 0.210937,0 1.089843,0.01172 1.242187,0.02344 v -0.246094 h -0.257812 c -0.703125,0 -0.703125,-0.09375 -0.703125,-0.328125 z m 0,0"
         style="fill:#000000;fill-opacity:1;fill-rule:nonzero;stroke:none" /><path
         id="path98"
         d="m 36.965688,85.568961 c 0.175781,-0.1875 0.304687,-0.316406 0.902343,-0.796875 0.140625,-0.117188 0.667969,-0.527344 0.867188,-0.726563 0.421875,-0.421875 0.691406,-0.773437 0.691406,-0.855468 0,-0.08203 -0.09375,-0.08203 -0.117187,-0.08203 -0.05859,0 -0.08203,0.01172 -0.117188,0.07031 -0.222656,0.316406 -0.363281,0.421875 -0.527344,0.421875 -0.09375,0 -0.199218,-0.01172 -0.398437,-0.210938 -0.246094,-0.234375 -0.398438,-0.28125 -0.550781,-0.28125 -0.5625,0 -0.9375,0.597657 -0.9375,0.808594 0,0.07031 0.07031,0.08203 0.117187,0.08203 0.08203,0 0.09375,-0.01172 0.128906,-0.09375 0.105469,-0.246093 0.492188,-0.257812 0.597657,-0.257812 0.164062,0 0.351562,0.04687 0.445312,0.05859 0.386719,0.09375 0.433594,0.09375 0.609375,0.09375 -0.1875,0.1875 -0.304687,0.304687 -0.972656,0.84375 -0.539063,0.421875 -0.726563,0.597656 -0.867188,0.738281 -0.410156,0.410156 -0.621093,0.714844 -0.621093,0.785156 0,0.08203 0.09375,0.08203 0.117187,0.08203 0.07031,0 0.09375,-0.01172 0.128906,-0.07031 0.1875,-0.269531 0.398438,-0.421875 0.632813,-0.421875 0.08203,0 0.1875,0 0.375,0.175781 0.222656,0.210938 0.363281,0.316406 0.585937,0.316406 0.738282,0 1.207032,-0.84375 1.207032,-1.078125 0,-0.08203 -0.07031,-0.09375 -0.117188,-0.09375 -0.08203,0 -0.09375,0.03516 -0.128906,0.117188 -0.128906,0.339844 -0.539063,0.515625 -0.878906,0.515625 -0.164063,0 -0.339844,-0.03516 -0.515625,-0.08203 -0.316407,-0.07031 -0.375,-0.07031 -0.492188,-0.07031 -0.02344,0 -0.117187,0 -0.164062,0.01172 z m 0,0"
         style="fill:#000000;fill-opacity:1;fill-rule:nonzero;stroke:none" /><path
         id="path99"
         d="m 57.37682,77.770133 -1.335937,1.359375 0.175781,0.175781 1.160156,-1.019531 1.136719,1.019531 0.1875,-0.175781 z m 0,0"
         style="fill:#000000;fill-opacity:1;fill-rule:nonzero;stroke:none" /><path
         id="path100"
         d="m 52.633656,82.38732 c 0.292969,0 1.03125,-0.02344 1.523438,-0.234375 0.703125,-0.292968 0.75,-0.890625 0.75,-1.019531 0,-0.445312 -0.386719,-0.855469 -1.066406,-0.855469 -1.113282,0 -2.613282,0.972657 -2.613282,2.707032 0,1.019531 0.585938,1.804687 1.570313,1.804687 1.417969,0 2.261719,-1.054687 2.261719,-1.171875 0,-0.05859 -0.07031,-0.128906 -0.128907,-0.128906 -0.04687,0 -0.07031,0.02344 -0.128906,0.09375 -0.785156,0.996094 -1.875,0.996094 -1.992187,0.996094 -0.773438,0 -0.867188,-0.84375 -0.867188,-1.160157 0,-0.117187 0.01172,-0.433593 0.164063,-1.03125 z m -0.46875,-0.222656 c 0.386719,-1.511719 1.417969,-1.664062 1.675782,-1.664062 0.46875,0 0.738281,0.292968 0.738281,0.632812 0,1.03125 -1.59375,1.03125 -2.003906,1.03125 z m 0,0"
         style="fill:#000000;fill-opacity:1;fill-rule:nonzero;stroke:none" /><path
         id="path101"
         d="m 57.309438,83.846305 c 0.550781,0 0.9375,0.375 0.9375,1.125 0,0.867187 -0.503907,1.125 -0.902344,1.125 -0.28125,0 -0.890625,-0.08203 -1.183594,-0.492188 0.328125,-0.01172 0.398438,-0.246094 0.398438,-0.386719 0,-0.222656 -0.164063,-0.386718 -0.386719,-0.386718 -0.1875,0 -0.386719,0.117187 -0.386719,0.410156 0,0.65625 0.726563,1.078125 1.570313,1.078125 0.972656,0 1.640625,-0.644531 1.640625,-1.347656 0,-0.539063 -0.445313,-1.089844 -1.21875,-1.242188 0.738281,-0.269531 0.996093,-0.796875 0.996093,-1.21875 0,-0.550781 -0.632812,-0.960937 -1.40625,-0.960937 -0.773437,0 -1.359375,0.375 -1.359375,0.9375 0,0.234375 0.152344,0.363281 0.363282,0.363281 0.210937,0 0.351562,-0.164063 0.351562,-0.351563 0,-0.199218 -0.140625,-0.351562 -0.351562,-0.363281 0.234375,-0.304687 0.714843,-0.386719 0.972656,-0.386719 0.316406,0 0.761719,0.152344 0.761719,0.761719 0,0.292969 -0.105469,0.609375 -0.28125,0.832031 -0.234375,0.257813 -0.421875,0.28125 -0.773438,0.292969 -0.175781,0.02344 -0.1875,0.02344 -0.222656,0.02344 -0.01172,0 -0.07031,0.01172 -0.07031,0.09375 0,0.09375 0.05859,0.09375 0.175782,0.09375 z m 0,0"
         style="fill:#000000;fill-opacity:1;fill-rule:nonzero;stroke:none" /><path
         id="path102"
         d="m 60.552602,85.568961 c 0.175781,-0.1875 0.304687,-0.316406 0.902343,-0.796875 0.140625,-0.117188 0.667969,-0.527344 0.867188,-0.726563 0.421875,-0.421875 0.691406,-0.773437 0.691406,-0.855468 0,-0.08203 -0.09375,-0.08203 -0.117187,-0.08203 -0.05859,0 -0.08203,0.01172 -0.117188,0.07031 -0.222656,0.316406 -0.363281,0.421875 -0.527344,0.421875 -0.09375,0 -0.199218,-0.01172 -0.398437,-0.210938 -0.246094,-0.234375 -0.398438,-0.28125 -0.550781,-0.28125 -0.5625,0 -0.9375,0.597657 -0.9375,0.808594 0,0.07031 0.07031,0.08203 0.117187,0.08203 0.08203,0 0.09375,-0.01172 0.128906,-0.09375 0.105469,-0.246093 0.492188,-0.257812 0.597657,-0.257812 0.164062,0 0.351562,0.04687 0.445312,0.05859 0.386719,0.09375 0.433594,0.09375 0.609375,0.09375 -0.1875,0.1875 -0.304687,0.304687 -0.972656,0.84375 -0.539063,0.421875 -0.726563,0.597656 -0.867188,0.738281 -0.410156,0.410156 -0.621093,0.714844 -0.621093,0.785156 0,0.08203 0.09375,0.08203 0.117187,0.08203 0.07031,0 0.09375,-0.01172 0.128906,-0.07031 0.1875,-0.269531 0.398438,-0.421875 0.632813,-0.421875 0.08203,0 0.1875,0 0.375,0.175781 0.222656,0.210938 0.363281,0.316406 0.585937,0.316406 0.738282,0 1.207032,-0.84375 1.207032,-1.078125 0,-0.08203 -0.07031,-0.09375 -0.117188,-0.09375 -0.08203,0 -0.09375,0.03516 -0.128906,0.117188 -0.128906,0.339844 -0.539063,0.515625 -0.878906,0.515625 -0.164063,0 -0.339844,-0.03516 -0.515625,-0.08203 -0.316407,-0.07031 -0.375,-0.07031 -0.492188,-0.07031 -0.02344,0 -0.117187,0 -0.164062,0.01172 z m 0,0"
         style="fill:#000000;fill-opacity:1;fill-rule:nonzero;stroke:none" /><path
         id="path103"
         d="m 80.963734,77.770133 -1.335937,1.359375 0.175781,0.175781 1.160156,-1.019531 1.136719,1.019531 0.1875,-0.175781 z m 0,0"
         style="fill:#000000;fill-opacity:1;fill-rule:nonzero;stroke:none" /><path
         id="path104"
         d="m 76.2235,82.38732 c 0.292969,0 1.03125,-0.02344 1.523438,-0.234375 0.703125,-0.292968 0.75,-0.890625 0.75,-1.019531 0,-0.445312 -0.386719,-0.855469 -1.066407,-0.855469 -1.113281,0 -2.613281,0.972657 -2.613281,2.707032 0,1.019531 0.585938,1.804687 1.570313,1.804687 1.417968,0 2.261718,-1.054687 2.261718,-1.171875 0,-0.05859 -0.07031,-0.128906 -0.128906,-0.128906 -0.04687,0 -0.07031,0.02344 -0.128906,0.09375 -0.785156,0.996094 -1.875,0.996094 -1.992188,0.996094 -0.773437,0 -0.867187,-0.84375 -0.867187,-1.160157 0,-0.117187 0.01172,-0.433593 0.164062,-1.03125 z m -0.46875,-0.222656 c 0.386719,-1.511719 1.417969,-1.664062 1.675781,-1.664062 0.46875,0 0.738282,0.292968 0.738282,0.632812 0,1.03125 -1.59375,1.03125 -2.003907,1.03125 z m 0,0"
         style="fill:#000000;fill-opacity:1;fill-rule:nonzero;stroke:none" /><path
         id="path105"
         d="m 82.68932,85.029898 v -0.246093 h -0.773437 v -3.105469 c 0,-0.152344 0,-0.199219 -0.152344,-0.199219 -0.09375,0 -0.117187,0 -0.1875,0.09375 l -2.308594,3.210938 v 0.246093 h 2.050782 v 0.574219 c 0,0.234375 0,0.328125 -0.5625,0.328125 h -0.1875 v 0.246094 c 0.351562,-0.01172 0.796875,-0.02344 1.042968,-0.02344 0.257813,0 0.703125,0.01172 1.054688,0.02344 v -0.246094 h -0.1875 c -0.5625,0 -0.5625,-0.09375 -0.5625,-0.328125 v -0.574219 z m -1.324218,-2.800781 v 2.554688 h -1.839844 z m 0,0"
         style="fill:#000000;fill-opacity:1;fill-rule:nonzero;stroke:none" /><path
         id="path106"
         d="m 84.142445,85.568961 c 0.175782,-0.1875 0.304688,-0.316406 0.902344,-0.796875 0.140625,-0.117188 0.667969,-0.527344 0.867188,-0.726563 0.421875,-0.421875 0.691406,-0.773437 0.691406,-0.855468 0,-0.08203 -0.09375,-0.08203 -0.117188,-0.08203 -0.05859,0 -0.08203,0.01172 -0.117187,0.07031 -0.222656,0.316406 -0.363281,0.421875 -0.527344,0.421875 -0.09375,0 -0.199219,-0.01172 -0.398437,-0.210938 -0.246094,-0.234375 -0.398438,-0.28125 -0.550782,-0.28125 -0.5625,0 -0.9375,0.597657 -0.9375,0.808594 0,0.07031 0.07031,0.08203 0.117188,0.08203 0.08203,0 0.09375,-0.01172 0.128906,-0.09375 0.105469,-0.246093 0.492188,-0.257812 0.597656,-0.257812 0.164063,0 0.351563,0.04687 0.445313,0.05859 0.386719,0.09375 0.433594,0.09375 0.609375,0.09375 -0.1875,0.1875 -0.304688,0.304687 -0.972656,0.84375 -0.539063,0.421875 -0.726563,0.597656 -0.867188,0.738281 -0.410156,0.410156 -0.621094,0.714844 -0.621094,0.785156 0,0.08203 0.09375,0.08203 0.117188,0.08203 0.07031,0 0.09375,-0.01172 0.128906,-0.07031 0.1875,-0.269531 0.398438,-0.421875 0.632813,-0.421875 0.08203,0 0.1875,0 0.375,0.175781 0.222656,0.210938 0.363281,0.316406 0.585937,0.316406 0.738281,0 1.207031,-0.84375 1.207031,-1.078125 0,-0.08203 -0.07031,-0.09375 -0.117187,-0.09375 -0.08203,0 -0.09375,0.03516 -0.128906,0.117188 -0.128907,0.339844 -0.539063,0.515625 -0.878907,0.515625 -0.164062,0 -0.339843,-0.03516 -0.515625,-0.08203 -0.316406,-0.07031 -0.375,-0.07031 -0.492187,-0.07031 -0.02344,0 -0.117188,0 -0.164063,0.01172 z m 0,0"
         style="fill:#000000;fill-opacity:1;fill-rule:nonzero;stroke:none" /><path
         id="path107"
         d="m 90.467641,70.334586 h 0.691406 V 52.416617 h -3.316406 v 0.691406 h 2.625 z m 0,17.241211 h -2.625 v 0.679687 h 3.316406 V 70.337516 h -0.691406 z m 0,0"
         style="fill:#000000;fill-opacity:1;fill-rule:nonzero;stroke:none" /><path
         id="path108"
         d="m -8.1837266,96.63732 h 0.8554688 c 0.1992187,0 0.3046875,0 0.3046875,-0.199218 0,-0.105469 -0.1054688,-0.105469 -0.2695313,-0.105469 h -0.8320312 l 0.2109375,-1.136719 c 0.035156,-0.210937 0.1757812,-0.914062 0.234375,-1.042969 0.09375,-0.1875 0.2578125,-0.339843 0.46875,-0.339843 0.046875,0 0.3046875,0 0.4921875,0.1875 -0.4335938,0.03516 -0.5390625,0.386718 -0.5390625,0.539062 0,0.222656 0.1757812,0.339844 0.3632812,0.339844 0.2695313,0 0.5507813,-0.210938 0.5507813,-0.597656 0,-0.457032 -0.4570313,-0.679688 -0.8671875,-0.679688 -0.3398438,0 -0.9609375,0.175781 -1.265625,1.160156 -0.058594,0.210938 -0.082031,0.316407 -0.328125,1.570313 h -0.6796875 c -0.1992188,0 -0.3046875,0 -0.3046875,0.1875 0,0.117187 0.09375,0.117187 0.28125,0.117187 h 0.65625 l -0.75,3.9375 c -0.1757813,0.96094 -0.3398438,1.875 -0.8671877,1.875 -0.03516,0 -0.28125,0 -0.46875,-0.1875 0.457031,-0.0234 0.539063,-0.38672 0.539063,-0.53906 0,-0.22266 -0.175782,-0.33985 -0.363282,-0.33985 -0.257812,0 -0.550781,0.21094 -0.550781,0.59766 0,0.44531 0.433594,0.67969 0.84375,0.67969 0.5507814,0 0.9492189,-0.58594 1.1250002,-0.96094 0.328125,-0.63281 0.5507812,-1.839843 0.5625,-1.910156 z m 0,0"
         style="fill:#000000;fill-opacity:1;fill-rule:nonzero;stroke:none" /><path
         id="path109"
         d="m -2.5968125,103.01232 c 0,-0.0352 0,-0.0469 -0.1640625,-0.22266 -1.2421875,-1.2539 -1.5703125,-3.128902 -1.5703125,-4.664058 0,-1.722657 0.3867188,-3.457032 1.6054688,-4.710938 0.1289062,-0.117187 0.1289062,-0.128906 0.1289062,-0.164062 0,-0.07031 -0.035156,-0.105469 -0.09375,-0.105469 -0.1054687,0 -0.9960937,0.679687 -1.5820312,1.945312 -0.515625,1.101563 -0.6328125,2.203125 -0.6328125,3.035157 0,0.785156 0.1171875,1.992188 0.65625,3.117188 0.5976562,1.21875 1.453125,1.875 1.5585937,1.875 0.058594,0 0.09375,-0.0352 0.09375,-0.10547 z m 0,0"
         style="fill:#000000;fill-opacity:1;fill-rule:nonzero;stroke:none" /><path
         id="path110"
         d="m 2.9402969,94.692008 c -0.1289063,0.128906 -0.4570313,0.410156 -0.4570313,0.585937 0,0.105469 0.09375,0.199219 0.1992188,0.199219 0.082031,0 0.1289062,-0.07031 0.1875,-0.128906 0.1171875,-0.140625 0.3398437,-0.421875 0.7851562,-0.644531 0.070312,-0.03516 0.1640625,-0.09375 0.1640625,-0.210938 0,-0.09375 -0.070312,-0.152344 -0.140625,-0.199219 -0.2109375,-0.152343 -0.328125,-0.328125 -0.3984375,-0.5625 -0.023437,-0.09375 -0.070312,-0.222656 -0.1992187,-0.222656 -0.140625,0 -0.1992188,0.128906 -0.1992188,0.210938 0,0.04687 0.070312,0.363281 0.234375,0.574218 h -3.36328122 c -0.1640625,0 -0.33984375,0 -0.33984375,0.199219 0,0.199219 0.17578125,0.199219 0.33984375,0.199219 z M 2.6502578,96.91857 c 0,-0.539062 -0.2578125,-0.703125 -0.4453125,-0.703125 -0.2460937,0 -0.4804687,0.257813 -0.4804687,0.480469 0,0.128906 0.046875,0.1875 0.1523437,0.304688 0.2109375,0.199218 0.3398438,0.457031 0.3398438,0.808593 0,0.421875 -0.609375,2.707035 -1.76953129,2.707035 -0.50390625,0 -0.73828125,-0.35157 -0.73828125,-0.867191 0,-0.5625 0.26953125,-1.289062 0.57421875,-2.121094 0.0703125,-0.164062 0.12890625,-0.304687 0.12890625,-0.492187 0,-0.445313 -0.328125,-0.820313 -0.8203125,-0.820313 -0.93749996,0 -1.31249996,1.453125 -1.31249996,1.535157 0,0.105468 0.09375,0.105468 0.1171875,0.105468 0.09375,0 0.1054687,-0.02344 0.1523437,-0.1875 0.2929688,-0.996093 0.72656251,-1.230468 1.00781251,-1.230468 0.0820313,0 0.2578125,0 0.2578125,0.316406 0,0.246094 -0.10546875,0.515625 -0.17578125,0.703125 -0.43359375,1.148437 -0.5625,1.605469 -0.5625,2.039062 0,1.078125 0.8671875,1.230465 1.3359375,1.230465 1.66406254,0 2.23828124,-3.292965 2.23828124,-3.80859 z m 0,0"
         style="fill:#000000;fill-opacity:1;fill-rule:nonzero;stroke:none" /><path
         id="path111"
         d="m 6.051625,98.125602 c 0,-0.773438 -0.1171875,-1.980469 -0.65625,-3.105469 -0.5976562,-1.21875 -1.4648437,-1.875 -1.5585937,-1.875 -0.058594,0 -0.1054688,0.04687 -0.1054688,0.105469 0,0.03516 0,0.04687 0.1992188,0.234375 0.9726562,0.984375 1.5351562,2.566406 1.5351562,4.640625 0,1.710937 -0.3632812,3.457028 -1.59375,4.722658 -0.140625,0.11719 -0.140625,0.1289 -0.140625,0.16406 0,0.0586 0.046875,0.10547 0.1054688,0.10547 0.09375,0 0.9960937,-0.67969 1.5820312,-1.94531 0.5039063,-1.10157 0.6328125,-2.203128 0.6328125,-3.046878 z m 10.605469,-0.761719 c 0.152344,0 0.339844,0 0.339844,-0.199219 0,-0.199219 -0.1875,-0.199219 -0.328125,-0.199219 h -5.964844 c -0.140625,0 -0.328125,0 -0.328125,0.199219 0,0.199219 0.1875,0.199219 0.339844,0.199219 z m 0.01172,1.933594 c 0.140625,0 0.328125,0 0.328125,-0.199219 0,-0.199219 -0.1875,-0.199219 -0.339844,-0.199219 h -5.941406 c -0.152344,0 -0.339844,0 -0.339844,0.199219 0,0.199219 0.1875,0.199219 0.328125,0.199219 z m 0,0"
         style="fill:#000000;fill-opacity:1;fill-rule:nonzero;stroke:none" /><path
         id="path112"
         d="m 24.066273,94.504508 c 0.05859,-0.234375 0.08203,-0.339844 0.28125,-0.363281 0.08203,-0.01172 0.398438,-0.01172 0.597657,-0.01172 0.714843,0 1.816406,0 1.816406,0.984375 0,0.339844 -0.152344,1.019531 -0.550781,1.417969 -0.257813,0.257812 -0.785157,0.574218 -1.675782,0.574218 h -1.113281 z m 1.429688,2.730469 c 1.007812,-0.222657 2.191406,-0.914063 2.191406,-1.921875 0,-0.855469 -0.890625,-1.5 -2.203125,-1.5 h -2.835937 c -0.199219,0 -0.292969,0 -0.292969,0.199218 0,0.117188 0.09375,0.117188 0.28125,0.117188 0.02344,0 0.210937,0 0.386719,0.01172 0.175781,0.02344 0.257812,0.03516 0.257812,0.164062 0,0.03516 0,0.07031 -0.03516,0.1875 l -1.335938,5.355469 c -0.09375,0.386721 -0.117187,0.468751 -0.902343,0.468751 -0.175782,0 -0.269532,0 -0.269532,0.19922 0,0.10547 0.117188,0.10547 0.140625,0.10547 0.28125,0 0.972657,-0.0352 1.253907,-0.0352 0.28125,0 0.984375,0.0352 1.265625,0.0352 0.08203,0 0.199218,0 0.199218,-0.19922 0,-0.10547 -0.09375,-0.10547 -0.28125,-0.10547 -0.363281,0 -0.644531,0 -0.644531,-0.1875 0,-0.0586 0.01172,-0.10547 0.02344,-0.164064 l 0.65625,-2.636718 h 1.195312 c 0.902344,0 1.078125,0.550781 1.078125,0.902343 0,0.152344 -0.08203,0.457032 -0.140625,0.691407 -0.07031,0.269531 -0.152344,0.644531 -0.152344,0.84375 0,1.078122 1.195313,1.078122 1.324219,1.078122 0.84375,0 1.195313,-1.00781 1.195313,-1.148435 0,-0.117187 -0.117188,-0.117187 -0.117188,-0.117187 -0.09375,0 -0.117187,0.07031 -0.128906,0.140625 -0.257813,0.738277 -0.679688,0.902347 -0.914063,0.902347 -0.328125,0 -0.398437,-0.22266 -0.398437,-0.60938 0,-0.304686 0.05859,-0.820311 0.105469,-1.136717 0.01172,-0.140625 0.03516,-0.328125 0.03516,-0.46875 0,-0.761719 -0.667969,-1.078125 -0.9375,-1.171875 z m 7.432617,-2.542969 c -0.128906,0.128906 -0.457031,0.410156 -0.457031,0.585937 0,0.105469 0.09375,0.199219 0.199219,0.199219 0.08203,0 0.128906,-0.07031 0.1875,-0.128906 0.117187,-0.140625 0.339843,-0.421875 0.785156,-0.644531 0.07031,-0.03516 0.164062,-0.09375 0.164062,-0.210938 0,-0.09375 -0.07031,-0.152344 -0.140625,-0.199219 -0.210937,-0.152343 -0.328125,-0.328125 -0.398437,-0.5625 -0.02344,-0.09375 -0.07031,-0.222656 -0.199219,-0.222656 -0.140625,0 -0.199219,0.128906 -0.199219,0.210938 0,0.04687 0.07031,0.363281 0.234375,0.574218 h -3.363281 c -0.164062,0 -0.339844,0 -0.339844,0.199219 0,0.199219 0.175782,0.199219 0.339844,0.199219 z m -0.292969,2.226562 c 0,-0.539062 -0.257812,-0.703125 -0.445312,-0.703125 -0.246094,0 -0.480469,0.257813 -0.480469,0.480469 0,0.128906 0.04687,0.1875 0.152344,0.304688 0.210937,0.199218 0.339844,0.457031 0.339844,0.808593 0,0.421875 -0.609375,2.707035 -1.769532,2.707035 -0.503906,0 -0.738281,-0.35157 -0.738281,-0.867191 0,-0.5625 0.269531,-1.289062 0.574219,-2.121094 0.07031,-0.164062 0.128906,-0.304687 0.128906,-0.492187 0,-0.445313 -0.328125,-0.820313 -0.820312,-0.820313 -0.9375,0 -1.3125,1.453125 -1.3125,1.535157 0,0.105468 0.09375,0.105468 0.117187,0.105468 0.09375,0 0.105469,-0.02344 0.152344,-0.1875 0.292969,-0.996093 0.726562,-1.230468 1.007812,-1.230468 0.08203,0 0.257813,0 0.257813,0.316406 0,0.246094 -0.105469,0.515625 -0.175781,0.703125 -0.433594,1.148437 -0.5625,1.605469 -0.5625,2.039062 0,1.078125 0.867187,1.230465 1.335937,1.230465 1.664063,0 2.238281,-3.292965 2.238281,-3.80859 z m 0,0"
         style="fill:#000000;fill-opacity:1;fill-rule:nonzero;stroke:none" /><path
         id="path113"
         d="m 39.447133,98.32482 h 2.777344 c 0.140625,0 0.328125,0 0.328125,-0.199218 0,-0.199219 -0.1875,-0.199219 -0.328125,-0.199219 H 39.447133 V 95.13732 c 0,-0.128906 0,-0.328125 -0.199219,-0.328125 -0.199219,0 -0.199219,0.199219 -0.199219,0.328125 v 2.789063 h -2.789062 c -0.140625,0 -0.328125,0 -0.328125,0.199219 0,0.199218 0.1875,0.199218 0.328125,0.199218 h 2.789062 v 2.80078 c 0,0.12891 0,0.32813 0.199219,0.32813 0.199219,0 0.199219,-0.19922 0.199219,-0.32813 z m 0,0"
         style="fill:#000000;fill-opacity:1;fill-rule:nonzero;stroke:none" /><path
         id="path114"
         d="m 50.386586,94.692008 c -0.128906,0.128906 -0.457031,0.410156 -0.457031,0.585937 0,0.105469 0.09375,0.199219 0.199218,0.199219 0.08203,0 0.128907,-0.07031 0.1875,-0.128906 0.117188,-0.140625 0.339844,-0.421875 0.785157,-0.644531 0.07031,-0.03516 0.164062,-0.09375 0.164062,-0.210938 0,-0.09375 -0.07031,-0.152344 -0.140625,-0.199219 -0.210937,-0.152343 -0.328125,-0.328125 -0.398437,-0.5625 -0.02344,-0.09375 -0.07031,-0.222656 -0.199219,-0.222656 -0.140625,0 -0.199219,0.128906 -0.199219,0.210938 0,0.04687 0.07031,0.363281 0.234375,0.574218 h -3.363281 c -0.164063,0 -0.339844,0 -0.339844,0.199219 0,0.199219 0.175781,0.199219 0.339844,0.199219 z m -0.37793,3.210937 c 0,-1.03125 -0.703125,-1.6875 -1.59375,-1.6875 -1.335937,0 -2.671875,1.417969 -2.671875,2.835938 0,0.984377 0.667969,1.675777 1.59375,1.675777 1.324219,0 2.671875,-1.37109 2.671875,-2.824215 z M 47.3485,100.51623 c -0.433594,0 -0.867187,-0.31641 -0.867187,-1.089847 0,-0.492188 0.257812,-1.558594 0.574218,-2.074219 0.503907,-0.761719 1.066407,-0.914062 1.347657,-0.914062 0.574218,0 0.878906,0.480468 0.878906,1.078125 0,0.386718 -0.199219,1.429687 -0.585938,2.074218 -0.339843,0.585935 -0.890625,0.925785 -1.347656,0.925785 z m 0,0"
         style="fill:#000000;fill-opacity:1;fill-rule:nonzero;stroke:none" /></g><path
       id="path115"
       d="M 93.27504,134.60747 37.7124,67.93243"
       style="fill:none;stroke:#000000;stroke-width:0.3985;stroke-linecap:butt;stroke-linejoin:miter;stroke-miterlimit:10;stroke-dasharray:none;stroke-opacity:1"
       transform="matrix(1.3333333,0,0,-1.3333333,-24.398667,268.99467)" /><path
       id="path116"
       d="M 3.7613,0 C 3.2994,0.1127 1.26901,0.75136 0,1.44638 V -1.44638 C 1.26901,-0.75136 3.2994,-0.1127 3.7613,0 Z"
       style="fill:#000000;fill-opacity:1;fill-rule:nonzero;stroke:#000000;stroke-width:0.3985;stroke-linecap:butt;stroke-linejoin:miter;stroke-miterlimit:10;stroke-dasharray:none;stroke-opacity:1"
       transform="matrix(-0.85353333,1.0242533,1.0242533,0.85353333,25.88456,178.41809)" /><g
       id="g116"
       aria-label="e&#10;1"
       transform="matrix(1.3333333,0,0,1.3333333,65.662667,138.18)"><path
         id="path117"
         d="m 1.8643281,-2.2971094 c 0.2929688,0 1.03125,-0.023437 1.5234375,-0.234375 0.703125,-0.2929687 0.75,-0.890625 0.75,-1.0195312 0,-0.4453125 -0.3867187,-0.8554688 -1.0664062,-0.8554688 -1.1132813,0 -2.61328127,0.9726563 -2.61328127,2.7070313 0,1.01953122 0.58593747,1.80468747 1.57031247,1.80468747 1.4179688,0 2.2617188,-1.0546875 2.2617188,-1.17187497 0,-0.058594 -0.070312,-0.1289063 -0.1289063,-0.1289063 -0.046875,0 -0.070312,0.023437 -0.1289062,0.09375 -0.7851563,0.99609377 -1.875,0.99609377 -1.9921875,0.99609377 -0.7734375,0 -0.8671875,-0.84375 -0.8671875,-1.16015627 0,-0.1171875 0.011719,-0.4335937 0.1640625,-1.03125 z m -0.46875,-0.2226562 c 0.3867188,-1.5117188 1.4179688,-1.6640625 1.6757813,-1.6640625 0.46875,0 0.7382812,0.2929687 0.7382812,0.6328125 0,1.03125 -1.59375,1.03125 -2.0039062,1.03125 z m 0,0"
         style="fill:#000000;fill-opacity:1;fill-rule:nonzero;stroke:none" /><path
         id="path118"
         d="m 6.9707734,-2.9357813 c 0,-0.1875 -0.011719,-0.1992187 -0.2109375,-0.1992187 -0.4453125,0.4335937 -1.078125,0.4453125 -1.359375,0.4453125 v 0.2460937 c 0.1640625,0 0.6210938,0 1.0078125,-0.1875 v 3.5507813 c 0,0.234375 0,0.328125 -0.6914062,0.328125 H 5.4473359 v 0.2460937 c 0.1289063,-0.011719 0.984375,-0.023437 1.2421875,-0.023437 0.2109375,0 1.0898438,0.011719 1.2421875,0.023437 V 1.2478125 H 7.6738984 c -0.703125,0 -0.703125,-0.09375 -0.703125,-0.328125 z m 0,0"
         style="fill:#000000;fill-opacity:1;fill-rule:nonzero;stroke:none" /></g><path
       id="path119"
       d="M 97.39452,132.63739 87.69647,84.14754"
       style="fill:none;stroke:#000000;stroke-width:0.3985;stroke-linecap:butt;stroke-linejoin:miter;stroke-miterlimit:10;stroke-dasharray:none;stroke-opacity:1"
       transform="matrix(1.3333333,0,0,-1.3333333,-24.398667,268.99467)" /><path
       id="path120"
       d="M 3.7613,0 C 3.2994,0.1127 1.26901,0.75136 0,1.44638 V -1.44638 C 1.26901,-0.75136 3.2994,-0.1127 3.7613,0 Z"
       style="fill:#000000;fill-opacity:1;fill-rule:nonzero;stroke:#000000;stroke-width:0.3985;stroke-linecap:butt;stroke-linejoin:miter;stroke-miterlimit:10;stroke-dasharray:none;stroke-opacity:1"
       transform="matrix(-0.26146667,1.3074,1.3074,0.26146667,92.529987,156.79795)" /><g
       id="g120"
       aria-label="e&#10;2"
       transform="matrix(1.3333333,0,0,1.3333333,103.088,129.332)"><path
         id="path121"
         d="m 1.8646641,-2.2968516 c 0.2929687,0 1.03125,-0.023437 1.5234375,-0.234375 0.703125,-0.2929687 0.75,-0.890625 0.75,-1.0195312 0,-0.4453125 -0.3867188,-0.8554688 -1.0664063,-0.8554688 -1.1132812,0 -2.61328124,0.9726563 -2.61328124,2.7070313 0,1.01953124 0.58593754,1.80468749 1.57031254,1.80468749 1.4179687,0 2.2617187,-1.0546875 2.2617187,-1.17187499 0,-0.058594 -0.070312,-0.1289063 -0.1289062,-0.1289063 -0.046875,0 -0.070312,0.023437 -0.1289063,0.09375 -0.7851562,0.99609379 -1.875,0.99609379 -1.9921875,0.99609379 -0.7734375,0 -0.8671875,-0.84375 -0.8671875,-1.16015629 0,-0.1171875 0.011719,-0.4335937 0.1640625,-1.03125 z m -0.46875,-0.2226562 c 0.3867187,-1.5117188 1.4179687,-1.6640625 1.6757812,-1.6640625 0.46875,0 0.7382813,0.2929687 0.7382813,0.6328125 0,1.03125 -1.59375,1.03125 -2.0039063,1.03125 z m 0,0"
         style="fill:#000000;fill-opacity:1;fill-rule:nonzero;stroke:none" /><path
         id="path122"
         d="m 8.1547031,0.22853906 h -0.234375 c -0.023437,0.15234375 -0.082031,0.5625 -0.1757812,0.6328125 -0.058594,0.0351563 -0.5976563,0.0351563 -0.6914063,0.0351563 H 5.7640781 c 0.7382813,-0.64453125 0.984375,-0.84375 1.3945313,-1.171875 0.515625,-0.41015625 0.9960937,-0.84375006 0.9960937,-1.49999996 0,-0.8437501 -0.7382812,-1.3593751 -1.6289062,-1.3593751 -0.8671875,0 -1.453125,0.609375 -1.453125,1.2421876 0,0.3632812 0.3046875,0.3984375 0.375,0.3984375 0.1640625,0 0.375,-0.1171875 0.375,-0.375 0,-0.1289063 -0.058594,-0.3632813 -0.421875,-0.3632813 0.2226562,-0.5039063 0.6914062,-0.65625 1.0195312,-0.65625 0.703125,0 1.0664063,0.5507812 1.0664063,1.1132813 0,0.609375 -0.4335938,1.08984371 -0.65625,1.33593746 l -1.6875,1.66406254 c -0.070312,0.058594 -0.070312,0.070312 -0.070312,0.2695312 h 2.8828125 z m 0,0"
         style="fill:#000000;fill-opacity:1;fill-rule:nonzero;stroke:none" /></g><path
       id="path123"
       d="M 95.06505,150.03131 74.67537,190.80905"
       style="fill:none;stroke:#000000;stroke-width:0.3985;stroke-linecap:butt;stroke-linejoin:miter;stroke-miterlimit:10;stroke-dasharray:none;stroke-opacity:1"
       transform="matrix(1.3333333,0,0,-1.3333333,-24.398667,268.99467)" /><path
       id="path124"
       d="M 3.7613,0 C 3.2994,0.1127 1.26901,0.75136 0,1.44638 V -1.44638 C 1.26901,-0.75136 3.2994,-0.1127 3.7613,0 Z"
       style="fill:#000000;fill-opacity:1;fill-rule:nonzero;stroke:#000000;stroke-width:0.3985;stroke-linecap:butt;stroke-linejoin:miter;stroke-miterlimit:10;stroke-dasharray:none;stroke-opacity:1"
       transform="matrix(-0.59626667,-1.1925067,-1.1925067,0.59626667,75.168493,14.582613)" /><g
       id="g124"
       aria-label="e&#10;3"
       transform="matrix(1.3333333,0,0,1.3333333,92.086667,40.901333)"><path
         id="path125"
         d="m 1.8627344,-2.2961172 c 0.2929687,0 1.03125,-0.023437 1.5234375,-0.234375 0.703125,-0.2929687 0.75,-0.890625 0.75,-1.0195312 0,-0.4453125 -0.3867188,-0.8554688 -1.0664063,-0.8554688 -1.1132812,0 -2.61328122,0.9726563 -2.61328122,2.7070313 0,1.01953121 0.58593752,1.80468746 1.57031252,1.80468746 1.4179687,0 2.2617187,-1.0546875 2.2617187,-1.17187496 0,-0.058594 -0.070312,-0.1289063 -0.1289062,-0.1289063 -0.046875,0 -0.070312,0.023437 -0.1289063,0.09375 -0.7851562,0.99609376 -1.875,0.99609376 -1.9921875,0.99609376 -0.7734375,0 -0.8671875,-0.84375 -0.8671875,-1.16015626 0,-0.1171875 0.011719,-0.4335937 0.1640625,-1.03125 z m -0.46875,-0.2226562 c 0.3867187,-1.5117188 1.4179687,-1.6640625 1.6757812,-1.6640625 0.46875,0 0.7382813,0.2929687 0.7382813,0.6328125 0,1.03125 -1.59375,1.03125 -2.0039063,1.03125 z m 0,0"
         style="fill:#000000;fill-opacity:1;fill-rule:nonzero;stroke:none" /><path
         id="path126"
         d="m 6.5385156,-0.83713281 c 0.5507813,0 0.9375,0.375 0.9375,1.125 0,0.86718751 -0.5039062,1.12500001 -0.9023437,1.12500001 -0.28125,0 -0.890625,-0.082031 -1.1835938,-0.49218751 0.328125,-0.0117188 0.3984375,-0.24609375 0.3984375,-0.38671875 0,-0.22265625 -0.1640625,-0.38671875 -0.3867187,-0.38671875 -0.1875,0 -0.3867188,0.1171875 -0.3867188,0.41015625 0,0.65624996 0.7265625,1.07812496 1.5703125,1.07812496 0.9726563,0 1.640625,-0.64453121 1.640625,-1.34765621 0,-0.5390625 -0.4453125,-1.08984375 -1.21875,-1.2421875 0.7382813,-0.26953129 0.9960938,-0.79687499 0.9960938,-1.21874999 0,-0.5507813 -0.6328125,-0.9609375 -1.40625,-0.9609375 -0.7734375,0 -1.359375,0.375 -1.359375,0.9375 0,0.234375 0.1523437,0.3632812 0.3632812,0.3632812 0.2109375,0 0.3515625,-0.1640625 0.3515625,-0.3515625 0,-0.1992187 -0.140625,-0.3515625 -0.3515625,-0.3632812 0.234375,-0.3046875 0.7148438,-0.3867188 0.9726563,-0.3867188 0.3164062,0 0.7617187,0.1523438 0.7617187,0.7617188 0,0.2929687 -0.1054687,0.609375 -0.28125,0.8320312 -0.234375,0.2578125 -0.421875,0.28125 -0.7734375,0.2929688 -0.1757812,0.023437 -0.1875,0.023437 -0.2226562,0.023437 -0.011719,0 -0.070312,0.011719 -0.070312,0.09375 0,0.09375 0.058594,0.09375 0.1757812,0.09375 z m 0,0"
         style="fill:#000000;fill-opacity:1;fill-rule:nonzero;stroke:none" /></g><path
       id="path127"
       d="M 90.60059,138.28882 36.1215,116.49652"
       style="fill:none;stroke:#000000;stroke-width:0.3985;stroke-linecap:butt;stroke-linejoin:miter;stroke-miterlimit:10;stroke-dasharray:none;stroke-opacity:1"
       transform="matrix(1.3333333,0,0,-1.3333333,-24.398667,268.99467)" /><path
       id="path128"
       d="M 3.7613,0 C 3.2994,0.1127 1.26901,0.75136 0,1.44638 V -1.44638 C 1.26901,-0.75136 3.2994,-0.1127 3.7613,0 Z"
       style="fill:#000000;fill-opacity:1;fill-rule:nonzero;stroke:#000000;stroke-width:0.3985;stroke-linecap:butt;stroke-linejoin:miter;stroke-miterlimit:10;stroke-dasharray:none;stroke-opacity:1"
       transform="matrix(-1.23792,0.49516,0.49516,1.23792,23.763333,113.66597)" /><g
       id="g128"
       aria-label="e&#10;4"
       transform="matrix(1.3333333,0,0,1.3333333,51.173333,93.588)"><path
         id="path129"
         d="m 1.8621875,-2.2954922 c 0.2929687,0 1.03125,-0.023437 1.5234375,-0.234375 0.703125,-0.2929687 0.75,-0.890625 0.75,-1.0195312 0,-0.4453125 -0.3867188,-0.8554688 -1.0664063,-0.8554688 -1.1132812,0 -2.6132812,0.9726563 -2.6132812,2.7070313 0,1.01953121 0.5859375,1.80468746 1.5703125,1.80468746 1.4179687,0 2.2617187,-1.0546875 2.2617187,-1.17187496 0,-0.058594 -0.070312,-0.1289063 -0.1289062,-0.1289063 -0.046875,0 -0.070312,0.023437 -0.1289063,0.09375 -0.7851562,0.99609376 -1.875,0.99609376 -1.9921875,0.99609376 -0.7734375,0 -0.8671875,-0.84375 -0.8671875,-1.16015626 0,-0.1171875 0.011719,-0.4335937 0.1640625,-1.03125 z m -0.46875,-0.2226562 c 0.3867187,-1.5117188 1.4179687,-1.6640625 1.6757812,-1.6640625 0.46875,0 0.7382813,0.2929687 0.7382813,0.6328125 0,1.03125 -1.59375,1.03125 -2.0039063,1.03125 z m 0,0"
         style="fill:#000000;fill-opacity:1;fill-rule:nonzero;stroke:none" /><path
         id="path130"
         d="M 8.3280078,0.34708594 V 0.10099219 H 7.5545703 V -3.0044766 c 0,-0.1523437 0,-0.1992187 -0.1523437,-0.1992187 -0.09375,0 -0.1171875,0 -0.1875,0.09375 L 4.9061328,0.10099219 v 0.24609375 h 2.0507813 v 0.57421875 c 0,0.23437501 0,0.32812501 -0.5625,0.32812501 h -0.1875 v 0.2460937 c 0.3515625,-0.011719 0.796875,-0.023437 1.0429687,-0.023437 0.2578125,0 0.703125,0.011719 1.0546875,0.023437 V 1.2494297 h -0.1875 c -0.5625,0 -0.5625,-0.09375 -0.5625,-0.32812501 V 0.34708594 Z M 7.0037891,-2.4536953 V 0.10099219 H 5.1639453 Z m 0,0"
         style="fill:#000000;fill-opacity:1;fill-rule:nonzero;stroke:none" /></g></g></svg>
