<?xml version="1.0" encoding="UTF-8" standalone="no"?>
<!-- Created with Inkscape (http://www.inkscape.org/) -->

<svg
   version="1.1"
   id="svg1"
   width="308.59784"
   height="197.08295"
   viewBox="0 0 308.59784 197.08295"
   sodipodi:docname="sdf-maths.pdf"
   xmlns:inkscape="http://www.inkscape.org/namespaces/inkscape"
   xmlns:sodipodi="http://sodipodi.sourceforge.net/DTD/sodipodi-0.dtd"
   xmlns="http://www.w3.org/2000/svg"
   xmlns:svg="http://www.w3.org/2000/svg">
  <defs
     id="defs1">
    <linearGradient
       x1="0"
       y1="0"
       x2="0"
       y2="100.00128"
       gradientUnits="userSpaceOnUse"
       id="linearGradient5">
      <stop
         style="stop-opacity:1;stop-color:#ffffff"
         offset="0"
         id="stop1" />
      <stop
         style="stop-opacity:1;stop-color:#ffffff"
         offset="0.25"
         id="stop2" />
      <stop
         style="stop-opacity:1;stop-color:#ffffff"
         offset="0.5"
         id="stop3" />
      <stop
         style="stop-opacity:1;stop-color:#ffffff"
         offset="0.75"
         id="stop4" />
      <stop
         style="stop-opacity:1;stop-color:#ffffff"
         offset="1"
         id="stop5" />
    </linearGradient>
    <clipPath
       clipPathUnits="userSpaceOnUse"
       id="clipPath6">
      <path
         d="m 107.71785,141.73404 c 0,4.6967 -3.80733,8.50403 -8.50403,8.50403 -4.6967,0 -8.50402,-3.80733 -8.50402,-8.50403 0,-4.6967 3.80732,-8.50403 8.50402,-8.50403 4.6967,0 8.50403,3.80733 8.50403,8.50403 z"
         transform="matrix(1.3333333,0,0,-1.3333333,-25.021333,268.99467)"
         id="path6" />
    </clipPath>
    <linearGradient
       x1="0"
       y1="0"
       x2="0"
       y2="100.00128"
       gradientUnits="userSpaceOnUse"
       id="linearGradient12">
      <stop
         style="stop-opacity:1;stop-color:#ffffff"
         offset="0"
         id="stop8" />
      <stop
         style="stop-opacity:1;stop-color:#ffffff"
         offset="0.25"
         id="stop9" />
      <stop
         style="stop-opacity:1;stop-color:#ffffff"
         offset="0.5"
         id="stop10" />
      <stop
         style="stop-opacity:1;stop-color:#ffffff"
         offset="0.75"
         id="stop11" />
      <stop
         style="stop-opacity:1;stop-color:#ffffff"
         offset="1"
         id="stop12" />
    </linearGradient>
    <clipPath
       clipPathUnits="userSpaceOnUse"
       id="clipPath13">
      <path
         d="m 37.72849,56.69362 c 0,5.18143 -4.20026,9.38168 -9.38169,9.38168 -5.18143,0 -9.38168,-4.20025 -9.38168,-9.38168 0,-5.18143 4.20025,-9.3817 9.38168,-9.3817 5.18143,0 9.38169,4.20027 9.38169,9.3817 z"
         transform="matrix(1.3333333,0,0,-1.3333333,-25.021333,268.99467)"
         id="path13" />
    </clipPath>
    <linearGradient
       x1="0"
       y1="0"
       x2="0"
       y2="100.00128"
       gradientUnits="userSpaceOnUse"
       id="linearGradient19">
      <stop
         style="stop-opacity:1;stop-color:#ffffff"
         offset="0"
         id="stop15" />
      <stop
         style="stop-opacity:1;stop-color:#ffffff"
         offset="0.25"
         id="stop16" />
      <stop
         style="stop-opacity:1;stop-color:#ffffff"
         offset="0.5"
         id="stop17" />
      <stop
         style="stop-opacity:1;stop-color:#ffffff"
         offset="0.75"
         id="stop18" />
      <stop
         style="stop-opacity:1;stop-color:#ffffff"
         offset="1"
         id="stop19" />
    </linearGradient>
    <clipPath
       clipPathUnits="userSpaceOnUse"
       id="clipPath20">
      <path
         d="m 93.54445,70.867 c 0,4.6967 -3.80733,8.50405 -8.50403,8.50405 -4.6967,0 -8.50403,-3.80735 -8.50403,-8.50405 0,-4.69668 3.80733,-8.50402 8.50403,-8.50402 4.6967,0 8.50403,3.80734 8.50403,8.50402 z"
         transform="matrix(1.3333333,0,0,-1.3333333,-25.021333,268.99467)"
         id="path20" />
    </clipPath>
    <linearGradient
       x1="0"
       y1="0"
       x2="0"
       y2="100.00128"
       gradientUnits="userSpaceOnUse"
       id="linearGradient26">
      <stop
         style="stop-opacity:1;stop-color:#ffffff"
         offset="0"
         id="stop22" />
      <stop
         style="stop-opacity:1;stop-color:#ffffff"
         offset="0.25"
         id="stop23" />
      <stop
         style="stop-opacity:1;stop-color:#ffffff"
         offset="0.5"
         id="stop24" />
      <stop
         style="stop-opacity:1;stop-color:#ffffff"
         offset="0.75"
         id="stop25" />
      <stop
         style="stop-opacity:1;stop-color:#ffffff"
         offset="1"
         id="stop26" />
    </linearGradient>
    <clipPath
       clipPathUnits="userSpaceOnUse"
       id="clipPath27">
      <path
         d="m 136.06467,113.38724 c 0,4.69668 -3.80735,8.50403 -8.50405,8.50403 -4.69668,0 -8.50402,-3.80735 -8.50402,-8.50403 0,-4.6967 3.80734,-8.50404 8.50402,-8.50404 4.6967,0 8.50405,3.80734 8.50405,8.50404 z"
         transform="matrix(1.3333333,0,0,-1.3333333,-25.021333,268.99467)"
         id="path27" />
    </clipPath>
  </defs>
  <sodipodi:namedview
     id="namedview1"
     pagecolor="#ffffff"
     bordercolor="#000000"
     borderopacity="0.25"
     inkscape:showpageshadow="2"
     inkscape:pageopacity="0.0"
     inkscape:pagecheckerboard="0"
     inkscape:deskcolor="#d1d1d1">
    <inkscape:page
       x="0"
       y="0"
       width="308.59784"
       height="197.08295"
       id="page2"
       margin="0"
       bleed="0" />
  </sodipodi:namedview>
  <g
     id="g1"
     inkscape:groupmode="layer"
     inkscape:label="1"
     transform="translate(1.7362251e-4,-9.094839)">
    <g
       id="g5"
       clip-path="url(#clipPath6)">
      <path
         d="M 0,0 H 100 V 100 H 0 Z"
         transform="matrix(0.4536,0,0,-0.4536,84.583733,102.69595)"
         style="fill:url(#linearGradient5);stroke:none"
         id="path5" />
    </g>
    <path
       id="path7"
       d="m 107.71785,141.73404 c 0,4.6967 -3.80733,8.50403 -8.50403,8.50403 -4.6967,0 -8.50402,-3.80733 -8.50402,-8.50403 0,-4.6967 3.80732,-8.50403 8.50402,-8.50403 4.6967,0 8.50403,3.80733 8.50403,8.50403 z"
       style="fill:none;stroke:#000000;stroke-width:0.3985;stroke-linecap:butt;stroke-linejoin:miter;stroke-miterlimit:10;stroke-dasharray:none;stroke-opacity:1"
       transform="matrix(1.3333333,0,0,-1.3333333,-25.021333,268.99467)" />
    <path
       id="path8"
       d="m 3.7276484,-0.76315625 c 0,0.3046875 0,0.76171875 1.03125,0.76171875 h 0.4804688 c 0.1992187,0 0.3164062,0 0.3164062,-0.234375 0,-0.234375 -0.1289062,-0.234375 -0.2578125,-0.234375 -0.609375,-0.0117188 -0.609375,-0.140625 -0.609375,-0.36328125 V -2.978 c 0,-0.890625 -0.703125,-1.5351562 -2.1914062,-1.5351562 -0.5625,0 -1.78125001,0.035156 -1.78125001,0.9140625 0,0.4453125 0.35156251,0.6328125 0.62109371,0.6328125 0.3046875,0 0.6210938,-0.2109375 0.6210938,-0.6328125 0,-0.2929688 -0.1875,-0.46875 -0.2109375,-0.4921875 0.28125,-0.058594 0.5976562,-0.058594 0.7148437,-0.058594 0.75,0 1.0898438,0.4101563 1.0898438,1.171875 v 0.3398438 c -0.703125,0.023437 -3.23437501,0.1171875 -3.23437501,1.5585937 0,0.9609375 1.24218751,1.13671875 1.92187501,1.13671875 0.796875,0 1.265625,-0.41015625 1.4882812,-0.8203123 z M 3.5518672,-2.3334687 V -1.38425 c 0,0.94921875 -0.9140625,1.078125 -1.1601563,1.078125 -0.5039062,0 -0.9023437,-0.33984375 -0.9023437,-0.7851562 0,-1.0664063 1.5703125,-1.2070313 2.0625,-1.2421875 z m 0,0"
       style="fill:#000000;fill-opacity:1;fill-rule:nonzero;stroke:none"
       aria-label="a"
       transform="matrix(1.3333333,0,0,1.3333333,103.54933,82.970667)" />
    <g
       id="g12"
       clip-path="url(#clipPath13)">
      <path
         d="M 0,0 H 100 V 100 H 0 Z"
         transform="matrix(0.5004,0,0,-0.5004,-12.245613,218.42317)"
         style="fill:url(#linearGradient12);stroke:none"
         id="path12" />
    </g>
    <path
       id="path14"
       d="m 37.72849,56.69362 c 0,5.18143 -4.20026,9.38168 -9.38169,9.38168 -5.18143,0 -9.38168,-4.20025 -9.38168,-9.38168 0,-5.18143 4.20025,-9.3817 9.38168,-9.3817 5.18143,0 9.38169,4.20027 9.38169,9.3817 z"
       style="fill:none;stroke:#000000;stroke-width:0.3985;stroke-linecap:butt;stroke-linejoin:miter;stroke-miterlimit:10;stroke-dasharray:none;stroke-opacity:1"
       transform="matrix(1.3333333,0,0,-1.3333333,-25.021333,268.99467)" />
    <path
       id="path15"
       d="m 2.13325,-3.996375 v -2.9179687 l -1.76953125,0.082031 v 0.46875 c 0.62109375,0 0.69140625,0 0.69140625,0.3867188 v 5.97656245 h 0.46875 l 0.4921875,-0.5625 c 0.082031,0.0820313 0.5625,0.62109375 1.453125,0.62109375 1.4765625,0 2.5078125,-0.890625 2.5078125,-2.2851562 0,-1.3242188 -0.9375,-2.2617188 -2.3789063,-2.2617188 -0.7265625,0 -1.2304687,0.2929688 -1.4648437,0.4921877 z m 0.058594,3.01171875 V -3.4924687 c 0.2695313,-0.3398438 0.75,-0.6328125 1.3007813,-0.6328125 1.2070312,0 1.2070312,1.2070312 1.2070312,1.8984375 0,0.46875 0,1.0195312 -0.2578125,1.40624995 -0.2929687,0.41015625 -0.75,0.515625 -1.0664062,0.515625 -0.6914063,0 -1.078125,-0.52734375 -1.1835938,-0.6796875 z m 0,0"
       style="fill:#000000;fill-opacity:1;fill-rule:nonzero;stroke:none"
       aria-label="b"
       transform="matrix(1.3333333,0,0,1.3333333,8.5306667,198.016)" />
    <g
       id="g19"
       clip-path="url(#clipPath20)">
      <path
         d="M 0,0 H 100 V 100 H 0 Z"
         transform="matrix(0.4536,0,0,-0.4536,65.685893,197.18533)"
         style="fill:url(#linearGradient19);stroke:none"
         id="path19" />
    </g>
    <path
       id="path21"
       d="m 93.54445,70.867 c 0,4.6967 -3.80733,8.50405 -8.50403,8.50405 -4.6967,0 -8.50403,-3.80735 -8.50403,-8.50405 0,-4.69668 3.80733,-8.50402 8.50403,-8.50402 4.6967,0 8.50403,3.80734 8.50403,8.50402 z"
       style="fill:none;stroke:#000000;stroke-width:0.3985;stroke-linecap:butt;stroke-linejoin:miter;stroke-miterlimit:10;stroke-dasharray:none;stroke-opacity:1"
       transform="matrix(1.3333333,0,0,-1.3333333,-25.021333,268.99467)" />
    <path
       id="path22"
       d="m 3.5845,-4.0559141 c -0.1757813,0.1640625 -0.1992188,0.3632813 -0.1992188,0.4570313 0,0.4453125 0.3515625,0.6328125 0.6210938,0.6328125 0.3046875,0 0.6210937,-0.2109375 0.6210937,-0.6328125 0,-0.8554688 -1.1484375,-0.9140625 -1.734375,-0.9140625 -1.78125,0 -2.5195312,1.1484375 -2.5195312,2.296875 0,1.32421874 0.9375,2.27343749 2.4726562,2.27343749 1.6171875,0 1.9101563,-1.16015629 1.9101563,-1.21874999 0,-0.140625 -0.140625,-0.140625 -0.234375,-0.140625 -0.1757813,0 -0.1875,0.011719 -0.234375,0.140625 -0.2695313,0.63281249 -0.7382813,0.82031249 -1.2539063,0.82031249 -1.3828125,0 -1.3828125,-1.46484379 -1.3828125,-1.92187499 0,-0.5625 0,-1.8515625 1.2890625,-1.8515625 0.3515625,0 0.515625,0.023437 0.6445313,0.058594 z m 0,0"
       style="fill:#000000;fill-opacity:1;fill-rule:nonzero;stroke:none"
       aria-label="c"
       transform="matrix(1.3333333,0,0,1.3333333,84.970667,177.45867)" />
    <g
       id="g26"
       clip-path="url(#clipPath27)">
      <path
         d="M 0,0 H 100 V 100 H 0 Z"
         transform="matrix(0.4536,0,0,-0.4536,122.37949,140.49171)"
         style="fill:url(#linearGradient26);stroke:none"
         id="path26" />
    </g>
    <path
       id="path28"
       d="m 136.06467,113.38724 c 0,4.69668 -3.80735,8.50403 -8.50405,8.50403 -4.69668,0 -8.50402,-3.80735 -8.50402,-8.50403 0,-4.6967 3.80734,-8.50404 8.50402,-8.50404 4.6967,0 8.50405,3.80734 8.50405,8.50404 z"
       style="fill:none;stroke:#000000;stroke-width:0.3985;stroke-linecap:butt;stroke-linejoin:miter;stroke-miterlimit:10;stroke-dasharray:none;stroke-opacity:1"
       transform="matrix(1.3333333,0,0,-1.3333333,-25.021333,268.99467)" />
    <path
       id="path29"
       d="m 5.4020547,-2.16775 c 0,-1.3359375 -0.9140625,-2.34375 -2.5429688,-2.34375 -1.6289062,0 -2.54296871,1.0195313 -2.54296871,2.34375 0,1.23046875 0.87890621,2.2265625 2.54296871,2.2265625 1.6757813,0 2.5429688,-1.0078125 2.5429688,-2.2265625 z m -2.5429688,1.828125 c -1.265625,0 -1.265625,-1.078125 -1.265625,-1.9453125 0,-0.4453125 0,-0.9492187 0.1640625,-1.2890625 0.1992188,-0.375 0.609375,-0.5742187 1.1015625,-0.5742187 0.421875,0 0.8320313,0.1523437 1.0546875,0.5039062 0.2109375,0.3398438 0.2109375,0.890625 0.2109375,1.359375 0,0.8671875 0,1.9453125 -1.265625,1.9453125 z m 0,0"
       style="fill:#000000;fill-opacity:1;fill-rule:nonzero;stroke:none"
       aria-label="o"
       transform="matrix(1.3333333,0,0,1.3333333,141.23867,120.76533)" />
    <g
       id="g29"
       aria-label="ˆe&#10;1&#10;=b−a/∥b−a∥&#10;ˆe&#10;2&#10;=c−a/∥c−a∥&#10;ˆe&#10;3&#10;=ˆe&#10;1&#10;×ˆe&#10;2&#10;ˆe&#10;4&#10;=ˆe&#10;1&#10;×ˆe&#10;3&#10;R=&#10;&#10;&#10;ˆe&#10;1x&#10;ˆe&#10;1y&#10;ˆe&#10;1z&#10;ˆe&#10;3x&#10;ˆe&#10;3y&#10;ˆe&#10;3z&#10;ˆe&#10;4x&#10;ˆe&#10;4y&#10;ˆe&#10;4z&#10;&#10;&#10;f(v)=Rv+o"
       transform="matrix(1.3333333,0,0,1.3333333,178.692,35.022667)">
      <path
         id="path30"
         d="m 2.8589297,-6.9134844 -1.5585938,1.2539063 0.2695313,0.3867187 1.2890625,-0.8203125 1.2890625,0.8085938 0.2695312,-0.3632813 z m 1.9863281,4.7460938 c 0.2109375,0 0.3164063,0 0.3164063,-0.2695313 0,-0.3164062 -0.058594,-1.0429687 -0.5625,-1.5351562 -0.3632813,-0.3632813 -0.890625,-0.5390625 -1.5820313,-0.5390625 -1.59375,0 -2.46093749,1.0195312 -2.46093749,2.2734375 0,1.33593748 0.99609379,2.29687498 2.60156249,2.29687498 1.5703125,0 2.0039063,-1.0546875 2.0039063,-1.21874998 0,-0.1875 -0.1875,-0.1875 -0.234375,-0.1875 -0.1757813,0 -0.1992188,0.046875 -0.2578125,0.2109375 -0.2109375,0.48046873 -0.7734375,0.79687498 -1.4179688,0.79687498 -1.40625,0 -1.4179687,-1.32421878 -1.4179687,-1.82812498 z m -3.0117187,-0.328125 c 0.023437,-0.3984375 0.035156,-0.8085938 0.234375,-1.1367188 0.2695312,-0.3984375 0.6679687,-0.515625 0.9492187,-0.515625 1.171875,0 1.1835938,1.3007813 1.1953125,1.6523438 z m 0,0"
         style="fill:#000000;fill-opacity:1;fill-rule:nonzero;stroke:none" />
      <path
         id="path31"
         d="m 8.2671328,-2.8295 c 0,-0.2460937 -0.046875,-0.2460937 -0.3398437,-0.2460937 C 7.4936953,-2.73575 6.9311953,-2.6302812 6.3686953,-2.6302812 H 6.2046328 v 0.3867187 h 0.1640625 c 0.28125,0 0.703125,-0.046875 0.9960938,-0.140625 V 1.108 H 6.2632266 v 0.3867188 c 0.3398437,-0.023437 1.1835937,-0.023437 1.5585937,-0.023437 0.2460938,0 0.5039063,0 0.75,0 0.2109375,0 0.5742188,0.011719 0.7734375,0.023437 V 1.108 h -1.078125 z m 0,0"
         style="fill:#000000;fill-opacity:1;fill-rule:nonzero;stroke:none" />
      <path
         id="path32"
         d="m 20.111859,-3.2572344 c 0.152344,0 0.339844,0 0.339844,-0.1992187 0,-0.1992188 -0.1875,-0.1992188 -0.328125,-0.1992188 h -5.964844 c -0.140625,0 -0.328125,0 -0.328125,0.1992188 0,0.1992187 0.1875,0.1992187 0.339844,0.1992187 z m 0.01172,1.9335938 c 0.140625,0 0.328125,0 0.328125,-0.1992188 0,-0.1992187 -0.1875,-0.1992187 -0.339844,-0.1992187 h -5.941406 c -0.152344,0 -0.339844,0 -0.339844,0.1992187 0,0.1992188 0.1875,0.1992188 0.328125,0.1992188 z m 0,0"
         style="fill:#000000;fill-opacity:1;fill-rule:nonzero;stroke:none" />
      <path
         id="path33"
         d="m 25.9185,-3.9955156 v -2.9179688 l -1.769531,0.082031 v 0.46875 c 0.621093,0 0.691406,0 0.691406,0.3867187 V 5.78125e-4 h 0.46875 l 0.492187,-0.562499995 c 0.08203,0.0820313 0.5625,0.62109375 1.453125,0.62109375 1.476563,0 2.507813,-0.890625 2.507813,-2.28515628 0,-1.3242187 -0.9375,-2.2617187 -2.378906,-2.2617187 -0.726563,0 -1.230469,0.2929687 -1.464844,0.4921875 z m 0.05859,3.01171873 V -3.4916094 c 0.269531,-0.3398437 0.75,-0.6328125 1.300781,-0.6328125 1.207031,0 1.207031,1.2070313 1.207031,1.8984375 0,0.46875 0,1.0195313 -0.257812,1.40625003 -0.292969,0.41015625 -0.75,0.515625 -1.066407,0.515625 -0.691406,0 -1.078125,-0.52734375 -1.183593,-0.6796875 z m 0,0"
         style="fill:#000000;fill-opacity:1;fill-rule:nonzero;stroke:none" />
      <path
         id="path34"
         d="m 38.926312,-2.2962969 c 0.175782,0 0.351563,0 0.351563,-0.1992187 0,-0.1992188 -0.175781,-0.1992188 -0.351563,-0.1992188 h -5.390625 c -0.164062,0 -0.339843,0 -0.339843,0.1992188 0,0.1992187 0.175781,0.1992187 0.339843,0.1992187 z m 0,0"
         style="fill:#000000;fill-opacity:1;fill-rule:nonzero;stroke:none" />
      <path
         id="path35"
         d="m 46.054242,-0.76114062 c 0,0.3046875 0,0.761718745 1.03125,0.761718745 h 0.480469 c 0.199219,0 0.316406,0 0.316406,-0.234374995 0,-0.234375 -0.128906,-0.234375 -0.257812,-0.234375 -0.609375,-0.0117188 -0.609375,-0.140625 -0.609375,-0.36328125 V -2.9759844 c 0,-0.890625 -0.703125,-1.5351562 -2.191407,-1.5351562 -0.5625,0 -1.78125,0.035156 -1.78125,0.9140625 0,0.4453125 0.351563,0.6328125 0.621094,0.6328125 0.304688,0 0.621094,-0.2109375 0.621094,-0.6328125 0,-0.2929688 -0.1875,-0.46875 -0.210938,-0.4921875 0.28125,-0.058594 0.597657,-0.058594 0.714844,-0.058594 0.75,0 1.089844,0.4101563 1.089844,1.171875 v 0.3398438 c -0.703125,0.023437 -3.234375,0.1171875 -3.234375,1.5585937 0,0.96093753 1.242187,1.13671878 1.921875,1.13671878 0.796875,0 1.265625,-0.41015625 1.488281,-0.8203123 z M 45.878461,-2.3314531 v 0.9492187 c 0,0.94921878 -0.914063,1.07812503 -1.160156,1.07812503 -0.503907,0 -0.902344,-0.33984375 -0.902344,-0.78515623 0,-1.0664063 1.570312,-1.2070313 2.0625,-1.2421875 z m 0,0"
         style="fill:#000000;fill-opacity:1;fill-rule:nonzero;stroke:none" />
      <path
         id="path36"
         d="m 52.268109,-7.0892656 c 0.04687,-0.1289063 0.04687,-0.1757813 0.04687,-0.1875 0,-0.1054688 -0.08203,-0.1992188 -0.199218,-0.1992188 -0.07031,0 -0.128907,0.035156 -0.164063,0.09375 l -3.457031,9.4921875 c -0.04687,0.1289063 -0.04687,0.1757813 -0.04687,0.1875 0,0.1054688 0.08203,0.1992188 0.199219,0.1992188 0.128906,0 0.152343,-0.070312 0.210937,-0.2460938 z m 0,0"
         style="fill:#000000;fill-opacity:1;fill-rule:nonzero;stroke:none" />
      <path
         id="path37"
         d="m 54.588422,-7.1361406 c 0,-0.1523438 0,-0.3398438 -0.199219,-0.3398438 -0.199219,0 -0.199219,0.2226563 -0.199219,0.375 v 9.2226563 c 0,0.1640625 0,0.375 0.199219,0.375 0.199219,0 0.199219,-0.1875 0.199219,-0.3398438 z m 1.945312,0.035156 c 0,-0.1640625 0,-0.375 -0.199218,-0.375 -0.199219,0 -0.199219,0.1875 -0.199219,0.3398438 v 9.2929687 c 0,0.1523438 0,0.3398438 0.199219,0.3398438 0.199218,0 0.199218,-0.2226563 0.199218,-0.375 z m 0,0"
         style="fill:#000000;fill-opacity:1;fill-rule:nonzero;stroke:none" />
      <path
         id="path38"
         d="m 59.990766,-3.9955156 v -2.9179688 l -1.769532,0.082031 v 0.46875 c 0.621094,0 0.691407,0 0.691407,0.3867187 V 5.78125e-4 h 0.46875 l 0.492187,-0.562499995 c 0.08203,0.0820313 0.5625,0.62109375 1.453125,0.62109375 1.476563,0 2.507813,-0.890625 2.507813,-2.28515628 0,-1.3242187 -0.9375,-2.2617187 -2.378907,-2.2617187 -0.726562,0 -1.230468,0.2929687 -1.464843,0.4921875 z m 0.05859,3.01171873 V -3.4916094 c 0.269532,-0.3398437 0.75,-0.6328125 1.300782,-0.6328125 1.207031,0 1.207031,1.2070313 1.207031,1.8984375 0,0.46875 0,1.0195313 -0.257813,1.40625003 -0.292968,0.41015625 -0.75,0.515625 -1.066406,0.515625 -0.691406,0 -1.078125,-0.52734375 -1.183594,-0.6796875 z m 0,0"
         style="fill:#000000;fill-opacity:1;fill-rule:nonzero;stroke:none" />
      <path
         id="path39"
         d="m 73.001508,-2.2962969 c 0.175781,0 0.351562,0 0.351562,-0.1992187 0,-0.1992188 -0.175781,-0.1992188 -0.351562,-0.1992188 h -5.390625 c -0.164063,0 -0.339844,0 -0.339844,0.1992188 0,0.1992187 0.175781,0.1992187 0.339844,0.1992187 z m 0,0"
         style="fill:#000000;fill-opacity:1;fill-rule:nonzero;stroke:none" />
      <path
         id="path40"
         d="m 80.126508,-0.76114062 c 0,0.3046875 0,0.761718745 1.03125,0.761718745 h 0.480469 c 0.199218,0 0.316406,0 0.316406,-0.234374995 0,-0.234375 -0.128906,-0.234375 -0.257813,-0.234375 -0.609375,-0.0117188 -0.609375,-0.140625 -0.609375,-0.36328125 V -2.9759844 c 0,-0.890625 -0.703125,-1.5351562 -2.191406,-1.5351562 -0.5625,0 -1.78125,0.035156 -1.78125,0.9140625 0,0.4453125 0.351563,0.6328125 0.621094,0.6328125 0.304687,0 0.621094,-0.2109375 0.621094,-0.6328125 0,-0.2929688 -0.1875,-0.46875 -0.210938,-0.4921875 0.28125,-0.058594 0.597656,-0.058594 0.714844,-0.058594 0.75,0 1.089844,0.4101563 1.089844,1.171875 v 0.3398438 c -0.703125,0.023437 -3.234375,0.1171875 -3.234375,1.5585937 0,0.96093753 1.242187,1.13671878 1.921875,1.13671878 0.796875,0 1.265625,-0.41015625 1.488281,-0.8203123 z M 79.950727,-2.3314531 v 0.9492187 c 0,0.94921878 -0.914063,1.07812503 -1.160157,1.07812503 -0.503906,0 -0.902343,-0.33984375 -0.902343,-0.78515623 0,-1.0664063 1.570312,-1.2070313 2.0625,-1.2421875 z m 0,0"
         style="fill:#000000;fill-opacity:1;fill-rule:nonzero;stroke:none" />
      <path
         id="path41"
         d="m 83.680219,-7.1361406 c 0,-0.1523438 0,-0.3398438 -0.199219,-0.3398438 -0.199219,0 -0.199219,0.2226563 -0.199219,0.375 v 9.2226563 c 0,0.1640625 0,0.375 0.199219,0.375 0.199219,0 0.199219,-0.1875 0.199219,-0.3398438 z m 1.945312,0.035156 c 0,-0.1640625 0,-0.375 -0.199219,-0.375 -0.199218,0 -0.199218,0.1875 -0.199218,0.3398438 v 9.2929687 c 0,0.1523438 0,0.3398438 0.199218,0.3398438 0.199219,0 0.199219,-0.2226563 0.199219,-0.375 z m 0,0"
         style="fill:#000000;fill-opacity:1;fill-rule:nonzero;stroke:none" />
      <path
         id="path42"
         d="M 2.8589297,8.0308516 1.3003359,9.2847578 1.5698672,9.6714766 2.8589297,8.8511641 4.1479922,9.6597578 4.4175234,9.2964766 Z m 1.9863281,4.7460934 c 0.2109375,0 0.3164063,0 0.3164063,-0.269531 0,-0.316406 -0.058594,-1.042969 -0.5625,-1.535156 -0.3632813,-0.363281 -0.890625,-0.539063 -1.5820313,-0.539063 -1.59375,0 -2.46093749,1.019532 -2.46093749,2.273438 0,1.335937 0.99609379,2.296875 2.60156249,2.296875 1.5703125,0 2.0039063,-1.054688 2.0039063,-1.21875 0,-0.1875 -0.1875,-0.1875 -0.234375,-0.1875 -0.1757813,0 -0.1992188,0.04687 -0.2578125,0.210937 -0.2109375,0.480469 -0.7734375,0.796875 -1.4179688,0.796875 -1.40625,0 -1.4179687,-1.324218 -1.4179687,-1.828125 z M 1.8335391,12.44882 c 0.023437,-0.398437 0.035156,-0.808593 0.234375,-1.136718 0.2695312,-0.398438 0.6679687,-0.515625 0.9492187,-0.515625 1.171875,0 1.1835938,1.300781 1.1953125,1.652343 z m 0,0"
         style="fill:#000000;fill-opacity:1;fill-rule:nonzero;stroke:none" />
      <path
         id="path43"
         d="M 9.5210391,14.845305 H 9.0757266 c -0.011719,0.08203 -0.070312,0.585937 -0.1992188,0.609375 -0.140625,0.02344 -0.5625,0.02344 -0.7265625,0.02344 H 7.2007266 c 0.3867187,-0.28125 0.7734375,-0.5625 1.171875,-0.820312 0.5742187,-0.363282 1.1484375,-0.738282 1.1484375,-1.429688 0,-0.84375 -0.7851563,-1.359375 -1.8984375,-1.359375 -0.9492188,0 -1.6640625,0.363281 -1.6640625,1.03125 0,0.398438 0.328125,0.550781 0.5390625,0.550781 0.2578125,0 0.5507812,-0.175781 0.5507812,-0.550781 0,-0.328125 -0.2578125,-0.46875 -0.28125,-0.480469 0.2460938,-0.152343 0.5742188,-0.164062 0.65625,-0.164062 0.5859375,0 1.0546875,0.375 1.0546875,0.972656 0,0.539063 -0.3632812,0.984375 -0.7617187,1.347656 L 6.0522891,16.04062 c -0.082031,0.08203 -0.09375,0.09375 -0.09375,0.234375 v 0.164063 h 3.328125 z m 0,0"
         style="fill:#000000;fill-opacity:1;fill-rule:nonzero;stroke:none" />
      <path
         id="path44"
         d="m 20.111859,11.687102 c 0.152344,0 0.339844,0 0.339844,-0.199219 0,-0.199219 -0.1875,-0.199219 -0.328125,-0.199219 h -5.964844 c -0.140625,0 -0.328125,0 -0.328125,0.199219 0,0.199219 0.1875,0.199219 0.339844,0.199219 z m 0.01172,1.933593 c 0.140625,0 0.328125,0 0.328125,-0.199218 0,-0.199219 -0.1875,-0.199219 -0.339844,-0.199219 h -5.941406 c -0.152344,0 -0.339844,0 -0.339844,0.199219 0,0.199218 0.1875,0.199218 0.328125,0.199218 z m 0,0"
         style="fill:#000000;fill-opacity:1;fill-rule:nonzero;stroke:none" />
      <path
         id="path45"
         d="m 27.371625,10.890227 c -0.175781,0.164062 -0.199219,0.363281 -0.199219,0.457031 0,0.445312 0.351563,0.632812 0.621094,0.632812 0.304687,0 0.621094,-0.210937 0.621094,-0.632812 0,-0.855469 -1.148438,-0.914063 -1.734375,-0.914063 -1.78125,0 -2.519532,1.148438 -2.519532,2.296875 0,1.324219 0.9375,2.273438 2.472657,2.273438 1.617187,0 1.910156,-1.160156 1.910156,-1.21875 0,-0.140625 -0.140625,-0.140625 -0.234375,-0.140625 -0.175781,0 -0.1875,0.01172 -0.234375,0.140625 -0.269531,0.632812 -0.738281,0.820312 -1.253906,0.820312 -1.382813,0 -1.382813,-1.464843 -1.382813,-1.921875 0,-0.5625 0,-1.851562 1.289063,-1.851562 0.351562,0 0.515625,0.02344 0.644531,0.05859 z m 0,0"
         style="fill:#000000;fill-opacity:1;fill-rule:nonzero;stroke:none" />
      <path
         id="path46"
         d="m 37.654828,12.648039 c 0.175781,0 0.351563,0 0.351563,-0.199219 0,-0.199218 -0.175782,-0.199218 -0.351563,-0.199218 h -5.390625 c -0.164062,0 -0.339844,0 -0.339844,0.199218 0,0.199219 0.175782,0.199219 0.339844,0.199219 z m 0,0"
         style="fill:#000000;fill-opacity:1;fill-rule:nonzero;stroke:none" />
      <path
         id="path47"
         d="m 44.779828,14.183195 c 0,0.304688 0,0.761719 1.03125,0.761719 h 0.480469 c 0.199219,0 0.316406,0 0.316406,-0.234375 0,-0.234375 -0.128906,-0.234375 -0.257812,-0.234375 -0.609375,-0.01172 -0.609375,-0.140625 -0.609375,-0.363281 v -2.144531 c 0,-0.890625 -0.703125,-1.535157 -2.191407,-1.535157 -0.5625,0 -1.78125,0.03516 -1.78125,0.914063 0,0.445312 0.351563,0.632812 0.621094,0.632812 0.304688,0 0.621094,-0.210937 0.621094,-0.632812 0,-0.292969 -0.1875,-0.46875 -0.210938,-0.492188 0.28125,-0.05859 0.597657,-0.05859 0.714844,-0.05859 0.75,0 1.089844,0.410156 1.089844,1.171875 v 0.339843 c -0.703125,0.02344 -3.234375,0.117188 -3.234375,1.558594 0,0.960938 1.242187,1.136719 1.921875,1.136719 0.796875,0 1.265625,-0.410156 1.488281,-0.820313 z m -0.175781,-1.570312 v 0.949219 c 0,0.949218 -0.914063,1.078125 -1.160156,1.078125 -0.503907,0 -0.902344,-0.339844 -0.902344,-0.785157 0,-1.066406 1.570312,-1.207031 2.0625,-1.242187 z m 0,0"
         style="fill:#000000;fill-opacity:1;fill-rule:nonzero;stroke:none" />
      <path
         id="path48"
         d="m 50.993695,7.8550703 c 0.04687,-0.1289062 0.04687,-0.1757812 0.04687,-0.1875 0,-0.1054687 -0.08203,-0.1992187 -0.199218,-0.1992187 -0.07031,0 -0.128907,0.035156 -0.164063,0.09375 l -3.457031,9.4921874 c -0.04687,0.128906 -0.04687,0.175781 -0.04687,0.1875 0,0.105469 0.08203,0.199219 0.199219,0.199219 0.128906,0 0.152343,-0.07031 0.210937,-0.246094 z m 0,0"
         style="fill:#000000;fill-opacity:1;fill-rule:nonzero;stroke:none" />
      <path
         id="path49"
         d="m 53.314008,7.8081953 c 0,-0.1523437 0,-0.3398437 -0.199219,-0.3398437 -0.199219,0 -0.199219,0.2226562 -0.199219,0.375 v 9.2226564 c 0,0.164062 0,0.375 0.199219,0.375 0.199219,0 0.199219,-0.1875 0.199219,-0.339844 z m 1.945312,0.035156 c 0,-0.1640625 0,-0.375 -0.199218,-0.375 -0.199219,0 -0.199219,0.1875 -0.199219,0.3398437 v 9.292969 c 0,0.152344 0,0.339844 0.199219,0.339844 0.199218,0 0.199218,-0.222656 0.199218,-0.375 z m 0,0"
         style="fill:#000000;fill-opacity:1;fill-rule:nonzero;stroke:none" />
      <path
         id="path50"
         d="m 60.172406,10.890227 c -0.175781,0.164062 -0.199219,0.363281 -0.199219,0.457031 0,0.445312 0.351563,0.632812 0.621094,0.632812 0.304688,0 0.621094,-0.210937 0.621094,-0.632812 0,-0.855469 -1.148438,-0.914063 -1.734375,-0.914063 -1.78125,0 -2.519531,1.148438 -2.519531,2.296875 0,1.324219 0.9375,2.273438 2.472656,2.273438 1.617187,0 1.910156,-1.160156 1.910156,-1.21875 0,-0.140625 -0.140625,-0.140625 -0.234375,-0.140625 -0.175781,0 -0.1875,0.01172 -0.234375,0.140625 -0.269531,0.632812 -0.738281,0.820312 -1.253906,0.820312 -1.382813,0 -1.382813,-1.464843 -1.382813,-1.921875 0,-0.5625 0,-1.851562 1.289063,-1.851562 0.351562,0 0.515625,0.02344 0.644531,0.05859 z m 0,0"
         style="fill:#000000;fill-opacity:1;fill-rule:nonzero;stroke:none" />
      <path
         id="path51"
         d="m 70.455609,12.648039 c 0.175782,0 0.351563,0 0.351563,-0.199219 0,-0.199218 -0.175781,-0.199218 -0.351563,-0.199218 h -5.390625 c -0.164062,0 -0.339843,0 -0.339843,0.199218 0,0.199219 0.175781,0.199219 0.339843,0.199219 z m 0,0"
         style="fill:#000000;fill-opacity:1;fill-rule:nonzero;stroke:none" />
      <path
         id="path52"
         d="m 77.580609,14.183195 c 0,0.304688 0,0.761719 1.03125,0.761719 h 0.480469 c 0.199219,0 0.316406,0 0.316406,-0.234375 0,-0.234375 -0.128906,-0.234375 -0.257812,-0.234375 -0.609375,-0.01172 -0.609375,-0.140625 -0.609375,-0.363281 v -2.144531 c 0,-0.890625 -0.703125,-1.535157 -2.191406,-1.535157 -0.5625,0 -1.78125,0.03516 -1.78125,0.914063 0,0.445312 0.351562,0.632812 0.621093,0.632812 0.304688,0 0.621094,-0.210937 0.621094,-0.632812 0,-0.292969 -0.1875,-0.46875 -0.210937,-0.492188 0.28125,-0.05859 0.597656,-0.05859 0.714843,-0.05859 0.75,0 1.089844,0.410156 1.089844,1.171875 v 0.339843 c -0.703125,0.02344 -3.234375,0.117188 -3.234375,1.558594 0,0.960938 1.242188,1.136719 1.921875,1.136719 0.796875,0 1.265625,-0.410156 1.488281,-0.820313 z m -0.175781,-1.570312 v 0.949219 c 0,0.949218 -0.914062,1.078125 -1.160156,1.078125 -0.503906,0 -0.902344,-0.339844 -0.902344,-0.785157 0,-1.066406 1.570313,-1.207031 2.0625,-1.242187 z m 0,0"
         style="fill:#000000;fill-opacity:1;fill-rule:nonzero;stroke:none" />
      <path
         id="path53"
         d="m 81.13432,7.8081953 c 0,-0.1523437 0,-0.3398437 -0.199218,-0.3398437 -0.199219,0 -0.199219,0.2226562 -0.199219,0.375 v 9.2226564 c 0,0.164062 0,0.375 0.199219,0.375 0.199218,0 0.199218,-0.1875 0.199218,-0.339844 z m 1.945313,0.035156 c 0,-0.1640625 0,-0.375 -0.199219,-0.375 -0.199219,0 -0.199219,0.1875 -0.199219,0.3398437 v 9.292969 c 0,0.152344 0,0.339844 0.199219,0.339844 0.199219,0 0.199219,-0.222656 0.199219,-0.375 z m 0,0"
         style="fill:#000000;fill-opacity:1;fill-rule:nonzero;stroke:none" />
      <path
         id="path54"
         d="m 2.8589297,22.975188 -1.5585938,1.253906 0.2695313,0.386719 1.2890625,-0.820313 1.2890625,0.808594 0.2695312,-0.363281 z m 1.9863281,4.746093 c 0.2109375,0 0.3164063,0 0.3164063,-0.269531 0,-0.316406 -0.058594,-1.042969 -0.5625,-1.535156 -0.3632813,-0.363281 -0.890625,-0.539063 -1.5820313,-0.539063 -1.59375,0 -2.46093749,1.019532 -2.46093749,2.273438 0,1.335937 0.99609379,2.296875 2.60156249,2.296875 1.5703125,0 2.0039063,-1.054688 2.0039063,-1.21875 0,-0.1875 -0.1875,-0.1875 -0.234375,-0.1875 -0.1757813,0 -0.1992188,0.04687 -0.2578125,0.210937 -0.2109375,0.480469 -0.7734375,0.796875 -1.4179688,0.796875 -1.40625,0 -1.4179687,-1.324218 -1.4179687,-1.828125 z M 1.8335391,27.393156 c 0.023437,-0.398437 0.035156,-0.808593 0.234375,-1.136718 0.2695312,-0.398438 0.6679687,-0.515625 0.9492187,-0.515625 1.171875,0 1.1835938,1.300781 1.1953125,1.652343 z m 0,0"
         style="fill:#000000;fill-opacity:1;fill-rule:nonzero;stroke:none" />
      <path
         id="path55"
         d="m 7.5991641,29.121672 c 0.8203125,0 0.8554687,0.621094 0.8554687,0.996094 0,0.292968 0,0.996093 -0.8320312,0.996093 -0.1875,0 -0.6210938,-0.03516 -0.9257813,-0.222656 0.140625,-0.07031 0.328125,-0.222656 0.328125,-0.527344 0,-0.316406 -0.234375,-0.5625 -0.5625,-0.5625 -0.3515625,0 -0.5742187,0.246094 -0.5742187,0.574219 0,0.703125 0.7734375,1.089844 1.7578125,1.089844 1.4648437,0 1.9453125,-0.761719 1.9453125,-1.347656 0,-0.539063 -0.421875,-1.019532 -1.21875,-1.183594 0.5039062,-0.1875 0.9726562,-0.550781 0.9726562,-1.136719 0,-0.539062 -0.5625,-0.984375 -1.6757812,-0.984375 -0.9492188,0 -1.5351563,0.46875 -1.5351563,1.042969 0,0.351562 0.2578125,0.539062 0.5273438,0.539062 0.3515625,0 0.5273437,-0.257812 0.5273437,-0.527343 0,-0.351563 -0.28125,-0.480469 -0.3515625,-0.503907 0.2929688,-0.210937 0.65625,-0.234375 0.796875,-0.234375 0.6914063,0 0.6914063,0.457032 0.6914063,0.644532 0,0.328125 -0.140625,0.960937 -0.84375,0.996093 -0.1757813,0.01172 -0.3515625,0.02344 -0.3867188,0.03516 -0.09375,0.02344 -0.09375,0.105468 -0.09375,0.152343 0,0.164063 0.09375,0.164063 0.2226563,0.164063 z m 0,0"
         style="fill:#000000;fill-opacity:1;fill-rule:nonzero;stroke:none" />
      <path
         id="path56"
         d="m 20.111859,26.631438 c 0.152344,0 0.339844,0 0.339844,-0.199219 0,-0.199219 -0.1875,-0.199219 -0.328125,-0.199219 h -5.964844 c -0.140625,0 -0.328125,0 -0.328125,0.199219 0,0.199219 0.1875,0.199219 0.339844,0.199219 z m 0.01172,1.933593 c 0.140625,0 0.328125,0 0.328125,-0.199218 0,-0.199219 -0.1875,-0.199219 -0.339844,-0.199219 h -5.941406 c -0.152344,0 -0.339844,0 -0.339844,0.199219 0,0.199218 0.1875,0.199218 0.328125,0.199218 z m 0,0"
         style="fill:#000000;fill-opacity:1;fill-rule:nonzero;stroke:none" />
      <path
         id="path57"
         d="m 26.407758,22.975188 -1.558594,1.253906 0.269531,0.386719 1.289063,-0.820313 1.289062,0.808594 0.269532,-0.363281 z m 1.983398,4.746093 c 0.210938,0 0.316406,0 0.316406,-0.269531 0,-0.316406 -0.05859,-1.042969 -0.5625,-1.535156 -0.363281,-0.363281 -0.890625,-0.539063 -1.582031,-0.539063 -1.59375,0 -2.460937,1.019532 -2.460937,2.273438 0,1.335937 0.996093,2.296875 2.601562,2.296875 1.570313,0 2.003906,-1.054688 2.003906,-1.21875 0,-0.1875 -0.1875,-0.1875 -0.234375,-0.1875 -0.175781,0 -0.199218,0.04687 -0.257812,0.210937 -0.210938,0.480469 -0.773438,0.796875 -1.417969,0.796875 -1.40625,0 -1.417969,-1.324218 -1.417969,-1.828125 z m -3.011719,-0.328125 c 0.02344,-0.398437 0.03516,-0.808593 0.234375,-1.136718 0.269532,-0.398438 0.667969,-0.515625 0.949219,-0.515625 1.171875,0 1.183594,1.300781 1.195313,1.652343 z m 0,0"
         style="fill:#000000;fill-opacity:1;fill-rule:nonzero;stroke:none" />
      <path
         id="path58"
         d="m 31.813031,27.059172 c 0,-0.246094 -0.04687,-0.246094 -0.339844,-0.246094 -0.433593,0.339844 -0.996093,0.445313 -1.558593,0.445313 h -0.164063 v 0.386718 h 0.164063 c 0.28125,0 0.703125,-0.04687 0.996093,-0.140625 v 3.492188 h -1.101562 v 0.386719 c 0.339844,-0.02344 1.183594,-0.02344 1.558594,-0.02344 0.246093,0 0.503906,0 0.75,0 0.210937,0 0.574218,0.01172 0.773437,0.02344 v -0.386719 h -1.078125 z m 0,0"
         style="fill:#000000;fill-opacity:1;fill-rule:nonzero;stroke:none" />
      <path
         id="path59"
         d="m 40.142133,27.123625 -1.992188,-1.980469 c -0.128906,-0.128906 -0.140625,-0.140625 -0.222656,-0.140625 -0.105469,0 -0.199219,0.08203 -0.199219,0.199219 0,0.07031 0.02344,0.08203 0.128907,0.199219 l 1.992187,1.992187 -1.992187,2.003907 c -0.105469,0.117187 -0.128907,0.128906 -0.128907,0.199218 0,0.117188 0.09375,0.199219 0.199219,0.199219 0.08203,0 0.09375,-0.01172 0.222656,-0.140625 l 1.980469,-1.980469 2.0625,2.0625 c 0.01172,0.01172 0.08203,0.05859 0.152344,0.05859 0.117187,0 0.199219,-0.08203 0.199219,-0.199219 0,-0.01172 0,-0.05859 -0.03516,-0.105468 -0.01172,-0.02344 -1.59375,-1.582032 -2.097656,-2.097657 l 1.828125,-1.816406 c 0.04687,-0.05859 0.199219,-0.1875 0.246094,-0.246094 0.01172,-0.02344 0.05859,-0.05859 0.05859,-0.128906 0,-0.117187 -0.08203,-0.199219 -0.199219,-0.199219 -0.08203,0 -0.128906,0.03516 -0.234375,0.140625 z m 0,0"
         style="fill:#000000;fill-opacity:1;fill-rule:nonzero;stroke:none" />
      <path
         id="path60"
         d="m 48.846234,22.975188 -1.558593,1.253906 0.269531,0.386719 1.289062,-0.820313 1.289063,0.808594 0.269531,-0.363281 z m 1.983399,4.746093 c 0.210937,0 0.316406,0 0.316406,-0.269531 0,-0.316406 -0.05859,-1.042969 -0.5625,-1.535156 -0.363281,-0.363281 -0.890625,-0.539063 -1.582031,-0.539063 -1.59375,0 -2.460938,1.019532 -2.460938,2.273438 0,1.335937 0.996094,2.296875 2.601563,2.296875 1.570312,0 2.003906,-1.054688 2.003906,-1.21875 0,-0.1875 -0.1875,-0.1875 -0.234375,-0.1875 -0.175781,0 -0.199219,0.04687 -0.257812,0.210937 -0.210938,0.480469 -0.773438,0.796875 -1.417969,0.796875 -1.40625,0 -1.417969,-1.324218 -1.417969,-1.828125 z m -3.011719,-0.328125 c 0.02344,-0.398437 0.03516,-0.808593 0.234375,-1.136718 0.269531,-0.398438 0.667969,-0.515625 0.949219,-0.515625 1.171875,0 1.183594,1.300781 1.195312,1.652343 z m 0,0"
         style="fill:#000000;fill-opacity:1;fill-rule:nonzero;stroke:none" />
      <path
         id="path61"
         d="m 55.508344,29.789641 h -0.445313 c -0.01172,0.08203 -0.07031,0.585937 -0.199219,0.609375 -0.140625,0.02344 -0.5625,0.02344 -0.726562,0.02344 h -0.949219 c 0.386719,-0.28125 0.773438,-0.5625 1.171875,-0.820312 0.574219,-0.363282 1.148438,-0.738282 1.148438,-1.429688 0,-0.84375 -0.785157,-1.359375 -1.898438,-1.359375 -0.949219,0 -1.664062,0.363281 -1.664062,1.03125 0,0.398438 0.328125,0.550781 0.539062,0.550781 0.257813,0 0.550781,-0.175781 0.550781,-0.550781 0,-0.328125 -0.257812,-0.46875 -0.28125,-0.480469 0.246094,-0.152343 0.574219,-0.164062 0.65625,-0.164062 0.585938,0 1.054688,0.375 1.054688,0.972656 0,0.539063 -0.363281,0.984375 -0.761719,1.347656 l -1.664062,1.464844 c -0.08203,0.08203 -0.09375,0.09375 -0.09375,0.234375 v 0.164063 h 3.328125 z m 0,0"
         style="fill:#000000;fill-opacity:1;fill-rule:nonzero;stroke:none" />
      <path
         id="path62"
         d="M 2.8589297,37.916594 1.3003359,39.1705 1.5698672,39.557219 2.8589297,38.736906 4.1479922,39.5455 4.4175234,39.182219 Z m 1.9863281,4.746094 c 0.2109375,0 0.3164063,0 0.3164063,-0.269532 0,-0.316406 -0.058594,-1.042968 -0.5625,-1.535156 -0.3632813,-0.363281 -0.890625,-0.539062 -1.5820313,-0.539062 -1.59375,0 -2.46093749,1.019531 -2.46093749,2.273437 0,1.335938 0.99609379,2.296875 2.60156249,2.296875 1.5703125,0 2.0039063,-1.054687 2.0039063,-1.21875 0,-0.1875 -0.1875,-0.1875 -0.234375,-0.1875 -0.1757813,0 -0.1992188,0.04687 -0.2578125,0.210938 -0.2109375,0.480468 -0.7734375,0.796875 -1.4179688,0.796875 -1.40625,0 -1.4179687,-1.324219 -1.4179687,-1.828125 z M 1.8335391,42.334563 c 0.023437,-0.398438 0.035156,-0.808594 0.234375,-1.136719 0.2695312,-0.398438 0.6679687,-0.515625 0.9492187,-0.515625 1.171875,0 1.1835938,1.300781 1.1953125,1.652344 z m 0,0"
         style="fill:#000000;fill-opacity:1;fill-rule:nonzero;stroke:none" />
      <path
         id="path63"
         d="M 9.7202578,45.246672 V 44.859953 H 8.9585391 v -2.90625 c 0,-0.210937 -0.035156,-0.246094 -0.2460938,-0.246094 H 8.6069766 c -0.1289063,0 -0.1875,0 -0.28125,0.105469 l -2.5546875,3.046875 v 0.386719 h 2.2265625 v 0.691406 H 7.1304141 v 0.386719 c 0.3515625,-0.02344 0.9726562,-0.02344 1.3359375,-0.02344 0.1523437,0 1.078125,0.01172 1.2539062,0.02344 V 45.938078 H 8.9585391 V 45.246672 Z M 8.0913516,42.668547 v 2.191406 H 6.2515078 Z m 0,0"
         style="fill:#000000;fill-opacity:1;fill-rule:nonzero;stroke:none" />
      <path
         id="path64"
         d="m 20.111859,41.572844 c 0.152344,0 0.339844,0 0.339844,-0.199219 0,-0.199219 -0.1875,-0.199219 -0.328125,-0.199219 h -5.964844 c -0.140625,0 -0.328125,0 -0.328125,0.199219 0,0.199219 0.1875,0.199219 0.339844,0.199219 z m 0.01172,1.933594 c 0.140625,0 0.328125,0 0.328125,-0.199219 0,-0.199219 -0.1875,-0.199219 -0.339844,-0.199219 h -5.941406 c -0.152344,0 -0.339844,0 -0.339844,0.199219 0,0.199219 0.1875,0.199219 0.328125,0.199219 z m 0,0"
         style="fill:#000000;fill-opacity:1;fill-rule:nonzero;stroke:none" />
      <path
         id="path65"
         d="m 26.407758,37.916594 -1.558594,1.253906 0.269531,0.386719 1.289063,-0.820313 1.289062,0.808594 0.269532,-0.363281 z m 1.983398,4.746094 c 0.210938,0 0.316406,0 0.316406,-0.269532 0,-0.316406 -0.05859,-1.042968 -0.5625,-1.535156 -0.363281,-0.363281 -0.890625,-0.539062 -1.582031,-0.539062 -1.59375,0 -2.460937,1.019531 -2.460937,2.273437 0,1.335938 0.996093,2.296875 2.601562,2.296875 1.570313,0 2.003906,-1.054687 2.003906,-1.21875 0,-0.1875 -0.1875,-0.1875 -0.234375,-0.1875 -0.175781,0 -0.199218,0.04687 -0.257812,0.210938 -0.210938,0.480468 -0.773438,0.796875 -1.417969,0.796875 -1.40625,0 -1.417969,-1.324219 -1.417969,-1.828125 z m -3.011719,-0.328125 c 0.02344,-0.398438 0.03516,-0.808594 0.234375,-1.136719 0.269532,-0.398438 0.667969,-0.515625 0.949219,-0.515625 1.171875,0 1.183594,1.300781 1.195313,1.652344 z m 0,0"
         style="fill:#000000;fill-opacity:1;fill-rule:nonzero;stroke:none" />
      <path
         id="path66"
         d="m 31.813031,42.000578 c 0,-0.246094 -0.04687,-0.246094 -0.339844,-0.246094 -0.433593,0.339844 -0.996093,0.445313 -1.558593,0.445313 h -0.164063 v 0.386719 h 0.164063 c 0.28125,0 0.703125,-0.04687 0.996093,-0.140625 v 3.492187 h -1.101562 v 0.386719 c 0.339844,-0.02344 1.183594,-0.02344 1.558594,-0.02344 0.246093,0 0.503906,0 0.75,0 0.210937,0 0.574218,0.01172 0.773437,0.02344 v -0.386719 h -1.078125 z m 0,0"
         style="fill:#000000;fill-opacity:1;fill-rule:nonzero;stroke:none" />
      <path
         id="path67"
         d="m 40.142133,42.065031 -1.992188,-1.980468 c -0.128906,-0.128907 -0.140625,-0.140625 -0.222656,-0.140625 -0.105469,0 -0.199219,0.08203 -0.199219,0.199218 0,0.07031 0.02344,0.08203 0.128907,0.199219 l 1.992187,1.992188 -1.992187,2.003906 c -0.105469,0.117187 -0.128907,0.128906 -0.128907,0.199219 0,0.117187 0.09375,0.199218 0.199219,0.199218 0.08203,0 0.09375,-0.01172 0.222656,-0.140625 l 1.980469,-1.980468 2.0625,2.0625 c 0.01172,0.01172 0.08203,0.05859 0.152344,0.05859 0.117187,0 0.199219,-0.08203 0.199219,-0.199218 0,-0.01172 0,-0.05859 -0.03516,-0.105469 -0.01172,-0.02344 -1.59375,-1.582031 -2.097656,-2.097656 l 1.828125,-1.816407 c 0.04687,-0.05859 0.199219,-0.1875 0.246094,-0.246093 0.01172,-0.02344 0.05859,-0.05859 0.05859,-0.128907 0,-0.117187 -0.08203,-0.199218 -0.199219,-0.199218 -0.08203,0 -0.128906,0.03516 -0.234375,0.140625 z m 0,0"
         style="fill:#000000;fill-opacity:1;fill-rule:nonzero;stroke:none" />
      <path
         id="path68"
         d="m 48.846234,37.916594 -1.558593,1.253906 0.269531,0.386719 1.289062,-0.820313 1.289063,0.808594 0.269531,-0.363281 z m 1.983399,4.746094 c 0.210937,0 0.316406,0 0.316406,-0.269532 0,-0.316406 -0.05859,-1.042968 -0.5625,-1.535156 -0.363281,-0.363281 -0.890625,-0.539062 -1.582031,-0.539062 -1.59375,0 -2.460938,1.019531 -2.460938,2.273437 0,1.335938 0.996094,2.296875 2.601563,2.296875 1.570312,0 2.003906,-1.054687 2.003906,-1.21875 0,-0.1875 -0.1875,-0.1875 -0.234375,-0.1875 -0.175781,0 -0.199219,0.04687 -0.257812,0.210938 -0.210938,0.480468 -0.773438,0.796875 -1.417969,0.796875 -1.40625,0 -1.417969,-1.324219 -1.417969,-1.828125 z m -3.011719,-0.328125 c 0.02344,-0.398438 0.03516,-0.808594 0.234375,-1.136719 0.269531,-0.398438 0.667969,-0.515625 0.949219,-0.515625 1.171875,0 1.183594,1.300781 1.195312,1.652344 z m 0,0"
         style="fill:#000000;fill-opacity:1;fill-rule:nonzero;stroke:none" />
      <path
         id="path69"
         d="m 53.586469,44.063078 c 0.820312,0 0.855468,0.621094 0.855468,0.996094 0,0.292969 0,0.996094 -0.832031,0.996094 -0.1875,0 -0.621094,-0.03516 -0.925781,-0.222657 0.140625,-0.07031 0.328125,-0.222656 0.328125,-0.527343 0,-0.316407 -0.234375,-0.5625 -0.5625,-0.5625 -0.351563,0 -0.574219,0.246093 -0.574219,0.574218 0,0.703125 0.773438,1.089844 1.757813,1.089844 1.464843,0 1.945312,-0.761719 1.945312,-1.347656 0,-0.539063 -0.421875,-1.019531 -1.21875,-1.183594 0.503906,-0.1875 0.972656,-0.550781 0.972656,-1.136719 0,-0.539062 -0.5625,-0.984375 -1.675781,-0.984375 -0.949219,0 -1.535156,0.46875 -1.535156,1.042969 0,0.351563 0.257812,0.539063 0.527344,0.539063 0.351562,0 0.527343,-0.257813 0.527343,-0.527344 0,-0.351563 -0.28125,-0.480469 -0.351562,-0.503906 0.292969,-0.210938 0.65625,-0.234375 0.796875,-0.234375 0.691406,0 0.691406,0.457031 0.691406,0.644531 0,0.328125 -0.140625,0.960937 -0.84375,0.996094 -0.175781,0.01172 -0.351562,0.02344 -0.386719,0.03516 -0.09375,0.02344 -0.09375,0.105469 -0.09375,0.152344 0,0.164062 0.09375,0.164062 0.222657,0.164062 z m 0,0"
         style="fill:#000000;fill-opacity:1;fill-rule:nonzero;stroke:none" />
      <path
         id="path70"
         d="m 4.7339297,69.229094 v -2.765625 h 1.171875 c 1.6054687,0 1.6171875,0.773437 1.6171875,1.382812 0,0.5625 0,1.382813 -1.640625,1.382813 z m 2.6601562,0.210937 c 1.1484375,-0.304687 1.6523438,-0.949218 1.6523438,-1.605468 0,-1.007813 -1.0898438,-1.839844 -2.9648438,-1.839844 H 2.2964297 v 0.46875 h 1.078125 V 72.358 h -1.078125 v 0.46875 c 0.3632812,-0.03516 1.3359375,-0.03516 1.7578125,-0.03516 0.4101562,0 1.3945312,0 1.7460937,0.03516 V 72.358 H 4.7339297 v -2.765625 h 1.1601562 c 0.140625,0 0.5742188,0 0.890625,0.339844 0.3164063,0.339844 0.3164063,0.539062 0.3164063,1.265625 0,0.65625 0,1.136719 0.6914062,1.476562 0.4453125,0.222657 1.0546875,0.257813 1.4648438,0.257813 1.0664058,0 1.1953128,-0.890625 1.1953128,-1.054688 0,-0.210937 -0.140625,-0.210937 -0.234375,-0.210937 -0.210938,0 -0.2226566,0.09375 -0.2343753,0.222656 -0.046875,0.46875 -0.3398438,0.691406 -0.6328125,0.691406 -0.5976563,0 -0.6914063,-0.714843 -0.7382813,-1.125 -0.023437,-0.117187 -0.09375,-0.796875 -0.1054687,-0.855468 -0.140625,-0.691407 -0.6914063,-0.996094 -1.1132813,-1.160157 z m 0,0"
         style="fill:#000000;fill-opacity:1;fill-rule:nonzero;stroke:none" />
      <path
         id="path71"
         d="m 20.111859,69.568938 c 0.152344,0 0.339844,0 0.339844,-0.199219 0,-0.199219 -0.1875,-0.199219 -0.328125,-0.199219 h -5.964844 c -0.140625,0 -0.328125,0 -0.328125,0.199219 0,0.199219 0.1875,0.199219 0.339844,0.199219 z m 0.01172,1.933593 c 0.140625,0 0.328125,0 0.328125,-0.199218 0,-0.199219 -0.1875,-0.199219 -0.339844,-0.199219 h -5.941406 c -0.152344,0 -0.339844,0 -0.339844,0.199219 0,0.199218 0.1875,0.199218 0.328125,0.199218 z m 0,0"
         style="fill:#000000;fill-opacity:1;fill-rule:nonzero;stroke:none" />
      <path
         id="path72"
         d="m 27.031781,70.333586 h 0.691406 V 53.107023 h 2.625 v -0.691406 h -3.316406 z m 0,17.920898 h 3.316406 v -0.679687 h -2.625 V 70.336516 h -0.691406 z m 0,0"
         style="fill:#000000;fill-opacity:1;fill-rule:nonzero;stroke:none" />
      <path
         id="path73"
         d="m 33.04643,53.857023 -1.558594,1.253907 0.269531,0.386718 1.289063,-0.820312 1.289062,0.808594 0.269531,-0.363282 z m 1.986328,4.746094 c 0.210937,0 0.316406,0 0.316406,-0.269531 0,-0.316406 -0.05859,-1.042969 -0.5625,-1.535156 -0.363281,-0.363282 -0.890625,-0.539063 -1.582031,-0.539063 -1.59375,0 -2.460938,1.019531 -2.460938,2.273438 0,1.335937 0.996094,2.296875 2.601563,2.296875 1.570312,0 2.003906,-1.054688 2.003906,-1.21875 0,-0.1875 -0.1875,-0.1875 -0.234375,-0.1875 -0.175781,0 -0.199219,0.04687 -0.257812,0.210937 -0.210938,0.480469 -0.773438,0.796875 -1.417969,0.796875 -1.40625,0 -1.417969,-1.324219 -1.417969,-1.828125 z m -3.011719,-0.328125 c 0.02344,-0.398437 0.03516,-0.808594 0.234375,-1.136719 0.269531,-0.398437 0.667969,-0.515625 0.949219,-0.515625 1.171875,0 1.183594,1.300782 1.195312,1.652344 z m 0,0"
         style="fill:#000000;fill-opacity:1;fill-rule:nonzero;stroke:none" />
      <path
         id="path74"
         d="m 38.454633,57.941008 c 0,-0.246094 -0.04687,-0.246094 -0.339844,-0.246094 -0.433594,0.339844 -0.996094,0.445313 -1.558594,0.445313 h -0.164062 v 0.386718 h 0.164062 c 0.28125,0 0.703125,-0.04687 0.996094,-0.140625 v 3.492188 h -1.101562 v 0.386719 c 0.339843,-0.02344 1.183593,-0.02344 1.558593,-0.02344 0.246094,0 0.503907,0 0.75,0 0.210938,0 0.574219,0.01172 0.773438,0.02344 v -0.386719 h -1.078125 z m 0,0"
         style="fill:#000000;fill-opacity:1;fill-rule:nonzero;stroke:none" />
      <path
         id="path75"
         d="m 41.926312,61.526945 c -0.07031,0.234375 -0.292968,0.609375 -0.65625,0.609375 -0.02344,0 -0.222656,0 -0.375,-0.09375 0.28125,-0.09375 0.304688,-0.339843 0.304688,-0.386718 0,-0.152344 -0.117188,-0.257813 -0.28125,-0.257813 -0.1875,0 -0.386719,0.164063 -0.386719,0.433594 0,0.339844 0.386719,0.503906 0.726563,0.503906 0.316406,0 0.609375,-0.199219 0.785156,-0.492187 0.164062,0.363281 0.550781,0.492187 0.820312,0.492187 0.808594,0 1.230469,-0.867187 1.230469,-1.066406 0,-0.09375 -0.09375,-0.09375 -0.105469,-0.09375 -0.105468,0 -0.105468,0.03516 -0.140625,0.117187 -0.140625,0.480469 -0.5625,0.84375 -0.949218,0.84375 -0.28125,0 -0.421875,-0.1875 -0.421875,-0.445312 0,-0.1875 0.164062,-0.820313 0.363281,-1.59375 0.128906,-0.539063 0.445312,-0.714844 0.679687,-0.714844 0.01172,0 0.222657,0 0.375,0.105469 -0.222656,0.05859 -0.304687,0.257812 -0.304687,0.375 0,0.152344 0.117187,0.257812 0.28125,0.257812 0.152344,0 0.386719,-0.128906 0.386719,-0.421875 0,-0.386718 -0.445313,-0.503906 -0.726563,-0.503906 -0.351562,0 -0.632812,0.222656 -0.785156,0.492188 -0.117188,-0.292969 -0.445313,-0.492188 -0.832031,-0.492188 -0.785157,0 -1.230469,0.855469 -1.230469,1.066406 0,0.08203 0.105469,0.08203 0.117187,0.08203 0.09375,0 0.105469,-0.02344 0.140625,-0.117188 0.175782,-0.539062 0.609375,-0.84375 0.949219,-0.84375 0.234375,0 0.421875,0.128906 0.421875,0.46875 0,0.128906 -0.08203,0.480469 -0.152344,0.714844 z m 0,0"
         style="fill:#000000;fill-opacity:1;fill-rule:nonzero;stroke:none" />
      <path
         id="path76"
         d="m 57.79057,53.857023 -1.558593,1.253907 0.269531,0.386718 1.289062,-0.820312 1.289063,0.808594 0.269531,-0.363282 z m 1.986328,4.746094 c 0.210938,0 0.316407,0 0.316407,-0.269531 0,-0.316406 -0.05859,-1.042969 -0.5625,-1.535156 -0.363282,-0.363282 -0.890625,-0.539063 -1.582032,-0.539063 -1.59375,0 -2.460937,1.019531 -2.460937,2.273438 0,1.335937 0.996094,2.296875 2.601562,2.296875 1.570313,0 2.003907,-1.054688 2.003907,-1.21875 0,-0.1875 -0.1875,-0.1875 -0.234375,-0.1875 -0.175782,0 -0.199219,0.04687 -0.257813,0.210937 -0.210937,0.480469 -0.773437,0.796875 -1.417969,0.796875 -1.40625,0 -1.417968,-1.324219 -1.417968,-1.828125 z M 56.76518,58.274992 c 0.02344,-0.398437 0.03516,-0.808594 0.234375,-1.136719 0.269531,-0.398437 0.667968,-0.515625 0.949218,-0.515625 1.171875,0 1.183594,1.300782 1.195313,1.652344 z m 0,0"
         style="fill:#000000;fill-opacity:1;fill-rule:nonzero;stroke:none" />
      <path
         id="path77"
         d="m 63.198773,57.941008 c 0,-0.246094 -0.04687,-0.246094 -0.339843,-0.246094 -0.433594,0.339844 -0.996094,0.445313 -1.558594,0.445313 h -0.164063 v 0.386718 h 0.164063 c 0.28125,0 0.703125,-0.04687 0.996094,-0.140625 v 3.492188 h -1.101563 v 0.386719 c 0.339844,-0.02344 1.183594,-0.02344 1.558594,-0.02344 0.246094,0 0.503906,0 0.75,0 0.210937,0 0.574219,0.01172 0.773437,0.02344 v -0.386719 h -1.078125 z m 0,0"
         style="fill:#000000;fill-opacity:1;fill-rule:nonzero;stroke:none" />
      <path
         id="path78"
         d="m 68.814984,59.640227 c 0.02344,-0.105469 0.02344,-0.117188 0.02344,-0.152344 0,-0.140625 -0.105469,-0.222656 -0.222656,-0.222656 -0.08203,0 -0.210938,0.03516 -0.292969,0.164062 -0.02344,0.03516 -0.07031,0.257813 -0.105469,0.398438 l -0.152344,0.585937 c -0.03516,0.164063 -0.257812,1.042969 -0.28125,1.125 0,0 -0.304687,0.597656 -0.855468,0.597656 -0.46875,0 -0.46875,-0.445312 -0.46875,-0.574218 0,-0.375 0.152343,-0.820313 0.363281,-1.359375 0.08203,-0.222657 0.117187,-0.304688 0.117187,-0.421875 0,-0.328125 -0.28125,-0.585938 -0.65625,-0.585938 -0.703125,0 -1.019531,0.949219 -1.019531,1.066406 0,0.08203 0.09375,0.08203 0.117188,0.08203 0.09375,0 0.105468,-0.03516 0.128906,-0.105469 0.175781,-0.585938 0.46875,-0.855469 0.75,-0.855469 0.117187,0 0.175781,0.08203 0.175781,0.246094 0,0.164062 -0.05859,0.316406 -0.09375,0.410156 -0.339844,0.84375 -0.410156,1.101563 -0.410156,1.40625 0,0.117188 0,0.445313 0.269531,0.679688 0.222656,0.175781 0.515625,0.210937 0.703125,0.210937 0.28125,0 0.527344,-0.105469 0.761719,-0.316406 -0.09375,0.386719 -0.175781,0.679687 -0.46875,1.03125 -0.1875,0.210937 -0.457031,0.445312 -0.832031,0.445312 -0.04687,0 -0.375,0 -0.527344,-0.234375 0.375,-0.03516 0.375,-0.375 0.375,-0.386718 0,-0.222657 -0.199219,-0.257813 -0.269531,-0.257813 -0.175782,0 -0.398438,0.140625 -0.398438,0.457031 0,0.351563 0.328125,0.609375 0.832031,0.609375 0.703125,0 1.558594,-0.539062 1.769532,-1.40625 z m 0,0"
         style="fill:#000000;fill-opacity:1;fill-rule:nonzero;stroke:none" />
      <path
         id="path79"
         d="m 82.306195,53.857023 -1.558593,1.253907 0.269531,0.386718 1.289062,-0.820312 1.289063,0.808594 0.269531,-0.363282 z m 1.986328,4.746094 c 0.210938,0 0.316407,0 0.316407,-0.269531 0,-0.316406 -0.05859,-1.042969 -0.5625,-1.535156 -0.363282,-0.363282 -0.890625,-0.539063 -1.582032,-0.539063 -1.59375,0 -2.460937,1.019531 -2.460937,2.273438 0,1.335937 0.996094,2.296875 2.601562,2.296875 1.570313,0 2.003907,-1.054688 2.003907,-1.21875 0,-0.1875 -0.1875,-0.1875 -0.234375,-0.1875 -0.175782,0 -0.199219,0.04687 -0.257813,0.210937 -0.210937,0.480469 -0.773437,0.796875 -1.417969,0.796875 -1.40625,0 -1.417968,-1.324219 -1.417968,-1.828125 z m -3.011718,-0.328125 c 0.02344,-0.398437 0.03516,-0.808594 0.234375,-1.136719 0.269531,-0.398437 0.667968,-0.515625 0.949218,-0.515625 1.171875,0 1.183594,1.300782 1.195313,1.652344 z m 0,0"
         style="fill:#000000;fill-opacity:1;fill-rule:nonzero;stroke:none" />
      <path
         id="path80"
         d="m 87.714398,57.941008 c 0,-0.246094 -0.04687,-0.246094 -0.339843,-0.246094 -0.433594,0.339844 -0.996094,0.445313 -1.558594,0.445313 h -0.164063 v 0.386718 h 0.164063 c 0.28125,0 0.703125,-0.04687 0.996094,-0.140625 v 3.492188 h -1.101563 v 0.386719 c 0.339844,-0.02344 1.183594,-0.02344 1.558594,-0.02344 0.246094,0 0.503906,0 0.75,0 0.210937,0 0.574219,0.01172 0.773437,0.02344 v -0.386719 h -1.078125 z m 0,0"
         style="fill:#000000;fill-opacity:1;fill-rule:nonzero;stroke:none" />
      <path
         id="path81"
         d="m 90.623578,61.655852 c 0.175781,-0.1875 0.304688,-0.316407 0.902344,-0.796875 0.140625,-0.117188 0.667969,-0.527344 0.867187,-0.726563 0.421875,-0.421875 0.691407,-0.773437 0.691407,-0.855469 0,-0.08203 -0.09375,-0.08203 -0.117188,-0.08203 -0.05859,0 -0.08203,0.01172 -0.117187,0.07031 -0.222657,0.316406 -0.363282,0.421875 -0.527344,0.421875 -0.09375,0 -0.199219,-0.01172 -0.398438,-0.210938 -0.246093,-0.234375 -0.398437,-0.28125 -0.550781,-0.28125 -0.5625,0 -0.9375,0.597656 -0.9375,0.808594 0,0.07031 0.07031,0.08203 0.117188,0.08203 0.08203,0 0.09375,-0.01172 0.128906,-0.09375 0.105469,-0.246094 0.492187,-0.257812 0.597656,-0.257812 0.164063,0 0.351563,0.04687 0.445313,0.05859 0.386718,0.09375 0.433593,0.09375 0.609375,0.09375 -0.1875,0.1875 -0.304688,0.304688 -0.972657,0.84375 -0.539062,0.421875 -0.726562,0.597657 -0.867187,0.738282 -0.410156,0.410156 -0.621094,0.714843 -0.621094,0.785156 0,0.08203 0.09375,0.08203 0.117188,0.08203 0.07031,0 0.09375,-0.01172 0.128906,-0.07031 0.1875,-0.269532 0.398437,-0.421875 0.632812,-0.421875 0.08203,0 0.1875,0 0.375,0.175781 0.222657,0.210937 0.363282,0.316406 0.585938,0.316406 0.738281,0 1.207031,-0.84375 1.207031,-1.078125 0,-0.08203 -0.07031,-0.09375 -0.117187,-0.09375 -0.08203,0 -0.09375,0.03516 -0.128907,0.117188 -0.128906,0.339843 -0.539062,0.515625 -0.878906,0.515625 -0.164062,0 -0.339844,-0.03516 -0.515625,-0.08203 -0.316406,-0.07031 -0.375,-0.07031 -0.492187,-0.07031 -0.02344,0 -0.117188,0 -0.164063,0.01172 z m 0,0"
         style="fill:#000000;fill-opacity:1;fill-rule:nonzero;stroke:none" />
      <path
         id="path82"
         d="m 33.04643,65.813078 -1.558594,1.253906 0.269531,0.386719 1.289063,-0.820312 1.289062,0.808593 0.269531,-0.363281 z m 1.986328,4.746094 c 0.210937,0 0.316406,0 0.316406,-0.269531 0,-0.316407 -0.05859,-1.042969 -0.5625,-1.535157 -0.363281,-0.363281 -0.890625,-0.539062 -1.582031,-0.539062 -1.59375,0 -2.460938,1.019531 -2.460938,2.273437 0,1.335938 0.996094,2.296875 2.601563,2.296875 1.570312,0 2.003906,-1.054687 2.003906,-1.21875 0,-0.1875 -0.1875,-0.1875 -0.234375,-0.1875 -0.175781,0 -0.199219,0.04687 -0.257812,0.210938 -0.210938,0.480469 -0.773438,0.796875 -1.417969,0.796875 -1.40625,0 -1.417969,-1.324219 -1.417969,-1.828125 z m -3.011719,-0.328125 c 0.02344,-0.398438 0.03516,-0.808594 0.234375,-1.136719 0.269531,-0.398437 0.667969,-0.515625 0.949219,-0.515625 1.171875,0 1.183594,1.300781 1.195312,1.652344 z m 0,0"
         style="fill:#000000;fill-opacity:1;fill-rule:nonzero;stroke:none" />
      <path
         id="path83"
         d="m 37.786664,71.959563 c 0.820313,0 0.855469,0.621093 0.855469,0.996093 0,0.292969 0,0.996094 -0.832031,0.996094 -0.1875,0 -0.621094,-0.03516 -0.925782,-0.222656 0.140625,-0.07031 0.328125,-0.222656 0.328125,-0.527344 0,-0.316406 -0.234375,-0.5625 -0.5625,-0.5625 -0.351562,0 -0.574218,0.246094 -0.574218,0.574219 0,0.703125 0.773437,1.089844 1.757812,1.089844 1.464844,0 1.945313,-0.761719 1.945313,-1.347657 0,-0.539062 -0.421875,-1.019531 -1.21875,-1.183593 0.503906,-0.1875 0.972656,-0.550782 0.972656,-1.136719 0,-0.539063 -0.5625,-0.984375 -1.675781,-0.984375 -0.949219,0 -1.535157,0.46875 -1.535157,1.042969 0,0.351562 0.257813,0.539062 0.527344,0.539062 0.351563,0 0.527344,-0.257812 0.527344,-0.527344 0,-0.351562 -0.28125,-0.480468 -0.351563,-0.503906 0.292969,-0.210937 0.65625,-0.234375 0.796875,-0.234375 0.691407,0 0.691407,0.457031 0.691407,0.644531 0,0.328125 -0.140625,0.960938 -0.84375,0.996094 -0.175782,0.01172 -0.351563,0.02344 -0.386719,0.03516 -0.09375,0.02344 -0.09375,0.105469 -0.09375,0.152344 0,0.164063 0.09375,0.164063 0.222656,0.164063 z m 0,0"
         style="fill:#000000;fill-opacity:1;fill-rule:nonzero;stroke:none" />
      <path
         id="path84"
         d="m 41.926312,73.483 c -0.07031,0.234375 -0.292968,0.609375 -0.65625,0.609375 -0.02344,0 -0.222656,0 -0.375,-0.09375 0.28125,-0.09375 0.304688,-0.339844 0.304688,-0.386719 0,-0.152343 -0.117188,-0.257812 -0.28125,-0.257812 -0.1875,0 -0.386719,0.164062 -0.386719,0.433594 0,0.339843 0.386719,0.503906 0.726563,0.503906 0.316406,0 0.609375,-0.199219 0.785156,-0.492188 0.164062,0.363282 0.550781,0.492188 0.820312,0.492188 0.808594,0 1.230469,-0.867188 1.230469,-1.066406 0,-0.09375 -0.09375,-0.09375 -0.105469,-0.09375 -0.105468,0 -0.105468,0.03516 -0.140625,0.117187 -0.140625,0.480469 -0.5625,0.84375 -0.949218,0.84375 -0.28125,0 -0.421875,-0.1875 -0.421875,-0.445312 0,-0.1875 0.164062,-0.820313 0.363281,-1.59375 0.128906,-0.539063 0.445312,-0.714844 0.679687,-0.714844 0.01172,0 0.222657,0 0.375,0.105469 -0.222656,0.05859 -0.304687,0.257812 -0.304687,0.375 0,0.152343 0.117187,0.257812 0.28125,0.257812 0.152344,0 0.386719,-0.128906 0.386719,-0.421875 0,-0.386719 -0.445313,-0.503906 -0.726563,-0.503906 -0.351562,0 -0.632812,0.222656 -0.785156,0.492187 -0.117188,-0.292968 -0.445313,-0.492187 -0.832031,-0.492187 -0.785157,0 -1.230469,0.855469 -1.230469,1.066406 0,0.08203 0.105469,0.08203 0.117187,0.08203 0.09375,0 0.105469,-0.02344 0.140625,-0.117187 0.175782,-0.539063 0.609375,-0.84375 0.949219,-0.84375 0.234375,0 0.421875,0.128906 0.421875,0.46875 0,0.128906 -0.08203,0.480469 -0.152344,0.714844 z m 0,0"
         style="fill:#000000;fill-opacity:1;fill-rule:nonzero;stroke:none" />
      <path
         id="path85"
         d="m 57.79057,65.813078 -1.558593,1.253906 0.269531,0.386719 1.289062,-0.820312 1.289063,0.808593 0.269531,-0.363281 z m 1.986328,4.746094 c 0.210938,0 0.316407,0 0.316407,-0.269531 0,-0.316407 -0.05859,-1.042969 -0.5625,-1.535157 -0.363282,-0.363281 -0.890625,-0.539062 -1.582032,-0.539062 -1.59375,0 -2.460937,1.019531 -2.460937,2.273437 0,1.335938 0.996094,2.296875 2.601562,2.296875 1.570313,0 2.003907,-1.054687 2.003907,-1.21875 0,-0.1875 -0.1875,-0.1875 -0.234375,-0.1875 -0.175782,0 -0.199219,0.04687 -0.257813,0.210938 -0.210937,0.480469 -0.773437,0.796875 -1.417969,0.796875 -1.40625,0 -1.417968,-1.324219 -1.417968,-1.828125 z M 56.76518,70.231047 c 0.02344,-0.398438 0.03516,-0.808594 0.234375,-1.136719 0.269531,-0.398437 0.667968,-0.515625 0.949218,-0.515625 1.171875,0 1.183594,1.300781 1.195313,1.652344 z m 0,0"
         style="fill:#000000;fill-opacity:1;fill-rule:nonzero;stroke:none" />
      <path
         id="path86"
         d="m 62.530805,71.959563 c 0.820312,0 0.855468,0.621093 0.855468,0.996093 0,0.292969 0,0.996094 -0.832031,0.996094 -0.1875,0 -0.621094,-0.03516 -0.925781,-0.222656 0.140625,-0.07031 0.328125,-0.222656 0.328125,-0.527344 0,-0.316406 -0.234375,-0.5625 -0.5625,-0.5625 -0.351563,0 -0.574219,0.246094 -0.574219,0.574219 0,0.703125 0.773438,1.089844 1.757813,1.089844 1.464843,0 1.945312,-0.761719 1.945312,-1.347657 0,-0.539062 -0.421875,-1.019531 -1.21875,-1.183593 0.503906,-0.1875 0.972656,-0.550782 0.972656,-1.136719 0,-0.539063 -0.5625,-0.984375 -1.675781,-0.984375 -0.949219,0 -1.535156,0.46875 -1.535156,1.042969 0,0.351562 0.257812,0.539062 0.527344,0.539062 0.351562,0 0.527343,-0.257812 0.527343,-0.527344 0,-0.351562 -0.28125,-0.480468 -0.351562,-0.503906 0.292969,-0.210937 0.65625,-0.234375 0.796875,-0.234375 0.691406,0 0.691406,0.457031 0.691406,0.644531 0,0.328125 -0.140625,0.960938 -0.84375,0.996094 -0.175781,0.01172 -0.351562,0.02344 -0.386719,0.03516 -0.09375,0.02344 -0.09375,0.105469 -0.09375,0.152344 0,0.164063 0.09375,0.164063 0.222657,0.164063 z m 0,0"
         style="fill:#000000;fill-opacity:1;fill-rule:nonzero;stroke:none" />
      <path
         id="path87"
         d="m 68.814984,71.596281 c 0.02344,-0.105468 0.02344,-0.117187 0.02344,-0.152343 0,-0.140625 -0.105469,-0.222657 -0.222656,-0.222657 -0.08203,0 -0.210938,0.03516 -0.292969,0.164063 -0.02344,0.03516 -0.07031,0.257812 -0.105469,0.398437 l -0.152344,0.585938 c -0.03516,0.164062 -0.257812,1.042969 -0.28125,1.125 0,0 -0.304687,0.597656 -0.855468,0.597656 -0.46875,0 -0.46875,-0.445312 -0.46875,-0.574219 0,-0.375 0.152343,-0.820312 0.363281,-1.359375 0.08203,-0.222656 0.117187,-0.304687 0.117187,-0.421875 0,-0.328125 -0.28125,-0.585937 -0.65625,-0.585937 -0.703125,0 -1.019531,0.949219 -1.019531,1.066406 0,0.08203 0.09375,0.08203 0.117188,0.08203 0.09375,0 0.105468,-0.03516 0.128906,-0.105468 0.175781,-0.585938 0.46875,-0.855469 0.75,-0.855469 0.117187,0 0.175781,0.08203 0.175781,0.246094 0,0.164062 -0.05859,0.316406 -0.09375,0.410156 -0.339844,0.84375 -0.410156,1.101562 -0.410156,1.40625 0,0.117187 0,0.445312 0.269531,0.679687 0.222656,0.175782 0.515625,0.210938 0.703125,0.210938 0.28125,0 0.527344,-0.105469 0.761719,-0.316406 -0.09375,0.386718 -0.175781,0.679687 -0.46875,1.03125 -0.1875,0.210937 -0.457031,0.445312 -0.832031,0.445312 -0.04687,0 -0.375,0 -0.527344,-0.234375 0.375,-0.03516 0.375,-0.375 0.375,-0.386719 0,-0.222656 -0.199219,-0.257812 -0.269531,-0.257812 -0.175782,0 -0.398438,0.140625 -0.398438,0.457031 0,0.351563 0.328125,0.609375 0.832031,0.609375 0.703125,0 1.558594,-0.539062 1.769532,-1.40625 z m 0,0"
         style="fill:#000000;fill-opacity:1;fill-rule:nonzero;stroke:none" />
      <path
         id="path88"
         d="m 82.306195,65.813078 -1.558593,1.253906 0.269531,0.386719 1.289062,-0.820312 1.289063,0.808593 0.269531,-0.363281 z m 1.986328,4.746094 c 0.210938,0 0.316407,0 0.316407,-0.269531 0,-0.316407 -0.05859,-1.042969 -0.5625,-1.535157 -0.363282,-0.363281 -0.890625,-0.539062 -1.582032,-0.539062 -1.59375,0 -2.460937,1.019531 -2.460937,2.273437 0,1.335938 0.996094,2.296875 2.601562,2.296875 1.570313,0 2.003907,-1.054687 2.003907,-1.21875 0,-0.1875 -0.1875,-0.1875 -0.234375,-0.1875 -0.175782,0 -0.199219,0.04687 -0.257813,0.210938 -0.210937,0.480469 -0.773437,0.796875 -1.417969,0.796875 -1.40625,0 -1.417968,-1.324219 -1.417968,-1.828125 z m -3.011718,-0.328125 c 0.02344,-0.398438 0.03516,-0.808594 0.234375,-1.136719 0.269531,-0.398437 0.667968,-0.515625 0.949218,-0.515625 1.171875,0 1.183594,1.300781 1.195313,1.652344 z m 0,0"
         style="fill:#000000;fill-opacity:1;fill-rule:nonzero;stroke:none" />
      <path
         id="path89"
         d="m 87.04643,71.959563 c 0.820312,0 0.855468,0.621093 0.855468,0.996093 0,0.292969 0,0.996094 -0.832031,0.996094 -0.1875,0 -0.621094,-0.03516 -0.925781,-0.222656 0.140625,-0.07031 0.328125,-0.222656 0.328125,-0.527344 0,-0.316406 -0.234375,-0.5625 -0.5625,-0.5625 -0.351563,0 -0.574219,0.246094 -0.574219,0.574219 0,0.703125 0.773438,1.089844 1.757813,1.089844 1.464843,0 1.945312,-0.761719 1.945312,-1.347657 0,-0.539062 -0.421875,-1.019531 -1.21875,-1.183593 0.503906,-0.1875 0.972656,-0.550782 0.972656,-1.136719 0,-0.539063 -0.5625,-0.984375 -1.675781,-0.984375 -0.949219,0 -1.535156,0.46875 -1.535156,1.042969 0,0.351562 0.257812,0.539062 0.527344,0.539062 0.351562,0 0.527343,-0.257812 0.527343,-0.527344 0,-0.351562 -0.28125,-0.480468 -0.351562,-0.503906 0.292969,-0.210937 0.65625,-0.234375 0.796875,-0.234375 0.691406,0 0.691406,0.457031 0.691406,0.644531 0,0.328125 -0.140625,0.960938 -0.84375,0.996094 -0.175781,0.01172 -0.351562,0.02344 -0.386719,0.03516 -0.09375,0.02344 -0.09375,0.105469 -0.09375,0.152344 0,0.164063 0.09375,0.164063 0.222657,0.164063 z m 0,0"
         style="fill:#000000;fill-opacity:1;fill-rule:nonzero;stroke:none" />
      <path
         id="path90"
         d="m 90.623578,73.611906 c 0.175781,-0.1875 0.304688,-0.316406 0.902344,-0.796875 0.140625,-0.117187 0.667969,-0.527343 0.867187,-0.726562 0.421875,-0.421875 0.691407,-0.773438 0.691407,-0.855469 0,-0.08203 -0.09375,-0.08203 -0.117188,-0.08203 -0.05859,0 -0.08203,0.01172 -0.117187,0.07031 -0.222657,0.316407 -0.363282,0.421875 -0.527344,0.421875 -0.09375,0 -0.199219,-0.01172 -0.398438,-0.210937 -0.246093,-0.234375 -0.398437,-0.28125 -0.550781,-0.28125 -0.5625,0 -0.9375,0.597656 -0.9375,0.808594 0,0.07031 0.07031,0.08203 0.117188,0.08203 0.08203,0 0.09375,-0.01172 0.128906,-0.09375 0.105469,-0.246094 0.492187,-0.257813 0.597656,-0.257813 0.164063,0 0.351563,0.04687 0.445313,0.05859 0.386718,0.09375 0.433593,0.09375 0.609375,0.09375 -0.1875,0.1875 -0.304688,0.304688 -0.972657,0.84375 -0.539062,0.421875 -0.726562,0.597656 -0.867187,0.738281 -0.410156,0.410157 -0.621094,0.714844 -0.621094,0.785157 0,0.08203 0.09375,0.08203 0.117188,0.08203 0.07031,0 0.09375,-0.01172 0.128906,-0.07031 0.1875,-0.269531 0.398437,-0.421875 0.632812,-0.421875 0.08203,0 0.1875,0 0.375,0.175782 0.222657,0.210937 0.363282,0.316406 0.585938,0.316406 0.738281,0 1.207031,-0.84375 1.207031,-1.078125 0,-0.08203 -0.07031,-0.09375 -0.117187,-0.09375 -0.08203,0 -0.09375,0.03516 -0.128907,0.117187 -0.128906,0.339844 -0.539062,0.515625 -0.878906,0.515625 -0.164062,0 -0.339844,-0.03516 -0.515625,-0.08203 -0.316406,-0.07031 -0.375,-0.07031 -0.492187,-0.07031 -0.02344,0 -0.117188,0 -0.164063,0.01172 z m 0,0"
         style="fill:#000000;fill-opacity:1;fill-rule:nonzero;stroke:none" />
      <path
         id="path91"
         d="m 33.04643,77.769133 -1.558594,1.253906 0.269531,0.386719 1.289063,-0.820313 1.289062,0.808594 0.269531,-0.363281 z m 1.986328,4.746094 c 0.210937,0 0.316406,0 0.316406,-0.269532 0,-0.316406 -0.05859,-1.042968 -0.5625,-1.535156 -0.363281,-0.363281 -0.890625,-0.539062 -1.582031,-0.539062 -1.59375,0 -2.460938,1.019531 -2.460938,2.273437 0,1.335938 0.996094,2.296875 2.601563,2.296875 1.570312,0 2.003906,-1.054687 2.003906,-1.21875 0,-0.1875 -0.1875,-0.1875 -0.234375,-0.1875 -0.175781,0 -0.199219,0.04687 -0.257812,0.210938 -0.210938,0.480468 -0.773438,0.796875 -1.417969,0.796875 -1.40625,0 -1.417969,-1.324219 -1.417969,-1.828125 z m -3.011719,-0.328125 c 0.02344,-0.398438 0.03516,-0.808594 0.234375,-1.136719 0.269531,-0.398438 0.667969,-0.515625 0.949219,-0.515625 1.171875,0 1.183594,1.300781 1.195312,1.652344 z m 0,0"
         style="fill:#000000;fill-opacity:1;fill-rule:nonzero;stroke:none" />
      <path
         id="path92"
         d="m 39.907758,85.099211 v -0.386719 h -0.761719 v -2.90625 c 0,-0.210937 -0.03516,-0.246094 -0.246094,-0.246094 h -0.105468 c -0.128907,0 -0.1875,0 -0.28125,0.105469 l -2.554688,3.046875 v 0.386719 h 2.226563 v 0.691406 h -0.867188 v 0.386719 c 0.351563,-0.02344 0.972656,-0.02344 1.335938,-0.02344 0.152343,0 1.078125,0.01172 1.253906,0.02344 v -0.386719 h -0.761719 v -0.691406 z m -1.628906,-2.578125 v 2.191406 h -1.839844 z m 0,0"
         style="fill:#000000;fill-opacity:1;fill-rule:nonzero;stroke:none" />
      <path
         id="path93"
         d="m 41.926312,85.439055 c -0.07031,0.234375 -0.292968,0.609375 -0.65625,0.609375 -0.02344,0 -0.222656,0 -0.375,-0.09375 0.28125,-0.09375 0.304688,-0.339844 0.304688,-0.386719 0,-0.152344 -0.117188,-0.257813 -0.28125,-0.257813 -0.1875,0 -0.386719,0.164063 -0.386719,0.433594 0,0.339844 0.386719,0.503906 0.726563,0.503906 0.316406,0 0.609375,-0.199218 0.785156,-0.492187 0.164062,0.363281 0.550781,0.492187 0.820312,0.492187 0.808594,0 1.230469,-0.867187 1.230469,-1.066406 0,-0.09375 -0.09375,-0.09375 -0.105469,-0.09375 -0.105468,0 -0.105468,0.03516 -0.140625,0.117188 -0.140625,0.480468 -0.5625,0.84375 -0.949218,0.84375 -0.28125,0 -0.421875,-0.1875 -0.421875,-0.445313 0,-0.1875 0.164062,-0.820312 0.363281,-1.59375 0.128906,-0.539062 0.445312,-0.714844 0.679687,-0.714844 0.01172,0 0.222657,0 0.375,0.105469 -0.222656,0.05859 -0.304687,0.257813 -0.304687,0.375 0,0.152344 0.117187,0.257813 0.28125,0.257813 0.152344,0 0.386719,-0.128907 0.386719,-0.421875 0,-0.386719 -0.445313,-0.503907 -0.726563,-0.503907 -0.351562,0 -0.632812,0.222657 -0.785156,0.492188 -0.117188,-0.292969 -0.445313,-0.492188 -0.832031,-0.492188 -0.785157,0 -1.230469,0.855469 -1.230469,1.066407 0,0.08203 0.105469,0.08203 0.117187,0.08203 0.09375,0 0.105469,-0.02344 0.140625,-0.117188 0.175782,-0.539062 0.609375,-0.84375 0.949219,-0.84375 0.234375,0 0.421875,0.128907 0.421875,0.46875 0,0.128907 -0.08203,0.480469 -0.152344,0.714844 z m 0,0"
         style="fill:#000000;fill-opacity:1;fill-rule:nonzero;stroke:none" />
      <path
         id="path94"
         d="m 57.79057,77.769133 -1.558593,1.253906 0.269531,0.386719 1.289062,-0.820313 1.289063,0.808594 0.269531,-0.363281 z m 1.986328,4.746094 c 0.210938,0 0.316407,0 0.316407,-0.269532 0,-0.316406 -0.05859,-1.042968 -0.5625,-1.535156 -0.363282,-0.363281 -0.890625,-0.539062 -1.582032,-0.539062 -1.59375,0 -2.460937,1.019531 -2.460937,2.273437 0,1.335938 0.996094,2.296875 2.601562,2.296875 1.570313,0 2.003907,-1.054687 2.003907,-1.21875 0,-0.1875 -0.1875,-0.1875 -0.234375,-0.1875 -0.175782,0 -0.199219,0.04687 -0.257813,0.210938 -0.210937,0.480468 -0.773437,0.796875 -1.417969,0.796875 -1.40625,0 -1.417968,-1.324219 -1.417968,-1.828125 z M 56.76518,82.187102 c 0.02344,-0.398438 0.03516,-0.808594 0.234375,-1.136719 0.269531,-0.398438 0.667968,-0.515625 0.949218,-0.515625 1.171875,0 1.183594,1.300781 1.195313,1.652344 z m 0,0"
         style="fill:#000000;fill-opacity:1;fill-rule:nonzero;stroke:none" />
      <path
         id="path95"
         d="M 64.651898,85.099211 V 84.712492 H 63.89018 v -2.90625 c 0,-0.210937 -0.03516,-0.246094 -0.246094,-0.246094 h -0.105469 c -0.128906,0 -0.1875,0 -0.28125,0.105469 l -2.554687,3.046875 v 0.386719 h 2.226562 v 0.691406 h -0.867187 v 0.386719 c 0.351562,-0.02344 0.972656,-0.02344 1.335937,-0.02344 0.152344,0 1.078125,0.01172 1.253906,0.02344 V 85.790617 H 63.89018 v -0.691406 z m -1.628906,-2.578125 v 2.191406 h -1.839844 z m 0,0"
         style="fill:#000000;fill-opacity:1;fill-rule:nonzero;stroke:none" />
      <path
         id="path96"
         d="m 68.814984,83.552336 c 0.02344,-0.105469 0.02344,-0.117188 0.02344,-0.152344 0,-0.140625 -0.105469,-0.222656 -0.222656,-0.222656 -0.08203,0 -0.210938,0.03516 -0.292969,0.164062 -0.02344,0.03516 -0.07031,0.257813 -0.105469,0.398438 l -0.152344,0.585937 c -0.03516,0.164063 -0.257812,1.042969 -0.28125,1.125 0,0 -0.304687,0.597657 -0.855468,0.597657 -0.46875,0 -0.46875,-0.445313 -0.46875,-0.574219 0,-0.375 0.152343,-0.820313 0.363281,-1.359375 0.08203,-0.222656 0.117187,-0.304688 0.117187,-0.421875 0,-0.328125 -0.28125,-0.585938 -0.65625,-0.585938 -0.703125,0 -1.019531,0.949219 -1.019531,1.066407 0,0.08203 0.09375,0.08203 0.117188,0.08203 0.09375,0 0.105468,-0.03516 0.128906,-0.105469 0.175781,-0.585937 0.46875,-0.855469 0.75,-0.855469 0.117187,0 0.175781,0.08203 0.175781,0.246094 0,0.164063 -0.05859,0.316406 -0.09375,0.410156 -0.339844,0.84375 -0.410156,1.101563 -0.410156,1.40625 0,0.117188 0,0.445313 0.269531,0.679688 0.222656,0.175781 0.515625,0.210937 0.703125,0.210937 0.28125,0 0.527344,-0.105468 0.761719,-0.316406 -0.09375,0.386719 -0.175781,0.679688 -0.46875,1.03125 -0.1875,0.210938 -0.457031,0.445313 -0.832031,0.445313 -0.04687,0 -0.375,0 -0.527344,-0.234375 0.375,-0.03516 0.375,-0.375 0.375,-0.386719 0,-0.222656 -0.199219,-0.257813 -0.269531,-0.257813 -0.175782,0 -0.398438,0.140625 -0.398438,0.457032 0,0.351562 0.328125,0.609375 0.832031,0.609375 0.703125,0 1.558594,-0.539063 1.769532,-1.40625 z m 0,0"
         style="fill:#000000;fill-opacity:1;fill-rule:nonzero;stroke:none" />
      <path
         id="path97"
         d="m 82.306195,77.769133 -1.558593,1.253906 0.269531,0.386719 1.289062,-0.820313 1.289063,0.808594 0.269531,-0.363281 z m 1.986328,4.746094 c 0.210938,0 0.316407,0 0.316407,-0.269532 0,-0.316406 -0.05859,-1.042968 -0.5625,-1.535156 -0.363282,-0.363281 -0.890625,-0.539062 -1.582032,-0.539062 -1.59375,0 -2.460937,1.019531 -2.460937,2.273437 0,1.335938 0.996094,2.296875 2.601562,2.296875 1.570313,0 2.003907,-1.054687 2.003907,-1.21875 0,-0.1875 -0.1875,-0.1875 -0.234375,-0.1875 -0.175782,0 -0.199219,0.04687 -0.257813,0.210938 -0.210937,0.480468 -0.773437,0.796875 -1.417969,0.796875 -1.40625,0 -1.417968,-1.324219 -1.417968,-1.828125 z m -3.011718,-0.328125 c 0.02344,-0.398438 0.03516,-0.808594 0.234375,-1.136719 0.269531,-0.398438 0.667968,-0.515625 0.949218,-0.515625 1.171875,0 1.183594,1.300781 1.195313,1.652344 z m 0,0"
         style="fill:#000000;fill-opacity:1;fill-rule:nonzero;stroke:none" />
      <path
         id="path98"
         d="m 89.167523,85.099211 v -0.386719 h -0.761718 v -2.90625 c 0,-0.210937 -0.03516,-0.246094 -0.246094,-0.246094 h -0.105469 c -0.128906,0 -0.1875,0 -0.28125,0.105469 l -2.554687,3.046875 v 0.386719 h 2.226562 v 0.691406 H 86.57768 v 0.386719 c 0.351562,-0.02344 0.972656,-0.02344 1.335937,-0.02344 0.152344,0 1.078125,0.01172 1.253906,0.02344 v -0.386719 h -0.761718 v -0.691406 z m -1.628906,-2.578125 v 2.191406 h -1.839844 z m 0,0"
         style="fill:#000000;fill-opacity:1;fill-rule:nonzero;stroke:none" />
      <path
         id="path99"
         d="m 90.623578,85.567961 c 0.175781,-0.1875 0.304688,-0.316406 0.902344,-0.796875 0.140625,-0.117188 0.667969,-0.527344 0.867187,-0.726563 0.421875,-0.421875 0.691407,-0.773437 0.691407,-0.855468 0,-0.08203 -0.09375,-0.08203 -0.117188,-0.08203 -0.05859,0 -0.08203,0.01172 -0.117187,0.07031 -0.222657,0.316406 -0.363282,0.421875 -0.527344,0.421875 -0.09375,0 -0.199219,-0.01172 -0.398438,-0.210938 -0.246093,-0.234375 -0.398437,-0.28125 -0.550781,-0.28125 -0.5625,0 -0.9375,0.597657 -0.9375,0.808594 0,0.07031 0.07031,0.08203 0.117188,0.08203 0.08203,0 0.09375,-0.01172 0.128906,-0.09375 0.105469,-0.246093 0.492187,-0.257812 0.597656,-0.257812 0.164063,0 0.351563,0.04687 0.445313,0.05859 0.386718,0.09375 0.433593,0.09375 0.609375,0.09375 -0.1875,0.1875 -0.304688,0.304687 -0.972657,0.84375 -0.539062,0.421875 -0.726562,0.597656 -0.867187,0.738281 -0.410156,0.410156 -0.621094,0.714844 -0.621094,0.785156 0,0.08203 0.09375,0.08203 0.117188,0.08203 0.07031,0 0.09375,-0.01172 0.128906,-0.07031 0.1875,-0.269531 0.398437,-0.421875 0.632812,-0.421875 0.08203,0 0.1875,0 0.375,0.175781 0.222657,0.210938 0.363282,0.316406 0.585938,0.316406 0.738281,0 1.207031,-0.84375 1.207031,-1.078125 0,-0.08203 -0.07031,-0.09375 -0.117187,-0.09375 -0.08203,0 -0.09375,0.03516 -0.128907,0.117188 -0.128906,0.339844 -0.539062,0.515625 -0.878906,0.515625 -0.164062,0 -0.339844,-0.03516 -0.515625,-0.08203 -0.316406,-0.07031 -0.375,-0.07031 -0.492187,-0.07031 -0.02344,0 -0.117188,0 -0.164063,0.01172 z m 0,0"
         style="fill:#000000;fill-opacity:1;fill-rule:nonzero;stroke:none" />
      <path
         id="path100"
         d="m 96.737836,70.333586 h 0.691406 V 52.415617 h -3.316406 v 0.691406 h 2.625 z m 0,17.241211 h -2.625 v 0.679687 h 3.316406 V 70.336516 h -0.691406 z m 0,0"
         style="fill:#000000;fill-opacity:1;fill-rule:nonzero;stroke:none" />
      <path
         id="path101"
         d="m -5.7455625,96.63925 h 0.8554687 c 0.1992188,0 0.3046875,0 0.3046875,-0.199219 0,-0.105468 -0.1054687,-0.105468 -0.2695312,-0.105468 h -0.8320313 l 0.2109375,-1.136719 c 0.035156,-0.210938 0.1757813,-0.914063 0.234375,-1.042969 0.09375,-0.1875 0.2578125,-0.339844 0.46875,-0.339844 0.046875,0 0.3046875,0 0.4921875,0.1875 -0.4335937,0.03516 -0.5390625,0.386719 -0.5390625,0.539063 0,0.222656 0.1757813,0.339844 0.3632813,0.339844 0.2695312,0 0.5507812,-0.210938 0.5507812,-0.597657 0,-0.457031 -0.4570312,-0.679687 -0.8671875,-0.679687 -0.3398437,0 -0.9609375,0.175781 -1.265625,1.160156 -0.058594,0.210938 -0.082031,0.316406 -0.328125,1.570313 h -0.6796875 c -0.1992187,0 -0.3046875,0 -0.3046875,0.1875 0,0.117187 0.09375,0.117187 0.28125,0.117187 h 0.65625 l -0.75,3.9375 c -0.1757812,0.96094 -0.3398437,1.875 -0.8671875,1.875 -0.035156,0 -0.28125,0 -0.46875,-0.1875 0.4570313,-0.0234 0.5390625,-0.38672 0.5390625,-0.53906 0,-0.22266 -0.1757812,-0.33985 -0.3632812,-0.33985 -0.2578125,0 -0.5507813,0.21094 -0.5507813,0.59766 0,0.44531 0.4335938,0.67969 0.84375,0.67969 0.5507813,0 0.9492188,-0.58594 1.125,-0.96094 0.328125,-0.63281 0.5507813,-1.839844 0.5625,-1.910156 z m 0,0"
         style="fill:#000000;fill-opacity:1;fill-rule:nonzero;stroke:none" />
      <path
         id="path102"
         d="m -0.15864844,103.01425 c 0,-0.0352 0,-0.0469 -0.1640625,-0.22266 -1.24218746,-1.2539 -1.57031246,-3.128902 -1.57031246,-4.664059 0,-1.722656 0.3867187,-3.457031 1.60546871,-4.710937 0.12890625,-0.117188 0.12890625,-0.128906 0.12890625,-0.164063 0,-0.07031 -0.0351563,-0.105468 -0.09375,-0.105468 -0.10546875,0 -0.99609376,0.679687 -1.58203126,1.945312 -0.515625,1.101563 -0.6328125,2.203125 -0.6328125,3.035156 0,0.785157 0.1171875,1.992189 0.65625,3.117189 0.5976563,1.21875 1.45312501,1.875 1.55859376,1.875 0.0585938,0 0.09375,-0.0352 0.09375,-0.10547 z m 0,0"
         style="fill:#000000;fill-opacity:1;fill-rule:nonzero;stroke:none" />
      <path
         id="path103"
         d="M 5.4604922,96.873625 C 5.5190859,96.733 5.5659609,96.674406 6.1987734,96.674406 v -0.46875 c -0.2460937,0.01172 -0.5390625,0.02344 -0.7851562,0.02344 -0.2460938,0 -0.703125,-0.02344 -0.9023438,-0.02344 v 0.46875 c 0.1875,0 0.46875,0.02344 0.46875,0.105469 0,0.01172 -0.011719,0.02344 -0.046875,0.117188 l -1.1601562,2.496093 -1.2539063,-2.71875 h 0.5273438 v -0.46875 c -0.328125,0.01172 -1.21875,0.02344 -1.2304688,0.02344 -0.28125,0 -0.7265625,-0.02344 -1.13671871,-0.02344 v 0.46875 H 1.3237734 l 1.734375,3.738284 c 0.1171875,0.24609 0.2578125,0.24609 0.3867188,0.24609 0.1640625,0 0.2695312,-0.0234 0.3632812,-0.23437 z m 0,0"
         style="fill:#000000;fill-opacity:1;fill-rule:nonzero;stroke:none" />
      <path
         id="path104"
         d="m 9.5093203,98.127531 c 0,-0.773437 -0.1171875,-1.980468 -0.65625,-3.105468 -0.5976562,-1.21875 -1.4648437,-1.875 -1.5585937,-1.875 -0.058594,0 -0.1054688,0.04687 -0.1054688,0.105468 0,0.03516 0,0.04687 0.1992188,0.234375 0.9726562,0.984375 1.5351562,2.566407 1.5351562,4.640625 0,1.710938 -0.3632812,3.457029 -1.59375,4.722659 -0.140625,0.11719 -0.140625,0.1289 -0.140625,0.16406 0,0.0586 0.046875,0.10547 0.1054688,0.10547 0.09375,0 0.9960937,-0.67969 1.5820312,-1.94531 0.5039063,-1.10157 0.6328125,-2.203129 0.6328125,-3.046879 z M 20.114789,97.365813 c 0.152344,0 0.339844,0 0.339844,-0.199219 0,-0.199219 -0.1875,-0.199219 -0.328125,-0.199219 h -5.964844 c -0.140625,0 -0.328125,0 -0.328125,0.199219 0,0.199219 0.1875,0.199219 0.339844,0.199219 z m 0.01172,1.933593 c 0.140625,0 0.328125,0 0.328125,-0.199218 0,-0.199219 -0.1875,-0.199219 -0.339844,-0.199219 h -5.941406 c -0.152344,0 -0.339844,0 -0.339844,0.199219 0,0.199218 0.1875,0.199218 0.328125,0.199218 z m 0,0"
         style="fill:#000000;fill-opacity:1;fill-rule:nonzero;stroke:none" />
      <path
         id="path105"
         d="m 26.609906,97.025969 v -2.765625 h 1.171875 c 1.605469,0 1.617188,0.773437 1.617188,1.382812 0,0.5625 0,1.382813 -1.640625,1.382813 z m 2.660156,0.210937 c 1.148438,-0.304687 1.652344,-0.949218 1.652344,-1.605468 0,-1.007813 -1.089844,-1.839844 -2.964844,-1.839844 h -3.785156 v 0.46875 h 1.078125 v 5.894536 h -1.078125 v 0.46875 c 0.363281,-0.0352 1.335938,-0.0352 1.757813,-0.0352 0.410156,0 1.394531,0 1.746093,0.0352 v -0.46875 h -1.066406 v -2.76563 h 1.160156 c 0.140625,0 0.574219,0 0.890625,0.339844 0.316407,0.339844 0.316407,0.539062 0.316407,1.265625 0,0.65625 0,1.136721 0.691406,1.476561 0.445312,0.22266 1.054687,0.25781 1.464844,0.25781 1.066406,0 1.195312,-0.890621 1.195312,-1.054684 0,-0.210937 -0.140625,-0.210937 -0.234375,-0.210937 -0.210937,0 -0.222656,0.09375 -0.234375,0.222656 -0.04687,0.468755 -0.339844,0.691405 -0.632812,0.691405 -0.597657,0 -0.691407,-0.714842 -0.738282,-1.124999 -0.02344,-0.117187 -0.09375,-0.796875 -0.105468,-0.855468 -0.140625,-0.691407 -0.691407,-0.996094 -1.113282,-1.160157 z m 8.147461,-0.363281 c 0.05859,-0.140625 0.105469,-0.199219 0.738282,-0.199219 v -0.46875 c -0.246094,0.01172 -0.539063,0.02344 -0.785157,0.02344 -0.246093,0 -0.703125,-0.02344 -0.902343,-0.02344 v 0.46875 c 0.1875,0 0.46875,0.02344 0.46875,0.105469 0,0.01172 -0.01172,0.02344 -0.04687,0.117188 l -1.160157,2.496093 -1.253906,-2.71875 h 0.527344 v -0.46875 c -0.328125,0.01172 -1.21875,0.02344 -1.230469,0.02344 -0.28125,0 -0.726562,-0.02344 -1.136719,-0.02344 v 0.46875 h 0.644532 l 1.734375,3.738284 c 0.117187,0.24609 0.257812,0.24609 0.386718,0.24609 0.164063,0 0.269532,-0.0234 0.363282,-0.23437 z m 0,0"
         style="fill:#000000;fill-opacity:1;fill-rule:nonzero;stroke:none" />
      <path
         id="path106"
         d="m 44.876508,98.32675 h 2.777344 c 0.140625,0 0.328125,0 0.328125,-0.199219 0,-0.199218 -0.1875,-0.199218 -0.328125,-0.199218 H 44.876508 V 95.13925 c 0,-0.128906 0,-0.328125 -0.199219,-0.328125 -0.199219,0 -0.199219,0.199219 -0.199219,0.328125 v 2.789063 h -2.789062 c -0.140625,0 -0.328125,0 -0.328125,0.199218 0,0.199219 0.1875,0.199219 0.328125,0.199219 h 2.789062 v 2.80078 c 0,0.12891 0,0.32813 0.199219,0.32813 0.199219,0 0.199219,-0.19922 0.199219,-0.32813 z m 0,0"
         style="fill:#000000;fill-opacity:1;fill-rule:nonzero;stroke:none" />
      <path
         id="path107"
         d="m 56.161664,98.455656 c 0,-1.335937 -0.914062,-2.34375 -2.542969,-2.34375 -1.628906,0 -2.542968,1.019532 -2.542968,2.34375 0,1.230469 0.878906,2.226564 2.542968,2.226564 1.675782,0 2.542969,-1.007814 2.542969,-2.226564 z m -2.542969,1.828124 c -1.265625,0 -1.265625,-1.078124 -1.265625,-1.945311 0,-0.445313 0,-0.949219 0.164063,-1.289063 0.199219,-0.375 0.609375,-0.574218 1.101562,-0.574218 0.421875,0 0.832032,0.152343 1.054688,0.503906 0.210937,0.339844 0.210937,0.890625 0.210937,1.359375 0,0.867187 0,1.945311 -1.265625,1.945311 z m 0,0"
         style="fill:#000000;fill-opacity:1;fill-rule:nonzero;stroke:none" />
    </g>
    <path
       id="path108"
       d="M 93.6424,135.0483 37.41376,67.57407"
       style="fill:none;stroke:#000000;stroke-width:0.3985;stroke-linecap:butt;stroke-linejoin:miter;stroke-miterlimit:10;stroke-dasharray:none;stroke-opacity:1"
       transform="matrix(1.3333333,0,0,-1.3333333,-25.021333,268.99467)" />
    <path
       id="path109"
       d="M 3.7613,0 C 3.2994,0.1127 1.26901,0.75136 0,1.44638 V -1.44638 C 1.26901,-0.75136 3.2994,-0.1127 3.7613,0 Z"
       style="fill:#000000;fill-opacity:1;fill-rule:nonzero;stroke:#000000;stroke-width:0.3985;stroke-linecap:butt;stroke-linejoin:miter;stroke-miterlimit:10;stroke-dasharray:none;stroke-opacity:1"
       transform="matrix(-0.85353333,1.0242533,1.0242533,0.85353333,24.863693,178.89591)" />
    <g
       id="g109"
       aria-label="e&#10;1"
       transform="matrix(1.3333333,0,0,1.3333333,65.085333,138.21733)">
      <path
         id="path110"
         d="m 4.6059219,-2.1669062 c 0.2109375,0 0.3164062,0 0.3164062,-0.2695313 0,-0.3164062 -0.058594,-1.0429687 -0.5625,-1.5351562 -0.3632812,-0.3632813 -0.890625,-0.5390625 -1.5820312,-0.5390625 -1.59375,0 -2.46093752,1.0195312 -2.46093752,2.2734375 0,1.33593745 0.99609372,2.29687495 2.60156252,2.29687495 1.5703125,0 2.0039062,-1.0546875 2.0039062,-1.21874995 0,-0.1875 -0.1875,-0.1875 -0.234375,-0.1875 -0.1757812,0 -0.1992187,0.046875 -0.2578125,0.2109375 -0.2109375,0.4804687 -0.7734375,0.79687495 -1.4179687,0.79687495 -1.40625,0 -1.4179688,-1.32421875 -1.4179688,-1.82812495 z m -3.0117188,-0.328125 c 0.023437,-0.3984375 0.035156,-0.8085938 0.234375,-1.1367188 0.2695313,-0.3984375 0.6679688,-0.515625 0.9492188,-0.515625 1.171875,0 1.1835937,1.3007813 1.1953125,1.6523438 z m 0,0"
         style="fill:#000000;fill-opacity:1;fill-rule:nonzero;stroke:none" />
      <path
         id="path111"
         d="m 8.0307266,-2.8290156 c 0,-0.2460938 -0.046875,-0.2460938 -0.3398438,-0.2460938 -0.4335937,0.3398438 -0.9960937,0.4453125 -1.5585937,0.4453125 H 5.9682266 v 0.3867188 h 0.1640625 c 0.28125,0 0.703125,-0.046875 0.9960937,-0.140625 V 1.1084844 H 6.0268203 v 0.3867187 c 0.3398438,-0.023437 1.1835938,-0.023437 1.5585938,-0.023437 0.2460937,0 0.5039062,0 0.75,0 0.2109375,0 0.5742187,0.011719 0.7734375,0.023437 V 1.1084844 h -1.078125 z m 0,0"
         style="fill:#000000;fill-opacity:1;fill-rule:nonzero;stroke:none" />
    </g>
    <path
       id="path112"
       d="M 97.50706,133.20009 87.64589,83.89465"
       style="fill:none;stroke:#000000;stroke-width:0.3985;stroke-linecap:butt;stroke-linejoin:miter;stroke-miterlimit:10;stroke-dasharray:none;stroke-opacity:1"
       transform="matrix(1.3333333,0,0,-1.3333333,-25.021333,268.99467)" />
    <path
       id="path113"
       d="M 3.7613,0 C 3.2994,0.1127 1.26901,0.75136 0,1.44638 V -1.44638 C 1.26901,-0.75136 3.2994,-0.1127 3.7613,0 Z"
       style="fill:#000000;fill-opacity:1;fill-rule:nonzero;stroke:#000000;stroke-width:0.3985;stroke-linecap:butt;stroke-linejoin:miter;stroke-miterlimit:10;stroke-dasharray:none;stroke-opacity:1"
       transform="matrix(-0.26146667,1.3074,1.3074,0.26146667,91.839867,157.13513)" />
    <g
       id="g113"
       aria-label="e&#10;2"
       transform="matrix(1.3333333,0,0,1.3333333,102.50667,129.21867)">
      <path
         id="path114"
         d="m 4.6063281,-2.1679062 c 0.2109375,0 0.3164063,0 0.3164063,-0.2695313 0,-0.3164062 -0.058594,-1.0429687 -0.5625,-1.5351562 -0.3632813,-0.3632813 -0.890625,-0.5390625 -1.5820313,-0.5390625 -1.59375,0 -2.46093747,1.0195312 -2.46093747,2.2734375 0,1.33593745 0.99609377,2.29687495 2.60156247,2.29687495 1.5703125,0 2.0039063,-1.0546875 2.0039063,-1.21874995 0,-0.1875 -0.1875,-0.1875 -0.234375,-0.1875 -0.1757813,0 -0.1992188,0.046875 -0.2578125,0.2109375 -0.2109375,0.4804687 -0.7734375,0.79687495 -1.4179688,0.79687495 -1.40625,0 -1.4179687,-1.32421875 -1.4179687,-1.82812495 z m -3.0117187,-0.328125 c 0.023437,-0.3984375 0.035156,-0.8085938 0.234375,-1.1367188 0.2695312,-0.3984375 0.6679687,-0.515625 0.9492187,-0.515625 1.171875,0 1.1835938,1.3007813 1.1953125,1.6523438 z m 0,0"
         style="fill:#000000;fill-opacity:1;fill-rule:nonzero;stroke:none" />
      <path
         id="path115"
         d="M 9.2821094,-0.09954687 H 8.8367969 c -0.011719,0.08203125 -0.070312,0.5859375 -0.1992188,0.609375 -0.140625,0.0234375 -0.5625,0.0234375 -0.7265625,0.0234375 H 6.9617969 c 0.3867187,-0.28125 0.7734375,-0.5625 1.171875,-0.8203125 0.5742187,-0.36328125 1.1484375,-0.73828123 1.1484375,-1.42968753 0,-0.84375 -0.7851563,-1.359375 -1.8984375,-1.359375 -0.9492188,0 -1.6640625,0.3632813 -1.6640625,1.03125 0,0.3984375 0.328125,0.5507813 0.5390625,0.5507813 0.2578125,0 0.5507812,-0.1757813 0.5507812,-0.5507813 0,-0.328125 -0.2578125,-0.46875 -0.28125,-0.4804687 0.2460938,-0.1523438 0.5742188,-0.1640625 0.65625,-0.1640625 0.5859375,0 1.0546875,0.375 1.0546875,0.9726562 0,0.5390625 -0.3632812,0.98437503 -0.7617187,1.34765628 L 5.8133594,1.0957656 c -0.082031,0.082031 -0.09375,0.09375 -0.09375,0.234375 v 0.1640625 h 3.328125 z m 0,0"
         style="fill:#000000;fill-opacity:1;fill-rule:nonzero;stroke:none" />
    </g>
    <path
       id="path116"
       d="m 95.32167,149.51807 -20.6463,41.29098"
       style="fill:none;stroke:#000000;stroke-width:0.3985;stroke-linecap:butt;stroke-linejoin:miter;stroke-miterlimit:10;stroke-dasharray:none;stroke-opacity:1"
       transform="matrix(1.3333333,0,0,-1.3333333,-25.021333,268.99467)" />
    <path
       id="path117"
       d="M 3.7613,0 C 3.2994,0.1127 1.26901,0.75136 0,1.44638 V -1.44638 C 1.26901,-0.75136 3.2994,-0.1127 3.7613,0 Z"
       style="fill:#000000;fill-opacity:1;fill-rule:nonzero;stroke:#000000;stroke-width:0.3985;stroke-linecap:butt;stroke-linejoin:miter;stroke-miterlimit:10;stroke-dasharray:none;stroke-opacity:1"
       transform="matrix(-0.59626667,-1.1925067,-1.1925067,0.59626667,74.545827,14.582613)" />
    <g
       id="g117"
       aria-label="e&#10;3"
       transform="matrix(1.3333333,0,0,1.3333333,91.636,41.336)">
      <path
         id="path118"
         d="m 4.6060078,-2.1680156 c 0.2109375,0 0.3164063,0 0.3164063,-0.2695313 0,-0.3164062 -0.058594,-1.0429687 -0.5625,-1.5351562 -0.3632813,-0.3632813 -0.890625,-0.5390625 -1.5820313,-0.5390625 -1.59375,0 -2.46093749,1.0195312 -2.46093749,2.2734375 0,1.33593748 0.99609379,2.29687498 2.60156249,2.29687498 1.5703125,0 2.0039063,-1.0546875 2.0039063,-1.21874998 0,-0.1875 -0.1875,-0.1875 -0.234375,-0.1875 -0.1757813,0 -0.1992188,0.046875 -0.2578125,0.2109375 -0.2109375,0.48046873 -0.7734375,0.79687498 -1.4179688,0.79687498 -1.40625,0 -1.4179687,-1.32421878 -1.4179687,-1.82812498 z m -3.0117187,-0.328125 c 0.023437,-0.3984375 0.035156,-0.8085938 0.234375,-1.1367188 0.2695312,-0.3984375 0.6679687,-0.515625 0.9492187,-0.515625 1.171875,0 1.1835938,1.3007813 1.1953125,1.6523438 z m 0,0"
         style="fill:#000000;fill-opacity:1;fill-rule:nonzero;stroke:none" />
      <path
         id="path119"
         d="m 7.3599141,-0.767625 c 0.8203125,0 0.8554687,0.62109375 0.8554687,0.99609375 0,0.29296875 0,0.99609375 -0.8320312,0.99609375 -0.1875,0 -0.6210938,-0.035156 -0.9257813,-0.2226562 0.140625,-0.0703125 0.328125,-0.2226563 0.328125,-0.5273438 0,-0.31640625 -0.234375,-0.5625 -0.5625,-0.5625 -0.3515625,0 -0.5742187,0.24609375 -0.5742187,0.57421875 0,0.70312505 0.7734375,1.08984375 1.7578125,1.08984375 1.4648437,0 1.9453125,-0.76171875 1.9453125,-1.34765625 0,-0.5390625 -0.421875,-1.01953125 -1.21875,-1.18359375 0.5039062,-0.1875 0.9726562,-0.5507812 0.9726562,-1.1367187 0,-0.5390625 -0.5625,-0.984375 -1.6757812,-0.984375 -0.9492188,0 -1.5351563,0.46875 -1.5351563,1.0429687 0,0.3515625 0.2578125,0.5390625 0.5273438,0.5390625 0.3515625,0 0.5273437,-0.2578125 0.5273437,-0.5273437 0,-0.3515625 -0.28125,-0.4804688 -0.3515625,-0.5039063 0.2929688,-0.2109375 0.65625,-0.234375 0.796875,-0.234375 0.6914063,0 0.6914063,0.4570313 0.6914063,0.6445313 0,0.328125 -0.140625,0.9609375 -0.84375,0.9960937 -0.1757813,0.011719 -0.3515625,0.023437 -0.3867188,0.035156 -0.09375,0.023437 -0.09375,0.1054687 -0.09375,0.1523437 0,0.1640625 0.09375,0.1640625 0.2226563,0.1640625 z m 0,0"
         style="fill:#000000;fill-opacity:1;fill-rule:nonzero;stroke:none" />
    </g>
    <path
       id="path120"
       d="M 91.13338,138.50192 36.1215,116.49652"
       style="fill:none;stroke:#000000;stroke-width:0.3985;stroke-linecap:butt;stroke-linejoin:miter;stroke-miterlimit:10;stroke-dasharray:none;stroke-opacity:1"
       transform="matrix(1.3333333,0,0,-1.3333333,-25.021333,268.99467)" />
    <path
       id="path121"
       d="M 3.7613,0 C 3.2994,0.1127 1.26901,0.75136 0,1.44638 V -1.44638 C 1.26901,-0.75136 3.2994,-0.1127 3.7613,0 Z"
       style="fill:#000000;fill-opacity:1;fill-rule:nonzero;stroke:#000000;stroke-width:0.3985;stroke-linecap:butt;stroke-linejoin:miter;stroke-miterlimit:10;stroke-dasharray:none;stroke-opacity:1"
       transform="matrix(-1.23792,0.49516,0.49516,1.23792,23.140667,113.66597)" />
    <g
       id="g121"
       aria-label="e&#10;4"
       transform="matrix(1.3333333,0,0,1.3333333,50.136,93.446667)">
      <path
         id="path122"
         d="m 4.6060078,-2.1689844 c 0.2109375,0 0.3164063,0 0.3164063,-0.2695312 0,-0.3164063 -0.058594,-1.0429688 -0.5625,-1.5351563 -0.3632813,-0.3632812 -0.890625,-0.5390625 -1.5820313,-0.5390625 -1.59375,0 -2.46093749,1.0195313 -2.46093749,2.2734375 0,1.33593753 0.99609379,2.29687503 2.60156249,2.29687503 1.5703125,0 2.0039063,-1.0546875 2.0039063,-1.21875003 0,-0.1875 -0.1875,-0.1875 -0.234375,-0.1875 -0.1757813,0 -0.1992188,0.046875 -0.2578125,0.2109375 -0.2109375,0.48046878 -0.7734375,0.79687503 -1.4179688,0.79687503 -1.40625,0 -1.4179687,-1.32421873 -1.4179687,-1.82812503 z m -3.0117187,-0.328125 c 0.023437,-0.3984375 0.035156,-0.8085937 0.234375,-1.1367187 0.2695312,-0.3984375 0.6679687,-0.515625 0.9492187,-0.515625 1.171875,0 1.1835938,1.3007812 1.1953125,1.6523437 z m 0,0"
         style="fill:#000000;fill-opacity:1;fill-rule:nonzero;stroke:none" />
      <path
         id="path123"
         d="M 9.4810078,0.41792969 V 0.03121094 H 8.7192891 V -2.8750391 c 0,-0.2109375 -0.035156,-0.2460937 -0.2460938,-0.2460937 H 8.3677266 c -0.1289063,0 -0.1875,0 -0.28125,0.1054687 L 5.5317891,0.03121094 V 0.41792969 H 7.7583516 V 1.1093359 H 6.8911641 v 0.3867188 c 0.3515625,-0.023437 0.9726562,-0.023437 1.3359375,-0.023437 0.1523437,0 1.078125,0.011719 1.2539062,0.023437 V 1.1093359 H 8.7192891 V 0.41792969 Z M 7.8521016,-2.1601953 V 0.03121094 H 6.0122578 Z m 0,0"
         style="fill:#000000;fill-opacity:1;fill-rule:nonzero;stroke:none" />
    </g>
  </g>
</svg>
