<?xml version="1.0" encoding="UTF-8" standalone="no"?>
<!-- Created with Inkscape (http://www.inkscape.org/) -->

<svg
   width="512"
   height="512"
   viewBox="0 0 512 512"
   version="1.1"
   id="svg1"
   xml:space="preserve"
   sodipodi:docname="uv_checker.svg"
   inkscape:version="1.4 (86a8ad7, 2024-10-11)"
   xmlns:inkscape="http://www.inkscape.org/namespaces/inkscape"
   xmlns:sodipodi="http://sodipodi.sourceforge.net/DTD/sodipodi-0.dtd"
   xmlns="http://www.w3.org/2000/svg"
   xmlns:svg="http://www.w3.org/2000/svg"><sodipodi:namedview
     id="namedview1"
     pagecolor="#ffffff"
     bordercolor="#000000"
     borderopacity="0.25"
     inkscape:showpageshadow="2"
     inkscape:pageopacity="0.0"
     inkscape:pagecheckerboard="0"
     inkscape:deskcolor="#d1d1d1"
     inkscape:document-units="mm"
     inkscape:zoom="1.3375"
     inkscape:cx="298.69159"
     inkscape:cy="320.74766"
     inkscape:window-width="1920"
     inkscape:window-height="1058"
     inkscape:window-x="1913"
     inkscape:window-y="-6"
     inkscape:window-maximized="1"
     inkscape:current-layer="layer1" /><defs
     id="defs1" /><g
     inkscape:label="Layer 1"
     inkscape:groupmode="layer"
     id="layer1"><g
       id="g28"
       transform="scale(6.3999998)"><g
         id="g144"><g
           id="g71"><rect
             style="display:inline;fill:#404040;fill-opacity:1;stroke-width:1.96001"
             id="rect71"
             width="10"
             height="10"
             x="0"
             y="0" /><path
             id="path71"
             d="M 4.8730465,3.7714844 4.8749965,4.875 3.7714815,4.87695 v 0.25 l 1.103518,-0.00195 0.00195,1.1035156 h 0.25 L 5.1250035,5.125 6.2285195,5.12305 v -0.25 L 5.1250035,4.875 5.1230535,3.7714844 Z"
             style="fill:#de18ad;fill-opacity:1" /></g><g
           id="g72"
           transform="translate(10)"><rect
             style="display:inline;fill:#969696;fill-opacity:1;stroke-width:1.96001"
             id="rect72"
             width="10"
             height="10"
             x="0"
             y="0" /><path
             id="path72"
             d="M 4.8730465,3.7714844 4.8749965,4.875 3.7714815,4.87695 v 0.25 l 1.103518,-0.00195 0.00195,1.1035156 h 0.25 L 5.1250035,5.125 6.2285195,5.12305 v -0.25 L 5.1250035,4.875 5.1230535,3.7714844 Z"
             style="fill:#7f18e3;fill-opacity:1" /></g><g
           id="g73"
           transform="translate(10,10)"><rect
             style="display:inline;fill:#404040;fill-opacity:1;stroke-width:1.96001"
             id="rect73"
             width="10"
             height="10"
             x="0"
             y="0" /><path
             id="path73"
             d="M 4.8730465,3.7714844 4.8749965,4.875 3.7714815,4.87695 v 0.25 l 1.103518,-0.00195 0.00195,1.1035156 h 0.25 L 5.1250035,5.125 6.2285195,5.12305 v -0.25 L 5.1250035,4.875 5.1230535,3.7714844 Z"
             style="fill:#1948dc;fill-opacity:1" /></g><g
           id="g74"
           transform="translate(0,10)"><rect
             style="display:inline;fill:#969696;fill-opacity:1;stroke-width:1.96001"
             id="rect74"
             width="10"
             height="10"
             x="0"
             y="0" /><path
             id="path74"
             d="M 4.8730465,3.7714844 4.8749965,4.875 3.7714815,4.87695 v 0.25 l 1.103518,-0.00195 0.00195,1.1035156 h 0.25 L 5.1250035,5.125 6.2285195,5.12305 v -0.25 L 5.1250035,4.875 5.1230535,3.7714844 Z"
             style="fill:#7f18e3;fill-opacity:1" /></g></g><rect
         style="display:inline;fill:#404040;fill-opacity:1;stroke-width:1.96001"
         id="rect144"
         width="10"
         height="10"
         x="20"
         y="0" /><path
         id="path144"
         d="M 24.873046,3.7714844 24.875046,4.875 23.77153,4.87695 v 0.25 L 24.875,5.125 24.877,6.2285156 h 0.25 L 25.125003,5.125 26.228519,5.12305 v -0.25 l -1.103516,0.00195 -0.002,-1.1035156 z"
         style="fill:#1948dc;fill-opacity:1" /><rect
         style="display:inline;fill:#969696;fill-opacity:1;stroke-width:1.96001"
         id="rect145"
         width="10"
         height="10"
         x="30"
         y="0" /><path
         id="path145"
         d="M 34.873046,3.7714844 34.875046,4.875 33.77153,4.87695 v 0.25 L 34.875,5.125 34.877,6.2285156 h 0.25 L 35.125003,5.125 36.228519,5.12305 v -0.25 l -1.103516,0.00195 -0.002,-1.1035156 z"
         style="fill:#19e3e3;fill-opacity:1" /><rect
         style="display:inline;fill:#404040;fill-opacity:1;stroke-width:1.96001"
         id="rect146"
         width="10"
         height="10"
         x="30"
         y="10" /><path
         id="path146"
         d="m 34.873046,13.771484 0.002,1.103516 -1.103516,0.002 v 0.25 l 1.103519,-0.002 0.002,1.103516 h 0.25 l -0.0019,-1.103516 1.103516,-0.002 v -0.25 l -1.103516,0.002 -0.002,-1.103516 z"
         style="fill:#18e04a;fill-opacity:1" /><rect
         style="display:inline;fill:#969696;fill-opacity:1;stroke-width:1.96001"
         id="rect147"
         width="10"
         height="10"
         x="20"
         y="10" /><path
         id="path147"
         d="m 24.873046,13.771484 0.002,1.103516 -1.103516,0.002 v 0.25 l 1.103519,-0.002 0.002,1.103516 h 0.25 l -0.0019,-1.103516 1.103516,-0.002 v -0.25 l -1.103516,0.002 -0.002,-1.103516 z"
         style="fill:#19e3e3;fill-opacity:1" /><rect
         style="display:inline;fill:#404040;fill-opacity:1;stroke-width:1.96001"
         id="rect149"
         width="10"
         height="10"
         x="0"
         y="20" /><path
         id="path149"
         d="m 4.8730465,23.771484 0.00195,1.103516 -1.103515,0.002 v 0.25 l 1.103518,-0.002 0.00195,1.103516 h 0.25 L 5.1249995,25.125 6.2285155,25.123 v -0.25 l -1.103516,0.002 -0.00195,-1.103516 z"
         style="fill:#1948dc;fill-opacity:1" /><rect
         style="display:inline;fill:#969696;fill-opacity:1;stroke-width:1.96001"
         id="rect150"
         width="10"
         height="10"
         x="10"
         y="20" /><path
         id="path150"
         d="m 14.873047,23.771484 0.002,1.103516 -1.103515,0.002 v 0.25 l 1.103518,-0.002 0.002,1.103516 h 0.25 L 15.12515,25.125 16.228665,25.123 v -0.25 l -1.103515,0.002 -0.002,-1.103516 z"
         style="fill:#19e3e3;fill-opacity:1" /><rect
         style="display:inline;fill:#404040;fill-opacity:1;stroke-width:1.96001"
         id="rect151"
         width="10"
         height="10"
         x="10"
         y="30" /><path
         id="path151"
         d="m 14.873047,33.771484 0.002,1.103516 -1.103515,0.002 v 0.25 l 1.103518,-0.002 0.002,1.103516 h 0.25 L 15.12515,35.125 16.228665,35.123 v -0.25 l -1.103515,0.002 -0.002,-1.103516 z"
         style="fill:#18e04a;fill-opacity:1" /><rect
         style="display:inline;fill:#969696;fill-opacity:1;stroke-width:1.96001"
         id="rect152"
         width="10"
         height="10"
         x="0"
         y="30" /><path
         id="path152"
         d="m 4.8730465,33.771484 0.00195,1.103516 -1.103515,0.002 v 0.25 l 1.103518,-0.002 0.00195,1.103516 h 0.25 L 5.1249995,35.125 6.2285155,35.123 v -0.25 l -1.103516,0.002 -0.00195,-1.103516 z"
         style="fill:#19e3e3;fill-opacity:1" /><rect
         style="display:inline;fill:#404040;fill-opacity:1;stroke-width:1.96001"
         id="rect154"
         width="10"
         height="10"
         x="20"
         y="20" /><path
         id="path154"
         d="m 24.873046,23.771484 0.002,1.103516 -1.103516,0.002 v 0.25 l 1.103519,-0.002 0.002,1.103516 h 0.25 l -0.0019,-1.103516 1.103516,-0.002 v -0.25 l -1.103516,0.002 -0.002,-1.103516 z"
         style="fill:#18e04a;fill-opacity:1" /><rect
         style="display:inline;fill:#969696;fill-opacity:1;stroke-width:1.96001"
         id="rect155"
         width="10"
         height="10"
         x="30"
         y="20" /><path
         id="path155"
         d="m 34.873046,23.771484 0.002,1.103516 -1.103516,0.002 v 0.25 l 1.103519,-0.002 0.002,1.103516 h 0.25 l -0.0019,-1.103516 1.103516,-0.002 v -0.25 l -1.103516,0.002 -0.002,-1.103516 z"
         style="fill:#80e21b;fill-opacity:1" /><rect
         style="display:inline;fill:#404040;fill-opacity:1;stroke-width:1.96001"
         id="rect156"
         width="10"
         height="10"
         x="30"
         y="30" /><path
         id="path156"
         d="m 34.873046,33.771484 0.002,1.103516 -1.103516,0.002 v 0.25 l 1.103519,-0.002 0.002,1.103516 h 0.25 l -0.0019,-1.103516 1.103516,-0.002 v -0.25 l -1.103516,0.002 -0.002,-1.103516 z"
         style="fill:#dfad16;fill-opacity:1" /><rect
         style="display:inline;fill:#969696;fill-opacity:1;stroke-width:1.96001"
         id="rect157"
         width="10"
         height="10"
         x="20"
         y="30" /><path
         id="path157"
         d="m 24.873046,33.771484 0.002,1.103516 -1.103516,0.002 v 0.25 l 1.103519,-0.002 0.002,1.103516 h 0.25 l -0.0019,-1.103516 1.103516,-0.002 v -0.25 l -1.103516,0.002 -0.002,-1.103516 z"
         style="fill:#80e21b;fill-opacity:1" /><rect
         style="display:inline;fill:#404040;fill-opacity:1;stroke-width:1.96001"
         id="rect160"
         width="10"
         height="10"
         x="40"
         y="0" /><path
         id="path160"
         d="M 44.873046,3.7714844 44.875046,4.875 43.77153,4.87695 v 0.25 L 44.875,5.125 44.877,6.2285156 h 0.25 L 45.125003,5.125 46.228519,5.12305 v -0.25 l -1.103516,0.00195 -0.002,-1.1035156 z"
         style="fill:#18e04a;fill-opacity:1" /><rect
         style="display:inline;fill:#969696;fill-opacity:1;stroke-width:1.96001"
         id="rect161"
         width="10"
         height="10"
         x="50"
         y="0" /><path
         id="path161"
         d="M 54.873046,3.7714844 54.875046,4.875 53.77153,4.87695 v 0.25 L 54.875,5.125 54.877,6.2285156 h 0.25 L 55.125003,5.125 56.228519,5.12305 v -0.25 l -1.103516,0.00195 -0.002,-1.1035156 z"
         style="fill:#80e21b;fill-opacity:1" /><rect
         style="display:inline;fill:#404040;fill-opacity:1;stroke-width:1.96001"
         id="rect162"
         width="10"
         height="10"
         x="50"
         y="10" /><path
         id="path162"
         d="m 54.873046,13.771484 0.002,1.103516 -1.103516,0.002 v 0.25 l 1.103519,-0.002 0.002,1.103516 h 0.25 l -0.0019,-1.103516 1.103516,-0.002 v -0.25 l -1.103516,0.002 -0.002,-1.103516 z"
         style="fill:#dfad16;fill-opacity:1" /><rect
         style="display:inline;fill:#969696;fill-opacity:1;stroke-width:1.96001"
         id="rect163"
         width="10"
         height="10"
         x="40"
         y="10" /><path
         id="path163"
         d="m 44.873046,13.771484 0.002,1.103516 -1.103516,0.002 v 0.25 l 1.103519,-0.002 0.002,1.103516 h 0.25 l -0.0019,-1.103516 1.103516,-0.002 v -0.25 l -1.103516,0.002 -0.002,-1.103516 z"
         style="fill:#80e21b;fill-opacity:1" /><rect
         style="display:inline;fill:#404040;fill-opacity:1;stroke-width:1.96001"
         id="rect165"
         width="10"
         height="10"
         x="60"
         y="0" /><path
         id="path165"
         d="M 64.873046,3.7714844 64.874996,4.875 63.771481,4.87695 v 0.25 L 64.875,5.125 64.8769,6.2285156 h 0.25 L 65.125004,5.125 66.22852,5.12305 v -0.25 l -1.103516,0.00195 -0.002,-1.1035156 z"
         style="fill:#dfad16;fill-opacity:1" /><rect
         style="display:inline;fill:#969696;fill-opacity:1;stroke-width:1.96001"
         id="rect166"
         width="10"
         height="10"
         x="70"
         y="0" /><path
         id="path166"
         d="M 74.873046,3.7714844 74.874996,4.875 73.771481,4.87695 v 0.25 L 74.875,5.125 74.8769,6.2285156 h 0.25 L 75.125004,5.125 76.22852,5.12305 v -0.25 l -1.103516,0.00195 -0.002,-1.1035156 z"
         style="fill:#e21a1a;fill-opacity:1" /><rect
         style="display:inline;fill:#969696;fill-opacity:1;stroke-width:1.96001"
         id="rect168"
         width="10"
         height="10"
         x="60"
         y="10" /><path
         id="path168"
         d="m 64.873046,13.771484 0.0019,1.103516 -1.103515,0.002 v 0.25 l 1.103519,-0.002 0.0019,1.103516 h 0.25 L 65.12495,15.125 66.228466,15.123 v -0.25 l -1.103516,0.002 -0.002,-1.103516 z"
         style="fill:#e21a1a;fill-opacity:1" /><rect
         style="display:inline;fill:#404040;fill-opacity:1;stroke-width:1.96001"
         id="rect170"
         width="10"
         height="10"
         x="40"
         y="20" /><path
         id="path170"
         d="m 44.873046,23.771484 0.002,1.103516 -1.103516,0.002 v 0.25 l 1.103519,-0.002 0.002,1.103516 h 0.25 l -0.0019,-1.103516 1.103516,-0.002 v -0.25 l -1.103516,0.002 -0.002,-1.103516 z"
         style="fill:#dfad16;fill-opacity:1" /><rect
         style="display:inline;fill:#969696;fill-opacity:1;stroke-width:1.96001"
         id="rect171"
         width="10"
         height="10"
         x="50"
         y="20" /><path
         id="path171"
         d="m 54.873046,23.771484 0.002,1.103516 -1.103516,0.002 v 0.25 l 1.103519,-0.002 0.002,1.103516 h 0.25 l -0.0019,-1.103516 1.103516,-0.002 v -0.25 l -1.103516,0.002 -0.002,-1.103516 z"
         style="fill:#e21a1a;fill-opacity:1" /><rect
         style="display:inline;fill:#969696;fill-opacity:1;stroke-width:1.96001"
         id="rect173"
         width="10"
         height="10"
         x="40"
         y="30" /><path
         id="path173"
         d="m 44.873046,33.771484 0.002,1.103516 -1.103516,0.002 v 0.25 l 1.103519,-0.002 0.002,1.103516 h 0.25 l -0.0019,-1.103516 1.103516,-0.002 v -0.25 l -1.103516,0.002 -0.002,-1.103516 z"
         style="fill:#e21a1a;fill-opacity:1" /><rect
         style="display:inline;fill:#404040;fill-opacity:1;stroke-width:1.96001"
         id="rect181"
         width="10"
         height="10"
         x="0"
         y="40" /><path
         id="path181"
         d="m 4.8730465,43.771484 0.00195,1.103516 -1.103515,0.002 v 0.25 l 1.103518,-0.002 0.00195,1.103516 h 0.25 L 5.1249995,45.125 6.2285155,45.123 v -0.25 l -1.103516,0.002 -0.00195,-1.103516 z"
         style="fill:#18e04a;fill-opacity:1" /><rect
         style="display:inline;fill:#969696;fill-opacity:1;stroke-width:1.96001"
         id="rect182"
         width="10"
         height="10"
         x="10"
         y="40" /><path
         id="path182"
         d="m 14.873047,43.771484 0.002,1.103516 -1.103515,0.002 v 0.25 l 1.103518,-0.002 0.002,1.103516 h 0.25 L 15.12515,45.125 16.228665,45.123 v -0.25 l -1.103515,0.002 -0.002,-1.103516 z"
         style="fill:#80e21b;fill-opacity:1" /><rect
         style="display:inline;fill:#404040;fill-opacity:1;stroke-width:1.96001"
         id="rect183"
         width="10"
         height="10"
         x="10"
         y="50" /><path
         id="path183"
         d="m 14.873047,53.771484 0.002,1.103516 -1.103515,0.002 v 0.25 l 1.103518,-0.002 0.002,1.103516 h 0.25 L 15.12515,55.125 16.228665,55.123 v -0.25 l -1.103515,0.002 -0.002,-1.103516 z"
         style="fill:#dfad16;fill-opacity:1" /><rect
         style="display:inline;fill:#969696;fill-opacity:1;stroke-width:1.96001"
         id="rect184"
         width="10"
         height="10"
         x="0"
         y="50" /><path
         id="path184"
         d="m 4.8730465,53.771484 0.00195,1.103516 -1.103515,0.002 v 0.25 l 1.103518,-0.002 0.00195,1.103516 h 0.25 L 5.1249995,55.125 6.2285155,55.123 v -0.25 l -1.103516,0.002 -0.00195,-1.103516 z"
         style="fill:#80e21b;fill-opacity:1" /><rect
         style="display:inline;fill:#404040;fill-opacity:1;stroke-width:1.96001"
         id="rect186"
         width="10"
         height="10"
         x="20"
         y="40" /><path
         id="path186"
         d="m 24.873046,43.771484 0.002,1.103516 -1.103516,0.002 v 0.25 l 1.103519,-0.002 0.002,1.103516 h 0.25 l -0.0019,-1.103516 1.103516,-0.002 v -0.25 l -1.103516,0.002 -0.002,-1.103516 z"
         style="fill:#dfad16;fill-opacity:1" /><rect
         style="display:inline;fill:#969696;fill-opacity:1;stroke-width:1.96001"
         id="rect187"
         width="10"
         height="10"
         x="30"
         y="40" /><path
         id="path187"
         d="m 34.873046,43.771484 0.002,1.103516 -1.103516,0.002 v 0.25 l 1.103519,-0.002 0.002,1.103516 h 0.25 l -0.0019,-1.103516 1.103516,-0.002 v -0.25 l -1.103516,0.002 -0.002,-1.103516 z"
         style="fill:#e21a1a;fill-opacity:1" /><rect
         style="display:inline;fill:#969696;fill-opacity:1;stroke-width:1.96001"
         id="rect189"
         width="10"
         height="10"
         x="20"
         y="50" /><path
         id="path189"
         d="m 24.873046,53.771484 0.002,1.103516 -1.103516,0.002 v 0.25 l 1.103519,-0.002 0.002,1.103516 h 0.25 l -0.0019,-1.103516 1.103516,-0.002 v -0.25 l -1.103516,0.002 -0.002,-1.103516 z"
         style="fill:#e21a1a;fill-opacity:1" /><rect
         style="display:inline;fill:#404040;fill-opacity:1;stroke-width:1.96001"
         id="rect191"
         width="10"
         height="10"
         x="0"
         y="60" /><path
         id="path191"
         d="m 4.8730465,63.771484 0.00195,1.103516 -1.103515,0.0019 v 0.25 l 1.103518,-0.0019 0.00195,1.103516 h 0.25 L 5.1249995,65.125 6.2285155,65.1231 v -0.25 l -1.103516,0.0019 -0.00195,-1.103516 z"
         style="fill:#dfad16;fill-opacity:1" /><rect
         style="display:inline;fill:#969696;fill-opacity:1;stroke-width:1.96001"
         id="rect192"
         width="10"
         height="10"
         x="10"
         y="60" /><path
         id="path192"
         d="m 14.873047,63.771484 0.002,1.103516 -1.103515,0.0019 v 0.25 L 14.875,65.125 l 0.002,1.103516 h 0.25 L 15.1251,65.125 16.228615,65.1231 v -0.25 L 15.1251,64.875 15.1231,63.771484 Z"
         style="fill:#e21a1a;fill-opacity:1" /><rect
         style="display:inline;fill:#969696;fill-opacity:1;stroke-width:1.96001"
         id="rect194"
         width="10"
         height="10"
         x="0"
         y="70" /><path
         id="path194"
         d="m 4.8730465,73.771484 0.00195,1.103516 -1.103515,0.0019 v 0.25 l 1.103518,-0.0019 0.00195,1.103516 h 0.25 L 5.1249995,75.125 6.2285155,75.1231 v -0.25 l -1.103516,0.0019 -0.00195,-1.103516 z"
         style="fill:#e21a1a;fill-opacity:1" /><g
         id="g5"
         transform="rotate(180,40.000001,40.000002)"><g
           id="g1"><rect
             style="display:inline;fill:#404040;fill-opacity:1;stroke-width:1.96001"
             id="rect1"
             width="10"
             height="10"
             x="0"
             y="0" /><path
             id="path1"
             d="M 4.8730465,3.7714844 4.8749965,4.875 3.7714815,4.87695 v 0.25 l 1.103518,-0.00195 0.00195,1.1035156 h 0.25 L 5.1250035,5.125 6.2285195,5.12305 v -0.25 L 5.1250035,4.875 5.1230535,3.7714844 Z"
             style="fill:#de18ad;fill-opacity:1" /></g><g
           id="g2"
           transform="translate(10)"><rect
             style="display:inline;fill:#969696;fill-opacity:1;stroke-width:1.96001"
             id="rect2"
             width="10"
             height="10"
             x="0"
             y="0" /><path
             id="path2"
             d="M 4.8730465,3.7714844 4.8749965,4.875 3.7714815,4.87695 v 0.25 l 1.103518,-0.00195 0.00195,1.1035156 h 0.25 L 5.1250035,5.125 6.2285195,5.12305 v -0.25 L 5.1250035,4.875 5.1230535,3.7714844 Z"
             style="fill:#7f18e3;fill-opacity:1" /></g><g
           id="g3"
           transform="translate(10,10)"><rect
             style="display:inline;fill:#404040;fill-opacity:1;stroke-width:1.96001"
             id="rect3"
             width="10"
             height="10"
             x="0"
             y="0" /><path
             id="path3"
             d="M 4.8730465,3.7714844 4.8749965,4.875 3.7714815,4.87695 v 0.25 l 1.103518,-0.00195 0.00195,1.1035156 h 0.25 L 5.1250035,5.125 6.2285195,5.12305 v -0.25 L 5.1250035,4.875 5.1230535,3.7714844 Z"
             style="fill:#1948dc;fill-opacity:1" /></g><g
           id="g4"
           transform="translate(0,10)"><rect
             style="display:inline;fill:#969696;fill-opacity:1;stroke-width:1.96001"
             id="rect4"
             width="10"
             height="10"
             x="0"
             y="0" /><path
             id="path4"
             d="M 4.8730465,3.7714844 4.8749965,4.875 3.7714815,4.87695 v 0.25 l 1.103518,-0.00195 0.00195,1.1035156 h 0.25 L 5.1250035,5.125 6.2285195,5.12305 v -0.25 L 5.1250035,4.875 5.1230535,3.7714844 Z"
             style="fill:#7f18e3;fill-opacity:1" /></g></g><rect
         style="display:inline;fill:#404040;fill-opacity:1;stroke-width:1.96001"
         id="rect5"
         width="10"
         height="10"
         x="-60.000004"
         y="-80.000008"
         transform="scale(-1)" /><path
         id="path5"
         d="m 55.126956,76.228519 -0.002,-1.10352 1.103516,-0.002 v -0.25 l -1.10347,0.002 -0.002,-1.10351 h -0.25 l 0.002,1.10351 -1.103516,0.002 v 0.25 l 1.103516,-0.002 0.002,1.10352 z"
         style="fill:#1948dc;fill-opacity:1" /><rect
         style="display:inline;fill:#969696;fill-opacity:1;stroke-width:1.96001"
         id="rect6"
         width="10"
         height="10"
         x="-50.000004"
         y="-80.000008"
         transform="scale(-1)" /><path
         id="path6"
         d="m 45.126956,76.228519 -0.002,-1.10352 1.103516,-0.002 v -0.25 l -1.10347,0.002 -0.002,-1.10351 h -0.25 l 0.002,1.10351 -1.103516,0.002 v 0.25 l 1.103516,-0.002 0.002,1.10352 z"
         style="fill:#19e3e3;fill-opacity:1" /><rect
         style="display:inline;fill:#404040;fill-opacity:1;stroke-width:1.96001"
         id="rect7"
         width="10"
         height="10"
         x="-50.000004"
         y="-70.000008"
         transform="scale(-1)" /><path
         id="path7"
         d="m 45.126956,66.228519 -0.002,-1.10352 1.103516,-0.002 v -0.25 l -1.103519,0.002 -0.002,-1.10351 h -0.25 l 0.0019,1.10351 -1.103516,0.002 v 0.25 l 1.103516,-0.002 0.002,1.10352 z"
         style="fill:#18e04a;fill-opacity:1" /><rect
         style="display:inline;fill:#969696;fill-opacity:1;stroke-width:1.96001"
         id="rect8"
         width="10"
         height="10"
         x="-60.000004"
         y="-70.000008"
         transform="scale(-1)" /><path
         id="path8"
         d="m 55.126956,66.228519 -0.002,-1.10352 1.103516,-0.002 v -0.25 l -1.103519,0.002 -0.002,-1.10351 h -0.25 l 0.0019,1.10351 -1.103516,0.002 v 0.25 l 1.103516,-0.002 0.002,1.10352 z"
         style="fill:#19e3e3;fill-opacity:1" /><rect
         style="display:inline;fill:#404040;fill-opacity:1;stroke-width:1.96001"
         id="rect9"
         width="10"
         height="10"
         x="-80"
         y="-60.000008"
         transform="scale(-1)" /><path
         id="path9"
         d="m 75.126955,56.228519 -0.0019,-1.10352 1.103515,-0.002 v -0.25 l -1.103519,0.002 -0.0019,-1.10351 h -0.25 l 0.0019,1.10351 -1.103516,0.002 v 0.25 l 1.103516,-0.002 0.0019,1.10352 z"
         style="fill:#1948dc;fill-opacity:1" /><rect
         style="display:inline;fill:#969696;fill-opacity:1;stroke-width:1.96001"
         id="rect10"
         width="10"
         height="10"
         x="-70"
         y="-60.000008"
         transform="scale(-1)" /><path
         id="path10"
         d="m 65.126955,56.228519 -0.002,-1.10352 1.103515,-0.002 v -0.25 l -1.103518,0.002 -0.002,-1.10351 h -0.25 l 0.0019,1.10351 -1.103515,0.002 v 0.25 l 1.103515,-0.002 0.002,1.10352 z"
         style="fill:#19e3e3;fill-opacity:1" /><rect
         style="display:inline;fill:#404040;fill-opacity:1;stroke-width:1.96001"
         id="rect11"
         width="10"
         height="10"
         x="-70"
         y="-50"
         transform="scale(-1)" /><path
         id="path11"
         d="m 65.126955,46.228519 -0.002,-1.10352 1.103515,-0.002 v -0.25 l -1.103518,0.002 -0.002,-1.10351 h -0.25 l 0.0019,1.10351 -1.103515,0.002 v 0.25 l 1.103515,-0.002 0.002,1.10352 z"
         style="fill:#18e04a;fill-opacity:1" /><rect
         style="display:inline;fill:#969696;fill-opacity:1;stroke-width:1.96001"
         id="rect12"
         width="10"
         height="10"
         x="-80"
         y="-50"
         transform="scale(-1)" /><path
         id="path12"
         d="m 75.126955,46.228519 -0.0019,-1.10352 1.103515,-0.002 v -0.25 l -1.103519,0.002 -0.0019,-1.10351 h -0.25 l 0.0019,1.10351 -1.103516,0.002 v 0.25 l 1.103516,-0.002 0.0019,1.10352 z"
         style="fill:#19e3e3;fill-opacity:1" /><rect
         style="display:inline;fill:#404040;fill-opacity:1;stroke-width:1.96001"
         id="rect13"
         width="10"
         height="10"
         x="-60.000004"
         y="-60.000008"
         transform="scale(-1)" /><path
         id="path13"
         d="m 55.126956,56.228519 -0.002,-1.10352 1.103516,-0.002 v -0.25 l -1.103519,0.002 -0.002,-1.10351 h -0.25 l 0.0019,1.10351 -1.103516,0.002 v 0.25 l 1.103516,-0.002 0.002,1.10352 z"
         style="fill:#18e04a;fill-opacity:1" /><rect
         style="display:inline;fill:#969696;fill-opacity:1;stroke-width:1.96001"
         id="rect14"
         width="10"
         height="10"
         x="-50.000004"
         y="-60.000008"
         transform="scale(-1)" /><path
         id="path14"
         d="m 45.126956,56.228519 -0.002,-1.10352 1.103516,-0.002 v -0.25 l -1.103519,0.002 -0.002,-1.10351 h -0.25 l 0.0019,1.10351 -1.103516,0.002 v 0.25 l 1.103516,-0.002 0.002,1.10352 z"
         style="fill:#80e21b;fill-opacity:1" /><rect
         style="display:inline;fill:#404040;fill-opacity:1;stroke-width:1.96001"
         id="rect15"
         width="10"
         height="10"
         x="-50.000004"
         y="-50"
         transform="scale(-1)" /><path
         id="path15"
         d="m 45.126956,46.228519 -0.002,-1.10352 1.103516,-0.002 v -0.25 l -1.103519,0.002 -0.002,-1.10351 h -0.25 l 0.0019,1.10351 -1.103516,0.002 v 0.25 l 1.103516,-0.002 0.002,1.10352 z"
         style="fill:#dfad16;fill-opacity:1" /><rect
         style="display:inline;fill:#969696;fill-opacity:1;stroke-width:1.96001"
         id="rect16"
         width="10"
         height="10"
         x="-60.000004"
         y="-50"
         transform="scale(-1)" /><path
         id="path16"
         d="m 55.126956,46.228519 -0.002,-1.10352 1.103516,-0.002 v -0.25 l -1.103519,0.002 -0.002,-1.10351 h -0.25 l 0.0019,1.10351 -1.103516,0.002 v 0.25 l 1.103516,-0.002 0.002,1.10352 z"
         style="fill:#80e21b;fill-opacity:1" /><rect
         style="display:inline;fill:#404040;fill-opacity:1;stroke-width:1.96001"
         id="rect17"
         width="10"
         height="10"
         x="-40.000004"
         y="-80.000008"
         transform="scale(-1)" /><path
         id="path17"
         d="m 35.126956,76.228519 -0.002,-1.10352 1.103516,-0.002 v -0.25 l -1.10347,0.002 -0.002,-1.10351 h -0.25 l 0.002,1.10351 -1.103516,0.002 v 0.25 l 1.103516,-0.002 0.002,1.10352 z"
         style="fill:#18e04a;fill-opacity:1" /><rect
         style="display:inline;fill:#969696;fill-opacity:1;stroke-width:1.96001"
         id="rect18"
         width="10"
         height="10"
         x="-30.000002"
         y="-80.000008"
         transform="scale(-1)" /><path
         id="path18"
         d="m 25.126956,76.228519 -0.002,-1.10352 1.103516,-0.002 v -0.25 l -1.10347,0.002 -0.002,-1.10351 h -0.25 l 0.002,1.10351 -1.103516,0.002 v 0.25 l 1.103516,-0.002 0.002,1.10352 z"
         style="fill:#80e21b;fill-opacity:1" /><rect
         style="display:inline;fill:#404040;fill-opacity:1;stroke-width:1.96001"
         id="rect19"
         width="10"
         height="10"
         x="-30.000002"
         y="-70.000008"
         transform="scale(-1)" /><path
         id="path19"
         d="m 25.126956,66.228519 -0.002,-1.10352 1.103516,-0.002 v -0.25 l -1.103519,0.002 -0.002,-1.10351 h -0.25 l 0.0019,1.10351 -1.103516,0.002 v 0.25 l 1.103516,-0.002 0.002,1.10352 z"
         style="fill:#dfad16;fill-opacity:1" /><rect
         style="display:inline;fill:#969696;fill-opacity:1;stroke-width:1.96001"
         id="rect20"
         width="10"
         height="10"
         x="-40.000004"
         y="-70.000008"
         transform="scale(-1)" /><path
         id="path20"
         d="m 35.126956,66.228519 -0.002,-1.10352 1.103516,-0.002 v -0.25 l -1.103519,0.002 -0.002,-1.10351 h -0.25 l 0.0019,1.10351 -1.103516,0.002 v 0.25 l 1.103516,-0.002 0.002,1.10352 z"
         style="fill:#80e21b;fill-opacity:1" /><rect
         style="display:inline;fill:#404040;fill-opacity:1;stroke-width:1.96001"
         id="rect21"
         width="10"
         height="10"
         x="-20.000002"
         y="-80.000008"
         transform="scale(-1)" /><path
         id="path21"
         d="m 15.126956,76.228519 -0.0019,-1.10352 1.103515,-0.002 v -0.25 l -1.103569,0.002 -0.0019,-1.10351 h -0.25 l 0.0019,1.10351 -1.103516,0.002 v 0.25 l 1.103516,-0.002 0.002,1.10352 z"
         style="fill:#dfad16;fill-opacity:1" /><rect
         style="display:inline;fill:#404040;fill-opacity:1;stroke-width:1.96001"
         id="rect22"
         width="10"
         height="10"
         x="-40.000004"
         y="-60.000008"
         transform="scale(-1)" /><path
         id="path22"
         d="m 35.126956,56.228519 -0.002,-1.10352 1.103516,-0.002 v -0.25 l -1.103519,0.002 -0.002,-1.10351 h -0.25 l 0.0019,1.10351 -1.103516,0.002 v 0.25 l 1.103516,-0.002 0.002,1.10352 z"
         style="fill:#dfad16;fill-opacity:1" /><rect
         style="display:inline;fill:#404040;fill-opacity:1;stroke-width:1.96001"
         id="rect23"
         width="10"
         height="10"
         x="-80"
         y="-40"
         transform="scale(-1)" /><path
         id="path23"
         d="m 75.126955,36.228519 -0.0019,-1.10352 1.103515,-0.002 v -0.25 l -1.103519,0.002 -0.0019,-1.10351 h -0.25 l 0.0019,1.10351 -1.103516,0.002 v 0.25 l 1.103516,-0.002 0.0019,1.10352 z"
         style="fill:#18e04a;fill-opacity:1" /><rect
         style="display:inline;fill:#969696;fill-opacity:1;stroke-width:1.96001"
         id="rect24"
         width="10"
         height="10"
         x="-70"
         y="-40"
         transform="scale(-1)" /><path
         id="path24"
         d="m 65.126955,36.228519 -0.002,-1.10352 1.103515,-0.002 v -0.25 l -1.103518,0.002 -0.002,-1.10351 h -0.25 l 0.0019,1.10351 -1.103515,0.002 v 0.25 l 1.103515,-0.002 0.002,1.10352 z"
         style="fill:#80e21b;fill-opacity:1" /><rect
         style="display:inline;fill:#404040;fill-opacity:1;stroke-width:1.96001"
         id="rect25"
         width="10"
         height="10"
         x="-70"
         y="-30"
         transform="scale(-1)" /><path
         id="path25"
         d="m 65.126955,26.228519 -0.002,-1.10352 1.103515,-0.002 v -0.25 l -1.103518,0.002 -0.002,-1.103512 h -0.25 l 0.0019,1.103512 -1.103515,0.002 v 0.25 l 1.103515,-0.002 0.002,1.10352 z"
         style="fill:#dfad16;fill-opacity:1" /><rect
         style="display:inline;fill:#969696;fill-opacity:1;stroke-width:1.96001"
         id="rect26"
         width="10"
         height="10"
         x="-80"
         y="-30"
         transform="scale(-1)" /><path
         id="path26"
         d="m 75.126955,26.228519 -0.0019,-1.10352 1.103515,-0.002 v -0.25 l -1.103519,0.002 -0.0019,-1.103512 h -0.25 l 0.0019,1.103512 -1.103516,0.002 v 0.25 l 1.103516,-0.002 0.0019,1.10352 z"
         style="fill:#80e21b;fill-opacity:1" /><rect
         style="display:inline;fill:#404040;fill-opacity:1;stroke-width:1.96001"
         id="rect27"
         width="10"
         height="10"
         x="-60.000004"
         y="-40"
         transform="scale(-1)" /><path
         id="path27"
         d="m 55.126956,36.228519 -0.002,-1.10352 1.103516,-0.002 v -0.25 l -1.103519,0.002 -0.002,-1.10351 h -0.25 l 0.0019,1.10351 -1.103516,0.002 v 0.25 l 1.103516,-0.002 0.002,1.10352 z"
         style="fill:#dfad16;fill-opacity:1" /><rect
         style="display:inline;fill:#404040;fill-opacity:1;stroke-width:1.96001"
         id="rect28"
         width="10"
         height="10"
         x="-80"
         y="-20"
         transform="scale(-1)" /><path
         id="path28"
         d="m 75.126955,16.228519 -0.0019,-1.103516 1.103515,-0.0019 v -0.25 l -1.103519,0.0019 -0.0019,-1.103516 h -0.25 l 0.0019,1.103516 -1.103516,0.0019 v 0.25 l 1.103516,-0.0019 0.002,1.103516 z"
         style="fill:#dfad16;fill-opacity:1" /></g></g></svg>
