<?xml version="1.0" encoding="UTF-8" standalone="no"?>
<!-- Created with Inkscape (http://www.inkscape.org/) -->

<svg
   width="128"
   height="128"
   viewBox="0 0 128 128"
   version="1.1"
   id="svg2400"
   inkscape:version="1.2.2 (732a01da63, 2022-12-09)"
   sodipodi:docname="controller.svg"
   inkscape:export-filename="constraint.svg"
   inkscape:export-xdpi="96"
   inkscape:export-ydpi="96"
   xmlns:inkscape="http://www.inkscape.org/namespaces/inkscape"
   xmlns:sodipodi="http://sodipodi.sourceforge.net/DTD/sodipodi-0.dtd"
   xmlns="http://www.w3.org/2000/svg"
   xmlns:svg="http://www.w3.org/2000/svg">
  <sodipodi:namedview
     id="namedview2402"
     pagecolor="#ffffff"
     bordercolor="#999999"
     borderopacity="1"
     inkscape:showpageshadow="0"
     inkscape:pageopacity="0"
     inkscape:pagecheckerboard="0"
     inkscape:deskcolor="#d1d1d1"
     inkscape:document-units="px"
     showgrid="false"
     showborder="false"
     inkscape:zoom="3.3638608"
     inkscape:cx="-31.511411"
     inkscape:cy="69.711565"
     inkscape:window-width="1920"
     inkscape:window-height="1058"
     inkscape:window-x="1193"
     inkscape:window-y="-6"
     inkscape:window-maximized="1"
     inkscape:current-layer="svg2400" />
  <defs
     id="defs2397" />
  <g
     id="icon-controller">
    <g
       id="g14816"
       style="stroke-width:1.00663"
       transform="matrix(15.571643,0,0,16.227071,-3064.7964,-3111.753)">
      <path
         style="opacity:1;fill:#cccccc;fill-opacity:1;stroke:#000000;stroke-width:0.266337px;stroke-linecap:butt;stroke-linejoin:miter;stroke-opacity:1"
         d="M 203.76106,196.20786 Z"
         id="path14382" />
      <path
         id="path14379"
         style="opacity:1;fill:#cccccc;fill-opacity:1;stroke:none;stroke-width:0.503314;stroke-linecap:butt;stroke-linejoin:miter;stroke-dasharray:none;stroke-opacity:1"
         d="m 201.09832,191.76246 a 1.0616067,1.255934 0 0 0 -0.80047,0.42219 1.0616067,1.255934 0 0 0 -0.11524,0.18707 1.0616067,1.255934 0 0 0 -0.16485,-0.13539 1.0616067,1.255934 0 0 0 -0.55707,-0.15917 1.0616067,1.255934 0 0 0 -0.8878,0.64183 1.0616067,1.255934 0 0 0 -0.13384,0.5767 1.0616067,1.255934 0 0 0 -0.26923,-0.0419 1.0616067,1.255934 0 0 0 -1.06144,1.25573 1.0616067,1.255934 0 0 0 0.24702,0.80306 1.0616067,1.255934 0 0 0 -0.18294,0.7028 1.0616067,1.255934 0 0 0 1.06195,1.25573 1.0616067,1.255934 0 0 0 0.26872,-0.0419 1.0616067,1.255934 0 0 0 0.13384,0.5767 1.0616067,1.255934 0 0 0 1.44487,0.48266 1.0616067,1.255934 0 0 0 0.16537,-0.13642 1.0616067,1.255934 0 0 0 0.11472,0.1881 1.0616067,1.255934 0 0 0 1.49862,0.10542 1.0616067,1.255934 0 0 0 0.0899,-0.10697 1.0616067,1.255934 0 0 0 0.17932,0.15141 h 5.2e-4 a 1.0616067,1.255934 0 0 0 1.44435,-0.48266 1.0616067,1.255934 0 0 0 0.13488,-0.57619 1.0616067,1.255934 0 0 0 0.2682,0.0408 1.0616067,1.255934 0 0 0 1.06143,-1.25573 1.0616067,1.255934 0 0 0 -0.40566,-0.98599 1.0616067,1.255934 0 0 0 0.34159,-0.92191 1.0616067,1.255934 0 0 0 -1.06144,-1.25625 1.0616067,1.255934 0 0 0 -0.26872,0.0419 1.0616067,1.255934 0 0 0 -0.13435,-0.57671 1.0616067,1.255934 0 0 0 -0.96067,-0.64182 1.0616067,1.255934 0 0 0 -0.48421,0.15916 1.0616067,1.255934 0 0 0 -0.17983,0.15038 1.0616067,1.255934 0 0 0 -0.0894,-0.10594 1.0616067,1.255934 0 0 0 -0.69815,-0.31677 z m -0.0145,0.44338 a 1.0616067,1.255934 0 0 1 0.73432,0.31626 1.0616067,1.255934 0 0 1 0.32763,0.64389 1.0616067,1.255934 0 0 0 -0.11886,-0.74208 1.0616067,1.255934 0 0 1 1.38183,0.5209 1.0616067,1.255934 0 0 1 0.0806,0.21498 1.0616067,1.255934 0 0 0 -0.447,0.43149 1.0616067,1.255934 0 0 1 0.60616,-0.22479 1.0616067,1.255934 0 0 1 1.06144,1.25626 1.0616067,1.255934 0 0 1 -0.11731,0.57102 1.0616067,1.255934 0 0 0 -0.009,-0.008 1.0616067,1.255934 0 0 1 0.007,0.0129 1.0616067,1.255934 0 0 1 -0.0713,0.14004 1.0616067,1.255934 0 0 0 0.0977,-0.0915 1.0616067,1.255934 0 0 1 0.15709,0.65474 1.0616067,1.255934 0 0 1 -1.06143,1.25626 1.0616067,1.255934 0 0 1 -0.60616,-0.22479 1.0616067,1.255934 0 0 0 0.44648,0.43253 1.0616067,1.255934 0 0 1 -0.0796,0.21394 1.0616067,1.255934 0 0 1 -1.44488,0.48266 1.0616067,1.255934 0 0 1 -0.43614,-0.54622 1.0616067,1.255934 0 0 0 0.18086,0.58601 1.0616067,1.255934 0 0 1 -1.38906,-0.20516 1.0616067,1.255934 0 0 1 -0.25941,-0.68574 1.0616067,1.255934 0 0 0 0.0196,0.67386 1.0616067,1.255934 0 0 1 -1.4056,-0.50695 1.0616067,1.255934 0 0 1 -0.0791,-0.21291 1.0616067,1.255934 0 0 0 0.44545,-0.43356 1.0616067,1.255934 0 0 1 -0.60617,0.22479 1.0616067,1.255934 0 0 1 -1.06143,-1.25574 1.0616067,1.255934 0 0 1 0.1912,-0.71675 1.0616067,1.255934 0 0 0 -0.20412,0.22066 1.0616067,1.255934 0 0 1 -0.0512,-0.38137 1.0616067,1.255934 0 0 1 1.06144,-1.25574 1.0616067,1.255934 0 0 1 0.60616,0.22479 1.0616067,1.255934 0 0 0 -0.44493,-0.43356 1.0616067,1.255934 0 0 1 0.0785,-0.21291 1.0616067,1.255934 0 0 1 1.44436,-0.48317 1.0616067,1.255934 0 0 1 0.43667,0.54622 1.0616067,1.255934 0 0 0 -0.20309,-0.62322 1.0616067,1.255934 0 0 1 0.73122,-0.38034 z" />
      <path
         style="opacity:1;fill:#cccccc;fill-opacity:1;stroke:#000000;stroke-width:0.266337px;stroke-linecap:butt;stroke-linejoin:miter;stroke-opacity:1"
         d="M 203.83106,194.31714 Z"
         id="path14364" />
      <path
         id="path14503"
         style="opacity:1;fill:#cccccc;fill-opacity:1;stroke:none;stroke-width:0;stroke-linecap:butt;stroke-linejoin:miter;stroke-dasharray:none;stroke-opacity:1"
         d="m 199.41803,196.24122 a 1.134225,1.134225 0 0 1 -0.0309,-0.0326 1.134225,1.134225 0 0 1 0.0792,-1.60218 1.134225,1.134225 0 0 1 1.22707,-0.19253 1.134225,1.134225 0 0 0 -1.57117,-0.048 1.134225,1.134225 0 0 0 -0.0792,1.6022 1.134225,1.134225 0 0 0 0.37503,0.27315 z" />
      <path
         id="path14508"
         style="opacity:1;fill:#cccccc;fill-opacity:1;stroke:none;stroke-width:0;stroke-linecap:butt;stroke-linejoin:miter;stroke-dasharray:none;stroke-opacity:1"
         d="m 202.04824,194.20166 a 0.94661361,0.86372875 0 0 1 0.0372,-0.005 0.94661361,0.86372875 0 0 1 1.04211,0.76687 0.94661361,0.86372875 0 0 1 -0.47286,0.84171 0.94661361,0.86372875 0 0 0 0.80421,-0.94572 0.94661361,0.86372875 0 0 0 -1.04211,-0.76688 0.94661361,0.86372875 0 0 0 -0.36853,0.10847 z" />
      <path
         id="path14510"
         style="opacity:1;fill:#cccccc;fill-opacity:1;stroke:none;stroke-width:0;stroke-linecap:butt;stroke-linejoin:miter;stroke-dasharray:none;stroke-opacity:1"
         d="m 201.67097,196.73766 a 0.84426007,0.84426007 0 0 1 -0.0326,-0.008 0.84426007,0.84426007 0 0 1 -0.60892,-1.02711 0.84426007,0.84426007 0 0 1 0.68265,-0.62352 0.84426007,0.84426007 0 0 0 -0.99505,0.61554 0.84426007,0.84426007 0 0 0 0.60893,1.02712 0.84426007,0.84426007 0 0 0 0.345,0.0155 z" />
    </g>
    <path
       id="path14820"
       style="fill:#000000;fill-opacity:0;stroke:#cccccc;stroke-width:3.20027;stroke-linecap:butt;stroke-linejoin:miter;stroke-dasharray:none;stroke-opacity:1"
       d="M 9.9607622,80.894011 C 1.4011858,96.155409 0.61497353,99.266138 2.1866195,116.93206 c 0.8315257,9.3502 16.9726235,12.58994 19.7132325,5.89546 6.193933,-15.12963 4.088958,-10.98556 10.825407,-20.25674 -1.519793,-1.56753 -2.797602,-3.459448 -3.773944,-5.58487 -1.295561,-2.866999 -2.010766,-6.077525 -2.084109,-9.358314 -1.365633,0.446244 -2.771752,0.675046 -4.184411,0.679914 -4.924533,-0.01136 -9.588707,-2.729069 -12.7220328,-7.41285 z"
       sodipodi:nodetypes="cssccccsc" />
  </g>
</svg>
