<?xml version="1.0" encoding="UTF-8" standalone="no"?>
<!-- Created with Inkscape (http://www.inkscape.org/) -->

<svg
   width="128"
   height="128"
   viewBox="0 0 128 128"
   version="1.1"
   id="svg2400"
   inkscape:version="1.2.2 (732a01da63, 2022-12-09)"
   sodipodi:docname="logo.svg"
   inkscape:export-filename="constraint.svg"
   inkscape:export-xdpi="96"
   inkscape:export-ydpi="96"
   xmlns:inkscape="http://www.inkscape.org/namespaces/inkscape"
   xmlns:sodipodi="http://sodipodi.sourceforge.net/DTD/sodipodi-0.dtd"
   xmlns="http://www.w3.org/2000/svg"
   xmlns:svg="http://www.w3.org/2000/svg">
  <sodipodi:namedview
     id="namedview2402"
     pagecolor="#ffffff"
     bordercolor="#999999"
     borderopacity="1"
     inkscape:showpageshadow="0"
     inkscape:pageopacity="0"
     inkscape:pagecheckerboard="0"
     inkscape:deskcolor="#d1d1d1"
     inkscape:document-units="px"
     showgrid="false"
     showborder="false"
     inkscape:zoom="3.3638608"
     inkscape:cx="-32.403243"
     inkscape:cy="69.711565"
     inkscape:window-width="1920"
     inkscape:window-height="1058"
     inkscape:window-x="1193"
     inkscape:window-y="-6"
     inkscape:window-maximized="1"
     inkscape:current-layer="svg2400" />
  <defs
     id="defs2397">
    <inkscape:path-effect
       effect="perspective-envelope"
       up_left_point="31.950369,1e-06"
       up_right_point="95.943567,0.01328"
       down_left_point="0.006563,128"
       down_right_point="127.99344,128"
       id="path-effect12890"
       is_visible="true"
       lpeversion="1"
       deform_type="perspective"
       horizontal_mirror="false"
       vertical_mirror="false"
       overflow_perspective="false" />
  </defs>
  <g
     id="icon-logo"
     transform="translate(92.334267,47.148097)">
    <path
       id="path16700"
       style="fill:#ffd42a;fill-opacity:1;stroke:none;stroke-width:0.379822px;stroke-linecap:butt;stroke-linejoin:miter;stroke-opacity:1"
       d="m -52.714832,41.07075 c 6.559625,8.101531 16.425239,12.809867 26.849411,12.813786 4.496634,-0.0014 8.949776,-0.880431 13.109792,-2.587543 l -4.937682,-4.937696 c -4.160015,1.707113 -8.613157,2.586043 -13.109791,2.587543 -7.995013,-0.0097 -15.738563,-2.79552 -21.91173,-7.87609 z"
       sodipodi:nodetypes="cccccc" />
    <path
       style="fill:#ffd42a;fill-opacity:1;stroke:none;stroke-width:1.43555;stroke-linejoin:round"
       d="m -78.764536,-24.149581 c -8.779476,10.924017 -13.566716,24.51788342 -13.56973,38.532638 -5e-6,18.293658 7.985991,34.719754 20.658755,45.990365 A 61.531159,61.531159 0 0 1 -87.39658,19.320743 61.531159,61.531159 0 0 1 -73.826849,-19.2119 Z"
       id="path16702" />
    <path
       id="path16704"
       style="fill:#ffd42a;fill-opacity:1;stroke:none;stroke-width:1.43555;stroke-linejoin:round"
       d="M -4.2637893,-7.7527014 C 0.91925523,-1.5406674 3.758954,6.292744 3.7606908,14.383057 3.7592539,22.47337 0.91925523,30.306766 -4.2637893,36.518815 l 4.93767639,4.937681 A 34.563797,34.563797 0 0 0 8.698372,19.320743 34.563797,34.563797 0 0 0 0.67388709,-2.8150153 Z" />
    <path
       id="path16706"
       style="display:inline;fill:#ffd42a;fill-opacity:1;stroke:none;stroke-width:1.43555;stroke-linejoin:round"
       d="m -30.803102,-47.148102 c -10.556703,0.0077 -20.933852,2.7317 -30.133539,7.909495 -6.07615,5.16425 -9.116312,10.22871 -10.425076,14.96736 -1.56225,5.656457 -0.697605,11.083965 1.284125,16.0408037 1.742066,4.3573683 4.340185,8.21160115 6.705494,11.1639431 l 4.937681,4.9376861 c -2.365309,-2.9523565 -4.963418,-6.8065554 -6.705489,-11.1639431 -1.981735,-4.9568728 -2.846384,-10.3843178 -1.284125,-16.0408038 1.308774,-4.738669 4.348893,-9.803086 10.425076,-14.96736 a 61.531159,61.531159 0 0 1 30.133534,-7.909495 61.531159,61.531159 0 0 1 17.2485206,2.47849 l 0.00431,-0.0087 0.1290724,0.04548 a 61.531159,61.531159 0 0 1 5.9592011,2.086052 c -6.8102516,-8.086137 -19.6038061,-9.473303 -28.2787621,-9.538574 z" />
    <path
       style="fill:#ff6600;fill-opacity:1;stroke:none;stroke-width:1.43555;stroke-linejoin:round"
       d="M -73.826849,-19.2119 A 61.531159,61.531159 0 0 0 -87.39658,19.320743 61.531159,61.531159 0 0 0 -25.865421,80.851907 61.531159,61.531159 0 0 0 -2.5345581,76.227265 L -12.755629,51.296993 a 34.563797,34.563797 0 0 1 -13.109792,2.587543 34.563797,34.563797 0 0 1 -34.563803,-34.563793 34.563797,34.563797 0 0 1 0.130572,-2.664687 C -63.506226,13.340541 -68.67093,7.2115525 -71.804588,-0.62658534 -73.981717,-6.0721771 -75.17569,-12.481651 -73.826849,-19.2119 Z"
       id="path16708" />
    <path
       style="fill:#ff6600;fill-opacity:1;stroke:none;stroke-width:1.43555;stroke-linejoin:round"
       d="M 21.386056,-20.091721 0.67388709,-2.8150153 A 34.563797,34.563797 0 0 1 8.698372,19.320743 34.563797,34.563797 0 0 1 0.67388709,41.456496 L 21.359356,58.710188 A 61.531159,61.531159 0 0 0 35.665733,19.320743 61.531159,61.531159 0 0 0 21.386056,-20.091721 Z"
       id="path16710" />
    <path
       style="fill:#ff6600;fill-opacity:1;stroke:none;stroke-width:1.43555;stroke-linejoin:round"
       d="m -25.865421,-42.210416 a 61.531159,61.531159 0 0 0 -30.133534,7.909495 c -6.076188,5.164279 -9.116302,10.228686 -10.425076,14.96736 -1.562259,5.656491 -0.697615,11.0839261 1.284125,16.0408038 1.742076,4.3573925 4.340175,8.2115818 6.705489,11.1639431 a 34.563797,34.563797 0 0 1 32.568996,-23.1142409 34.563797,34.563797 0 0 1 13.109792,2.587538 l 10.2307175,-24.954006 a 61.531159,61.531159 0 0 0 -23.3405095,-4.600893 z"
       id="path16712" />
    <path
       style="fill:#ffd42a;fill-opacity:1;stroke:none;stroke-width:0.379822px;stroke-linecap:butt;stroke-linejoin:miter;stroke-opacity:1"
       d="M 0.67388709,-2.8150153 -4.2637893,-7.7527014 16.448375,-25.029407 l 4.937681,4.937681 z"
       id="path16714"
       sodipodi:nodetypes="ccccc" />
  </g>
</svg>
