<?xml version="1.0" encoding="UTF-8" standalone="no"?>
<!-- Created with Inkscape (http://www.inkscape.org/) -->

<svg
   width="128"
   height="128"
   viewBox="0 0 128 128"
   version="1.1"
   id="svg2400"
   inkscape:version="1.2.2 (732a01da63, 2022-12-09)"
   sodipodi:docname="zoomin.svg"
   inkscape:export-filename="constraint.svg"
   inkscape:export-xdpi="96"
   inkscape:export-ydpi="96"
   xmlns:inkscape="http://www.inkscape.org/namespaces/inkscape"
   xmlns:sodipodi="http://sodipodi.sourceforge.net/DTD/sodipodi-0.dtd"
   xmlns="http://www.w3.org/2000/svg"
   xmlns:svg="http://www.w3.org/2000/svg">
  <sodipodi:namedview
     id="namedview2402"
     pagecolor="#ffffff"
     bordercolor="#999999"
     borderopacity="1"
     inkscape:showpageshadow="0"
     inkscape:pageopacity="0"
     inkscape:pagecheckerboard="0"
     inkscape:deskcolor="#d1d1d1"
     inkscape:document-units="px"
     showgrid="false"
     showborder="false"
     inkscape:zoom="3.3638608"
     inkscape:cx="-32.403243"
     inkscape:cy="69.711565"
     inkscape:window-width="1920"
     inkscape:window-height="1058"
     inkscape:window-x="1193"
     inkscape:window-y="-6"
     inkscape:window-maximized="1"
     inkscape:current-layer="svg2400" />
  <defs
     id="defs2397">
    <inkscape:path-effect
       effect="perspective-envelope"
       up_left_point="31.950369,1e-06"
       up_right_point="95.943567,0.01328"
       down_left_point="0.006563,128"
       down_right_point="127.99344,128"
       id="path-effect12890"
       is_visible="true"
       lpeversion="1"
       deform_type="perspective"
       horizontal_mirror="false"
       vertical_mirror="false"
       overflow_perspective="false" />
  </defs>
  <g
     id="icon-zoomin"
     transform="matrix(4.2341283,0,0,4.2341283,-224.24482,-138.65245)">
    <path
       id="path16589"
       style="color:#000000;fill:#939393;fill-opacity:1;stroke-width:3.77953;stroke-linecap:round"
       d="m 60.72861,52.537062 -7.212888,7.212889 a 1.8897638,1.8897638 0 0 0 0,2.673826 1.8897638,1.8897638 0 0 0 2.671861,0 l 7.214854,-7.214815 a 11.338595,11.338595 0 0 1 -2.673827,-2.6719 z" />
    <path
       style="color:#000000;fill:#939393;fill-opacity:1;stroke-width:3.77953;stroke-linecap:round;stroke-dashoffset:0.982677;-inkscape-stroke:none"
       d="m 69.963168,32.746398 c -7.283415,0 -13.228347,5.944932 -13.228347,13.228346 0,7.283452 5.944932,13.228347 13.228347,13.228347 7.283452,0 13.228346,-5.944895 13.228346,-13.228347 0,-7.283414 -5.944894,-13.228346 -13.228346,-13.228346 z m 0,3.779527 c 5.240844,0 9.448819,4.208013 9.448819,9.448819 0,5.240844 -4.207975,9.448819 -9.448819,9.448819 -5.240807,0 -9.448819,-4.207975 -9.448819,-9.448819 0,-5.240806 4.208012,-9.448819 9.448819,-9.448819 z"
       id="circle16591" />
    <text
       xml:space="preserve"
       style="font-size:29.3306px;line-height:1.25;font-family:Bebas;-inkscape-font-specification:Bebas;fill:#cccccc;fill-opacity:1;stroke-width:0.999995"
       x="63.598427"
       y="56.00597"
       id="text17457"><tspan
         sodipodi:role="line"
         id="tspan17455"
         style="fill:#cccccc;fill-opacity:1;stroke-width:0.999995"
         x="63.598427"
         y="56.00597">+</tspan></text>
  </g>
</svg>
