<?xml version="1.0" encoding="UTF-8" standalone="no"?>
<!-- Created with Inkscape (http://www.inkscape.org/) -->

<svg
   width="128"
   height="128"
   viewBox="0 0 128 128"
   version="1.1"
   id="svg2400"
   inkscape:version="1.2.2 (732a01da63, 2022-12-09)"
   sodipodi:docname="coms.svg"
   inkscape:export-filename="constraint.svg"
   inkscape:export-xdpi="96"
   inkscape:export-ydpi="96"
   xmlns:inkscape="http://www.inkscape.org/namespaces/inkscape"
   xmlns:sodipodi="http://sodipodi.sourceforge.net/DTD/sodipodi-0.dtd"
   xmlns="http://www.w3.org/2000/svg"
   xmlns:svg="http://www.w3.org/2000/svg">
  <sodipodi:namedview
     id="namedview2402"
     pagecolor="#ffffff"
     bordercolor="#999999"
     borderopacity="1"
     inkscape:showpageshadow="0"
     inkscape:pageopacity="0"
     inkscape:pagecheckerboard="0"
     inkscape:deskcolor="#d1d1d1"
     inkscape:document-units="px"
     showgrid="false"
     showborder="false"
     inkscape:zoom="3.3638608"
     inkscape:cx="-32.403243"
     inkscape:cy="69.711565"
     inkscape:window-width="1920"
     inkscape:window-height="1058"
     inkscape:window-x="1193"
     inkscape:window-y="-6"
     inkscape:window-maximized="1"
     inkscape:current-layer="svg2400" />
  <defs
     id="defs2397" />
  <g
     id="icon-coms"
     transform="matrix(4.2333277,0,0,4.2333277,-216.63945,-122.254)">
    <path
       id="path21490"
       style="fill:none;stroke:#808080;stroke-width:1.88976;stroke-dasharray:none;paint-order:normal"
       d="M 66.29374,29.825142 V 43.997463 H 80.466099 A 14.172674,14.17267 0 0 0 66.29374,29.825142 Z m 0,14.172321 H 52.119642 A 14.172674,14.17267 0 0 0 66.29374,58.169822 Z m 13.817235,3.152655 a 14.172673,14.17267 0 0 1 -0.625701,2.025374 14.172674,14.17267 0 0 0 0.625701,-2.025374 z m -0.625701,2.025374 a 14.172673,14.17267 0 0 1 -0.918727,1.90817 14.172674,14.17267 0 0 0 0.918727,-1.90817 z" />
    <path
       id="path21492"
       style="fill:none;stroke:#cccccc;stroke-width:1.88976;stroke-dasharray:none;stroke-opacity:1"
       d="M 66.292946,29.82431 A 14.172673,14.17267 0 0 0 52.120285,43.996972 h 14.172661 z m 0,14.172662 V 58.169633 A 14.172673,14.17267 0 0 0 80.465608,43.996972 Z" />
  </g>
</svg>
