<?xml version="1.0" encoding="UTF-8" standalone="no"?>
<!-- Created with Inkscape (http://www.inkscape.org/) -->

<svg
   width="128"
   height="128"
   viewBox="0 0 128 128"
   version="1.1"
   id="svg2400"
   inkscape:version="1.2.2 (732a01da63, 2022-12-09)"
   sodipodi:docname="zoomauto.svg"
   inkscape:export-filename="constraint.svg"
   inkscape:export-xdpi="96"
   inkscape:export-ydpi="96"
   xmlns:inkscape="http://www.inkscape.org/namespaces/inkscape"
   xmlns:sodipodi="http://sodipodi.sourceforge.net/DTD/sodipodi-0.dtd"
   xmlns="http://www.w3.org/2000/svg"
   xmlns:svg="http://www.w3.org/2000/svg">
  <sodipodi:namedview
     id="namedview2402"
     pagecolor="#ffffff"
     bordercolor="#999999"
     borderopacity="1"
     inkscape:showpageshadow="0"
     inkscape:pageopacity="0"
     inkscape:pagecheckerboard="0"
     inkscape:deskcolor="#d1d1d1"
     inkscape:document-units="px"
     showgrid="false"
     showborder="false"
     inkscape:zoom="3.3638608"
     inkscape:cx="-32.403243"
     inkscape:cy="69.711565"
     inkscape:window-width="1920"
     inkscape:window-height="1058"
     inkscape:window-x="1193"
     inkscape:window-y="-6"
     inkscape:window-maximized="1"
     inkscape:current-layer="svg2400" />
  <defs
     id="defs2397">
    <inkscape:path-effect
       effect="perspective-envelope"
       up_left_point="31.950369,1e-06"
       up_right_point="95.943567,0.01328"
       down_left_point="0.006563,128"
       down_right_point="127.99344,128"
       id="path-effect12890"
       is_visible="true"
       lpeversion="1"
       deform_type="perspective"
       horizontal_mirror="false"
       vertical_mirror="false"
       overflow_perspective="false" />
  </defs>
  <g
     id="icon-autozoom"
     inkscape:label="icon_autozoom"
     transform="matrix(4.2341282,0,0,4.2341282,-255.71257,19.945003)">
    <path
       id="path17538"
       style="color:#000000;fill:#939393;fill-opacity:1;stroke-width:3.77953;stroke-linecap:round"
       d="m 68.160543,15.080131 -7.212888,7.212888 a 1.8897638,1.8897638 0 0 0 0,2.673827 1.8897638,1.8897638 0 0 0 2.671861,0 L 70.83437,17.75203 a 11.338595,11.338595 0 0 1 -2.673827,-2.671899 z" />
    <path
       style="color:#000000;fill:#939393;fill-opacity:1;stroke-width:3.77953;stroke-linecap:round;stroke-dashoffset:0.982677;-inkscape-stroke:none"
       d="m 77.3951,-4.7105338 c -7.283414,0 -13.228346,5.9449324 -13.228346,13.2283466 0,7.2834522 5.944932,13.2283462 13.228346,13.2283462 7.283452,0 13.228347,-5.944894 13.228347,-13.2283462 0,-7.2834142 -5.944895,-13.2283466 -13.228347,-13.2283466 z m 0,3.77952765 c 5.240845,0 9.448819,4.20801265 9.448819,9.44881895 0,5.2408442 -4.207974,9.4488192 -9.448819,9.4488192 -5.240806,0 -9.448819,-4.207975 -9.448819,-9.4488192 0,-5.2408063 4.208013,-9.44881895 9.448819,-9.44881895 z"
       id="path17540" />
    <g
       id="g14714"
       transform="matrix(1.4166118,0,0,1.4166118,-261.29317,-304.21697)">
      <path
         id="path14702"
         style="fill:#999999;fill-opacity:1;stroke:none;stroke-width:0.264584;stroke-dasharray:none;stroke-opacity:1;paint-order:normal"
         d="m 239.08328,216.7625 -3.44515,1.99999 3.44515,2.00001 3.44527,-2.00001 z"
         inkscape:transform-center-x="2.795806e-06" />
      <path
         id="path14704"
         style="fill:#b3b3b3;fill-opacity:1;stroke:none;stroke-width:0.264584;stroke-dasharray:none;stroke-opacity:1;paint-order:normal"
         d="m 242.52855,218.76249 -3.44527,2.00001 v 4 l 3.44527,-2 z" />
      <path
         id="path14706"
         style="fill:#808080;fill-opacity:1;stroke:none;stroke-width:0.264584;stroke-dasharray:none;stroke-opacity:1;paint-order:normal"
         d="m 235.63813,218.76249 v 4.00001 l 3.44515,2 v -4 z"
         inkscape:transform-center-x="4.0615701e-06"
         inkscape:transform-center-y="-4.2598789e-06" />
      <path
         id="path14708"
         style="fill:#b3b3b3;fill-opacity:1;stroke:none;stroke-width:0.264584;stroke-dasharray:none;stroke-opacity:1;paint-order:normal"
         d="m 239.08328,216.7625 -3.44515,1.99999 3.44515,2.00001 3.44527,-2.00001 z"
         inkscape:transform-center-x="2.795806e-06" />
      <path
         id="path14710"
         style="fill:#cccccc;fill-opacity:1;stroke:none;stroke-width:0.264584;stroke-dasharray:none;stroke-opacity:1;paint-order:normal"
         d="m 242.52855,218.76249 -3.44527,2.00001 v 4 l 3.44527,-2 z" />
      <path
         id="path14712"
         style="fill:#999999;fill-opacity:1;stroke:none;stroke-width:0.264584;stroke-dasharray:none;stroke-opacity:1;paint-order:normal"
         d="m 235.63813,218.76249 v 4.00001 l 3.44515,2 v -4 z"
         inkscape:transform-center-x="4.0615701e-06"
         inkscape:transform-center-y="-4.2598789e-06" />
    </g>
  </g>
</svg>
