<?xml version="1.0" encoding="UTF-8" standalone="no"?>
<!-- Created with Inkscape (http://www.inkscape.org/) -->

<svg
   width="128"
   height="128"
   viewBox="0 0 128 128"
   version="1.1"
   id="svg2400"
   inkscape:version="1.2.2 (732a01da63, 2022-12-09)"
   sodipodi:docname="gear.svg"
   inkscape:export-filename="constraint.svg"
   inkscape:export-xdpi="96"
   inkscape:export-ydpi="96"
   xmlns:inkscape="http://www.inkscape.org/namespaces/inkscape"
   xmlns:sodipodi="http://sodipodi.sourceforge.net/DTD/sodipodi-0.dtd"
   xmlns="http://www.w3.org/2000/svg"
   xmlns:svg="http://www.w3.org/2000/svg">
  <sodipodi:namedview
     id="namedview2402"
     pagecolor="#ffffff"
     bordercolor="#999999"
     borderopacity="1"
     inkscape:showpageshadow="0"
     inkscape:pageopacity="0"
     inkscape:pagecheckerboard="0"
     inkscape:deskcolor="#d1d1d1"
     inkscape:document-units="px"
     showgrid="false"
     showborder="false"
     inkscape:zoom="4.7572176"
     inkscape:cx="50.029244"
     inkscape:cy="73.887729"
     inkscape:window-width="1920"
     inkscape:window-height="1058"
     inkscape:window-x="1193"
     inkscape:window-y="-6"
     inkscape:window-maximized="1"
     inkscape:current-layer="svg2400" />
  <defs
     id="defs2397" />
  <path
     id="path420"
     style="fill:#cccccc;stroke-width:4.51299;stroke-linejoin:round"
     d="M 54.050781 11.443359 L 50.765625 24.945312 A 41.321564 41.321564 0 0 0 45.728516 27.015625 L 33.873047 19.802734 L 28.109375 25.564453 L 25.564453 28.109375 L 19.802734 33.873047 L 27.015625 45.728516 A 41.321564 41.321564 0 0 0 24.945312 50.765625 L 11.443359 54.050781 L 11.443359 62.201172 L 11.443359 65.798828 L 11.443359 73.949219 L 24.945312 77.234375 A 41.321564 41.321564 0 0 0 27.015625 82.271484 L 19.802734 94.126953 L 25.564453 99.890625 L 28.109375 102.43555 L 33.873047 108.19727 L 45.728516 100.98438 A 41.321564 41.321564 0 0 0 50.765625 103.05469 L 54.050781 116.55664 L 62.201172 116.55664 L 65.798828 116.55664 L 73.949219 116.55664 L 77.234375 103.05469 A 41.321564 41.321564 0 0 0 82.271484 100.98438 L 94.126953 108.19727 L 99.890625 102.43555 L 102.43555 99.890625 L 108.19727 94.126953 L 100.98438 82.271484 A 41.321564 41.321564 0 0 0 103.05469 77.234375 L 116.55664 73.949219 L 116.55664 65.798828 L 116.55664 62.201172 L 116.55664 54.050781 L 103.13867 50.785156 A 41.321564 41.321564 0 0 0 101.01953 45.667969 L 108.19727 33.873047 L 102.43555 28.109375 L 99.890625 25.564453 L 94.126953 19.802734 L 82.332031 26.980469 A 41.321564 41.321564 0 0 0 77.214844 24.861328 L 73.949219 11.443359 L 65.798828 11.443359 L 62.201172 11.443359 L 54.050781 11.443359 z M 64 38.533203 A 25.466541 25.466541 0 0 1 89.466797 64 A 25.466541 25.466541 0 0 1 64 89.466797 A 25.466541 25.466541 0 0 1 38.533203 64 A 25.466541 25.466541 0 0 1 64 38.533203 z " />
</svg>
