<?xml version="1.0" encoding="UTF-8" standalone="no"?>
<!-- Created with Inkscape (http://www.inkscape.org/) -->

<svg
   width="128"
   height="128"
   viewBox="0 0 128 128"
   version="1.1"
   id="svg2400"
   inkscape:version="1.2.2 (732a01da63, 2022-12-09)"
   sodipodi:docname="muscle.svg"
   inkscape:export-filename="constraint.svg"
   inkscape:export-xdpi="96"
   inkscape:export-ydpi="96"
   xmlns:inkscape="http://www.inkscape.org/namespaces/inkscape"
   xmlns:sodipodi="http://sodipodi.sourceforge.net/DTD/sodipodi-0.dtd"
   xmlns="http://www.w3.org/2000/svg"
   xmlns:svg="http://www.w3.org/2000/svg">
  <sodipodi:namedview
     id="namedview2402"
     pagecolor="#ffffff"
     bordercolor="#999999"
     borderopacity="1"
     inkscape:showpageshadow="0"
     inkscape:pageopacity="0"
     inkscape:pagecheckerboard="0"
     inkscape:deskcolor="#d1d1d1"
     inkscape:document-units="px"
     showgrid="false"
     showborder="false"
     inkscape:zoom="3.3638608"
     inkscape:cx="-32.403243"
     inkscape:cy="69.711565"
     inkscape:window-width="1920"
     inkscape:window-height="1058"
     inkscape:window-x="1193"
     inkscape:window-y="-6"
     inkscape:window-maximized="1"
     inkscape:current-layer="svg2400" />
  <defs
     id="defs2397" />
  <g
     id="icon-muscle"
     transform="matrix(4.2098404,0,0,4.2098404,-108.70569,-237.60924)">
    <g
       id="g2447"
       style="fill:#cccccc;fill-opacity:1;stroke-width:3.67611"
       transform="matrix(0.71863174,-0.73546481,0.71863174,0.73546481,-233.50482,94.62082)">
      <rect
         style="fill:#cccccc;fill-opacity:1;stroke-width:3.28803;stroke-linecap:round"
         id="rect607"
         width="11.25"
         height="1.0000031"
         x="192.83333"
         y="168.5125" />
      <rect
         style="fill:#cccccc;fill-opacity:1;stroke-width:3.28801;stroke-linecap:round"
         id="rect609"
         width="11.25"
         height="0.99999696"
         x="192.83333"
         y="181.2625" />
      <path
         style="color:#000000;fill:#cccccc;fill-opacity:1;stroke-width:3.67611;-inkscape-stroke:none"
         d="m 204.08398,168.52539 c -2.90433,0 -4.54291,0.87433 -5.34179,2.23242 -0.79888,1.3581 -0.76953,3.03516 -0.76953,4.62891 0,1.59375 -0.0293,3.10419 -0.63672,4.13672 -0.60737,1.03253 -1.78129,1.75195 -4.50196,1.75195 v 0.97266 c 2.90433,0 4.54097,-0.87238 5.33985,-2.23047 0.79888,-1.3581 0.77148,-3.03711 0.77148,-4.63086 0,-1.59375 0.0274,-3.10224 0.63477,-4.13477 0.60737,-1.03252 1.78324,-1.7539 4.5039,-1.7539 z"
         id="path665"
         class="UnoptimicedTransforms" />
    </g>
    <g
       id="g2753"
       transform="matrix(0.71863174,-0.73546481,0.71863174,0.73546481,-229.732,90.759627)"
       style="fill:#cccccc;fill-opacity:1;stroke-width:3.67611">
      <rect
         style="fill:#cccccc;fill-opacity:1;stroke-width:3.28803;stroke-linecap:round"
         id="rect2747"
         width="11.25"
         height="1.0000031"
         x="192.83333"
         y="168.5125" />
      <rect
         style="fill:#cccccc;fill-opacity:1;stroke-width:3.28801;stroke-linecap:round"
         id="rect2749"
         width="11.25"
         height="0.99999696"
         x="192.83333"
         y="181.2625" />
      <path
         style="color:#000000;fill:#cccccc;fill-opacity:1;stroke-width:3.67611;-inkscape-stroke:none"
         d="m 204.08398,168.52539 c -2.90433,0 -4.54291,0.87433 -5.34179,2.23242 -0.79888,1.3581 -0.76953,3.03516 -0.76953,4.62891 0,1.59375 -0.0293,3.10419 -0.63672,4.13672 -0.60737,1.03253 -1.78129,1.75195 -4.50196,1.75195 v 0.97266 c 2.90433,0 4.54097,-0.87238 5.33985,-2.23047 0.79888,-1.3581 0.77148,-3.03711 0.77148,-4.63086 0,-1.59375 0.0274,-3.10224 0.63477,-4.13477 0.60737,-1.03252 1.78324,-1.7539 4.5039,-1.7539 z"
         id="path2751"
         class="UnoptimicedTransforms" />
    </g>
    <g
       id="g2761"
       transform="matrix(0.71863174,-0.73546481,0.71863174,0.73546481,-225.86936,86.806504)"
       style="fill:#cccccc;fill-opacity:1;stroke-width:3.67611">
      <rect
         style="fill:#cccccc;fill-opacity:1;stroke-width:3.28803;stroke-linecap:round"
         id="rect2755"
         width="11.25"
         height="1.0000031"
         x="192.83333"
         y="168.5125" />
      <rect
         style="fill:#cccccc;fill-opacity:1;stroke-width:3.28801;stroke-linecap:round"
         id="rect2757"
         width="11.25"
         height="0.99999696"
         x="192.83333"
         y="181.2625" />
      <path
         style="color:#000000;fill:#cccccc;fill-opacity:1;stroke-width:3.67611;-inkscape-stroke:none"
         d="m 204.08398,168.52539 c -2.90433,0 -4.54291,0.87433 -5.34179,2.23242 -0.79888,1.3581 -0.76953,3.03516 -0.76953,4.62891 0,1.59375 -0.0293,3.10419 -0.63672,4.13672 -0.60737,1.03253 -1.78129,1.75195 -4.50196,1.75195 v 0.97266 c 2.90433,0 4.54097,-0.87238 5.33985,-2.23047 0.79888,-1.3581 0.77148,-3.03711 0.77148,-4.63086 0,-1.59375 0.0274,-3.10224 0.63477,-4.13477 0.60737,-1.03252 1.78324,-1.7539 4.5039,-1.7539 z"
         id="path2759"
         class="UnoptimicedTransforms" />
    </g>
    <g
       id="g2769"
       transform="matrix(0.71863174,-0.73546481,0.71863174,0.73546481,-221.76156,82.602485)"
       style="fill:#cccccc;fill-opacity:1;stroke-width:3.67611">
      <rect
         style="fill:#cccccc;fill-opacity:1;stroke-width:3.28803;stroke-linecap:round"
         id="rect2763"
         width="11.25"
         height="1.0000031"
         x="192.83333"
         y="168.5125" />
      <rect
         style="fill:#cccccc;fill-opacity:1;stroke-width:3.28801;stroke-linecap:round"
         id="rect2765"
         width="11.25"
         height="0.99999696"
         x="192.83333"
         y="181.2625" />
      <path
         style="color:#000000;fill:#cccccc;fill-opacity:1;stroke-width:3.67611;-inkscape-stroke:none"
         d="m 204.08398,168.52539 c -2.90433,0 -4.54291,0.87433 -5.34179,2.23242 -0.79888,1.3581 -0.76953,3.03516 -0.76953,4.62891 0,1.59375 -0.0293,3.10419 -0.63672,4.13672 -0.60737,1.03253 -1.78129,1.75195 -4.50196,1.75195 v 0.97266 c 2.90433,0 4.54097,-0.87238 5.33985,-2.23047 0.79888,-1.3581 0.77148,-3.03711 0.77148,-4.63086 0,-1.59375 0.0274,-3.10224 0.63477,-4.13477 0.60737,-1.03252 1.78324,-1.7539 4.5039,-1.7539 z"
         id="path2767"
         class="UnoptimicedTransforms" />
    </g>
  </g>
</svg>
