<?xml version="1.0" encoding="UTF-8" standalone="no"?>
<!-- Created with Inkscape (http://www.inkscape.org/) -->

<svg
   width="128"
   height="128"
   viewBox="0 0 128 128"
   version="1.1"
   id="svg2400"
   inkscape:version="1.2.2 (732a01da63, 2022-12-09)"
   sodipodi:docname="ruler.svg"
   inkscape:export-filename="constraint.svg"
   inkscape:export-xdpi="96"
   inkscape:export-ydpi="96"
   xmlns:inkscape="http://www.inkscape.org/namespaces/inkscape"
   xmlns:sodipodi="http://sodipodi.sourceforge.net/DTD/sodipodi-0.dtd"
   xmlns="http://www.w3.org/2000/svg"
   xmlns:svg="http://www.w3.org/2000/svg">
  <sodipodi:namedview
     id="namedview2402"
     pagecolor="#ffffff"
     bordercolor="#999999"
     borderopacity="1"
     inkscape:showpageshadow="0"
     inkscape:pageopacity="0"
     inkscape:pagecheckerboard="0"
     inkscape:deskcolor="#d1d1d1"
     inkscape:document-units="px"
     showgrid="false"
     showborder="false"
     inkscape:zoom="4.7572176"
     inkscape:cx="50.029244"
     inkscape:cy="73.887729"
     inkscape:window-width="1920"
     inkscape:window-height="1058"
     inkscape:window-x="1193"
     inkscape:window-y="-6"
     inkscape:window-maximized="1"
     inkscape:current-layer="svg2400" />
  <defs
     id="defs2397" />
  <path
     id="rect760"
     style="fill:#cccccc;stroke-width:5.22768;stroke-linejoin:round"
     d="M 3.163957,97.635902 30.36409,124.83604 124.83604,30.36409 97.635907,3.1639571 90.981926,9.8179378 106.44021,25.276231 99.157845,32.558604 83.699554,17.100311 78.68075,22.119114 94.139043,37.577407 86.855293,44.861158 71.396999,29.402865 66.37958,34.420284 81.837873,49.878578 74.554121,57.16233 59.095828,41.704037 l -5.018801,5.0188 15.458293,15.458294 -7.282372,7.282371 -15.458293,-15.458293 -5.018801,5.018801 15.458294,15.458293 -7.283752,7.283752 -15.458294,-15.458293 -5.017419,5.01742 15.458293,15.45829 -7.283752,7.28375 L 22.190931,78.608934 17.172129,83.627735 32.630422,99.086033 25.348051,106.3684 9.889758,90.910102 Z" />
</svg>
