<?xml version="1.0" encoding="UTF-8" standalone="no"?>
<!DOCTYPE svg PUBLIC "-//W3C//DTD SVG 1.1//EN" "http://www.w3.org/Graphics/SVG/1.1/DTD/svg11.dtd">
<!-- Generated by graphviz version 2.40.1 (20161225.0304)
 -->
<!-- Title: G Pages: 1 -->
<svg width="1233pt" height="685pt" viewBox="0.00 0.00 1232.92 684.80" xmlns="http://www.w3.org/2000/svg" xmlns:xlink="http://www.w3.org/1999/xlink">
<g id="graph0" class="graph" transform="scale(1 1) rotate(0) translate(4 680.8)">
<title>G</title>
<polygon fill="#ffffff" stroke="transparent" points="-4,4 -4,-680.8 1228.9225,-680.8 1228.9225,4 -4,4"/>
<!-- Geometry/mesh.landmarks.csv -->
<g id="node1" class="node">
<title>Geometry/mesh.landmarks.csv</title>
<ellipse fill="none" stroke="#000000" cx="699.1601" cy="-284.4" rx="130.7795" ry="18"/>
<text text-anchor="middle" x="699.1601" y="-280.2" font-family="Times,serif" font-size="14.00" fill="#000000">Geometry/mesh.landmarks.csv</text>
</g>
<!-- Geometry/mesh.obj -->
<g id="node2" class="node">
<title>Geometry/mesh.obj</title>
<ellipse fill="none" stroke="#000000" cx="803.1601" cy="-195.6" rx="87.4405" ry="18"/>
<text text-anchor="middle" x="803.1601" y="-191.4" font-family="Times,serif" font-size="14.00" fill="#000000">Geometry/mesh.obj</text>
</g>
<!-- Geometry/mesh.landmarks.csv&#45;&gt;Geometry/mesh.obj -->
<g id="edge1" class="edge">
<title>Geometry/mesh.landmarks.csv-&gt;Geometry/mesh.obj</title>
<path fill="none" stroke="#000000" d="M700.9842,-266.3192C702.9758,-255.1094 707.142,-241.0877 715.8571,-231.6 722.36,-224.5206 730.4638,-218.7957 739.094,-214.1761"/>
<polygon fill="#000000" stroke="#000000" points="740.7575,-217.2594 748.2331,-209.7516 737.7072,-210.9589 740.7575,-217.2594"/>
<text text-anchor="middle" x="780.3116" y="-235.8" font-family="Times,serif" font-size="14.00" fill="#000000">identifies landmarks in</text>
</g>
<!-- frame -->
<g id="node3" class="node">
<title>frame</title>
<ellipse fill="none" stroke="#000000" cx="915.1601" cy="-106.8" rx="33.6034" ry="18"/>
<text text-anchor="middle" x="915.1601" y="-102.6" font-family="Times,serif" font-size="14.00" fill="#000000">frame</text>
</g>
<!-- Geometry/mesh.obj&#45;&gt;frame -->
<g id="edge2" class="edge">
<title>Geometry/mesh.obj-&gt;frame</title>
<path fill="none" stroke="#000000" d="M815.7573,-177.4483C823.9884,-166.4877 835.4689,-152.7611 847.7891,-142.8 857.3605,-135.0615 868.847,-128.2022 879.6019,-122.6019"/>
<polygon fill="#000000" stroke="#000000" points="881.4126,-125.61 888.7984,-118.014 878.2877,-119.3462 881.4126,-125.61"/>
<text text-anchor="middle" x="876.3456" y="-147" font-family="Times,serif" font-size="14.00" fill="#000000">defined in</text>
</g>
<!-- model.osim -->
<g id="node4" class="node">
<title>model.osim</title>
<ellipse fill="none" stroke="#000000" cx="861.1601" cy="-18" rx="56.2404" ry="18"/>
<text text-anchor="middle" x="861.1601" y="-13.8" font-family="Times,serif" font-size="14.00" fill="#000000">model.osim</text>
</g>
<!-- frame&#45;&gt;model.osim -->
<g id="edge18" class="edge">
<title>frame-&gt;model.osim</title>
<path fill="none" stroke="#000000" d="M904.7484,-89.6785C896.9312,-76.8236 886.0852,-58.9879 877.1681,-44.3242"/>
<polygon fill="#000000" stroke="#000000" points="880.0959,-42.4024 871.9095,-35.6768 874.1149,-46.0395 880.0959,-42.4024"/>
<text text-anchor="middle" x="921.3456" y="-58.2" font-family="Times,serif" font-size="14.00" fill="#000000">defined in</text>
</g>
<!-- model.osim&#45;&gt;Geometry/mesh.obj -->
<g id="edge3" class="edge">
<title>model.osim-&gt;Geometry/mesh.obj</title>
<path fill="none" stroke="#000000" d="M846.1264,-35.6349C835.4343,-49.2327 821.7568,-69.0044 814.6607,-88.8 805.5214,-114.296 803.0504,-145.2371 802.6231,-167.2391"/>
<polygon fill="#000000" stroke="#000000" points="799.1232,-167.2362 802.5573,-177.259 806.123,-167.2822 799.1232,-167.2362"/>
<text text-anchor="middle" x="843.9098" y="-102.6" font-family="Times,serif" font-size="14.00" fill="#000000">references</text>
</g>
<!-- model.warpconfig.toml -->
<g id="node5" class="node">
<title>model.warpconfig.toml</title>
<ellipse fill="none" stroke="#000000" cx="541.1601" cy="-373.2" rx="101.869" ry="18"/>
<text text-anchor="middle" x="541.1601" y="-369" font-family="Times,serif" font-size="14.00" fill="#000000">model.warpconfig.toml</text>
</g>
<!-- model.warpconfig.toml&#45;&gt;Geometry/mesh.landmarks.csv -->
<g id="edge4" class="edge">
<title>model.warpconfig.toml-&gt;Geometry/mesh.landmarks.csv</title>
<path fill="none" stroke="#000000" d="M552.448,-355.2435C560.4857,-343.7947 572.2435,-329.4593 585.8297,-320.4 596.1977,-313.4866 607.9773,-307.8319 619.9264,-303.2267"/>
<polygon fill="#000000" stroke="#000000" points="621.3096,-306.4484 629.5219,-299.7545 618.9277,-299.8661 621.3096,-306.4484"/>
<text text-anchor="middle" x="666.8253" y="-324.6" font-family="Times,serif" font-size="14.00" fill="#000000">declares TPS dependency on</text>
</g>
<!-- DestinationGeometry/mesh.landmarks.csv -->
<g id="node6" class="node">
<title>DestinationGeometry/mesh.landmarks.csv</title>
<ellipse fill="none" stroke="#000000" cx="175.1601" cy="-284.4" rx="175.3204" ry="18"/>
<text text-anchor="middle" x="175.1601" y="-280.2" font-family="Times,serif" font-size="14.00" fill="#000000">DestinationGeometry/mesh.landmarks.csv</text>
</g>
<!-- model.warpconfig.toml&#45;&gt;DestinationGeometry/mesh.landmarks.csv -->
<g id="edge5" class="edge">
<title>model.warpconfig.toml-&gt;DestinationGeometry/mesh.landmarks.csv</title>
<path fill="none" stroke="#000000" d="M481.1325,-358.6359C418.9888,-343.5584 321.6322,-319.9375 253.4719,-303.4002"/>
<polygon fill="#000000" stroke="#000000" points="254.1783,-299.9702 243.635,-301.0136 252.5278,-306.7728 254.1783,-299.9702"/>
<text text-anchor="middle" x="471.8253" y="-324.6" font-family="Times,serif" font-size="14.00" fill="#000000">declares TPS dependency on</text>
</g>
<!-- warp validator -->
<g id="node7" class="node">
<title>warp validator</title>
<ellipse fill="none" stroke="#000000" cx="541.1601" cy="-481.2" rx="67.1535" ry="18"/>
<text text-anchor="middle" x="541.1601" y="-477" font-family="Times,serif" font-size="14.00" fill="#000000">warp validator</text>
</g>
<!-- warp validator&#45;&gt;Geometry/mesh.landmarks.csv -->
<g id="edge8" class="edge">
<title>warp validator-&gt;Geometry/mesh.landmarks.csv</title>
<path fill="none" stroke="#000000" d="M581.5917,-466.5817C631.1041,-446.2149 712.634,-404.0857 747.1601,-337.2 752.4874,-326.8797 747.4756,-317.0372 738.9828,-308.7066"/>
<polygon fill="#000000" stroke="#000000" points="741.0704,-305.8878 731.1807,-302.0872 736.5417,-311.2256 741.0704,-305.8878"/>
<text text-anchor="middle" x="761.0402" y="-369" font-family="Times,serif" font-size="14.00" fill="#000000">validates</text>
</g>
<!-- warp validator&#45;&gt;model.osim -->
<g id="edge6" class="edge">
<title>warp validator-&gt;model.osim</title>
<path fill="none" stroke="#000000" d="M510.4763,-465.0303C471.5345,-442.4746 406.4998,-397.4578 382.1601,-337.2 365.9669,-297.1104 378.1601,-283.2366 378.1601,-240 378.1601,-240 378.1601,-240 378.1601,-106.8 378.1601,-64.7852 664.5156,-34.8248 796.2508,-23.2647"/>
<polygon fill="#000000" stroke="#000000" points="796.5644,-26.7507 806.2241,-22.3988 795.9589,-19.777 796.5644,-26.7507"/>
<text text-anchor="middle" x="403.0402" y="-235.8" font-family="Times,serif" font-size="14.00" fill="#000000">validates</text>
</g>
<!-- warp validator&#45;&gt;model.warpconfig.toml -->
<g id="edge7" class="edge">
<title>warp validator-&gt;model.warpconfig.toml</title>
<path fill="none" stroke="#000000" d="M541.1601,-462.8793C541.1601,-446.021 541.1601,-420.7651 541.1601,-401.347"/>
<polygon fill="#000000" stroke="#000000" points="544.6602,-401.2501 541.1601,-391.2502 537.6602,-401.2502 544.6602,-401.2501"/>
<text text-anchor="middle" x="566.0402" y="-423" font-family="Times,serif" font-size="14.00" fill="#000000">validates</text>
</g>
<!-- warp validator&#45;&gt;DestinationGeometry/mesh.landmarks.csv -->
<g id="edge9" class="edge">
<title>warp validator-&gt;DestinationGeometry/mesh.landmarks.csv</title>
<path fill="none" stroke="#000000" d="M480.4829,-473.4119C434.5201,-466.7941 375.7264,-456.5761 354.1601,-445.2 284.445,-408.4257 289.0179,-370.4888 228.1601,-320.4 223.144,-316.2714 217.6579,-312.1529 212.1774,-308.2546"/>
<polygon fill="#000000" stroke="#000000" points="213.8519,-305.1569 203.6383,-302.3404 209.8663,-310.9114 213.8519,-305.1569"/>
<text text-anchor="middle" x="315.0402" y="-369" font-family="Times,serif" font-size="14.00" fill="#000000">validates</text>
</g>
<!-- model warper -->
<g id="node8" class="node">
<title>model warper</title>
<ellipse fill="none" stroke="#000000" cx="888.1601" cy="-570" rx="64.2863" ry="18"/>
<text text-anchor="middle" x="888.1601" y="-565.8" font-family="Times,serif" font-size="14.00" fill="#000000">model warper</text>
</g>
<!-- model warper&#45;&gt;Geometry/mesh.landmarks.csv -->
<g id="edge16" class="edge">
<title>model warper-&gt;Geometry/mesh.landmarks.csv</title>
<path fill="none" stroke="#000000" d="M862.419,-553.1667C855.694,-547.7316 848.9865,-541.2211 844.1601,-534 787.7416,-449.5886 840.0461,-386.7091 763.1601,-320.4 757.585,-315.5918 751.2683,-311.1209 744.8283,-307.0798"/>
<polygon fill="#000000" stroke="#000000" points="746.4118,-303.9494 736.0282,-301.8444 742.8328,-309.9653 746.4118,-303.9494"/>
<text text-anchor="middle" x="826.212" y="-423" font-family="Times,serif" font-size="14.00" fill="#000000">uses</text>
</g>
<!-- model warper&#45;&gt;Geometry/mesh.obj -->
<g id="edge12" class="edge">
<title>model warper-&gt;Geometry/mesh.obj</title>
<path fill="none" stroke="#000000" d="M878.1706,-551.8932C869.4436,-534.3588 858.1601,-506.7481 858.1601,-481.2 858.1601,-481.2 858.1601,-481.2 858.1601,-284.4 858.1601,-260.1224 856.9472,-252.2372 844.1601,-231.6 841.6125,-227.4884 838.45,-223.5847 835.0193,-219.9696"/>
<polygon fill="#000000" stroke="#000000" points="837.3575,-217.3628 827.7115,-212.9803 832.5192,-222.4216 837.3575,-217.3628"/>
<text text-anchor="middle" x="874.8733" y="-369" font-family="Times,serif" font-size="14.00" fill="#000000">warps</text>
</g>
<!-- model warper&#45;&gt;frame -->
<g id="edge14" class="edge">
<title>model warper-&gt;frame</title>
<path fill="none" stroke="#000000" d="M889.2186,-551.842C893.3606,-480.7834 908.4892,-221.244 913.5205,-134.9286"/>
<polygon fill="#000000" stroke="#000000" points="917.0211,-135.0192 914.109,-124.8325 910.033,-134.6118 917.0211,-135.0192"/>
<text text-anchor="middle" x="919.8733" y="-324.6" font-family="Times,serif" font-size="14.00" fill="#000000">warps</text>
</g>
<!-- model warper&#45;&gt;model.osim -->
<g id="edge13" class="edge">
<title>model warper-&gt;model.osim</title>
<path fill="none" stroke="#000000" d="M947.7432,-563.1607C996.3993,-553.867 1057.1601,-532.0761 1057.1601,-481.2 1057.1601,-481.2 1057.1601,-481.2 1057.1601,-106.8 1057.1601,-75.7234 974.375,-47.5336 916.4093,-31.6042"/>
<polygon fill="#000000" stroke="#000000" points="917.1855,-28.1886 906.6191,-28.9645 915.3631,-34.9472 917.1855,-28.1886"/>
<text text-anchor="middle" x="1073.8733" y="-280.2" font-family="Times,serif" font-size="14.00" fill="#000000">warps</text>
</g>
<!-- model warper&#45;&gt;DestinationGeometry/mesh.landmarks.csv -->
<g id="edge17" class="edge">
<title>model warper-&gt;DestinationGeometry/mesh.landmarks.csv</title>
<path fill="none" stroke="#000000" d="M827.184,-564.0825C690.7308,-549.8156 365.9226,-509.846 279.0563,-445.2 232.3836,-410.4661 200.9624,-348.0528 185.7567,-312.0515"/>
<polygon fill="#000000" stroke="#000000" points="188.931,-310.5671 181.8987,-302.6426 182.4543,-313.2228 188.931,-310.5671"/>
<text text-anchor="middle" x="291.212" y="-423" font-family="Times,serif" font-size="14.00" fill="#000000">uses</text>
</g>
<!-- model warper&#45;&gt;warp validator -->
<g id="edge10" class="edge">
<title>model warper-&gt;warp validator</title>
<path fill="none" stroke="#000000" d="M832.0366,-561.1566C794.6289,-554.786 744.5181,-545.3343 700.9581,-534 663.4511,-524.2407 621.9108,-510.4195 590.5864,-499.3658"/>
<polygon fill="#000000" stroke="#000000" points="591.3879,-495.9361 580.7932,-495.8828 589.0422,-502.5314 591.3879,-495.9361"/>
<text text-anchor="middle" x="749.7611" y="-521.4" font-family="Times,serif" font-size="14.00" fill="#000000">takes inputs from</text>
</g>
<!-- blending factor -->
<g id="node9" class="node">
<title>blending factor</title>
<ellipse fill="none" stroke="#000000" cx="1155.1601" cy="-481.2" rx="69.5254" ry="18"/>
<text text-anchor="middle" x="1155.1601" y="-477" font-family="Times,serif" font-size="14.00" fill="#000000">blending factor</text>
</g>
<!-- model warper&#45;&gt;blending factor -->
<g id="edge11" class="edge">
<title>model warper-&gt;blending factor</title>
<path fill="none" stroke="#000000" d="M948.6614,-563.7626C985.0955,-558.6339 1031.883,-549.5832 1071.1601,-534 1089.8979,-526.5658 1109.0587,-514.8941 1124.3398,-504.4129"/>
<polygon fill="#000000" stroke="#000000" points="1126.692,-507.0375 1132.8562,-498.4204 1122.6637,-501.3127 1126.692,-507.0375"/>
<text text-anchor="middle" x="1115.212" y="-521.4" font-family="Times,serif" font-size="14.00" fill="#000000">uses</text>
</g>
<!-- point -->
<g id="node10" class="node">
<title>point</title>
<ellipse fill="none" stroke="#000000" cx="965.1601" cy="-427.2" rx="30.7789" ry="18"/>
<text text-anchor="middle" x="965.1601" y="-423" font-family="Times,serif" font-size="14.00" fill="#000000">point</text>
</g>
<!-- model warper&#45;&gt;point -->
<g id="edge15" class="edge">
<title>model warper-&gt;point</title>
<path fill="none" stroke="#000000" d="M914.5012,-553.2664C921.3793,-547.8329 928.2356,-541.2982 933.1601,-534 949.2359,-510.1756 957.4286,-478.0587 961.4748,-455.2839"/>
<polygon fill="#000000" stroke="#000000" points="964.9582,-455.6668 963.1,-445.2362 958.048,-454.549 964.9582,-455.6668"/>
<text text-anchor="middle" x="958.8733" y="-521.4" font-family="Times,serif" font-size="14.00" fill="#000000">warps</text>
</g>
<!-- point&#45;&gt;frame -->
<g id="edge19" class="edge">
<title>point-&gt;frame</title>
<path fill="none" stroke="#000000" d="M965.0819,-409.168C964.4558,-363.607 960.0901,-240.5369 932.1601,-142.8 931.2954,-139.7741 930.2006,-136.6858 928.9847,-133.6529"/>
<polygon fill="#000000" stroke="#000000" points="932.0855,-132.0119 924.8226,-124.2983 925.69,-134.8576 932.0855,-132.0119"/>
<text text-anchor="middle" x="988.3456" y="-280.2" font-family="Times,serif" font-size="14.00" fill="#000000">defined in</text>
</g>
<!-- warped_model.osim -->
<g id="node11" class="node">
<title>warped_model.osim</title>
<ellipse fill="none" stroke="#000000" cx="888.1601" cy="-658.8" rx="89.7303" ry="18"/>
<text text-anchor="middle" x="888.1601" y="-654.6" font-family="Times,serif" font-size="14.00" fill="#000000">warped_model.osim</text>
</g>
<!-- warped_model.osim&#45;&gt;model warper -->
<g id="edge20" class="edge">
<title>warped_model.osim-&gt;model warper</title>
<path fill="none" stroke="#000000" d="M888.1601,-640.4006C888.1601,-628.2949 888.1601,-612.2076 888.1601,-598.4674"/>
<polygon fill="#000000" stroke="#000000" points="891.6602,-598.072 888.1601,-588.072 884.6602,-598.0721 891.6602,-598.072"/>
<text text-anchor="middle" x="930.5325" y="-610.2" font-family="Times,serif" font-size="14.00" fill="#000000">is generated by</text>
</g>
</g>
</svg>