<?xml version="1.0" encoding="UTF-8" standalone="no"?>
<!DOCTYPE svg PUBLIC "-//W3C//DTD SVG 1.1//EN" "http://www.w3.org/Graphics/SVG/1.1/DTD/svg11.dtd">
<!-- Generated by graphviz version 2.40.1 (20161225.0304)
 -->
<!-- Title: G Pages: 1 -->
<svg width="386pt" height="399pt" viewBox="0.00 0.00 385.64 399.20" xmlns="http://www.w3.org/2000/svg" xmlns:xlink="http://www.w3.org/1999/xlink">
<g id="graph0" class="graph" transform="scale(1 1) rotate(0) translate(4 395.2)">
<title>G</title>
<polygon fill="#ffffff" stroke="transparent" points="-4,4 -4,-395.2 381.6417,-395.2 381.6417,4 -4,4"/>
<!-- start -->
<g id="node1" class="node">
<title>start</title>
<ellipse fill="none" stroke="#000000" cx="188.8209" cy="-18" rx="38.2876" ry="18"/>
<text text-anchor="middle" x="188.8209" y="-13.8" font-family="Times,serif" font-size="14.00" fill="#000000">ground</text>
</g>
<!-- pendulum_base (Body) -->
<g id="node2" class="node">
<title>pendulum_base (Body)</title>
<ellipse fill="none" stroke="#000000" cx="188.8209" cy="-373.2" rx="101.3337" ry="18"/>
<text text-anchor="middle" x="188.8209" y="-369" font-family="Times,serif" font-size="14.00" fill="#000000">pendulum_base (Body)</text>
</g>
<!-- pendulum_base_offset (PhysicalOffsetFrame) -->
<g id="node3" class="node">
<title>pendulum_base_offset (PhysicalOffsetFrame)</title>
<ellipse fill="none" stroke="#000000" cx="188.8209" cy="-284.4" rx="188.6419" ry="18"/>
<text text-anchor="middle" x="188.8209" y="-280.2" font-family="Times,serif" font-size="14.00" fill="#000000">pendulum_base_offset (PhysicalOffsetFrame)</text>
</g>
<!-- pendulum_base (Body)&#45;&gt;pendulum_base_offset (PhysicalOffsetFrame) -->
<g id="edge1" class="edge">
<title>pendulum_base (Body)-&gt;pendulum_base_offset (PhysicalOffsetFrame)</title>
<path fill="none" stroke="#000000" d="M188.8209,-354.8006C188.8209,-342.6949 188.8209,-326.6076 188.8209,-312.8674"/>
<polygon fill="#000000" stroke="#000000" points="192.321,-312.472 188.8209,-302.472 185.321,-312.4721 192.321,-312.472"/>
<text text-anchor="middle" x="260.3476" y="-324.6" font-family="Times,serif" font-size="14.00" fill="#000000">Offset Frame Attachment</text>
</g>
<!-- pendulum_base_to_ground (WeldJoint) -->
<g id="node4" class="node">
<title>pendulum_base_to_ground (WeldJoint)</title>
<ellipse fill="none" stroke="#000000" cx="188.8209" cy="-195.6" rx="164.9229" ry="18"/>
<text text-anchor="middle" x="188.8209" y="-191.4" font-family="Times,serif" font-size="14.00" fill="#000000">pendulum_base_to_ground (WeldJoint)</text>
</g>
<!-- pendulum_base_offset (PhysicalOffsetFrame)&#45;&gt;pendulum_base_to_ground (WeldJoint) -->
<g id="edge2" class="edge">
<title>pendulum_base_offset (PhysicalOffsetFrame)-&gt;pendulum_base_to_ground (WeldJoint)</title>
<path fill="none" stroke="#000000" d="M188.8209,-266.0006C188.8209,-253.8949 188.8209,-237.8076 188.8209,-224.0674"/>
<polygon fill="#000000" stroke="#000000" points="192.321,-223.672 188.8209,-213.672 185.321,-223.6721 192.321,-223.672"/>
<text text-anchor="middle" x="269.309" y="-235.8" font-family="Times,serif" font-size="14.00" fill="#000000">WeldJoint Child Attachment</text>
</g>
<!-- ground_offset (PhysicalOffsetFrame) -->
<g id="node5" class="node">
<title>ground_offset (PhysicalOffsetFrame)</title>
<ellipse fill="none" stroke="#000000" cx="188.8209" cy="-106.8" rx="155.6344" ry="18"/>
<text text-anchor="middle" x="188.8209" y="-102.6" font-family="Times,serif" font-size="14.00" fill="#000000">ground_offset (PhysicalOffsetFrame)</text>
</g>
<!-- pendulum_base_to_ground (WeldJoint)&#45;&gt;ground_offset (PhysicalOffsetFrame) -->
<g id="edge3" class="edge">
<title>pendulum_base_to_ground (WeldJoint)-&gt;ground_offset (PhysicalOffsetFrame)</title>
<path fill="none" stroke="#000000" d="M188.8209,-177.2006C188.8209,-165.0949 188.8209,-149.0076 188.8209,-135.2674"/>
<polygon fill="#000000" stroke="#000000" points="192.321,-134.872 188.8209,-124.872 185.321,-134.8721 192.321,-134.872"/>
<text text-anchor="middle" x="271.6316" y="-147" font-family="Times,serif" font-size="14.00" fill="#000000">WeldJoint Parent Attachment</text>
</g>
<!-- ground_offset (PhysicalOffsetFrame)&#45;&gt;start -->
<g id="edge4" class="edge">
<title>ground_offset (PhysicalOffsetFrame)-&gt;start</title>
<path fill="none" stroke="#000000" d="M188.8209,-88.4006C188.8209,-76.2949 188.8209,-60.2076 188.8209,-46.4674"/>
<polygon fill="#000000" stroke="#000000" points="192.321,-46.072 188.8209,-36.072 185.321,-46.0721 192.321,-46.072"/>
<text text-anchor="middle" x="260.3476" y="-58.2" font-family="Times,serif" font-size="14.00" fill="#000000">Offset Frame Attachment</text>
</g>
</g>
</svg>