<?xml version="1.0" encoding="UTF-8" standalone="no"?>
<!DOCTYPE svg PUBLIC "-//W3C//DTD SVG 1.1//EN" "http://www.w3.org/Graphics/SVG/1.1/DTD/svg11.dtd">
<!-- Generated by graphviz version 2.40.1 (20161225.0304)
 -->
<!-- Title: G Pages: 1 -->
<svg width="397pt" height="754pt" viewBox="0.00 0.00 397.44 754.40" xmlns="http://www.w3.org/2000/svg" xmlns:xlink="http://www.w3.org/1999/xlink">
<g id="graph0" class="graph" transform="scale(1 1) rotate(0) translate(4 750.4)">
<title>G</title>
<polygon fill="#ffffff" stroke="transparent" points="-4,4 -4,-750.4 393.4444,-750.4 393.4444,4 -4,4"/>
<!-- start -->
<g id="node1" class="node">
<title>start</title>
<ellipse fill="none" stroke="#000000" cx="194.7222" cy="-18" rx="38.2876" ry="18"/>
<text text-anchor="middle" x="194.7222" y="-13.8" font-family="Times,serif" font-size="14.00" fill="#000000">ground</text>
</g>
<!-- end -->
<g id="node2" class="node">
<title>end</title>
<ellipse fill="none" stroke="#000000" cx="194.7222" cy="-728.4" rx="102.4794" ry="18"/>
<text text-anchor="middle" x="194.7222" y="-724.2" font-family="Times,serif" font-size="14.00" fill="#000000">pendulum_head (Body)</text>
</g>
<!-- pendulum_head_offset2 (PhysicalOffsetFrame) -->
<g id="node3" class="node">
<title>pendulum_head_offset2 (PhysicalOffsetFrame)</title>
<ellipse fill="none" stroke="#000000" cx="194.7222" cy="-639.6" rx="194.9447" ry="18"/>
<text text-anchor="middle" x="194.7222" y="-635.4" font-family="Times,serif" font-size="14.00" fill="#000000">pendulum_head_offset2 (PhysicalOffsetFrame)</text>
</g>
<!-- end&#45;&gt;pendulum_head_offset2 (PhysicalOffsetFrame) -->
<g id="edge1" class="edge">
<title>end-&gt;pendulum_head_offset2 (PhysicalOffsetFrame)</title>
<path fill="none" stroke="#000000" d="M194.7222,-710.0006C194.7222,-697.8949 194.7222,-681.8076 194.7222,-668.0674"/>
<polygon fill="#000000" stroke="#000000" points="198.2223,-667.672 194.7222,-657.672 191.2223,-667.6721 198.2223,-667.672"/>
<text text-anchor="middle" x="266.2489" y="-679.8" font-family="Times,serif" font-size="14.00" fill="#000000">Offset Frame Attachment</text>
</g>
<!-- pendulum_head_to_pendulum_base (PinJoint) -->
<g id="node4" class="node">
<title>pendulum_head_to_pendulum_base (PinJoint)</title>
<ellipse fill="none" stroke="#000000" cx="194.7222" cy="-550.8" rx="191.0086" ry="18"/>
<text text-anchor="middle" x="194.7222" y="-546.6" font-family="Times,serif" font-size="14.00" fill="#000000">pendulum_head_to_pendulum_base (PinJoint)</text>
</g>
<!-- pendulum_head_offset2 (PhysicalOffsetFrame)&#45;&gt;pendulum_head_to_pendulum_base (PinJoint) -->
<g id="edge2" class="edge">
<title>pendulum_head_offset2 (PhysicalOffsetFrame)-&gt;pendulum_head_to_pendulum_base (PinJoint)</title>
<path fill="none" stroke="#000000" d="M194.7222,-621.2006C194.7222,-609.0949 194.7222,-593.0076 194.7222,-579.2674"/>
<polygon fill="#000000" stroke="#000000" points="198.2223,-578.872 194.7222,-568.872 191.2223,-578.8721 198.2223,-578.872"/>
<text text-anchor="middle" x="269.387" y="-591" font-family="Times,serif" font-size="14.00" fill="#000000">PinJoint Child Attachment</text>
</g>
<!-- pendulum_base_offset2 (PhysicalOffsetFrame) -->
<g id="node5" class="node">
<title>pendulum_base_offset2 (PhysicalOffsetFrame)</title>
<ellipse fill="none" stroke="#000000" cx="194.7222" cy="-462" rx="193.7988" ry="18"/>
<text text-anchor="middle" x="194.7222" y="-457.8" font-family="Times,serif" font-size="14.00" fill="#000000">pendulum_base_offset2 (PhysicalOffsetFrame)</text>
</g>
<!-- pendulum_head_to_pendulum_base (PinJoint)&#45;&gt;pendulum_base_offset2 (PhysicalOffsetFrame) -->
<g id="edge3" class="edge">
<title>pendulum_head_to_pendulum_base (PinJoint)-&gt;pendulum_base_offset2 (PhysicalOffsetFrame)</title>
<path fill="none" stroke="#000000" d="M194.7222,-532.4006C194.7222,-520.2949 194.7222,-504.2076 194.7222,-490.4674"/>
<polygon fill="#000000" stroke="#000000" points="198.2223,-490.072 194.7222,-480.072 191.2223,-490.0721 198.2223,-490.072"/>
<text text-anchor="middle" x="271.7096" y="-502.2" font-family="Times,serif" font-size="14.00" fill="#000000">PinJoint Parent Attachment</text>
</g>
<!-- pendulum_base (Body) -->
<g id="node6" class="node">
<title>pendulum_base (Body)</title>
<ellipse fill="none" stroke="#000000" cx="194.7222" cy="-373.2" rx="101.3337" ry="18"/>
<text text-anchor="middle" x="194.7222" y="-369" font-family="Times,serif" font-size="14.00" fill="#000000">pendulum_base (Body)</text>
</g>
<!-- pendulum_base_offset2 (PhysicalOffsetFrame)&#45;&gt;pendulum_base (Body) -->
<g id="edge4" class="edge">
<title>pendulum_base_offset2 (PhysicalOffsetFrame)-&gt;pendulum_base (Body)</title>
<path fill="none" stroke="#000000" d="M194.7222,-443.6006C194.7222,-431.4949 194.7222,-415.4076 194.7222,-401.6674"/>
<polygon fill="#000000" stroke="#000000" points="198.2223,-401.272 194.7222,-391.272 191.2223,-401.2721 198.2223,-401.272"/>
<text text-anchor="middle" x="266.2489" y="-413.4" font-family="Times,serif" font-size="14.00" fill="#000000">Offset Frame Attachment</text>
</g>
<!-- pendulum_base_offset (PhysicalOffsetFrame) -->
<g id="node7" class="node">
<title>pendulum_base_offset (PhysicalOffsetFrame)</title>
<ellipse fill="none" stroke="#000000" cx="194.7222" cy="-284.4" rx="188.6419" ry="18"/>
<text text-anchor="middle" x="194.7222" y="-280.2" font-family="Times,serif" font-size="14.00" fill="#000000">pendulum_base_offset (PhysicalOffsetFrame)</text>
</g>
<!-- pendulum_base (Body)&#45;&gt;pendulum_base_offset (PhysicalOffsetFrame) -->
<g id="edge5" class="edge">
<title>pendulum_base (Body)-&gt;pendulum_base_offset (PhysicalOffsetFrame)</title>
<path fill="none" stroke="#000000" d="M194.7222,-354.8006C194.7222,-342.6949 194.7222,-326.6076 194.7222,-312.8674"/>
<polygon fill="#000000" stroke="#000000" points="198.2223,-312.472 194.7222,-302.472 191.2223,-312.4721 198.2223,-312.472"/>
<text text-anchor="middle" x="266.2489" y="-324.6" font-family="Times,serif" font-size="14.00" fill="#000000">Offset Frame Attachment</text>
</g>
<!-- pendulum_base_to_ground (WeldJoint) -->
<g id="node8" class="node">
<title>pendulum_base_to_ground (WeldJoint)</title>
<ellipse fill="none" stroke="#000000" cx="194.7222" cy="-195.6" rx="164.9229" ry="18"/>
<text text-anchor="middle" x="194.7222" y="-191.4" font-family="Times,serif" font-size="14.00" fill="#000000">pendulum_base_to_ground (WeldJoint)</text>
</g>
<!-- pendulum_base_offset (PhysicalOffsetFrame)&#45;&gt;pendulum_base_to_ground (WeldJoint) -->
<g id="edge6" class="edge">
<title>pendulum_base_offset (PhysicalOffsetFrame)-&gt;pendulum_base_to_ground (WeldJoint)</title>
<path fill="none" stroke="#000000" d="M194.7222,-266.0006C194.7222,-253.8949 194.7222,-237.8076 194.7222,-224.0674"/>
<polygon fill="#000000" stroke="#000000" points="198.2223,-223.672 194.7222,-213.672 191.2223,-223.6721 198.2223,-223.672"/>
<text text-anchor="middle" x="275.2103" y="-235.8" font-family="Times,serif" font-size="14.00" fill="#000000">WeldJoint Child Attachment</text>
</g>
<!-- ground_offset (PhysicalOffsetFrame) -->
<g id="node9" class="node">
<title>ground_offset (PhysicalOffsetFrame)</title>
<ellipse fill="none" stroke="#000000" cx="194.7222" cy="-106.8" rx="155.6344" ry="18"/>
<text text-anchor="middle" x="194.7222" y="-102.6" font-family="Times,serif" font-size="14.00" fill="#000000">ground_offset (PhysicalOffsetFrame)</text>
</g>
<!-- pendulum_base_to_ground (WeldJoint)&#45;&gt;ground_offset (PhysicalOffsetFrame) -->
<g id="edge7" class="edge">
<title>pendulum_base_to_ground (WeldJoint)-&gt;ground_offset (PhysicalOffsetFrame)</title>
<path fill="none" stroke="#000000" d="M194.7222,-177.2006C194.7222,-165.0949 194.7222,-149.0076 194.7222,-135.2674"/>
<polygon fill="#000000" stroke="#000000" points="198.2223,-134.872 194.7222,-124.872 191.2223,-134.8721 198.2223,-134.872"/>
<text text-anchor="middle" x="277.5329" y="-147" font-family="Times,serif" font-size="14.00" fill="#000000">WeldJoint Parent Attachment</text>
</g>
<!-- ground_offset (PhysicalOffsetFrame)&#45;&gt;start -->
<g id="edge8" class="edge">
<title>ground_offset (PhysicalOffsetFrame)-&gt;start</title>
<path fill="none" stroke="#000000" d="M194.7222,-88.4006C194.7222,-76.2949 194.7222,-60.2076 194.7222,-46.4674"/>
<polygon fill="#000000" stroke="#000000" points="198.2223,-46.072 194.7222,-36.072 191.2223,-46.0721 198.2223,-46.072"/>
<text text-anchor="middle" x="266.2489" y="-58.2" font-family="Times,serif" font-size="14.00" fill="#000000">Offset Frame Attachment</text>
</g>
</g>
</svg>