<?xml version="1.0" encoding="UTF-8" standalone="no"?>
<!-- Created with Inkscape (http://www.inkscape.org/) -->

<svg
   width="493.35223"
   height="104.00001"
   viewBox="0 0 493.35223 104.00001"
   version="1.1"
   id="svg1895"
   inkscape:version="1.2.2 (732a01da63, 2022-12-09)"
   sodipodi:docname="banner.svg"
   xmlns:inkscape="http://www.inkscape.org/namespaces/inkscape"
   xmlns:sodipodi="http://sodipodi.sourceforge.net/DTD/sodipodi-0.dtd"
   xmlns="http://www.w3.org/2000/svg"
   xmlns:svg="http://www.w3.org/2000/svg">
  <sodipodi:namedview
     id="namedview1897"
     pagecolor="#ffffff"
     bordercolor="#999999"
     borderopacity="1"
     inkscape:showpageshadow="0"
     inkscape:pageopacity="0"
     inkscape:pagecheckerboard="0"
     inkscape:deskcolor="#d1d1d1"
     inkscape:document-units="px"
     showgrid="false"
     inkscape:zoom="1"
     inkscape:cx="65.5"
     inkscape:cy="-40.5"
     inkscape:window-width="1920"
     inkscape:window-height="1058"
     inkscape:window-x="1193"
     inkscape:window-y="-6"
     inkscape:window-maximized="1"
     inkscape:current-layer="svg1895"
     showguides="true">
    <sodipodi:guide
       position="816.43187,-41.251771"
       orientation="1,0"
       id="guide518"
       inkscape:locked="false" />
  </sodipodi:namedview>
  <defs
     id="defs1892" />
  <g
     aria-label="OpenSim Creator"
     id="text8808"
     style="font-size:64.9008px;line-height:1.25;font-family:Bebas;-inkscape-font-specification:Bebas;letter-spacing:-4.49764px;word-spacing:-4.78166px;stroke-width:1.62252"
     transform="matrix(0.81250001,0,0,0.81250001,16.830357,-1.153519e-6)">
    <path
       d="m 153.2074,85.198714 q -6.55498,0 -10.90333,-2.920537 -4.34836,-2.920536 -6.49008,-8.242402 -2.14173,-5.386766 -2.14173,-12.785458 0,-7.33379 2.14173,-12.655656 2.20663,-5.321866 6.55498,-8.177501 4.34835,-2.920536 10.90333,-2.920536 9.80002,0 14.60268,6.425179 4.86756,6.360279 4.86756,17.393415 0,7.203989 -2.14172,12.590756 -2.14173,5.321866 -6.49008,8.307303 -4.34836,2.985437 -10.90334,2.985437 z m 0,-2.660933 q 5.32187,0 8.56691,-2.531132 3.24504,-2.531131 4.67286,-7.26889 1.49272,-4.802659 1.49272,-11.422541 0,-6.684782 -1.42782,-11.422541 -1.42782,-4.737759 -4.67286,-7.203989 -3.18014,-2.531131 -8.56691,-2.531131 -7.72319,0 -11.29274,5.581469 -3.56954,5.581469 -3.56954,15.576192 0,9.994724 3.56954,15.641094 3.56955,5.581469 11.22784,5.581469 z"
       style="font-weight:300;font-family:'Noto Serif';-inkscape-font-specification:'Noto Serif Light'"
       id="path545" />
    <path
       d="m 173.37213,100.1259 v -2.076828 h 1.16822 q 1.68742,0 2.72583,-0.324504 1.10331,-0.259603 1.62252,-1.298016 0.51921,-1.038412 0.51921,-3.24504 V 56.447658 q 0,-3.115239 -1.16822,-3.829147 -1.16821,-0.77881 -3.95895,-0.77881 h -1.75232 v -2.076826 h 10.44903 l 0.45431,6.230477 h 0.2596 q 1.29802,-2.985437 3.69935,-4.932461 2.46623,-1.947024 6.49008,-1.947024 6.49008,0 9.67022,4.283453 3.24504,4.283453 3.24504,13.434466 0,9.475518 -3.37485,13.953673 -3.37484,4.413255 -9.47551,4.413255 -3.95895,0 -6.49008,-1.752322 -2.53113,-1.817223 -3.89405,-4.932461 h -0.1947 q 0.0649,1.427818 0.1298,3.439742 0.0649,1.947024 0.0649,4.218553 v 7.203989 q 0,2.141726 0.51921,3.115238 0.5192,1.038413 1.62252,1.298016 1.10331,0.259603 2.79073,0.259603 h 1.29802 v 2.076828 z m 20.05435,-17.912623 q 4.60796,0 6.87949,-3.958949 2.27152,-3.958949 2.27152,-11.29274 0,-7.398692 -2.14172,-11.098037 -2.07683,-3.764247 -7.13909,-3.764247 -5.51657,0 -7.6583,3.894048 -2.07682,3.894049 -2.07682,10.773534 0,7.268889 2.14173,11.35764 2.14172,4.088751 7.72319,4.088751 z"
       style="font-weight:300;font-family:'Noto Serif';-inkscape-font-specification:'Noto Serif Light'"
       id="path547" />
    <path
       d="m 224.17002,85.198714 q -6.55498,0 -10.38413,-4.607957 -3.76425,-4.607957 -3.76425,-13.109963 0,-9.151013 3.50465,-13.694069 3.56954,-4.543056 10.05962,-4.543056 5.84107,0 9.21592,4.08875 3.37484,4.088751 3.37484,11.811947 V 67.15629 H 214.3051 q 0.0649,7.658295 2.79073,11.357641 2.79074,3.699346 7.6583,3.699346 3.50464,0 5.77617,-1.492719 2.33643,-1.492718 3.50464,-3.569544 0.90861,0.454306 0.90861,1.752322 0,1.233115 -1.23311,2.725833 -1.16822,1.427818 -3.56955,2.531132 -2.40133,1.038413 -5.97087,1.038413 z M 214.4349,64.560258 h 17.32851 q 0,-5.71127 -2.01192,-9.151013 -1.94703,-3.504643 -6.29538,-3.504643 -4.41325,0 -6.55498,3.374842 -2.14173,3.30994 -2.46623,9.280814 z"
       style="font-weight:300;font-family:'Noto Serif';-inkscape-font-specification:'Noto Serif Light'"
       id="path549" />
    <path
       d="M 237.19559,84.549706 V 82.47288 h 0.90861 q 2.79074,0 3.95895,-0.77881 1.23312,-0.778809 1.23312,-3.958949 V 56.447658 q 0,-3.115239 -1.16822,-3.829147 -1.16821,-0.77881 -3.63444,-0.77881 h -0.97352 v -2.076826 h 9.21592 l 0.5192,5.451668 h 0.32451 q 2.01192,-3.569544 4.47815,-4.737759 2.53114,-1.233115 5.90598,-1.233115 5.32186,0 8.0477,2.985437 2.72583,2.985437 2.72583,9.410616 v 16.095399 q 0,2.141727 0.45431,3.18014 0.4543,0.973512 1.49271,1.298016 1.10332,0.259603 2.98544,0.259603 h 0.64901 v 2.076826 h -9.73512 V 61.574821 q 0,-4.283453 -1.81722,-6.814584 -1.75233,-2.531131 -6.10068,-2.531131 -3.56954,0 -5.58147,1.62252 -1.94702,1.557619 -2.79073,4.153651 -0.84371,2.531132 -0.84371,5.386767 v 14.53778 q 0,3.115238 1.16821,3.829147 1.16822,0.713909 3.95895,0.713909 h 0.64901 v 2.076826 z"
       style="font-weight:300;font-family:'Noto Serif';-inkscape-font-specification:'Noto Serif Light'"
       id="path551" />
    <path
       d="m 287.99344,85.198714 q -6.29538,0 -9.41062,-2.596033 -3.11524,-2.660932 -3.11524,-6.425179 0,-1.557619 0.84371,-2.531131 0.84371,-0.973512 2.33643,-0.973512 0.0649,4.348353 2.40133,7.203989 2.40133,2.855635 7.26889,2.855635 4.60796,0 7.00929,-2.40133 2.40133,-2.401329 2.40133,-6.554981 0,-2.46623 -1.03842,-4.283453 -0.97351,-1.882123 -3.18014,-3.439742 -2.20662,-1.62252 -5.97087,-3.374842 -3.76425,-1.752322 -6.23048,-3.634445 -2.40133,-1.882123 -3.56954,-4.283453 -1.10332,-2.46623 -1.10332,-5.905973 0,-3.374842 1.62252,-5.905973 1.62252,-2.531131 4.47816,-3.958949 2.92054,-1.427818 6.68478,-1.427818 5.19207,0 8.2424,2.206628 3.05034,2.141726 3.05034,4.997362 0,1.68742 -0.90861,2.596032 -0.90861,0.84371 -2.53113,0.84371 0,-3.569544 -1.94702,-5.841072 -1.88213,-2.271528 -6.03578,-2.271528 -4.21855,0 -6.42518,2.336429 -2.14172,2.336429 -2.14172,5.970873 0,2.660933 0.97351,4.478156 0.97351,1.817222 2.98543,3.24504 2.07683,1.427818 5.38677,2.985437 3.43974,1.687421 6.10068,3.504643 2.66093,1.752322 4.21855,4.218552 1.55762,2.40133 1.55762,5.970874 0,5.64637 -3.69935,9.021212 -3.63444,3.374842 -10.25432,3.374842 z"
       style="font-weight:300;font-family:'Noto Serif';-inkscape-font-specification:'Noto Serif Light'"
       id="path553" />
    <path
       d="m 310.81898,42.623787 q -1.16822,0 -1.94703,-0.713909 -0.77881,-0.713909 -0.77881,-2.660933 0,-1.947024 0.77881,-2.660933 0.77881,-0.713908 1.94703,-0.713908 1.10331,0 1.88212,0.713908 0.77881,0.713909 0.77881,2.660933 0,1.947024 -0.77881,2.660933 -0.77881,0.713909 -1.88212,0.713909 z m -8.3073,41.925919 V 82.47288 h 1.29801 q 2.79074,0 3.95895,-0.713909 1.23312,-0.713909 1.23312,-3.829147 V 56.57746 q 0,-3.18014 -1.23312,-3.958949 -1.16821,-0.77881 -3.63444,-0.77881 h -0.64901 v -2.076826 h 9.67022 v 27.972246 q 0,3.18014 1.16821,3.958949 1.23312,0.77881 4.02385,0.77881 h 1.36292 v 2.076826 z"
       style="font-weight:300;font-family:'Noto Serif';-inkscape-font-specification:'Noto Serif Light'"
       id="path555" />
    <path
       d="M 318.00348,84.549706 V 82.47288 h 1.10332 q 1.88212,0 2.98543,-0.259603 1.10332,-0.324504 1.55762,-1.298016 0.45431,-1.038413 0.45431,-3.18014 V 56.447658 q 0,-3.115239 -1.10332,-3.829147 -1.10331,-0.77881 -3.56954,-0.77881 h -0.64901 v -2.076826 h 8.76161 l 0.51921,5.581469 h 0.3245 q 1.62252,-3.439742 4.08875,-4.737758 2.53113,-1.362917 5.71127,-1.362917 3.76425,0 6.03578,1.62252 2.27152,1.557619 3.24504,4.543056 h 0.3894 q 2.92054,-6.165576 10.18943,-6.165576 10.31922,0 10.31922,12.266252 v 16.2252 q 0,2.141727 0.45431,3.18014 0.51921,0.973512 1.62252,1.298016 1.10331,0.259603 2.92054,0.259603 h 0.3894 v 2.076826 h -9.54042 V 61.574821 q 0,-4.478155 -1.68742,-6.879485 -1.68742,-2.46623 -5.71127,-2.46623 -3.05034,0 -4.93246,1.427817 -1.81722,1.362917 -2.66093,3.699346 -0.77881,2.271528 -0.77881,5.127164 v 15.251688 q 0,2.141727 0.4543,3.18014 0.45431,0.973512 1.55762,1.298016 1.10332,0.259603 2.98544,0.259603 h 0.51921 v 2.076826 h -9.67022 V 61.574821 q 0,-4.478155 -1.68742,-6.879485 -1.68742,-2.46623 -5.84108,-2.46623 -2.98543,0 -4.86756,1.557619 -1.88212,1.557619 -2.79073,4.088751 -0.84371,2.531131 -0.84371,5.516568 v 14.53778 q 0,3.115238 1.16821,3.829147 1.23312,0.713909 4.02385,0.713909 h 0.71391 v 2.076826 z"
       style="font-weight:300;font-family:'Noto Serif';-inkscape-font-specification:'Noto Serif Light'"
       id="path557" />
    <path
       d="m 404.47978,44.050084 q -6.52811,0 -10.26751,4.626717 -3.7394,4.626717 -3.7394,12.771007 0,8.524569 3.58095,12.897767 3.61264,4.373199 10.42596,4.373199 2.94716,0 5.70417,-0.570417 2.75702,-0.602107 5.73587,-1.521113 v 6.496418 q -5.45066,2.05984 -12.35904,2.05984 -10.17244,0 -15.6231,-6.14783 -5.45065,-6.179519 -5.45065,-17.651243 0,-7.225285 2.63026,-12.644248 2.66194,-5.418964 7.66894,-8.30274 5.00699,-2.883776 11.75693,-2.883776 7.09853,0 13.1196,2.978846 l -2.72533,6.306279 q -2.34505,-1.109145 -4.97531,-1.933081 -2.59856,-0.855625 -5.48234,-0.855625 z"
       style="font-weight:600;font-family:'Open Sans';-inkscape-font-specification:'Open Sans Semi-Bold'"
       id="path559" />
    <path
       d="m 438.39024,48.86694 q 2.24998,0 3.70771,0.316898 l -0.72886,6.940077 q -1.58449,-0.380279 -3.29575,-0.380279 -4.46826,0 -7.25697,2.915466 -2.75702,2.915466 -2.75702,7.573873 v 18.316731 h -7.44711 V 49.500737 h 5.83093 l 0.98239,6.17952 h 0.38027 q 1.74295,-3.137295 4.53165,-4.975306 2.8204,-1.838011 6.05276,-1.838011 z"
       style="font-weight:600;font-family:'Open Sans';-inkscape-font-specification:'Open Sans Semi-Bold'"
       id="path561" />
    <path
       d="m 458.10365,85.183502 q -8.17598,0 -12.8027,-4.753476 -4.59503,-4.785167 -4.59503,-13.151286 0,-8.587948 4.27813,-13.499874 4.27813,-4.911926 11.75693,-4.911926 6.94008,0 10.96469,4.214749 4.02461,4.21475 4.02461,11.598484 v 4.02461 h -23.35542 q 0.15845,5.102065 2.75702,7.859082 2.59857,2.725326 7.32035,2.725326 3.10561,0 5.76756,-0.570417 2.69363,-0.602107 5.76755,-1.96477 v 6.05276 q -2.72533,1.299284 -5.51404,1.838011 -2.7887,0.538727 -6.36965,0.538727 z m -1.36267,-30.67577 q -3.54926,0 -5.70417,2.249979 -2.12322,2.249979 -2.53519,6.559798 h 15.9083 q -0.0634,-4.341508 -2.09152,-6.559798 -2.02816,-2.249979 -5.57742,-2.249979 z"
       style="font-weight:600;font-family:'Open Sans';-inkscape-font-specification:'Open Sans Semi-Bold'"
       id="path563" />
    <path
       d="m 497.62319,84.549706 -1.48943,-4.880237 h -0.25352 q -2.53518,3.200675 -5.10206,4.373199 -2.56688,1.140834 -6.59149,1.140834 -5.16544,0 -8.08091,-2.788706 -2.88378,-2.788706 -2.88378,-7.890771 0,-5.418964 4.02462,-8.17598 4.02461,-2.757017 12.26397,-3.010536 l 6.05276,-0.190139 v -1.869701 q 0,-3.359123 -1.5845,-5.006995 -1.5528,-1.679562 -4.84854,-1.679562 -2.69364,0 -5.16545,0.792246 -2.47181,0.792246 -4.75347,1.869701 l -2.40843,-5.323894 q 2.85208,-1.489423 6.2429,-2.249979 3.39081,-0.792246 6.40135,-0.792246 6.68655,0 10.07737,2.915466 3.4225,2.915465 3.4225,9.158365 V 84.549706 Z M 486.53174,79.47933 q 4.0563,0 6.49642,-2.249979 2.47181,-2.281669 2.47181,-6.369659 v -3.042225 l -4.49996,0.190139 q -5.26052,0.190139 -7.66894,1.774632 -2.37674,1.552802 -2.37674,4.785166 0,2.345049 1.39435,3.644333 1.39435,1.267593 4.18306,1.267593 z"
       style="font-weight:600;font-family:'Open Sans';-inkscape-font-specification:'Open Sans Semi-Bold'"
       id="path565" />
    <path
       d="m 521.89993,79.162432 q 2.72533,0 5.45065,-0.855626 v 5.609103 q -1.2359,0.538727 -3.20067,0.887315 -1.93308,0.380278 -4.02461,0.380278 -10.58441,0 -10.58441,-11.154825 V 55.141529 h -4.78516 v -3.295744 l 5.13375,-2.725326 2.53519,-7.415424 h 4.59503 v 7.795702 h 9.9823 v 5.640792 h -9.9823 v 18.760389 q 0,2.693636 1.33097,3.99292 1.36266,1.267594 3.54926,1.267594 z"
       style="font-weight:600;font-family:'Open Sans';-inkscape-font-specification:'Open Sans Semi-Bold'"
       id="path567" />
    <path
       d="m 560.94415,66.961842 q 0,8.587948 -4.40489,13.404804 -4.40489,4.816856 -12.26397,4.816856 -4.91193,0 -8.68302,-2.218289 -3.77109,-2.218289 -5.79924,-6.369659 -2.02815,-4.151369 -2.02815,-9.633712 0,-8.524569 4.3732,-13.309735 4.3732,-4.785167 12.32735,-4.785167 7.60556,0 12.04214,4.911926 4.43658,4.880236 4.43658,13.182976 z m -25.51033,0 q 0,12.13721 8.96823,12.13721 8.87316,0 8.87316,-12.13721 0,-12.010452 -8.93654,-12.010452 -4.6901,0 -6.81332,3.105605 -2.09153,3.105605 -2.09153,8.904847 z"
       style="font-weight:600;font-family:'Open Sans';-inkscape-font-specification:'Open Sans Semi-Bold'"
       id="path569" />
    <path
       d="m 582.78075,48.86694 q 2.24997,0 3.70771,0.316898 l -0.72887,6.940077 q -1.58449,-0.380279 -3.29574,-0.380279 -4.46827,0 -7.25698,2.915466 -2.75701,2.915466 -2.75701,7.573873 v 18.316731 h -7.44712 V 49.500737 h 5.83093 l 0.98239,6.17952 h 0.38028 q 1.74294,-3.137295 4.53164,-4.975306 2.8204,-1.838011 6.05277,-1.838011 z"
       style="font-weight:600;font-family:'Open Sans';-inkscape-font-specification:'Open Sans Semi-Bold'"
       id="path571" />
  </g>
  <text
     xml:space="preserve"
     style="font-size:64.9008px;line-height:1.25;font-family:Bebas;-inkscape-font-specification:Bebas;letter-spacing:-4.49764px;word-spacing:-4.78166px;display:none;stroke-width:1.62252"
     x="72.404808"
     y="72.549706"
     id="text526"><tspan
       sodipodi:role="line"
       id="tspan524"
       style="font-style:normal;font-variant:normal;font-weight:normal;font-stretch:normal;font-family:'Open Sans';-inkscape-font-specification:'Open Sans';stroke-width:1.62252"
       x="-18.975084"
       y="-4.0000005"><tspan
   style="font-style:normal;font-variant:normal;font-weight:300;font-stretch:normal;font-family:'Noto Serif';-inkscape-font-specification:'Noto Serif Light';fill:#000000;stroke-width:1.62252"
   id="tspan520">OpenSim</tspan> <tspan
   style="font-style:normal;font-variant:normal;font-weight:600;font-stretch:normal;font-family:'Open Sans';-inkscape-font-specification:'Open Sans Semi-Bold';stroke-width:1.62252"
   id="tspan522">Creator</tspan></tspan></text>
  <g
     id="g4360"
     transform="matrix(0.87931034,0,0,0.87931034,-3.6645731,-6.0344818)"
     style="stroke-width:1.13725">
    <path
       id="path4312"
       style="opacity:1;fill:#ffd42a;fill-opacity:1;stroke:none;stroke-width:9.09804;stroke-linejoin:bevel;stroke-dasharray:none;stroke-opacity:1"
       d="m 64.451172,8 a 55.999998,55.999998 0 0 0 -4,0.2871094 c -13.598617,1.9314646 -24,13.5664006 -24,27.7128906 0,5.13657 1.393362,9.927659 3.791016,14.058594 l 2.550781,4 c -0.377619,-0.650603 -0.720548,-1.323761 -1.046875,-2.00586 -0.08268,-0.172887 -0.162931,-0.346666 -0.242188,-0.521484 -0.261737,-0.577003 -0.503234,-1.164679 -0.726562,-1.761719 -0.0364,-0.0974 -0.0838,-0.189198 -0.119141,-0.287109 a 27.999999,27.999999 0 0 1 0.0059,-0.0078 C 39.596039,46.517878 39,43.334063 39,40 39,25.853426 49.401306,14.218586 63,12.287109 A 55.999998,55.999998 0 0 1 67,12 55.999998,55.999998 0 0 1 112.85352,36.097656 55.999998,55.999998 0 0 0 64.451172,8 Z M 35.728516,16.041016 A 55.999998,55.999998 0 0 0 8.4511719,64 55.999998,55.999998 0 0 0 18.689453,96.076172 55.999998,55.999998 0 0 1 11,68 55.999998,55.999998 0 0 1 31.212891,25.082031 c 0.004,-0.01209 0.0058,-0.02502 0.0098,-0.03711 a 55.999998,55.999998 0 0 1 0.148438,-0.115234 55.999998,55.999998 0 0 1 0.617187,-0.472657 55.999998,55.999998 0 0 1 6.291016,-4.416015 z m 53.353515,34.908203 a 27.999999,27.999999 0 0 1 0.949219,1.68164 l 0.232422,-0.103515 a 27.999999,27.999999 0 0 0 -1.181641,-1.578125 z m -52.847656,5.666015 c 0.322219,0.593234 0.668578,1.170104 1.023437,1.742188 0.338914,0.549919 0.689301,1.092149 1.054688,1.623047 0.459782,0.657584 0.929061,1.307901 1.431641,1.93164 l -2.550782,-4 C 36.856258,57.493741 36.552373,57.048985 36.234375,56.615234 Z M 88.712891,77.71875 A 27.999999,27.999999 0 0 1 64.451172,92 27.999999,27.999999 0 0 1 42.347656,80.990234 27.999999,27.999999 0 0 0 67,96 27.999999,27.999999 0 0 0 91.261719,81.71875 Z m 8.099609,0.664062 c 1.782929,4.191676 2.796875,8.784414 2.796875,13.617188 0,7.35017 -2.286203,14.17651 -6.177734,19.81641 l 2.548828,4 c 1.927688,-2.79375 3.442252,-5.88483 4.496091,-9.18164 a 55.999998,55.999998 0 0 0 0.0352,-0.0332 c 1.06853,-3.34551 1.64648,-6.90753 1.64648,-10.60156 0,-4.832804 -1.01393,-9.425488 -2.796872,-13.617188 l 14.947262,6.642579 3.75977,1.671875 -2.55078,-4 z" />
    <path
       id="path3929"
       style="opacity:1;fill:#ff6600;fill-opacity:1;stroke:none;stroke-width:9.09804;stroke-linejoin:bevel;stroke-dasharray:none;stroke-opacity:1"
       d="M 66.999999,12.000001 A 55.999998,55.999998 0 0 0 63.000976,12.28711 C 49.402268,14.218589 38.999999,25.853412 38.999999,40 c 0,5.136605 1.394569,9.927141 3.792237,14.058104 A 27.999999,27.999999 0 0 1 66.999999,40 27.999999,27.999999 0 0 1 92.580076,56.630126 L 118.15844,45.263671 A 55.999998,55.999998 0 0 0 66.999999,12.000001 Z M 38.278808,20.040772 A 55.999998,55.999998 0 0 0 11,67.999999 55.999998,55.999998 0 0 0 66.999999,124 v -0.004 c 0.01202,7e-5 0.02394,-2.7e-4 0.03589,0 a 55.999998,55.999998 0 0 0 4.328857,-0.30932 c 13.497931,-2.01887 23.794186,-13.61187 23.794186,-27.687178 0,-5.223999 -1.422611,-10.102492 -3.896484,-14.280272 a 27.999999,27.999999 0 0 1 -24.262449,14.280768 27.999999,27.999999 0 0 1 -28,-27.999999 27.999999,27.999999 0 0 1 0.743408,-6.087402 C 34.905578,55.90848 32,48.286881 32,40 32,32.587536 34.326839,25.708039 38.278808,20.040772 Z m 61.082523,62.342039 c 1.782939,4.191704 2.797599,8.784378 2.797599,13.617187 0,7.350222 -2.286416,14.177482 -6.177975,19.817382 A 55.999998,55.999998 0 0 0 118.06786,90.69702 Z" />
  </g>
</svg>
