<?xml version="1.0" encoding="UTF-8" standalone="no"?>
<svg
   width="128"
   height="128"
   viewBox="0 0 128 128"
   version="1.1"
   id="svg311"
   sodipodi:docname="chanzuckerberg_logo.svg"
   inkscape:version="1.2.2 (732a01da63, 2022-12-09)"
   xmlns:inkscape="http://www.inkscape.org/namespaces/inkscape"
   xmlns:sodipodi="http://sodipodi.sourceforge.net/DTD/sodipodi-0.dtd"
   xmlns:xlink="http://www.w3.org/1999/xlink"
   xmlns="http://www.w3.org/2000/svg"
   xmlns:svg="http://www.w3.org/2000/svg"
   xmlns:rdf="http://www.w3.org/1999/02/22-rdf-syntax-ns#"
   xmlns:cc="http://creativecommons.org/ns#"
   xmlns:dc="http://purl.org/dc/elements/1.1/">
  <sodipodi:namedview
     id="namedview313"
     pagecolor="#ffffff"
     bordercolor="#999999"
     borderopacity="1"
     inkscape:showpageshadow="0"
     inkscape:pageopacity="0"
     inkscape:pagecheckerboard="0"
     inkscape:deskcolor="#d1d1d1"
     showgrid="false"
     inkscape:zoom="4.9166667"
     inkscape:cx="75.864407"
     inkscape:cy="63.966102"
     inkscape:window-width="1920"
     inkscape:window-height="1058"
     inkscape:window-x="1193"
     inkscape:window-y="-6"
     inkscape:window-maximized="1"
     inkscape:current-layer="svg311" />
  <!-- Generator: Sketch 52.2 (67145) - http://www.bohemiancoding.com/sketch -->
  <title
     id="title296">nav / elements / czi_mark_red</title>
  <desc
     id="desc298">Created with Sketch.</desc>
  <defs
     id="defs301">
    <polygon
       id="path-1"
       points="0,0 192,0 192,192 0,192 " />
  </defs>
  <g
     id="nav-/-elements-/-czi_mark_red"
     stroke="none"
     stroke-width="1"
     fill="none"
     fill-rule="evenodd"
     transform="scale(0.66666667)">
    <g
       id="czi_mark">
      <mask
         id="mask-2"
         fill="#ffffff">
        <use
           xlink:href="#path-1"
           id="use303" />
      </mask>
      <g
         id="Clip-2" />
      <path
         d="M 69.793371,96.085679 C 56.904554,96.351426 47.239429,87.862493 46.342904,75.315623 c -0.477731,-6.671066 1.767831,-13.045886 6.319875,-17.926761 4.556862,-4.888783 10.765097,-7.623067 17.481098,-7.678702 3.398803,-0.0305 6.993119,0.658296 10.069185,1.984771 0,0 -0.838154,7.005156 -1.114989,10.159665 l 10.592252,0.06072 1.902423,-15.774804 -2.981993,-1.881127 c -5.57041,-3.405006 -11.986909,-5.205081 -18.563217,-5.146905 -9.563686,0.08359 -18.771765,4.109052 -25.261935,11.068458 -6.583959,7.063332 -9.827769,16.243321 -9.139224,25.866409 0.609489,8.541744 4.295328,16.331715 10.371521,21.944595 6.154681,5.686018 14.440451,8.749308 23.396913,8.673348 0.218465,-0.002 0.439479,-0.008 0.660493,-0.015 5.430718,-0.14177 11.547431,-1.1672 18.279016,-3.82551 L 96,88.037304 c 0,0 -0.154993,-0.341715 -1.23938,0.410058 -6.576592,4.559494 -14.270724,7.417756 -24.967249,7.638317 z"
         id="Fill-1"
         fill="#ff414b"
         mask="url(#mask-2)" />
      <path
         d="m 128.26426,140.83016 c -0.53319,5.62267 -3.45173,10.26427 -7.82673,12.57385 -3.47389,1.83391 -7.27023,1.8238 -10.69165,-0.0328 -3.55977,-1.93718 -5.24775,-4.83775 -5.88169,-8.50305 -1.00128,-5.81406 2.30452,-11.87676 6.80776,-14.93337 l 70.37709,-45.783737 c 0.536,3.87408 0.82028,7.828981 0.82028,11.848987 0,47.38388 -38.52073,85.93216 -85.86946,85.93216 -47.348171,0 -85.868897,-38.54828 -85.868897,-85.93216 0,-47.383599 38.520726,-85.934409 85.868897,-85.934409 35.40631,0 65.85673,21.567159 78.97358,52.253911 l 8.58891,-5.580022 C 168.526,23.330911 134.94826,0 95.99986,0 43.064099,0 0,43.064162 0,96 0,148.93331 43.064099,192 95.99986,192 148.93338,192 192,148.93331 192,96 c 0,-6.110691 -0.58118,-12.087802 -1.67788,-17.884188 -0.66172,-3.79382 -2.11088,-8.822686 -2.3497,-9.637913 l -19.99224,12.505658 -26.47083,16.759989 c -0.93337,-3.522171 -3.06418,-7.089523 -7.58482,-9.142322 -5.35326,-2.430245 -14.02271,-0.558452 -20.38484,3.059133 0,0 17.42393,-33.713051 20.3144,-39.255188 0.18887,-0.359766 -0.0777,-0.784918 -0.48548,-0.782393 l -1.0692,0.0101 -31.51456,-0.02526 -1.308006,10.89541 4.928396,-0.0174 h 12.72677 L 92.186121,110.25145 c -0.485487,0.93113 0.520846,1.93213 1.456742,1.44917 L 106.95587,104.624 c 6.42779,-3.29795 17.12731,-10.065309 22.41771,-6.150819 0.76977,0.568273 1.75589,2.072729 1.81903,3.650419 0.0275,0.61093 -0.28175,1.19464 -0.79277,1.53672 l -26.55838,17.94481 C 95.215223,127.7711 91.841509,136.94598 92.641581,145.6 c 0.669017,7.27558 5.197517,13.54483 11.919409,17.19777 3.52469,1.91698 7.33843,2.81976 11.1474,2.71425 3.3406,-0.0932 6.67671,-0.96593 9.80599,-2.61883 7.57248,-4.00233 12.61144,-11.77855 13.487,-20.81508 l 2.13839,-24.29936 -11.60258,8.61895 z"
         id="Fill-3"
         fill="#ff414b"
         mask="url(#mask-2)" />
    </g>
  </g>
  <metadata
     id="metadata432">
    <rdf:RDF>
      <cc:Work
         rdf:about="">
        <dc:title>nav / elements / czi_mark_red</dc:title>
      </cc:Work>
    </rdf:RDF>
  </metadata>
</svg>
